<svg width="30" height="39" viewBox="0 0 30 39" fill="none" xmlns="http://www.w3.org/2000/svg">
<path d="M7.17587 25.6765L5.58333 37.6667L13.9954 32.6194C14.2698 32.4548 14.4069 32.3725 14.5534 32.3403C14.6829 32.3119 14.8171 32.3119 14.9466 32.3403C15.0931 32.3725 15.2302 32.4548 15.5046 32.6194L23.9167 37.6667L22.3252 25.6714M22.8641 5.12295C23.1473 5.80773 23.6907 6.35205 24.3751 6.63622L26.7747 7.63022C27.4595 7.91389 28.0036 8.45799 28.2873 9.14283C28.5709 9.82767 28.5709 10.5971 28.2873 11.282L27.294 13.68C27.0102 14.3651 27.0098 15.1354 27.2949 15.8202L28.2864 18.2175C28.427 18.5567 28.4995 18.9202 28.4995 19.2874C28.4996 19.6546 28.4273 20.0182 28.2868 20.3575C28.1463 20.6967 27.9403 21.0049 27.6806 21.2645C27.4209 21.5241 27.1127 21.73 26.7734 21.8704L24.3755 22.8637C23.6907 23.1468 23.1464 23.6903 22.8623 24.3747L21.8683 26.7744C21.5846 27.4592 21.0406 28.0033 20.3557 28.287C19.6709 28.5707 18.9015 28.5707 18.2167 28.287L15.8188 27.2937C15.1339 27.0108 14.3648 27.0113 13.6804 27.2953L11.2807 28.2879C10.5963 28.5709 9.82751 28.5707 9.14326 28.2872C8.459 28.0038 7.91522 27.4603 7.63137 26.7762L6.63711 24.3758C6.35398 23.691 5.8105 23.1467 5.12616 22.8625L2.72654 21.8685C2.04202 21.585 1.4981 21.0412 1.21434 20.3568C0.930574 19.6723 0.930189 18.9032 1.21327 18.2185L2.20651 15.8205C2.48947 15.1356 2.4889 14.3664 2.20491 13.682L1.21309 11.2806C1.07247 10.9414 1.00006 10.5778 1 10.2106C0.999941 9.84343 1.07223 9.47983 1.21274 9.1406C1.35326 8.80136 1.55923 8.49313 1.81891 8.23353C2.07858 7.97394 2.38686 7.76805 2.72613 7.62764L5.12403 6.63436C5.8082 6.35146 6.35217 5.80865 6.63654 5.12508L7.6305 2.72536C7.91416 2.04052 8.45824 1.49642 9.14306 1.21275C9.82787 0.929083 10.5973 0.929083 11.2821 1.21275L13.68 2.20603C14.3649 2.48901 15.134 2.48843 15.8185 2.20443L18.2191 1.21429C18.9038 0.930782 19.6731 0.93084 20.3578 1.21445C21.0425 1.49807 21.5865 2.04201 21.8702 2.72668L22.8644 5.1271L22.8641 5.12295Z" stroke="white" stroke-width="2" stroke-linecap="round" stroke-linejoin="round"/>
</svg>
