<svg width="70" height="70" viewBox="0 0 70 70" fill="none" xmlns="http://www.w3.org/2000/svg">
<path d="M23.333 30.625H37.9163" stroke="#FFCC29" stroke-width="4" stroke-linecap="round" stroke-linejoin="round"/>
<path d="M23.333 39.375H34.9997" stroke="#FFCC29" stroke-width="4" stroke-linecap="round" stroke-linejoin="round"/>
<path d="M43.75 23.3333C41.9218 21.5019 39.6495 20.4166 37.1869 20.4166C31.1465 20.4166 26.25 26.9458 26.25 35C26.25 43.054 31.1465 49.5833 37.1869 49.5833C39.6495 49.5833 41.9218 48.498 43.75 46.6666" stroke="#FFCC29" stroke-width="4" stroke-linecap="round"/>
<path d="M8.75 35C8.75 13.3831 13.3831 8.75 35 8.75C56.6169 8.75 61.25 13.3831 61.25 35C61.25 56.6169 56.6169 61.25 35 61.25C13.3831 61.25 8.75 56.6169 8.75 35Z" stroke="#FFCC29" stroke-width="4"/>
</svg>
