<svg width="20" height="20" viewBox="0 0 20 20" fill="none" xmlns="http://www.w3.org/2000/svg">
<path fill-rule="evenodd" clip-rule="evenodd" d="M0.740234 3.88876C0.740234 1.84326 2.39844 0.185059 4.44394 0.185059H15.555C17.6005 0.185059 19.2588 1.84326 19.2588 3.88876V14.9999C19.2588 17.0453 17.6005 18.7036 15.555 18.7036H4.44394C2.39844 18.7036 0.740234 17.0453 0.740234 14.9999V3.88876ZM4.44394 2.03691C3.42119 2.03691 2.59209 2.86601 2.59209 3.88876V14.9999C2.59209 16.0227 3.42119 16.8517 4.44394 16.8517H9.99949V10.3702H9.07357C8.56218 10.3702 8.14764 9.95571 8.14764 9.44432C8.14764 8.93293 8.56218 8.51839 9.07357 8.51839H9.99949V7.1295C9.99949 5.33969 11.4504 3.88876 13.2402 3.88876H13.7958C14.3072 3.88876 14.7217 4.30332 14.7217 4.81469C14.7217 5.32606 14.3072 5.74061 13.7958 5.74061H13.2402C12.4732 5.74061 11.8513 6.36244 11.8513 7.1295V8.51839H13.7958C14.3072 8.51839 14.7217 8.93293 14.7217 9.44432C14.7217 9.95571 14.3072 10.3702 13.7958 10.3702H11.8513V16.8517H15.555C16.5778 16.8517 17.4069 16.0227 17.4069 14.9999V3.88876C17.4069 2.86601 16.5778 2.03691 15.555 2.03691H4.44394Z" fill="white"/>
</svg>
