<svg width="70" height="70" viewBox="0 0 70 70" fill="none" xmlns="http://www.w3.org/2000/svg">
<path d="M34.9997 64.1666C51.108 64.1666 64.1663 51.1082 64.1663 34.9999C64.1663 18.8916 51.108 5.83325 34.9997 5.83325C18.8914 5.83325 5.83301 18.8916 5.83301 34.9999C5.83301 51.1082 18.8914 64.1666 34.9997 64.1666Z" stroke="#FFCC29" stroke-width="4" stroke-linecap="round"/>
<path d="M22.9873 45.9546C24.4243 47.1991 26.3177 48.0983 28.3581 48.6872C30.4215 49.2828 32.7084 49.5832 35.0004 49.5832C37.2923 49.5832 39.5792 49.2828 41.6428 48.6872C43.683 48.0983 45.5765 47.1991 47.0135 45.9546" stroke="#FFCC29" stroke-width="4" stroke-linecap="round"/>
<path d="M26.2503 32.8124C28.2639 32.8124 29.8962 31.1801 29.8962 29.1666C29.8962 27.153 28.2639 25.5208 26.2503 25.5208C24.2368 25.5208 22.6045 27.153 22.6045 29.1666C22.6045 31.1801 24.2368 32.8124 26.2503 32.8124Z" fill="#FFCC29"/>
<path d="M43.7503 32.8124C45.7639 32.8124 47.3962 31.1801 47.3962 29.1666C47.3962 27.153 45.7639 25.5208 43.7503 25.5208C41.7368 25.5208 40.1045 27.153 40.1045 29.1666C40.1045 31.1801 41.7368 32.8124 43.7503 32.8124Z" fill="#FFCC29"/>
</svg>
