<svg width="39" height="47" viewBox="0 0 39 47" fill="none" xmlns="http://www.w3.org/2000/svg">
<g clip-path="url(#clip0_1225_3556)">
<path fill-rule="evenodd" clip-rule="evenodd" d="M1.78835 22.305V7.80112C1.78835 7.45378 2.39209 7.42562 2.7397 7.30827L6.06943 6.2287C8.89603 5.24769 12.1709 4.33709 14.9929 3.36077L19.4981 1.94793C19.7862 1.94324 23.3767 3.14955 23.9347 3.342C25.4623 3.86301 26.9305 4.27137 28.4307 4.78769L35.1176 6.91869C35.7488 7.12991 37.2078 7.47725 37.2078 7.80112V22.305C37.2078 27.9751 35.6985 32.5375 32.5974 36.7573C31.6141 38.095 29.6153 40.165 28.2112 41.1601C27.676 41.5356 27.2827 41.8501 26.7155 42.1974C25.1467 43.1503 21.2681 45.07 19.4981 45.07C17.8332 45.07 13.7671 43.1033 12.3355 42.2303C10.2682 40.9676 8.54842 39.3013 6.95217 37.4754L5.9002 36.0767C3.15592 32.0916 1.78378 27.5715 1.78378 22.3097L1.78835 22.305ZM0 6.79195V23.6803C0 27.0082 0.933054 30.5333 2.2686 33.3777C3.77795 36.5977 5.85446 39.583 8.62618 41.8172C10.7255 43.5117 12.6786 44.8494 15.2856 45.8163C16.0723 46.1074 18.6291 46.9992 19.4112 46.9992C20.4357 46.9992 22.7592 46.2153 23.5916 45.8727C26.5646 44.6429 29.3775 42.9672 31.6461 40.6438C32.7758 39.4844 33.1509 39.1652 34.148 37.7946C36.1833 34.9971 37.5966 32.0447 38.397 28.5666C38.6943 27.2664 39.0053 25.3842 39.0053 23.7742V6.79195C39.0053 6.02217 37.9671 5.86258 37.0066 5.5387C36.1238 5.24299 35.3554 5.04116 34.4773 4.73606C31.4357 3.67995 27.612 2.55344 24.5247 1.54896C23.9621 1.3659 20.0058 0 19.5072 0C19.0499 0 17.5588 0.577339 17.0008 0.732235C16.5663 0.854275 16.2278 0.981008 15.7842 1.1359L9.50892 3.14016C7.34094 3.75505 4.33596 4.89096 2.08565 5.52462C1.21206 5.7734 0.00914759 6.02686 0.00914759 6.79195H0Z" fill="#555555"/>
<path fill-rule="evenodd" clip-rule="evenodd" d="M5.00781 10.4625V23.6803C5.00781 29.7588 8.73088 36.1424 13.8124 39.3389C14.7226 39.9115 15.4681 40.3011 16.4606 40.7517C17.0232 41.0052 18.9579 41.7656 19.4976 41.7656C20.5953 41.7656 24.1263 40.0758 25.2423 39.306C26.5001 38.4377 26.6556 38.5738 26.6556 37.5412C26.6556 37.4989 26.2897 36.3067 25.0456 37.1703C23.6918 38.1138 23.1841 38.4142 21.5832 39.1277L19.5022 39.8364C19.2186 39.8364 17.1558 39.0432 16.7899 38.8601C13.6065 37.2877 10.7708 34.8422 9.06934 31.6363L7.90303 29.0735C7.23525 27.3697 6.80531 24.943 6.80531 22.582V11.5656C6.80531 11.2558 7.63775 11.0915 8.23691 10.9225L19.4198 7.34114C19.9138 7.34114 20.6365 7.66032 21.039 7.78705L31.5267 11.1619C31.8606 11.2699 32.2082 11.237 32.2082 11.5656V22.3989C32.2082 24.5581 31.9246 26.5435 31.394 28.1723C31.1013 29.0641 30.8863 29.7119 30.4793 30.538C30.3146 30.8666 30.0265 31.3125 30.1088 31.7067C30.2963 32.5986 31.4215 32.8614 31.8834 31.8851C33.0863 29.3504 33.9965 26.7078 33.9965 23.6803V10.4625C33.9965 9.86172 32.9491 9.61295 32.5283 9.49091L26.0473 7.42094C25.1965 7.144 19.8086 5.36035 19.5067 5.36035C19.2735 5.36035 18.0157 5.78279 17.6635 5.90483C14.6311 6.95625 11.4477 7.83869 8.40614 8.8901C7.74752 9.11541 5.52008 9.70683 5.23193 10.0354C5.15417 10.1246 5.02153 10.3358 5.02153 10.4578L5.00781 10.4625Z" fill="#555555"/>
<path fill-rule="evenodd" clip-rule="evenodd" d="M17.911 28.1112L13.2137 23.3376L14.8649 21.5915C15.5372 22.0468 17.0969 24.2341 17.8836 24.2341C18.4141 24.2341 20.5593 21.8074 21.0349 21.3192L24.0536 18.2683L25.7734 19.9909L17.9019 28.1159L17.911 28.1112ZM17.8882 21.845L16.6852 20.695C16.6487 20.6621 16.5389 20.5542 16.5023 20.5166C16.3697 20.3852 16.2965 20.3054 16.1913 20.1974L15.8848 19.8689C15.8711 19.8548 15.8528 19.836 15.8391 19.8219C14.9243 18.9583 14.6453 19.1601 13.7992 20.0331L11.8324 22.0515C10.6707 23.2437 10.721 23.4362 11.8782 24.6237L15.0981 27.9281C15.8208 28.6698 16.484 29.3457 17.1975 30.0873C18.0894 31.0167 18.7938 29.8761 19.6628 28.9796L27.0861 21.3615C28.2295 20.188 28.385 19.9862 27.2187 18.7893L25.2977 16.8179C24.415 15.912 24.0582 15.5505 23.1069 16.5409L17.8973 21.8403L17.8882 21.845Z" fill="#555555"/>
<path fill-rule="evenodd" clip-rule="evenodd" d="M27.8184 34.9735C27.8184 36.1235 29.6067 36.3347 29.6067 34.8796C29.6067 33.7531 27.8184 33.7719 27.8184 34.9735Z" fill="#555555"/>
</g>
<defs>
<clipPath id="clip0_1225_3556">
<rect width="39" height="47" fill="white"/>
</clipPath>
</defs>
</svg>
