<svg width="20" height="20" viewBox="0 0 20 20" fill="none" xmlns="http://www.w3.org/2000/svg">
<g clip-path="url(#clip0_1324_2084)">
<path fill-rule="evenodd" clip-rule="evenodd" d="M10 15C12.7614 15 15 12.7614 15 10C15 7.23857 12.7614 5 10 5C7.23857 5 5 7.23857 5 10C5 12.7614 7.23857 15 10 15ZM10 13.3333C11.8409 13.3333 13.3333 11.8409 13.3333 10C13.3333 8.15905 11.8409 6.66667 10 6.66667C8.15905 6.66667 6.66667 8.15905 6.66667 10C6.66667 11.8409 8.15905 13.3333 10 13.3333Z" fill="white"/>
<path d="M15.0003 4.1665C14.5401 4.1665 14.167 4.5396 14.167 4.99984C14.167 5.46007 14.5401 5.83317 15.0003 5.83317C15.4606 5.83317 15.8337 5.46007 15.8337 4.99984C15.8337 4.5396 15.4606 4.1665 15.0003 4.1665Z" fill="white"/>
<path fill-rule="evenodd" clip-rule="evenodd" d="M1.37797 3.56355C0.833008 4.6331 0.833008 6.03324 0.833008 8.8335V11.1668C0.833008 13.9671 0.833008 15.3672 1.37797 16.4367C1.85734 17.3776 2.62224 18.1425 3.56306 18.6218C4.63262 19.1668 6.03275 19.1668 8.83301 19.1668H11.1663C13.9666 19.1668 15.3668 19.1668 16.4363 18.6218C17.3771 18.1425 18.142 17.3776 18.6213 16.4367C19.1663 15.3672 19.1663 13.9671 19.1663 11.1668V8.8335C19.1663 6.03324 19.1663 4.6331 18.6213 3.56355C18.142 2.62273 17.3771 1.85783 16.4363 1.37846C15.3668 0.833496 13.9666 0.833496 11.1663 0.833496H8.83301C6.03275 0.833496 4.63262 0.833496 3.56306 1.37846C2.62224 1.85783 1.85734 2.62273 1.37797 3.56355ZM11.1663 2.50016H8.83301C7.40537 2.50016 6.43488 2.50146 5.68474 2.56275C4.95404 2.62245 4.58037 2.73065 4.31971 2.86347C3.6925 3.18305 3.18257 3.69299 2.86298 4.3202C2.73017 4.58086 2.62196 4.95453 2.56226 5.68523C2.50097 6.43537 2.49967 7.40586 2.49967 8.8335V11.1668C2.49967 12.5945 2.50097 13.5649 2.56226 14.3151C2.62196 15.0458 2.73017 15.4195 2.86298 15.6802C3.18257 16.3073 3.6925 16.8172 4.31971 17.1368C4.58037 17.2697 4.95404 17.3779 5.68474 17.4376C6.43488 17.4988 7.40537 17.5002 8.83301 17.5002H11.1663C12.594 17.5002 13.5644 17.4988 14.3146 17.4376C15.0453 17.3779 15.419 17.2697 15.6797 17.1368C16.3068 16.8172 16.8168 16.3073 17.1363 15.6802C17.2692 15.4195 17.3774 15.0458 17.4371 14.3151C17.4983 13.5649 17.4997 12.5945 17.4997 11.1668V8.8335C17.4997 7.40586 17.4983 6.43537 17.4371 5.68523C17.3774 4.95453 17.2692 4.58086 17.1363 4.3202C16.8168 3.69299 16.3068 3.18305 15.6797 2.86347C15.419 2.73065 15.0453 2.62245 14.3146 2.56275C13.5644 2.50146 12.594 2.50016 11.1663 2.50016Z" fill="white"/>
</g>
<defs>
<clipPath id="clip0_1324_2084">
<rect width="20" height="20" fill="white"/>
</clipPath>
</defs>
</svg>
