<svg width="45" height="51" viewBox="0 0 45 51" fill="none" xmlns="http://www.w3.org/2000/svg">
<path fill-rule="evenodd" clip-rule="evenodd" d="M9.80655 39.0274L12.8953 39.0239C12.9876 39.1673 12.9329 39.0029 12.9808 39.2547L12.991 44.176C12.9602 45.1763 13.1313 48.9993 12.8679 49.2756C12.7242 49.426 12.5258 49.4016 12.1975 49.4016H10.4975C9.35162 49.4016 9.72446 49.1672 9.72446 46.8657L9.80655 39.0309V39.0274ZM4.52189 44.2494L4.51505 39.3526H8.21944V44.2494L8.2297 48.9608H4.46032L4.51847 44.2494H4.52189ZM23.2286 39.3701L27.1279 38.9399V39.9088C25.9136 39.8633 24.2479 39.8213 23.2251 39.3701H23.2286ZM38.4976 42.56L36.4077 44.2145C34.5709 45.5261 30.6271 46.7678 28.4243 47.3344C26.4541 47.8416 17.0614 48.2333 14.4687 48.3383L14.4824 44.3299C14.4618 38.2439 14.2087 40.6468 15.8129 38.9574C20.0441 34.4838 20.2767 35.3443 26.9056 35.2254C27.8838 35.2079 28.2977 35.0645 28.9955 35.6556C29.146 37.6703 26.3036 37.4849 24.6275 37.6633C24.0768 37.7227 22.2229 37.8451 21.8159 38.0025C21.0942 38.2789 20.7316 39.4541 21.3302 40.0977C23.0233 41.92 29.7309 41.4862 32.3544 40.9406C34.7077 40.4509 35.1113 40.3775 37.1568 39.3946C38.59 38.7056 40.0334 38.02 41.4324 37.3065C42.1849 36.9217 43.3479 36.8378 43.4095 37.8416C43.4744 38.8945 41.4119 40.1956 40.3242 41.126C39.8624 41.5212 39.0039 42.2907 38.501 42.5635L38.4976 42.56ZM30.6168 30.3845C31.1846 30.0138 41.8155 25.6591 42.1952 25.6347C42.3457 25.4493 42.2465 25.4318 42.373 25.6871V35.4667C40.9364 35.5926 37.7383 37.4289 36.0417 38.2474C34.7043 38.891 30.2953 40.0802 28.6398 39.8248V38.6286C29.4436 38.0865 30.3774 37.5269 30.5108 36.2257C30.6818 34.5678 29.6009 34.1306 28.6295 33.7144V31.2135L30.6202 30.388L30.6168 30.3845ZM20.328 33.8927C16.9896 34.9246 17.4377 35.4317 15.3409 37.2645L13.8393 36.6839C13.4288 36.502 13.5622 36.6524 13.4117 36.3271V25.5367C13.5828 25.5822 13.7367 25.6242 13.8701 25.6801C14.1608 25.8026 14.089 25.7501 14.2669 25.946C15.1288 25.9669 24.9901 30.5035 27.1108 31.175C27.145 31.8011 27.2237 33.1337 27.0561 33.6829C24.867 33.7039 22.4589 33.5919 20.328 33.8927ZM22.3632 27.5129L33.8765 22.3888C35.3166 21.7732 34.8685 21.7662 36.3359 22.3818L41.0288 24.4175L29.3376 29.2478C27.5657 29.9963 28.1848 30.0103 24.737 28.5448C24.0529 28.2544 22.9378 27.8907 22.3632 27.5129ZM14.7423 24.372C15.3409 23.9698 17.3351 23.2702 18.1218 22.9414C19.0042 22.5742 26.1531 22.7386 27.641 22.7421C28.4072 22.7456 29.1768 22.903 29.2828 22.0145C29.3786 21.2311 29.1905 20.2832 29.3376 19.4962L32.0774 20.612C32.2381 20.6784 32.375 20.7274 32.5323 20.7938L32.9906 21.0667C32.5083 21.3954 31.4001 21.7942 30.8118 22.0565C30.0182 22.4098 29.3068 22.7211 28.5372 23.0604C26.9945 23.7389 25.4998 24.379 23.9811 25.0645C23.232 25.4038 22.4487 25.7291 21.6962 26.0614C20.4819 26.6 20.5982 26.8519 19.3531 26.3132C17.9405 25.7046 16.025 25.0645 14.7423 24.372ZM36.76 3.18641L39.1236 3.2039L39.1167 8.57287L39.1236 13.774L36.7327 13.711C36.7327 11.9447 36.8216 10.1224 36.6711 8.3805L36.6745 3.44873C36.7087 3.25986 36.7258 3.25636 36.76 3.1899V3.18641ZM40.6594 3.6586L43.4197 3.63411L43.4163 8.57287L43.4197 13.3437L40.632 13.2738L40.6594 3.6586ZM21.296 12.0146C21.2139 12.3609 21.0087 12.7141 20.906 13.1619C20.564 17.2437 24.1623 16.3727 24.9422 16.5162C24.9456 16.8659 24.7815 16.8729 24.5454 17.0303C24.0255 17.3801 23.338 18.1076 23.0233 18.6812L6.28002 18.6952C5.98586 18.0377 5.0247 17.0863 4.36455 16.8205C4.36455 9.2794 4.07038 12.5253 5.74643 10.3882C6.46473 9.47528 6.13294 9.61518 7.56613 9.61868L22.9823 9.61169L24.0461 10.9268C24.0563 10.9093 24.0803 10.9793 24.0939 11.0073C21.5115 11.0492 22.3666 11.3361 21.296 12.0146ZM4.63135 9.33187C4.34402 9.82505 3.96093 9.97195 3.38971 10.3462C2.7535 10.7624 2.88005 11.1682 2.88347 12.0356C2.89031 13.5396 2.89716 15.0506 2.89032 16.5546C2.88005 18.7162 3.59836 17.457 4.77158 19.0835C5.76011 20.4511 4.8571 20.2342 8.19892 20.2342C8.96511 20.2342 23.3141 20.2972 23.7279 20.1713C24.1726 20.0383 24.1931 19.6676 24.4907 19.2339C24.5044 19.2129 24.6207 19.059 24.631 19.0485C24.8088 18.8351 24.6583 19.003 24.7951 18.8701C25.0243 18.4924 25.4382 18.286 25.9205 18.0062C26.5943 17.6144 26.478 17.3276 26.4746 16.4917H27.7915L27.7983 19.4822L27.7915 21.1996L1.57001 21.2206L1.55974 7.12132L27.0048 7.08635L27.7812 7.09334V11.0073C26.0573 11.0073 26.6456 11.0422 26.3002 10.6155C26.0847 10.3532 25.6229 10.1888 25.3014 9.91599C24.0734 8.87717 24.2821 8.28256 23.7074 8.11467C23.1225 7.94328 17.9713 8.08319 16.9246 8.08319C14.6465 8.08319 12.3685 8.08319 10.0904 8.08319C3.74544 8.08319 6.02006 7.94328 4.63135 9.32487V9.33187ZM35.2242 8.56238L35.1763 12.6337C31.6293 12.917 31.985 14.4525 30.4047 14.8477C29.317 15.1171 24.9285 14.9807 23.5432 14.9597C22.8557 14.9492 22.606 14.8268 22.4418 14.2426C21.8056 12.0041 24.4702 12.5602 25.8623 12.5602C29.4949 12.5602 29.4881 13.1304 29.276 9.08004C29.4504 5.19409 29.3649 5.55785 27.2305 5.55785C25.4416 5.55785 23.574 5.61031 21.7954 5.54736C22.1408 5.03319 23.7519 3.63061 24.4189 3.14094C29.5257 -0.6086 29.9464 3.93841 35.2345 4.60997L35.2276 8.56238H35.2242ZM0 6.44627V21.7102C0 23.1793 1.29979 22.784 2.73297 22.784H14.1916C13.446 23.4486 11.8794 23.3122 11.8794 24.3965V37.296C11.0927 37.296 10.2957 37.254 9.56027 37.3974C8.26733 37.6493 10.1657 37.7262 6.41342 37.7262C4.474 37.7262 2.94504 37.338 2.94504 38.9084V49.5519C2.94504 50.2515 3.34182 50.5173 3.98829 50.5278L8.20576 50.5138C9.2969 50.5173 8.90354 50.951 9.8818 50.951C12.3924 50.951 13.6409 51.3463 14.4037 49.8772C16.2337 49.8772 17.7045 49.6849 19.4523 49.6674C20.0201 49.6604 20.0714 49.5694 20.6016 49.5519C21.0771 49.538 21.4602 49.5834 21.9288 49.51L26.9158 49.2372C27.5247 49.2232 28.5748 48.9503 29.1084 48.7929C30.9623 48.2508 35.3645 46.8762 36.8387 45.8409C37.3791 45.4631 43.6728 40.5454 44.1722 39.9018C46.1116 37.3904 44.0559 36.2922 43.9499 35.6836C43.9088 35.4527 43.9431 34.7846 43.9431 34.5083V25.4773C43.9465 24.6168 44.032 24.0642 43.4847 23.6899C43.4676 23.6794 29.8062 17.8873 29.3307 17.8453V16.5546C30.6339 16.5546 31.7251 16.1944 32.4092 15.5088C32.7991 15.1171 33.059 14.8268 33.6097 14.5854C34.0305 14.4 34.7864 14.2007 35.3268 14.1902C35.45 15.6837 37.6151 15.3724 39.0073 15.3724C39.7153 15.3724 39.8556 15.0296 40.3823 14.9527C42.1336 14.7008 45 15.6347 45 13.9768V3.01152C45 1.42706 42.3936 2.21754 40.4781 2.04266C39.8487 1.98669 39.7632 1.61244 39.0073 1.61244C37.0166 1.61244 35.6278 1.23819 35.2242 3.01152C32.7615 2.95556 30.5005 0 27.7607 0C25.9034 0 23.4372 1.72087 22.1614 2.98004C21.4602 3.67259 20.6221 4.32666 20.0167 5.08566C19.4831 5.75372 19.5105 5.59283 18.4057 5.58933L1.37504 5.58583C0.560961 5.57534 0.0102615 5.58933 0.0102615 6.44627H0Z" fill="#555555"/>
<path fill-rule="evenodd" clip-rule="evenodd" d="M15.7959 14.2253C15.1734 16.4708 11.9068 15.467 12.5806 13.078C13.1963 10.8955 16.4595 11.8328 15.7959 14.2253ZM13.3229 10.4477C9.22855 11.6894 11.0346 18.0762 15.0571 16.901C16.5245 16.4708 17.7627 14.8024 17.2804 12.8192C16.9007 11.2697 15.3136 9.84265 13.3229 10.4477Z" fill="#555555"/>
</svg>
