<svg width="59" height="59" viewBox="0 0 59 59" fill="none" xmlns="http://www.w3.org/2000/svg">
<path fill-rule="evenodd" clip-rule="evenodd" d="M35.9523 54.9624H30.7657C30.3769 54.9624 29.9593 54.7579 29.9593 54.3864V43.44C29.9593 43.1722 30.2674 42.8641 30.5353 42.8641H35.8371C36.3756 42.8641 36.6435 43.1319 36.6435 43.6704V54.0408C36.6435 54.4613 36.3267 54.9624 35.9523 54.9624ZM43.2125 14.745C43.2125 15.3325 43.512 15.7817 44.0188 15.7817C44.6956 15.7817 44.9922 15.2489 45.4012 14.9753C45.4242 15.2547 45.7669 16.1763 44.9634 17.0719C43.9411 18.2066 41.2542 18.0367 41.2542 15.5513C41.2542 14.8861 41.5969 14.3043 42.0087 13.9991C42.6826 13.5009 42.9533 13.5901 44.0217 13.5901C43.8633 14.1863 43.2153 14.2986 43.2153 14.7421L43.2125 14.745ZM48.8599 8.86713C47.1637 7.73246 45.3695 4.37165 43.0973 4.37165C42.026 4.37165 29.3516 6.24645 28.3725 6.47108C27.3674 6.70435 26.898 7.13921 26.2442 7.7987C25.6308 8.41499 23.0476 10.6642 23.0476 11.4014C23.0476 11.8363 23.4825 12.323 23.9691 12.323C24.5048 12.323 26.7338 9.84629 27.2234 9.35671C28.7411 7.83902 29.0492 8.1702 31.955 7.74974C34.1553 7.43296 41.5364 6.21765 43.2125 6.21765C43.7971 6.21765 44.1225 6.72163 44.4508 7.05281C45.3666 7.97149 46.579 9.45751 47.5899 10.1343L45.4271 12.3518C42.9994 10.6815 39.4082 12.5649 39.4082 15.6665C39.4082 19.9086 45.1823 20.9568 46.8641 17.3599C47.3998 16.2137 47.3566 14.6182 46.6683 13.593L48.8311 11.4907C49.3869 11.8708 50.3776 12.9796 50.9017 13.5066C53.1567 15.7616 53.0184 15.2518 52.4799 18.5982L50.9507 29.0551C50.7865 30.23 50.8643 30.5612 50.1558 31.2553C49.4042 31.9925 47.8548 33.7349 47.1291 34.2215C47.1291 33.012 47.1291 32.5887 46.5762 31.8946C45.7093 30.8118 43.6185 30.4662 42.5443 31.477C41.856 32.125 41.4241 33.4209 40.9863 34.2964C39.7797 36.6982 38.7055 39.2297 37.4527 41.594C36.9545 41.26 36.5657 41.0181 35.7248 41.0181H30.8837C29.8729 41.0181 29.3516 41.3233 28.8333 41.8503C28.1853 42.5069 28.1075 42.8813 28.1162 44.1283C28.1277 46.2825 28.2342 50.8759 28.1248 52.8947C28.0845 53.6549 27.3184 54.0869 26.8202 54.5851C22.9151 58.4903 24.1103 58.3866 17.8897 52.166L2.85103 37.1273C0.820714 35.097 1.77395 34.8033 4.06057 32.5167L12.0695 24.5077C13.3712 23.206 20.3347 16.4182 21.3513 15.2345C21.9158 14.5779 21.4205 13.7053 20.7408 13.7053C20.0352 13.7053 16.0293 18.0136 15.295 18.748L2.09938 31.9436C1.02519 33.0178 -0.00292969 33.8011 -0.00292969 35.601C-0.00292969 37.2915 1.37653 38.19 2.27217 39.0857L21.2851 58.1015C21.9158 58.7437 22.797 58.9914 23.8511 58.9914C24.9483 58.9914 25.8295 58.1072 26.4142 57.5226C26.8893 57.0474 27.9952 55.691 28.5741 55.5355C28.7325 56.1259 29.5561 56.6875 30.1868 56.6875H36.295C37.015 56.6875 37.4729 56.0568 37.9077 55.7659C38.6795 56.4369 39.3534 57.0878 40.4075 57.5313C42.0375 58.2138 44.3126 58.1879 46.2047 58.1879C46.8267 58.1879 47.1262 57.7616 47.1262 57.2663C47.1262 56.1489 46.0319 56.3447 44.9375 56.3447C42 56.3476 41.306 56.1489 39.1086 54.4527C38.8725 54.2684 38.3685 53.8997 38.3685 53.5801V44.016C38.3685 43.6215 38.8034 42.913 38.9819 42.5559L43.2845 33.7205C43.5581 33.1704 43.6358 32.6059 44.3615 32.6059C45.8706 32.6059 45.3983 34.9646 45.3983 35.9466C45.3983 37.447 45.3925 38.9474 45.3925 40.4478C45.3925 42.121 46.8872 41.7006 48.5114 41.7092C49.3696 41.715 49.7239 41.5854 50.5821 41.5911C51.5843 41.5969 55.0142 41.3896 55.7946 41.7985C56.9092 42.386 56.0999 44.1254 55.8839 44.9347C55.7025 45.6172 55.5585 46.2364 55.3771 46.965L53.3064 55.0344C53.1221 55.7918 52.9493 56.3102 52.0882 56.3534C51.0284 56.4081 50.1213 56.1086 50.1213 57.4996C50.1213 58.5565 52.7593 58.3376 53.9285 57.5053C54.4497 57.1338 54.7406 56.5319 54.948 55.8753C55.5815 53.8709 56.5895 49.505 57.1482 47.2443C57.3239 46.5388 57.5312 45.8303 57.7011 45.1478C57.8912 44.3846 58.1849 43.4314 58.1849 42.6365C58.1849 41.2945 56.7709 39.8719 55.4203 39.8719H47.1233C47.1233 35.8314 46.556 37.3865 50.608 33.3317C52.5087 31.431 52.4137 31.6354 52.8629 28.4445C53.0904 26.8289 54.611 17.2389 54.611 15.9027C54.611 13.6362 51.2473 11.8305 50.1155 10.14C50.9104 9.60726 55.7889 4.5214 56.8861 3.42705C57.6003 2.71284 58.9884 1.65881 58.9884 0.69117C58.9884 0.152633 58.3548 0 57.9517 0C57.5715 0 53.7067 4.07214 53.3698 4.40909C52.4165 5.36233 49.7354 8.27964 48.8455 8.87577L48.8599 8.86713Z" fill="#555555"/>
<path fill-rule="evenodd" clip-rule="evenodd" d="M13.9445 38.023C14.5636 38.023 15.0014 37.3721 15.3556 37.015C17.5126 34.858 32.3296 20.1533 32.6176 19.7012C32.966 19.1569 32.9459 18.3188 31.6903 18.3188C31.3072 18.3188 27.0421 22.7942 26.7052 23.1311L13.2245 36.6291C12.876 37.1561 13.3023 38.0258 13.9416 38.0258L13.9445 38.023Z" fill="#555555"/>
<path fill-rule="evenodd" clip-rule="evenodd" d="M17.7461 41.8244C17.7461 42.4378 18.0715 42.746 18.7828 42.746C19.2033 42.746 25.3173 36.3843 25.7262 35.9754C26.8868 34.8148 27.9639 33.7377 29.1245 32.5771C29.568 32.1336 32.4939 29.3891 32.4939 29.0349C32.4939 27.9521 31.7596 27.3876 30.5068 28.6605C29.8704 29.3085 29.3059 29.8614 28.6637 30.5036L18.5237 40.6437C18.2011 40.9633 17.7461 41.2542 17.7461 41.8244Z" fill="#555555"/>
<path fill-rule="evenodd" clip-rule="evenodd" d="M32.3809 45.9743C32.3809 46.9362 33.3687 47.0975 33.8237 46.726C34.0857 46.5129 34.63 45.168 33.072 45.168C32.7466 45.168 32.3809 45.6489 32.3809 45.9743Z" fill="#555555"/>
</svg>
