<svg width="46" height="55" viewBox="0 0 46 55" fill="none" xmlns="http://www.w3.org/2000/svg">
<path fill-rule="evenodd" clip-rule="evenodd" d="M23.4805 53.3795C19.4772 53.5898 14.943 53.3957 10.8813 53.3957C8.80001 53.3957 6.72138 53.3957 4.64011 53.3957C4.06669 53.3957 1.97214 53.5844 1.74118 53.1206C1.55004 52.7351 1.61376 50.3461 1.85799 50.1358C2.16859 49.8662 14.9589 50.0064 17.3348 50.0064C20.1807 50.0064 18.1817 49.7691 21.516 52.1554C21.8345 52.3818 22.1186 52.5652 22.4849 52.7863C22.8327 52.9966 23.1858 53.1368 23.4805 53.3795ZM31.6702 53.3013L31.2932 53.3202C31.2932 52.9076 31.3543 52.7243 31.187 52.4304C31.0278 51.5837 29.9446 51.5406 29.7402 52.3576L29.5942 52.6434V53.3418L28.9863 53.2797C28.1394 53.2716 25.0972 52.5652 24.5264 51.9612L24.1866 51.9289C24.4016 51.3572 25.052 50.5456 24.2742 50.098C23.4751 49.637 23.0663 50.5133 22.8247 51.0256C21.7921 50.6265 19.2117 48.0084 18.7896 46.9352C20.5895 46.2288 19.7506 45.0262 18.925 45.1071C18.4843 45.1503 18.3941 45.4172 17.9667 45.5251C17.226 44.5894 16.5411 41.5183 16.4853 40.0245C17.2818 40.0245 18.0675 40.0973 18.0622 39.2183C18.0569 38.2962 17.2393 38.3986 16.4853 38.3986C16.5305 36.8752 17.2287 33.7582 17.9667 32.8738C18.556 33.1246 19.3418 33.7609 19.748 32.8495C20.1063 32.0487 19.2781 31.7413 19.0365 31.5742L18.8507 31.4259C18.8374 31.4151 18.8109 31.3908 18.7896 31.3719C19.4188 30.0912 21.5133 28.1229 22.7265 27.3733L23.2522 28.1552C23.4964 28.4195 23.8388 28.5057 24.1813 28.3493C25.0733 27.9422 24.4468 27.1306 24.1893 26.5374C25.06 25.7231 28.0996 25.0922 29.6314 25.014C29.6314 25.7582 29.5597 26.5482 30.3535 26.6291C31.2667 26.7235 31.2322 25.9038 31.2322 25.0733C31.8215 24.9573 32.6445 25.1245 33.194 25.2728C34.1948 25.4616 36.0876 25.9577 36.6822 26.5374C36.4646 27.0955 35.777 27.8694 36.6238 28.3278C37.4468 28.7727 37.8503 27.8937 38.0414 27.3436C38.7927 27.5782 38.9308 28.2091 39.7776 27.5243C40.1333 26.4188 39.2414 26.1006 38.583 25.6827C37.9353 25.2701 37.2397 24.9196 36.4911 24.5853C34.9461 23.895 33.1595 23.5283 31.2348 23.3638C30.9587 21.3092 31.8587 19.5269 30.1039 18.6048C29.2093 18.1356 25.6016 18.3486 24.3061 18.3486C18.2773 18.3486 12.2485 18.3486 6.21699 18.3486C1.08016 18.3486 -0.178162 17.5802 0.0554513 22.7814C0.092617 23.6092 0.297028 23.5579 0.421799 24.0298C0.509404 24.3615 0.212078 24.5772 0.108545 25.0544L0.0713794 28.0393C0.127128 28.5678 0.360741 28.8563 0.504094 29.258C-0.146305 29.8404 0.023595 31.6632 0.0501419 32.6608C0.0713794 33.4508 0.435072 33.9604 0.440382 34.1708C0.445691 34.3514 0.0687248 34.9365 0.0501419 35.6591C0.0342138 36.2658 -0.0162254 37.9322 0.153675 38.4957C0.204114 38.6629 0.424454 39.0754 0.432418 39.1266C0.448346 39.2641 0.0766888 39.9355 0.0527966 40.5988C-0.0693193 43.8614 0.419144 43.767 0.437727 44.1688C0.451 44.4816 0.0899623 44.5031 0.0527966 45.6491C-0.0560458 48.9925 0.355432 48.4479 0.437727 49.122C0.461619 49.3188 0.0793435 49.9767 0.0527966 50.5888C-0.0374629 52.6434 -0.180816 53.9727 1.24475 54.7843L1.62172 55H31.8162C32.7268 54.5955 35.7664 54.8921 39.8519 51.7752C46.5975 46.6306 48.039 36.7512 42.9447 29.7245C42.5173 29.1367 42.1536 28.5651 41.2642 28.9965C40.7333 30.1047 41.474 30.2206 42.0766 31.3639C41.7023 31.7117 40.736 32.0299 41.1129 32.8684C41.5085 33.7555 42.3394 33.0545 42.9208 32.8765C43.7411 34.2085 44.2614 36.5408 44.3888 38.3744C43.6349 38.4121 42.796 38.3285 42.8093 39.2048C42.8199 40.0865 43.6455 39.9841 44.3862 40.038C44.2242 42.5537 43.6508 43.6026 42.9473 45.552C42.4005 45.3363 41.5695 44.673 41.1395 45.463C40.6882 46.2881 41.5775 46.7303 42.0766 46.9379C41.6014 47.9841 39.0954 50.6346 38.0468 51.0256C37.2795 49.2163 36.138 50.0387 36.2389 50.907C36.284 51.2979 36.5495 51.4867 36.6822 51.8992C35.2142 52.4169 33.5524 53.3498 31.6596 53.2905L31.6702 53.3013ZM29.0739 9.97377H30.1305C31.6755 9.97377 31.6144 8.32631 30.1305 8.32631H29.0739C27.5979 8.32631 27.6059 9.97377 29.0739 9.97377ZM28.1023 11.6725C27.2661 12.0715 27.6696 12.9074 28.2801 13.2687C28.6863 13.506 29.6075 14.2043 30.1384 13.9832C30.5048 13.8295 31.1817 13.026 30.003 12.3816C29.5385 12.1281 28.6677 11.4055 28.1049 11.6752L28.1023 11.6725ZM1.05362 4.39504C0.482857 4.73208 0.363396 5.37111 1.33501 5.93465C1.83144 6.22046 2.64378 6.9296 3.29683 6.59525C4.75957 5.84837 1.88984 3.89891 1.05362 4.39504ZM2.5429 11.6994C2.13673 11.8828 0.984594 12.4949 0.798765 12.7618C0.336849 13.4197 0.942119 14.2933 1.78366 13.9751C2.03585 13.8808 3.36851 13.0638 3.49062 12.9047C3.9844 12.2657 3.41098 11.3058 2.5429 11.6967V11.6994ZM0.477547 8.44225C-0.138341 8.80086 0.0289044 9.70414 0.591699 9.90636C0.942119 10.0331 2.54821 10.0142 2.84288 9.88479C3.47204 9.61516 3.42957 8.64447 2.8004 8.4018C2.373 8.23733 0.812039 8.24272 0.474893 8.43955L0.477547 8.44225ZM29.4535 4.3519C29.1721 4.47593 27.8979 5.23899 27.797 5.36842C27.3324 5.95892 27.8235 6.97274 28.8031 6.61413C29.0341 6.53054 30.303 5.76748 30.4517 5.58413C30.9906 4.91274 30.388 3.93666 29.4535 4.3519ZM18.8825 3.36504C20.0002 3.93396 20.6081 2.85812 21.1682 2.2838C22.2593 1.16752 22.2699 1.63129 23.2283 2.60467C24.2158 3.60771 24.6034 3.54299 23.5017 4.65389L17.8419 10.4025C13.8652 14.4416 14.2235 14.7921 12.9971 13.5329C12.198 12.7133 7.10366 7.83288 7.12755 7.30439C7.27091 6.84601 8.76284 5.31449 9.18494 5.1581C9.74773 5.2336 10.053 5.71625 10.4008 6.06947C14.3244 10.0439 13.4431 10.1302 16.0898 7.44191C17.3056 6.20698 18.0835 5.80523 17.4171 4.83454C16.4508 4.40852 16.0048 5.17698 15.5111 5.67311C15.1235 6.06138 14.2342 7.0779 13.8094 7.32327C13.4086 6.76243 12.4237 5.87263 11.8795 5.31988C11.4043 4.83724 10.5548 3.73443 9.68668 3.57535C8.30624 3.32459 7.62663 4.25753 7.06384 4.82915C6.53025 5.37111 5.53208 6.13688 5.51615 7.30709C5.50288 8.52314 6.4745 9.16757 7.01871 9.72032C8.04873 10.7665 12.4502 15.4042 13.0183 15.655C14.8235 16.4585 16.0924 14.5225 17.7755 12.813C18.848 11.7237 25.283 5.39538 25.5989 4.64041C26.382 2.78532 24.6512 1.90362 23.7539 0.881704C23.1752 0.2211 23.2681 0.431415 22.5779 0H21.4841C21.139 0.218404 20.855 0.299294 20.5337 0.577017C20.247 0.825081 20.0134 1.10011 19.7373 1.37783C19.2356 1.88205 18.4764 2.32425 18.8746 3.36773L18.8825 3.36504ZM38.7609 35.7993C39.7776 36.7377 39.6104 40.5934 38.8777 42.5078C38.299 44.0232 36.6026 46.431 35.3416 46.8247C34.6753 47.8304 31.4047 48.4614 29.7057 48.3481C24.1255 47.9787 19.6975 41.9093 21.9859 35.8775C24.1707 30.1181 31.2268 28.2631 35.7186 31.7117C36.7672 32.5179 38.7582 34.5887 38.7609 35.7966V35.7993ZM29.6579 49.9632C36.7698 50.6346 42.5916 43.6241 40.7758 36.5705C40.4572 35.3302 40.1068 34.5401 39.5281 33.5425C38.7157 32.1431 38.0016 31.7387 37.6618 31.1643C37.3725 31.0214 37.0459 30.6709 36.6849 30.4147C36.4088 30.2206 36.0743 29.9833 35.7266 29.7784C33.4196 28.4087 30.3535 28.0042 27.7333 28.7187C20.2444 30.7572 17.7702 39.55 21.508 45.0775C23.3238 47.763 26.2201 49.8419 29.6606 49.9659L29.6579 49.9632ZM1.75711 40.1378C2.47388 39.8681 13.2997 39.8978 14.8607 40.0083L15.3491 43.3653C14.3722 43.4543 11.2184 42.8152 11.6326 44.4465C11.8184 45.1745 12.7183 45.01 13.5254 45.01C14.3377 45.01 15.1527 45.0074 15.965 45.01C16.4057 46.4876 17.2658 47.4017 17.6959 48.3778C15.8987 48.3778 2.35972 48.5854 1.90843 48.2322C1.68278 48.0407 1.73322 48.1756 1.67481 47.8062L1.66419 45.8648C1.68543 44.7081 2.41016 45.0074 3.4747 45.0074C5.01442 45.01 7.19392 45.1368 8.65665 45.0047C9.50881 44.9265 9.7026 44.0555 9.21679 43.5918C8.59294 42.9932 3.13755 43.7643 1.7518 43.2359C1.60048 42.64 1.59783 40.731 1.7518 40.1378H1.75711ZM14.8819 38.3393C13.5625 38.4498 2.26946 38.52 1.94028 38.2261C1.53677 37.8944 1.67216 37.8944 1.67481 36.7458C1.67747 35.7724 1.5235 35.4596 1.91639 35.1414C2.33849 34.8098 13.8121 34.9958 15.389 34.9958C15.1845 36.1957 14.9615 37.037 14.8846 38.342L14.8819 38.3393ZM15.9119 33.3619L2.73404 33.3672C1.47306 33.3753 1.67747 33.3565 1.67747 30.8354C1.67747 30.0912 1.77835 29.9779 2.52962 29.9779C7.02136 29.9779 13.4882 29.8539 17.7437 29.9941C17.4941 30.4929 17.0853 30.9918 16.7906 31.5688C16.5013 32.1323 16.2305 32.8576 15.9146 33.3645L15.9119 33.3619ZM18.7126 28.3601C12.79 28.3601 7.6054 28.3601 2.42344 28.3601C1.43324 28.3601 1.67747 27.775 1.67747 25.7824C1.67747 24.9412 1.92966 24.9843 2.73935 24.9843L23.3637 25.0032C23.0557 25.3375 22.6097 25.4912 22.185 25.7636C21.208 26.3864 20.7275 26.8232 19.9072 27.5324C19.5568 27.8343 19.294 28.3628 18.7153 28.3628L18.7126 28.3601ZM1.67481 20.84C1.67481 20.2145 1.79693 19.9772 2.42078 19.9772C11.2715 19.9772 20.1223 19.9772 28.9704 19.9772H28.8642C29.135 19.9772 29.3102 20.023 29.496 20.0905C29.7243 20.6189 29.6924 22.6655 29.5252 23.2506C27.5448 23.5094 6.32849 23.3503 2.52432 23.3503C2.21903 23.3503 1.98276 23.291 1.78366 23.2047C1.60048 22.6708 1.67216 21.5114 1.67216 20.8373L1.67481 20.84Z" fill="#555555"/>
</svg>
