<svg width="59" height="59" viewBox="0 0 59 59" fill="none" xmlns="http://www.w3.org/2000/svg">
<path fill-rule="evenodd" clip-rule="evenodd" d="M35.9524 54.9624H30.7657C30.3769 54.9624 29.9593 54.7579 29.9593 54.3864V43.44C29.9593 43.1722 30.2675 42.8641 30.5353 42.8641H35.8372C36.3757 42.8641 36.6435 43.1319 36.6435 43.6704V54.0408C36.6435 54.4613 36.3268 54.9624 35.9524 54.9624ZM43.2125 14.745C43.2125 15.3325 43.512 15.7817 44.0189 15.7817C44.6957 15.7817 44.9923 15.2489 45.4012 14.9753C45.4243 15.2547 45.767 16.1763 44.9635 17.0719C43.9411 18.2066 41.2542 18.0367 41.2542 15.5513C41.2542 14.8861 41.5969 14.3043 42.0087 13.9991C42.6826 13.5009 42.9533 13.5901 44.0218 13.5901C43.8634 14.1863 43.2154 14.2986 43.2154 14.7421L43.2125 14.745ZM48.86 8.86713C47.1637 7.73246 45.3696 4.37165 43.0973 4.37165C42.026 4.37165 29.3517 6.24645 28.3725 6.47108C27.3675 6.70435 26.898 7.13921 26.2443 7.7987C25.6309 8.41499 23.0476 10.6642 23.0476 11.4014C23.0476 11.8363 23.4825 12.323 23.9692 12.323C24.5049 12.323 26.7339 9.84629 27.2235 9.35671C28.7412 7.83902 29.0493 8.1702 31.9551 7.74974C34.1553 7.43296 41.5364 6.21765 43.2125 6.21765C43.7971 6.21765 44.1226 6.72163 44.4509 7.05281C45.3667 7.97149 46.5791 9.45751 47.5899 10.1343L45.4272 12.3518C42.9994 10.6815 39.4082 12.5649 39.4082 15.6665C39.4082 19.9086 45.1824 20.9568 46.8642 17.3599C47.3999 16.2137 47.3567 14.6182 46.6684 13.593L48.8312 11.4907C49.387 11.8708 50.3777 12.9796 50.9018 13.5066C53.1567 15.7616 53.0185 15.2518 52.48 18.5982L50.9508 29.0551C50.7866 30.23 50.8644 30.5612 50.1559 31.2553C49.4043 31.9925 47.8549 33.7349 47.1292 34.2215C47.1292 33.012 47.1292 32.5887 46.5762 31.8946C45.7094 30.8118 43.6186 30.4662 42.5444 31.477C41.8561 32.125 41.4241 33.4209 40.9864 34.2964C39.7797 36.6982 38.7055 39.2297 37.4528 41.594C36.9546 41.26 36.5658 41.0181 35.7249 41.0181H30.8838C29.873 41.0181 29.3517 41.3233 28.8333 41.8503C28.1853 42.5069 28.1076 42.8813 28.1162 44.1283C28.1277 46.2825 28.2343 50.8759 28.1249 52.8947C28.0846 53.6549 27.3185 54.0869 26.8203 54.5851C22.9152 58.4903 24.1103 58.3866 17.8898 52.166L2.85109 37.1273C0.820775 35.097 1.77401 34.8033 4.06063 32.5167L12.0696 24.5077C13.3713 23.206 20.3348 16.4182 21.3514 15.2345C21.9159 14.5779 21.4205 13.7053 20.7409 13.7053C20.0353 13.7053 16.0294 18.0136 15.295 18.748L2.09944 31.9436C1.02525 33.0178 -0.00286865 33.8011 -0.00286865 35.601C-0.00286865 37.2915 1.37659 38.19 2.27223 39.0857L21.2852 58.1015C21.9159 58.7437 22.7971 58.9914 23.8511 58.9914C24.9484 58.9914 25.8296 58.1072 26.4142 57.5226C26.8894 57.0474 27.9953 55.691 28.5741 55.5355C28.7325 56.1259 29.5562 56.6875 30.1869 56.6875H36.2951C37.015 56.6875 37.4729 56.0568 37.9078 55.7659C38.6796 56.4369 39.3535 57.0878 40.4075 57.5313C42.0375 58.2138 44.3126 58.1879 46.2047 58.1879C46.8268 58.1879 47.1263 57.7616 47.1263 57.2663C47.1263 56.1489 46.0319 56.3447 44.9376 56.3447C42.0001 56.3476 41.3061 56.1489 39.1087 54.4527C38.8726 54.2684 38.3686 53.8997 38.3686 53.5801V44.016C38.3686 43.6215 38.8034 42.913 38.982 42.5559L43.2845 33.7205C43.5581 33.1704 43.6359 32.6059 44.3616 32.6059C45.8707 32.6059 45.3984 34.9646 45.3984 35.9466C45.3984 37.447 45.3926 38.9474 45.3926 40.4478C45.3926 42.121 46.8872 41.7006 48.5115 41.7092C49.3697 41.715 49.7239 41.5854 50.5821 41.5911C51.5843 41.5969 55.0143 41.3896 55.7947 41.7985C56.9092 42.386 56.1 44.1254 55.884 44.9347C55.7025 45.6172 55.5586 46.2364 55.3771 46.965L53.3065 55.0344C53.1222 55.7918 52.9494 56.3102 52.0883 56.3534C51.0285 56.4081 50.1213 56.1086 50.1213 57.4996C50.1213 58.5565 52.7593 58.3376 53.9285 57.5053C54.4498 57.1338 54.7407 56.5319 54.948 55.8753C55.5816 53.8709 56.5896 49.505 57.1482 47.2443C57.3239 46.5388 57.5313 45.8303 57.7012 45.1478C57.8913 44.3846 58.185 43.4314 58.185 42.6365C58.185 41.2945 56.771 39.8719 55.4203 39.8719H47.1234C47.1234 35.8314 46.5561 37.3865 50.608 33.3317C52.5088 31.431 52.4137 31.6354 52.863 28.4445C53.0905 26.8289 54.6111 17.2389 54.6111 15.9027C54.6111 13.6362 51.2474 11.8305 50.1156 10.14C50.9104 9.60726 55.7889 4.5214 56.8862 3.42705C57.6004 2.71284 58.9885 1.65881 58.9885 0.69117C58.9885 0.152633 58.3549 0 57.9517 0C57.5716 0 53.7068 4.07214 53.3699 4.40909C52.4166 5.36233 49.7354 8.27964 48.8456 8.87577L48.86 8.86713Z" fill="#555555"/>
<path fill-rule="evenodd" clip-rule="evenodd" d="M13.9444 38.023C14.5635 38.023 15.0013 37.3721 15.3555 37.015C17.5125 34.858 32.3295 20.1533 32.6175 19.7012C32.9659 19.1569 32.9458 18.3188 31.6902 18.3188C31.3071 18.3188 27.042 22.7942 26.7051 23.1311L13.2244 36.6291C12.8759 37.1561 13.3022 38.0258 13.9415 38.0258L13.9444 38.023Z" fill="#555555"/>
<path fill-rule="evenodd" clip-rule="evenodd" d="M17.7462 41.8244C17.7462 42.4378 18.0716 42.746 18.7829 42.746C19.2034 42.746 25.3173 36.3843 25.7263 35.9754C26.8869 34.8148 27.964 33.7377 29.1245 32.5771C29.568 32.1336 32.494 29.3891 32.494 29.0349C32.494 27.9521 31.7596 27.3876 30.5069 28.6605C29.8704 29.3085 29.306 29.8614 28.6638 30.5036L18.5237 40.6437C18.2012 40.9633 17.7462 41.2542 17.7462 41.8244Z" fill="#555555"/>
<path fill-rule="evenodd" clip-rule="evenodd" d="M32.3809 45.9743C32.3809 46.9362 33.3687 47.0975 33.8237 46.726C34.0858 46.5129 34.6301 45.168 33.0721 45.168C32.7467 45.168 32.3809 45.6489 32.3809 45.9743Z" fill="#555555"/>
</svg>
