<svg width="20" height="20" viewBox="0 0 20 20" fill="none" xmlns="http://www.w3.org/2000/svg">
<path d="M15.5338 1.15137H3.41464C2.34373 1.15137 1.47559 2.05465 1.47559 3.16891V15.7786C1.47559 16.8928 2.34373 17.7961 3.41464 17.7961H15.5338C16.6047 17.7961 17.4728 16.8928 17.4728 15.7786V3.16891C17.4728 2.05465 16.6047 1.15137 15.5338 1.15137Z" stroke="white" stroke-width="1.5"/>
<path d="M5.83789 8.21289V13.7611" stroke="white" stroke-width="1.5" stroke-linecap="round" stroke-linejoin="round"/>
<path d="M5.83769 6.44772C6.37315 6.44772 6.80722 5.99608 6.80722 5.43895C6.80722 4.88182 6.37315 4.43018 5.83769 4.43018C5.30224 4.43018 4.86816 4.88182 4.86816 5.43895C4.86816 5.99608 5.30224 6.44772 5.83769 6.44772Z" fill="white"/>
<path d="M13.109 13.7611V10.4826C13.109 9.2291 12.1323 8.21289 10.9275 8.21289C9.72277 8.21289 8.74609 9.2291 8.74609 10.4826V13.7611" stroke="white" stroke-width="1.5" stroke-linecap="round"/>
</svg>
