<svg width="21" height="14" viewBox="0 0 21 14" fill="none" xmlns="http://www.w3.org/2000/svg">
<path d="M18.5287 2.37875L10.5 8.01013L2.47133 2.37875M1.52407 0.51464C1.25247 0.51464 0.991992 0.617465 0.799942 0.800496C0.607893 0.983527 0.5 1.23177 0.5 1.49062V12.524C0.5 12.7829 0.607893 13.0311 0.799942 13.2141C0.991992 13.3972 1.25247 13.5 1.52407 13.5H19.4759C19.7475 13.5 20.008 13.3972 20.2001 13.2141C20.3921 13.0311 20.5 12.7829 20.5 12.524V1.47598C20.5 1.21713 20.3921 0.968887 20.2001 0.785856C20.008 0.602825 19.7475 0.5 19.4759 0.5H1.52407V0.51464Z" stroke="#555555" stroke-linecap="round" stroke-linejoin="round"/>
</svg>
