<svg width="20" height="20" viewBox="0 0 20 20" fill="none" xmlns="http://www.w3.org/2000/svg">
<path d="M8.33333 15.8334H5.16667C4.23325 15.8334 3.76653 15.8334 3.41002 15.6517C3.09641 15.4919 2.84144 15.2369 2.68166 14.9234C2.5 14.5669 2.5 14.1001 2.5 13.1667V6.83335C2.5 5.89994 2.5 5.43322 2.68166 5.0767C2.84144 4.7631 3.09641 4.50813 3.41002 4.34835C3.76653 4.16669 4.23325 4.16669 5.16667 4.16669H14.8333C15.7667 4.16669 16.2335 4.16669 16.59 4.34835C16.9036 4.50813 17.1586 4.7631 17.3183 5.0767C17.5 5.43322 17.5 5.89994 17.5 6.83335V8.33335M17.1722 6.88526L12.9582 9.6946C11.8891 10.4074 11.3545 10.7638 10.7767 10.9023C10.266 11.0246 9.73367 11.0246 9.22308 10.9023C8.64525 10.7638 8.11066 10.4074 7.04146 9.6946L2.62288 6.74888M11.6667 17.5L13.3542 17.1625C13.5012 17.1331 13.5748 17.1184 13.6434 17.0914C13.7043 17.0676 13.7622 17.0366 13.8158 16.9992C13.8763 16.957 13.9293 16.904 14.0355 16.7979L17.5 13.3334C17.9602 12.8731 17.9602 12.1269 17.5 11.6667C17.0397 11.2064 16.2936 11.2064 15.8333 11.6667L12.3688 15.1312C12.2627 15.2374 12.2097 15.2904 12.1675 15.3509C12.1301 15.4044 12.0991 15.4624 12.0752 15.5233C12.0483 15.5919 12.0336 15.6654 12.0042 15.8125L11.6667 17.5Z" stroke="white" stroke-linecap="round" stroke-linejoin="round"/>
</svg>
