<svg width="17" height="19" viewBox="0 0 17 19" fill="none" xmlns="http://www.w3.org/2000/svg">
<g clip-path="url(#clip0_1324_2145)">
<path fill-rule="evenodd" clip-rule="evenodd" d="M1.93141 3.07642C2.95323 2.00064 4.64341 2.2022 5.48807 3.39685L6.53891 4.88308C7.2145 5.83864 7.15741 7.16711 6.35116 8.016L6.14708 8.23083C6.14651 8.23231 6.14591 8.23392 6.1453 8.23566C6.13451 8.26596 6.10725 8.36245 6.13408 8.54558C6.1897 8.92517 6.48275 9.69659 7.6725 10.9492C8.86591 12.2056 9.58983 12.5018 9.92525 12.5563C10.07 12.5798 10.1457 12.5593 10.1698 12.5508L10.5103 12.1923C11.2385 11.4257 12.3737 11.2747 13.2892 11.8016L14.8812 12.7179C16.242 13.5012 16.5587 15.4172 15.4712 16.5621L14.2875 17.8084C13.918 18.1974 13.4142 18.5294 12.7917 18.5908C11.2717 18.7409 7.75083 18.5455 4.05967 14.6594C0.615362 11.0332 -0.038954 7.87911 -0.121662 6.3381C-0.162529 5.5767 0.176863 4.92363 0.623413 4.4535L1.93141 3.07642ZM4.46741 4.11848C4.04045 3.51461 3.27343 3.47858 2.83773 3.93728L1.52973 5.31436C1.25357 5.6051 1.10868 5.93835 1.12654 6.2711C1.19407 7.52928 1.73589 10.3978 4.96599 13.7985C8.35283 17.3643 11.473 17.4649 12.6688 17.3469C12.9053 17.3236 13.1486 17.1923 13.3812 16.9476L14.5649 15.7013C15.0756 15.1636 14.9417 14.195 14.2577 13.8013L12.6656 12.8849C12.2383 12.639 11.7378 12.715 11.4167 13.0532L11.0371 13.4528L10.5978 13.0355C11.0371 13.4528 11.0365 13.4533 11.036 13.454L11.0347 13.4552L11.0323 13.4578L11.027 13.4632L11.0151 13.4749C11.0065 13.4833 10.9966 13.4923 10.9854 13.5022C10.963 13.5218 10.9352 13.5443 10.902 13.5678C10.8352 13.6152 10.7462 13.6673 10.6338 13.7116C10.4038 13.8023 10.1001 13.851 9.72491 13.7901C8.99358 13.6713 8.03516 13.1461 6.76616 11.81C5.49335 10.47 5.00621 9.47025 4.89729 8.72679C4.84185 8.3484 4.88621 8.0454 4.96763 7.8166C5.00767 7.70407 5.05495 7.61435 5.09855 7.54622C5.12029 7.51225 5.14101 7.4838 5.15933 7.46065C5.16849 7.44908 5.17705 7.43882 5.18485 7.42986L5.19595 7.41737L5.20104 7.41185L5.20345 7.40925L5.20463 7.408C5.2052 7.4074 5.20578 7.4068 5.64884 7.82761L5.20579 7.40679L5.4448 7.15515C5.81608 6.76426 5.87002 6.10227 5.51824 5.60472L4.46741 4.11848Z" fill="white"/>
<path d="M9.04892 2.06636C9.10409 1.72562 9.42617 1.49448 9.76692 1.54964C9.788 1.55368 9.85592 1.56636 9.89142 1.57428C9.96259 1.59012 10.0618 1.6145 10.1854 1.65052C10.4328 1.72256 10.7783 1.84123 11.1929 2.03134C12.0232 2.41197 13.128 3.07781 14.2745 4.22431C15.421 5.37081 16.0868 6.47565 16.4674 7.30588C16.6576 7.72056 16.7763 8.06606 16.8483 8.31338C16.8843 8.43706 16.9087 8.53625 16.9245 8.60735C16.9324 8.64291 16.9383 8.67146 16.9423 8.69255L16.9471 8.71855C17.0022 9.05926 16.7732 9.39476 16.4324 9.44992C16.0927 9.50492 15.7726 9.27484 15.7161 8.93576C15.7143 8.92659 15.7095 8.90217 15.7044 8.87909C15.6941 8.83292 15.6763 8.75974 15.6482 8.66294C15.5918 8.46933 15.4938 8.18156 15.3312 7.82682C15.0063 7.11823 14.4222 6.13975 13.3906 5.10819C12.3591 4.07664 11.3806 3.49248 10.672 3.16762C10.3173 3.00499 10.0295 2.90705 9.83584 2.85065C9.73909 2.82246 9.61742 2.79453 9.57125 2.78426C9.23209 2.72773 8.99392 2.40613 9.04892 2.06636Z" fill="white"/>
<path fill-rule="evenodd" clip-rule="evenodd" d="M9.23905 4.94125C9.33388 4.60935 9.6798 4.41717 10.0117 4.512L9.83996 5.11295C10.0117 4.512 10.0114 4.51192 10.0117 4.512L10.0129 4.51235L10.0141 4.51271L10.017 4.51353L10.0234 4.51545L10.0399 4.52059C10.0525 4.52461 10.0681 4.52985 10.0869 4.53648C10.1243 4.54976 10.1737 4.56865 10.2344 4.59465C10.3558 4.64668 10.5217 4.72703 10.7255 4.84762C11.1334 5.08903 11.6902 5.49 12.3443 6.14415C12.9985 6.7983 13.3995 7.35512 13.6409 7.763C13.7615 7.96676 13.8418 8.13265 13.8938 8.25405C13.9198 8.31473 13.9387 8.36419 13.952 8.40162C13.9586 8.42033 13.9639 8.43602 13.9679 8.44858L13.973 8.46507L13.975 8.47153L13.9758 8.47431L13.9761 8.47559C13.9762 8.47589 13.9765 8.47679 13.3755 8.64849L13.9765 8.47679C14.0713 8.80869 13.8791 9.15458 13.5472 9.24941C13.2181 9.3435 12.8753 9.15533 12.777 8.82861L12.774 8.81963C12.7695 8.8071 12.7603 8.78245 12.7449 8.74645C12.714 8.6745 12.6581 8.55681 12.5651 8.39965C12.3793 8.0857 12.0437 7.61133 11.4605 7.02804C10.8771 6.44474 10.4028 6.10915 10.0888 5.92335C9.93163 5.83033 9.81396 5.77442 9.74205 5.74358C9.70605 5.72815 9.68138 5.71896 9.66888 5.71451L9.65988 5.71144C9.33313 5.6132 9.14505 5.27033 9.23905 4.94125Z" fill="white"/>
</g>
<defs>
<clipPath id="clip0_1324_2145">
<rect width="17" height="19" fill="white"/>
</clipPath>
</defs>
</svg>
