<svg width="16" height="20" viewBox="0 0 16 20" fill="none" xmlns="http://www.w3.org/2000/svg">
<g clip-path="url(#clip0_1222_2100)">
<path d="M15.454 7.03452C15.454 12.0799 11.1023 17.1254 9.28359 19.0138C8.85983 19.4537 8.13911 19.4537 7.71534 19.0138C5.89666 17.1254 1.54492 12.0799 1.54492 7.03452C1.54492 4.90843 3.28356 0.65625 8.49947 0.65625C13.7154 0.65625 15.454 4.90843 15.454 7.03452Z" stroke="white" stroke-linejoin="round"/>
<path d="M8.49982 9.28125C9.78012 9.28125 10.818 8.31586 10.818 7.125C10.818 5.93414 9.78012 4.96875 8.49982 4.96875C7.21953 4.96875 6.18164 5.93414 6.18164 7.125C6.18164 8.31586 7.21953 9.28125 8.49982 9.28125Z" stroke="white" stroke-linejoin="round"/>
</g>
<defs>
<clipPath id="clip0_1222_2100">
<rect width="16" height="20" fill="white"/>
</clipPath>
</defs>
</svg>
