<svg width="70" height="70" viewBox="0 0 70 70" fill="none" xmlns="http://www.w3.org/2000/svg">
<path d="M38.7916 23.6545L42.6416 31.3545C43.1666 32.4045 44.5666 33.4545 45.7333 33.6295L52.7041 34.7962C57.1666 35.5545 58.2166 38.7628 55.0083 41.9712L49.5833 47.3962C48.6791 48.3003 48.1541 50.0795 48.4458 51.3628L49.9916 58.1003C51.2166 63.4087 48.3874 65.4795 43.6916 62.7087L37.1583 58.8295C35.9624 58.1295 34.0374 58.1295 32.8416 58.8295L26.3081 62.7087C21.6123 65.4795 18.7831 63.4087 20.0081 58.1003L21.554 51.3628C21.8457 50.1087 21.3207 48.3295 20.4165 47.3962L14.9915 41.9712C11.7832 38.7628 12.8331 35.5253 17.2956 34.7962L24.2665 33.6295C25.4332 33.4253 26.8332 32.4045 27.3582 31.3545L31.2083 23.6545C33.2791 19.4837 36.7208 19.4837 38.7916 23.6545Z" stroke="#FFCC29" stroke-width="4" stroke-linecap="round" stroke-linejoin="round"/>
<path opacity="0.4" d="M17.5 26.25V5.83337" stroke="#FFCC29" stroke-width="4" stroke-linecap="round" stroke-linejoin="round"/>
<path opacity="0.4" d="M52.5 26.25V5.83337" stroke="#FFCC29" stroke-width="4" stroke-linecap="round" stroke-linejoin="round"/>
<path opacity="0.4" d="M35 11.6667V5.83337" stroke="#FFCC29" stroke-width="4" stroke-linecap="round" stroke-linejoin="round"/>
</svg>
