<svg width="42" height="50" viewBox="0 0 42 50" fill="none" xmlns="http://www.w3.org/2000/svg">
<g clip-path="url(#clip0_1222_1525)">
<path d="M13.7381 24.5394L18.4678 29.5919L27.927 19.4869M39.7511 24.5394C39.7511 35.8093 26.8392 43.9757 22.3494 46.4749C21.8639 46.7452 21.621 46.8804 21.2842 46.9503C21.0218 47.0049 20.6434 47.0049 20.3809 46.9503C20.0441 46.8804 19.8013 46.7452 19.3158 46.4749C14.8258 43.9757 1.91406 35.8093 1.91406 24.5394V14.9841C1.91406 12.9643 1.91406 11.9545 2.22329 11.0864C2.49645 10.3195 2.94034 9.63521 3.5166 9.0927C4.16891 8.47859 5.05406 8.12401 6.82436 7.41481L19.504 2.33535C19.9957 2.1384 20.2414 2.03993 20.4944 2.00087C20.7186 1.96626 20.9465 1.96626 21.1707 2.00087C21.4238 2.03993 21.6695 2.1384 22.1611 2.33535L34.8408 7.41481C36.6111 8.12401 37.4962 8.47859 38.1484 9.0927C38.7247 9.63521 39.1686 10.3195 39.4418 11.0864C39.7511 11.9545 39.7511 12.9643 39.7511 14.9841V24.5394Z" stroke="#FFCC29" stroke-width="4" stroke-linecap="round" stroke-linejoin="round"/>
</g>
<defs>
<clipPath id="clip0_1222_1525">
<rect width="41.6667" height="50" fill="white"/>
</clipPath>
</defs>
</svg>
