<svg width="50" height="48" viewBox="0 0 50 48" fill="none" xmlns="http://www.w3.org/2000/svg">
<g clip-path="url(#clip0_1222_1514)">
<mask id="path-1-outside-1_1222_1514" maskUnits="userSpaceOnUse" x="-0.0195312" y="0.940002" width="47" height="47" fill="black">
<rect fill="white" x="-0.0195312" y="0.940002" width="47" height="47"/>
<path d="M34.0675 20.8923C34.6629 21.4916 35.4624 21.8169 36.3073 21.8169C37.1522 21.8169 37.9517 21.4858 38.5471 20.8923L45.1305 14.3061C45.7259 13.7069 46.0548 12.9136 46.0548 12.0632C46.0548 11.2128 45.7259 10.4195 45.1305 9.82026L38.1445 2.83461C36.9481 1.6418 34.8614 1.6418 33.6649 2.83461L27.0872 9.42076C26.4918 10.02 26.1629 10.8133 26.1629 11.6637C26.1629 12.5141 26.4918 13.3074 27.0872 13.9066L34.0675 20.8923ZM29.0038 11.3384L35.5872 4.75224C35.7006 4.6381 35.8367 4.62098 35.9047 4.62098C35.9728 4.62098 36.1088 4.6381 36.2223 4.75224L43.2082 11.7436C43.3216 11.8577 43.3387 11.9947 43.3387 12.0632C43.3387 12.1317 43.3216 12.2687 43.2082 12.3828L36.6305 18.969C36.5171 19.0831 36.381 19.1002 36.313 19.1002C36.2449 19.1002 36.1088 19.0831 35.9954 18.969L29.0038 11.9833C28.8904 11.8692 28.8734 11.7322 28.8734 11.6637C28.8734 11.5952 28.8904 11.4525 29.0038 11.3384ZM12.9167 28.0891C11.7203 26.8963 9.62789 26.8963 8.4371 28.0891L7.56952 28.9566C6.70194 29.8298 5.78333 31.3765 5.44311 32.5579L2.54551 42.5284C2.30168 43.3617 2.40942 44.1379 2.84604 44.72C3.24297 45.2508 3.87806 45.5532 4.58687 45.5532C4.87039 45.5532 5.17092 45.5076 5.47146 45.4106L15.8143 42.2088C16.9825 41.8493 18.5191 40.919 19.381 40.0572L19.8914 39.5492C20.4868 38.95 20.8157 38.1567 20.8157 37.3063C20.8157 36.4559 20.4868 35.6626 19.8914 35.0634L12.9167 28.0891ZM17.9748 37.6316L17.4644 38.1396C16.9201 38.6874 15.752 39.3894 15.0148 39.6177L8.82836 41.5296L6.48647 38.7046L8.05151 33.3226C8.26698 32.5864 8.95311 31.4221 9.4918 30.8857L10.3594 30.0182C10.4728 29.904 10.6089 29.8869 10.6769 29.8869C10.745 29.8869 10.8811 29.904 10.9945 30.0182L17.9691 36.9981C18.0825 37.1123 18.0995 37.2492 18.0995 37.3177C18.1052 37.3862 18.0882 37.5232 17.9748 37.6316ZM13.3647 2.83461C12.1682 1.6418 10.0815 1.6418 8.88506 2.83461L1.90475 9.82026C1.30935 10.4195 0.980469 11.2128 0.980469 12.0632C0.980469 12.9136 1.30935 13.7069 1.90475 14.3061L33.6706 46.0954C34.266 46.6947 35.0655 47.02 35.9104 47.02C36.7553 47.02 37.5548 46.689 38.1502 46.0954L45.1362 39.1041C45.7316 38.5048 46.0605 37.7115 46.0605 36.8611C46.0605 36.0108 45.7316 35.2174 45.1362 34.6182L13.3647 2.83461ZM43.2082 37.1807L36.2279 44.1721C36.1145 44.2862 35.9784 44.3034 35.9104 44.3034C35.8423 44.3034 35.7062 44.2862 35.5928 44.1721L3.82703 12.3828C3.71362 12.2687 3.69661 12.1317 3.69661 12.0632C3.69661 11.9947 3.71362 11.8577 3.82703 11.7436L10.8073 4.75224C10.9208 4.6381 11.0568 4.62098 11.1249 4.62098C11.1929 4.62098 11.329 4.6381 11.4424 4.75224L12.3894 5.69964L9.15157 8.94706C8.61855 9.47783 8.61855 10.3396 9.15157 10.8704C9.41809 11.1329 9.76398 11.2699 10.1099 11.2699C10.4558 11.2699 10.8073 11.1386 11.0682 10.8704L14.3117 7.62298L15.8881 9.20388L14.4875 10.6079C13.9601 11.1386 13.9601 12.0004 14.4875 12.5312C14.754 12.7937 15.0999 12.9307 15.4458 12.9307C15.7917 12.9307 16.1432 12.7994 16.4041 12.5312L17.8047 11.1272L19.381 12.7081L16.1376 15.9555C15.6045 16.4863 15.6045 17.3481 16.1376 17.8789C16.4041 18.1414 16.75 18.2784 17.0959 18.2784C17.4418 18.2784 17.7877 18.1471 18.0542 17.8789L21.2977 14.6315L22.8797 16.2124L21.4791 17.6163C20.9518 18.1471 20.9518 19.0089 21.4791 19.5397C21.7456 19.8079 22.0915 19.9392 22.4374 19.9392C22.7833 19.9392 23.1349 19.8079 23.3957 19.5397L24.7963 18.1357L26.3784 19.7166L23.1349 22.964C22.6075 23.4948 22.6075 24.3566 23.1349 24.8874C23.4014 25.1499 23.7473 25.2869 24.0932 25.2869C24.4391 25.2869 24.7906 25.1556 25.0515 24.8874L28.295 21.6399L29.877 23.2208L28.4764 24.6248C27.9491 25.1556 27.9491 26.0174 28.4764 26.5482C28.7429 26.8164 29.0888 26.9477 29.4347 26.9477C29.7806 26.9477 30.1322 26.8164 30.393 26.5482L31.7936 25.1442L33.37 26.7251L30.1265 29.9725C29.5935 30.5033 29.5935 31.3651 30.1265 31.8958C30.393 32.1641 30.7389 32.2953 31.0848 32.2953C31.4307 32.2953 31.7766 32.1641 32.0431 31.8958L35.2866 28.6484L36.863 30.2293L35.4624 31.6333C34.9351 32.1641 34.9351 33.0259 35.4624 33.5566C35.7289 33.8192 36.0748 33.9562 36.4207 33.9562C36.7666 33.9562 37.1182 33.8249 37.379 33.5566L38.7796 32.1527L40.3617 33.7336L37.1182 36.981C36.5852 37.5118 36.5852 38.3736 37.1182 38.9043C37.3847 39.1669 37.7306 39.3038 38.0765 39.3038C38.4224 39.3038 38.774 39.1726 39.0348 38.9043L42.2783 35.6569L43.1799 36.5644C43.2933 36.6785 43.3103 36.8155 43.3103 36.884C43.3103 36.9524 43.3216 37.0666 43.2082 37.1807Z"/>
</mask>
<path d="M34.0675 20.8923C34.6629 21.4916 35.4624 21.8169 36.3073 21.8169C37.1522 21.8169 37.9517 21.4858 38.5471 20.8923L45.1305 14.3061C45.7259 13.7069 46.0548 12.9136 46.0548 12.0632C46.0548 11.2128 45.7259 10.4195 45.1305 9.82026L38.1445 2.83461C36.9481 1.6418 34.8614 1.6418 33.6649 2.83461L27.0872 9.42076C26.4918 10.02 26.1629 10.8133 26.1629 11.6637C26.1629 12.5141 26.4918 13.3074 27.0872 13.9066L34.0675 20.8923ZM29.0038 11.3384L35.5872 4.75224C35.7006 4.6381 35.8367 4.62098 35.9047 4.62098C35.9728 4.62098 36.1088 4.6381 36.2223 4.75224L43.2082 11.7436C43.3216 11.8577 43.3387 11.9947 43.3387 12.0632C43.3387 12.1317 43.3216 12.2687 43.2082 12.3828L36.6305 18.969C36.5171 19.0831 36.381 19.1002 36.313 19.1002C36.2449 19.1002 36.1088 19.0831 35.9954 18.969L29.0038 11.9833C28.8904 11.8692 28.8734 11.7322 28.8734 11.6637C28.8734 11.5952 28.8904 11.4525 29.0038 11.3384ZM12.9167 28.0891C11.7203 26.8963 9.62789 26.8963 8.4371 28.0891L7.56952 28.9566C6.70194 29.8298 5.78333 31.3765 5.44311 32.5579L2.54551 42.5284C2.30168 43.3617 2.40942 44.1379 2.84604 44.72C3.24297 45.2508 3.87806 45.5532 4.58687 45.5532C4.87039 45.5532 5.17092 45.5076 5.47146 45.4106L15.8143 42.2088C16.9825 41.8493 18.5191 40.919 19.381 40.0572L19.8914 39.5492C20.4868 38.95 20.8157 38.1567 20.8157 37.3063C20.8157 36.4559 20.4868 35.6626 19.8914 35.0634L12.9167 28.0891ZM17.9748 37.6316L17.4644 38.1396C16.9201 38.6874 15.752 39.3894 15.0148 39.6177L8.82836 41.5296L6.48647 38.7046L8.05151 33.3226C8.26698 32.5864 8.95311 31.4221 9.4918 30.8857L10.3594 30.0182C10.4728 29.904 10.6089 29.8869 10.6769 29.8869C10.745 29.8869 10.8811 29.904 10.9945 30.0182L17.9691 36.9981C18.0825 37.1123 18.0995 37.2492 18.0995 37.3177C18.1052 37.3862 18.0882 37.5232 17.9748 37.6316ZM13.3647 2.83461C12.1682 1.6418 10.0815 1.6418 8.88506 2.83461L1.90475 9.82026C1.30935 10.4195 0.980469 11.2128 0.980469 12.0632C0.980469 12.9136 1.30935 13.7069 1.90475 14.3061L33.6706 46.0954C34.266 46.6947 35.0655 47.02 35.9104 47.02C36.7553 47.02 37.5548 46.689 38.1502 46.0954L45.1362 39.1041C45.7316 38.5048 46.0605 37.7115 46.0605 36.8611C46.0605 36.0108 45.7316 35.2174 45.1362 34.6182L13.3647 2.83461ZM43.2082 37.1807L36.2279 44.1721C36.1145 44.2862 35.9784 44.3034 35.9104 44.3034C35.8423 44.3034 35.7062 44.2862 35.5928 44.1721L3.82703 12.3828C3.71362 12.2687 3.69661 12.1317 3.69661 12.0632C3.69661 11.9947 3.71362 11.8577 3.82703 11.7436L10.8073 4.75224C10.9208 4.6381 11.0568 4.62098 11.1249 4.62098C11.1929 4.62098 11.329 4.6381 11.4424 4.75224L12.3894 5.69964L9.15157 8.94706C8.61855 9.47783 8.61855 10.3396 9.15157 10.8704C9.41809 11.1329 9.76398 11.2699 10.1099 11.2699C10.4558 11.2699 10.8073 11.1386 11.0682 10.8704L14.3117 7.62298L15.8881 9.20388L14.4875 10.6079C13.9601 11.1386 13.9601 12.0004 14.4875 12.5312C14.754 12.7937 15.0999 12.9307 15.4458 12.9307C15.7917 12.9307 16.1432 12.7994 16.4041 12.5312L17.8047 11.1272L19.381 12.7081L16.1376 15.9555C15.6045 16.4863 15.6045 17.3481 16.1376 17.8789C16.4041 18.1414 16.75 18.2784 17.0959 18.2784C17.4418 18.2784 17.7877 18.1471 18.0542 17.8789L21.2977 14.6315L22.8797 16.2124L21.4791 17.6163C20.9518 18.1471 20.9518 19.0089 21.4791 19.5397C21.7456 19.8079 22.0915 19.9392 22.4374 19.9392C22.7833 19.9392 23.1349 19.8079 23.3957 19.5397L24.7963 18.1357L26.3784 19.7166L23.1349 22.964C22.6075 23.4948 22.6075 24.3566 23.1349 24.8874C23.4014 25.1499 23.7473 25.2869 24.0932 25.2869C24.4391 25.2869 24.7906 25.1556 25.0515 24.8874L28.295 21.6399L29.877 23.2208L28.4764 24.6248C27.9491 25.1556 27.9491 26.0174 28.4764 26.5482C28.7429 26.8164 29.0888 26.9477 29.4347 26.9477C29.7806 26.9477 30.1322 26.8164 30.393 26.5482L31.7936 25.1442L33.37 26.7251L30.1265 29.9725C29.5935 30.5033 29.5935 31.3651 30.1265 31.8958C30.393 32.1641 30.7389 32.2953 31.0848 32.2953C31.4307 32.2953 31.7766 32.1641 32.0431 31.8958L35.2866 28.6484L36.863 30.2293L35.4624 31.6333C34.9351 32.1641 34.9351 33.0259 35.4624 33.5566C35.7289 33.8192 36.0748 33.9562 36.4207 33.9562C36.7666 33.9562 37.1182 33.8249 37.379 33.5566L38.7796 32.1527L40.3617 33.7336L37.1182 36.981C36.5852 37.5118 36.5852 38.3736 37.1182 38.9043C37.3847 39.1669 37.7306 39.3038 38.0765 39.3038C38.4224 39.3038 38.774 39.1726 39.0348 38.9043L42.2783 35.6569L43.1799 36.5644C43.2933 36.6785 43.3103 36.8155 43.3103 36.884C43.3103 36.9524 43.3216 37.0666 43.2082 37.1807Z" fill="#FFCC29"/>
<path d="M34.0675 20.8923C34.6629 21.4916 35.4624 21.8169 36.3073 21.8169C37.1522 21.8169 37.9517 21.4858 38.5471 20.8923L45.1305 14.3061C45.7259 13.7069 46.0548 12.9136 46.0548 12.0632C46.0548 11.2128 45.7259 10.4195 45.1305 9.82026L38.1445 2.83461C36.9481 1.6418 34.8614 1.6418 33.6649 2.83461L27.0872 9.42076C26.4918 10.02 26.1629 10.8133 26.1629 11.6637C26.1629 12.5141 26.4918 13.3074 27.0872 13.9066L34.0675 20.8923ZM29.0038 11.3384L35.5872 4.75224C35.7006 4.6381 35.8367 4.62098 35.9047 4.62098C35.9728 4.62098 36.1088 4.6381 36.2223 4.75224L43.2082 11.7436C43.3216 11.8577 43.3387 11.9947 43.3387 12.0632C43.3387 12.1317 43.3216 12.2687 43.2082 12.3828L36.6305 18.969C36.5171 19.0831 36.381 19.1002 36.313 19.1002C36.2449 19.1002 36.1088 19.0831 35.9954 18.969L29.0038 11.9833C28.8904 11.8692 28.8734 11.7322 28.8734 11.6637C28.8734 11.5952 28.8904 11.4525 29.0038 11.3384ZM12.9167 28.0891C11.7203 26.8963 9.62789 26.8963 8.4371 28.0891L7.56952 28.9566C6.70194 29.8298 5.78333 31.3765 5.44311 32.5579L2.54551 42.5284C2.30168 43.3617 2.40942 44.1379 2.84604 44.72C3.24297 45.2508 3.87806 45.5532 4.58687 45.5532C4.87039 45.5532 5.17092 45.5076 5.47146 45.4106L15.8143 42.2088C16.9825 41.8493 18.5191 40.919 19.381 40.0572L19.8914 39.5492C20.4868 38.95 20.8157 38.1567 20.8157 37.3063C20.8157 36.4559 20.4868 35.6626 19.8914 35.0634L12.9167 28.0891ZM17.9748 37.6316L17.4644 38.1396C16.9201 38.6874 15.752 39.3894 15.0148 39.6177L8.82836 41.5296L6.48647 38.7046L8.05151 33.3226C8.26698 32.5864 8.95311 31.4221 9.4918 30.8857L10.3594 30.0182C10.4728 29.904 10.6089 29.8869 10.6769 29.8869C10.745 29.8869 10.8811 29.904 10.9945 30.0182L17.9691 36.9981C18.0825 37.1123 18.0995 37.2492 18.0995 37.3177C18.1052 37.3862 18.0882 37.5232 17.9748 37.6316ZM13.3647 2.83461C12.1682 1.6418 10.0815 1.6418 8.88506 2.83461L1.90475 9.82026C1.30935 10.4195 0.980469 11.2128 0.980469 12.0632C0.980469 12.9136 1.30935 13.7069 1.90475 14.3061L33.6706 46.0954C34.266 46.6947 35.0655 47.02 35.9104 47.02C36.7553 47.02 37.5548 46.689 38.1502 46.0954L45.1362 39.1041C45.7316 38.5048 46.0605 37.7115 46.0605 36.8611C46.0605 36.0108 45.7316 35.2174 45.1362 34.6182L13.3647 2.83461ZM43.2082 37.1807L36.2279 44.1721C36.1145 44.2862 35.9784 44.3034 35.9104 44.3034C35.8423 44.3034 35.7062 44.2862 35.5928 44.1721L3.82703 12.3828C3.71362 12.2687 3.69661 12.1317 3.69661 12.0632C3.69661 11.9947 3.71362 11.8577 3.82703 11.7436L10.8073 4.75224C10.9208 4.6381 11.0568 4.62098 11.1249 4.62098C11.1929 4.62098 11.329 4.6381 11.4424 4.75224L12.3894 5.69964L9.15157 8.94706C8.61855 9.47783 8.61855 10.3396 9.15157 10.8704C9.41809 11.1329 9.76398 11.2699 10.1099 11.2699C10.4558 11.2699 10.8073 11.1386 11.0682 10.8704L14.3117 7.62298L15.8881 9.20388L14.4875 10.6079C13.9601 11.1386 13.9601 12.0004 14.4875 12.5312C14.754 12.7937 15.0999 12.9307 15.4458 12.9307C15.7917 12.9307 16.1432 12.7994 16.4041 12.5312L17.8047 11.1272L19.381 12.7081L16.1376 15.9555C15.6045 16.4863 15.6045 17.3481 16.1376 17.8789C16.4041 18.1414 16.75 18.2784 17.0959 18.2784C17.4418 18.2784 17.7877 18.1471 18.0542 17.8789L21.2977 14.6315L22.8797 16.2124L21.4791 17.6163C20.9518 18.1471 20.9518 19.0089 21.4791 19.5397C21.7456 19.8079 22.0915 19.9392 22.4374 19.9392C22.7833 19.9392 23.1349 19.8079 23.3957 19.5397L24.7963 18.1357L26.3784 19.7166L23.1349 22.964C22.6075 23.4948 22.6075 24.3566 23.1349 24.8874C23.4014 25.1499 23.7473 25.2869 24.0932 25.2869C24.4391 25.2869 24.7906 25.1556 25.0515 24.8874L28.295 21.6399L29.877 23.2208L28.4764 24.6248C27.9491 25.1556 27.9491 26.0174 28.4764 26.5482C28.7429 26.8164 29.0888 26.9477 29.4347 26.9477C29.7806 26.9477 30.1322 26.8164 30.393 26.5482L31.7936 25.1442L33.37 26.7251L30.1265 29.9725C29.5935 30.5033 29.5935 31.3651 30.1265 31.8958C30.393 32.1641 30.7389 32.2953 31.0848 32.2953C31.4307 32.2953 31.7766 32.1641 32.0431 31.8958L35.2866 28.6484L36.863 30.2293L35.4624 31.6333C34.9351 32.1641 34.9351 33.0259 35.4624 33.5566C35.7289 33.8192 36.0748 33.9562 36.4207 33.9562C36.7666 33.9562 37.1182 33.8249 37.379 33.5566L38.7796 32.1527L40.3617 33.7336L37.1182 36.981C36.5852 37.5118 36.5852 38.3736 37.1182 38.9043C37.3847 39.1669 37.7306 39.3038 38.0765 39.3038C38.4224 39.3038 38.774 39.1726 39.0348 38.9043L42.2783 35.6569L43.1799 36.5644C43.2933 36.6785 43.3103 36.8155 43.3103 36.884C43.3103 36.9524 43.3216 37.0666 43.2082 37.1807Z" stroke="#FFCC29" stroke-width="0.6" mask="url(#path-1-outside-1_1222_1514)"/>
</g>
<defs>
<clipPath id="clip0_1222_1514">
<rect width="50" height="48" fill="white"/>
</clipPath>
</defs>
</svg>
