<svg width="50" height="50" viewBox="0 0 50 50" fill="none" xmlns="http://www.w3.org/2000/svg">
<g clip-path="url(#clip0_1222_1530)">
<path d="M27.8762 32.5696C28.7011 31.7448 29.1152 30.6512 29.1137 29.5728C29.1151 28.4942 28.701 27.4006 27.8762 26.5762L23.8803 22.5803C23.0556 21.7551 21.962 21.3409 20.8834 21.3423C19.8047 21.3409 18.7109 21.755 17.8863 22.5805C17.3348 23.1323 17.3349 24.0269 17.8868 24.5784C18.4386 25.1299 19.3332 25.1297 19.8848 24.5778C20.1585 24.3043 20.5132 24.1692 20.8833 24.1677C21.253 24.1691 21.608 24.3043 21.8824 24.5781L25.8781 28.5739C26.1517 28.848 26.287 29.203 26.2884 29.5728C26.2868 29.9428 26.1516 30.2976 25.878 30.5719C25.3264 31.1236 25.3264 32.0182 25.8781 32.5698C26.43 33.1214 27.3245 33.1214 27.8762 32.5696Z" fill="#FFCC29"/>
<path d="M11.5934 40.8604L22.8952 29.5587C23.4468 29.0069 23.4468 28.1125 22.8952 27.5608C22.3434 27.009 21.449 27.009 20.8972 27.5608L9.59542 38.8626C9.04371 39.4142 9.04371 40.3087 9.59542 40.8604C10.1472 41.4121 11.0416 41.4121 11.5934 40.8604ZM26.1343 18.3278L21.882 22.5803C21.3303 23.1319 21.3303 24.0265 21.882 24.5781C22.4337 25.1298 23.3283 25.1298 23.8799 24.5781L28.1322 20.3257C28.6839 19.7741 28.6839 18.8795 28.1322 18.3278C27.5804 17.7761 26.6859 17.7761 26.1343 18.3278ZM30.1301 22.3236L25.8778 26.576C25.326 27.1277 25.326 28.0223 25.8778 28.5739C26.4294 29.1255 27.324 29.1255 27.8756 28.5739L32.1279 24.3214C32.6796 23.7698 32.6796 22.8752 32.1279 22.3236C31.5762 21.7719 30.6818 21.7719 30.1301 22.3236ZM40.2615 39.8615V41.2741C41.8242 41.2703 43.083 40.0114 43.0868 38.4488C43.083 36.8862 41.8242 35.6272 40.2615 35.6233C38.6989 35.6272 37.4399 36.8862 37.4361 38.4488C37.4399 40.0114 38.6989 41.2703 40.2615 41.2741V38.4488H40.2614L40.2615 38.4486V39.8615Z" fill="#FFCC29"/>
<mask id="path-3-outside-1_1222_1530" maskUnits="userSpaceOnUse" x="2.53113" y="0.717521" width="47" height="47" fill="black">
<rect fill="white" x="2.53113" y="0.717521" width="47" height="47"/>
<path d="M40.2619 29.9723C40.0928 29.973 39.9514 29.9883 39.8062 30.0014L34.9402 25.1353L33.1274 23.3226L37.9767 18.4732L41.387 18.4734C41.8824 18.4734 42.3452 18.2107 42.5995 17.7855L48.538 7.85081C48.6997 7.5808 48.7665 7.26446 48.7278 6.95211C48.6891 6.63975 48.547 6.34931 48.3242 6.12698L44.3285 2.13171C44.1062 1.90896 43.8158 1.76694 43.5035 1.72824C43.1912 1.68953 42.8749 1.75635 42.605 1.91808L32.6707 7.85588C32.4612 7.98151 32.2877 8.1592 32.1672 8.3717C32.0466 8.58419 31.9831 8.82425 31.9827 9.06856V12.4793L27.1334 17.3286L25.7344 15.9297C25.9888 14.9778 26.1179 13.9968 26.1183 13.0116C26.1195 10.1227 25.0145 7.21798 22.8165 5.01997C20.6185 2.82181 17.7137 1.71687 14.8246 1.71819C13.5412 1.71819 12.2576 1.93493 11.0339 2.37112C10.8092 2.45078 10.6084 2.58619 10.4503 2.76467C10.2922 2.94315 10.1821 3.15885 10.1302 3.39154C10.0774 3.62405 10.0845 3.86616 10.1509 4.09517C10.2172 4.32418 10.3406 4.5326 10.5095 4.70088L16.2882 10.4793L15.6225 13.8093L12.2926 14.4752L6.51368 8.69595C6.3454 8.52705 6.13698 8.40365 5.90797 8.3373C5.67896 8.27095 5.43686 8.26383 5.20434 8.31661C4.97162 8.3686 4.75591 8.47883 4.57743 8.63697C4.39895 8.79511 4.26355 8.99598 4.18393 9.22075C3.74794 10.4443 3.53113 11.7277 3.53113 13.0111C3.53002 15.9002 4.63475 18.8052 6.83353 21.0036C9.03127 23.202 11.936 24.3066 14.8246 24.3054C15.3056 24.3054 15.7854 24.2647 16.2631 24.2037L4.76919 35.6976C3.94402 36.5222 3.52995 37.6159 3.53134 38.6945C3.52995 39.7729 3.94416 40.8667 4.76961 41.6911L8.76447 45.6867C9.58922 46.5119 10.6828 46.9261 11.7616 46.9247C12.8403 46.9261 13.9339 46.5119 14.7584 45.6869L27.1335 33.3117L28.7611 34.939L31.8145 37.9929C31.8015 38.1382 31.7861 38.2797 31.7855 38.4486C31.7878 43.1272 35.5832 46.9226 40.2618 46.9249C44.9404 46.9226 48.7357 43.1272 48.738 38.4486C48.7359 33.7701 44.9404 29.9747 40.2619 29.9723ZM40.2619 44.0995C37.1485 44.0939 34.6167 41.5622 34.6109 38.4486C34.6094 38.2689 34.6455 38.0187 34.6956 37.6708C34.7258 37.4545 34.7053 37.2342 34.6359 37.0272C34.5664 36.8202 34.4497 36.6321 34.2951 36.4779L30.7588 32.9411L28.1157 30.2985L28.0799 30.2626C27.9317 30.1145 27.7525 30.0012 27.5552 29.9309C27.3578 29.8606 27.1473 29.835 26.9389 29.856C26.7304 29.8771 26.5293 29.9443 26.35 30.0527C26.1708 30.1611 26.0179 30.308 25.9024 30.4828L25.7771 30.6723L12.7607 43.6891C12.4865 43.9628 12.1315 44.0979 11.7617 44.0994C11.3917 44.098 11.0368 43.9628 10.7626 43.6891L6.76724 39.6931C6.49351 39.4188 6.35823 39.0643 6.35671 38.6946C6.35823 38.3246 6.49351 37.9697 6.76711 37.6956L19.7838 24.679L19.9733 24.5538C20.1481 24.4383 20.295 24.2853 20.4034 24.1061C20.5118 23.9268 20.579 23.7256 20.6001 23.5172C20.6211 23.3088 20.5956 23.0983 20.5252 22.9009C20.4549 22.7036 20.3416 22.5243 20.1935 22.3761L20.1576 22.3402L19.1402 21.3228C18.9511 21.1339 18.7123 21.0025 18.4516 20.9437C18.1909 20.885 17.9188 20.9014 17.667 20.9909C16.7529 21.3167 15.7894 21.48 14.8244 21.48C12.648 21.4789 10.4795 20.6539 8.83144 19.0058C7.18277 17.3568 6.35761 15.1881 6.3565 13.0111C6.3565 12.864 6.38617 12.7188 6.3938 12.572L10.8292 17.0076C10.9937 17.172 11.1962 17.2933 11.4187 17.3607C11.6413 17.4281 11.8771 17.4395 12.1051 17.394L17.1 16.3951C17.3736 16.3406 17.6249 16.2063 17.8222 16.009C18.0194 15.8118 18.1538 15.5604 18.2082 15.2868L19.207 10.292C19.2526 10.0639 19.2412 9.82809 19.1738 9.60548C19.1064 9.38286 18.9851 9.18033 18.8206 9.01586L14.3853 4.58079C14.5323 4.5733 14.6774 4.54349 14.8246 4.54349C17.0014 4.54474 19.1703 5.37004 20.8187 7.01788C22.4666 8.66627 23.2919 10.8352 23.2931 13.0116C23.2931 13.9769 23.1299 14.9403 22.8041 15.8537C22.7145 16.1055 22.6981 16.3776 22.7569 16.6383C22.8156 16.899 22.947 17.1378 23.1359 17.3269L25.1357 19.3267L26.1346 20.3255C26.4001 20.5896 26.759 20.7383 27.1335 20.7393C27.508 20.7383 27.8669 20.5896 28.1324 20.3255L34.3944 14.0635C34.6585 13.798 34.8072 13.4391 34.8082 13.0646V9.87001L43.1093 4.90813L45.5477 7.34632L40.5854 15.6479H37.3915C37.017 15.6489 36.658 15.7976 36.3925 16.0617L30.1306 22.3237C29.5788 22.8754 29.5788 23.7698 30.1306 24.3216L32.9422 27.1331L38.2909 32.482C38.4449 32.6365 38.6327 32.7531 38.8395 32.8226C39.0463 32.8921 39.2664 32.9126 39.4825 32.8825C39.8326 32.8325 40.0826 32.796 40.2619 32.7977C43.3753 32.8035 45.9071 35.3353 45.9128 38.4486C45.9072 41.5621 43.3753 44.0938 40.2619 44.0995Z"/>
</mask>
<path d="M40.2619 29.9723C40.0928 29.973 39.9514 29.9883 39.8062 30.0014L34.9402 25.1353L33.1274 23.3226L37.9767 18.4732L41.387 18.4734C41.8824 18.4734 42.3452 18.2107 42.5995 17.7855L48.538 7.85081C48.6997 7.5808 48.7665 7.26446 48.7278 6.95211C48.6891 6.63975 48.547 6.34931 48.3242 6.12698L44.3285 2.13171C44.1062 1.90896 43.8158 1.76694 43.5035 1.72824C43.1912 1.68953 42.8749 1.75635 42.605 1.91808L32.6707 7.85588C32.4612 7.98151 32.2877 8.1592 32.1672 8.3717C32.0466 8.58419 31.9831 8.82425 31.9827 9.06856V12.4793L27.1334 17.3286L25.7344 15.9297C25.9888 14.9778 26.1179 13.9968 26.1183 13.0116C26.1195 10.1227 25.0145 7.21798 22.8165 5.01997C20.6185 2.82181 17.7137 1.71687 14.8246 1.71819C13.5412 1.71819 12.2576 1.93493 11.0339 2.37112C10.8092 2.45078 10.6084 2.58619 10.4503 2.76467C10.2922 2.94315 10.1821 3.15885 10.1302 3.39154C10.0774 3.62405 10.0845 3.86616 10.1509 4.09517C10.2172 4.32418 10.3406 4.5326 10.5095 4.70088L16.2882 10.4793L15.6225 13.8093L12.2926 14.4752L6.51368 8.69595C6.3454 8.52705 6.13698 8.40365 5.90797 8.3373C5.67896 8.27095 5.43686 8.26383 5.20434 8.31661C4.97162 8.3686 4.75591 8.47883 4.57743 8.63697C4.39895 8.79511 4.26355 8.99598 4.18393 9.22075C3.74794 10.4443 3.53113 11.7277 3.53113 13.0111C3.53002 15.9002 4.63475 18.8052 6.83353 21.0036C9.03127 23.202 11.936 24.3066 14.8246 24.3054C15.3056 24.3054 15.7854 24.2647 16.2631 24.2037L4.76919 35.6976C3.94402 36.5222 3.52995 37.6159 3.53134 38.6945C3.52995 39.7729 3.94416 40.8667 4.76961 41.6911L8.76447 45.6867C9.58922 46.5119 10.6828 46.9261 11.7616 46.9247C12.8403 46.9261 13.9339 46.5119 14.7584 45.6869L27.1335 33.3117L28.7611 34.939L31.8145 37.9929C31.8015 38.1382 31.7861 38.2797 31.7855 38.4486C31.7878 43.1272 35.5832 46.9226 40.2618 46.9249C44.9404 46.9226 48.7357 43.1272 48.738 38.4486C48.7359 33.7701 44.9404 29.9747 40.2619 29.9723ZM40.2619 44.0995C37.1485 44.0939 34.6167 41.5622 34.6109 38.4486C34.6094 38.2689 34.6455 38.0187 34.6956 37.6708C34.7258 37.4545 34.7053 37.2342 34.6359 37.0272C34.5664 36.8202 34.4497 36.6321 34.2951 36.4779L30.7588 32.9411L28.1157 30.2985L28.0799 30.2626C27.9317 30.1145 27.7525 30.0012 27.5552 29.9309C27.3578 29.8606 27.1473 29.835 26.9389 29.856C26.7304 29.8771 26.5293 29.9443 26.35 30.0527C26.1708 30.1611 26.0179 30.308 25.9024 30.4828L25.7771 30.6723L12.7607 43.6891C12.4865 43.9628 12.1315 44.0979 11.7617 44.0994C11.3917 44.098 11.0368 43.9628 10.7626 43.6891L6.76724 39.6931C6.49351 39.4188 6.35823 39.0643 6.35671 38.6946C6.35823 38.3246 6.49351 37.9697 6.76711 37.6956L19.7838 24.679L19.9733 24.5538C20.1481 24.4383 20.295 24.2853 20.4034 24.1061C20.5118 23.9268 20.579 23.7256 20.6001 23.5172C20.6211 23.3088 20.5956 23.0983 20.5252 22.9009C20.4549 22.7036 20.3416 22.5243 20.1935 22.3761L20.1576 22.3402L19.1402 21.3228C18.9511 21.1339 18.7123 21.0025 18.4516 20.9437C18.1909 20.885 17.9188 20.9014 17.667 20.9909C16.7529 21.3167 15.7894 21.48 14.8244 21.48C12.648 21.4789 10.4795 20.6539 8.83144 19.0058C7.18277 17.3568 6.35761 15.1881 6.3565 13.0111C6.3565 12.864 6.38617 12.7188 6.3938 12.572L10.8292 17.0076C10.9937 17.172 11.1962 17.2933 11.4187 17.3607C11.6413 17.4281 11.8771 17.4395 12.1051 17.394L17.1 16.3951C17.3736 16.3406 17.6249 16.2063 17.8222 16.009C18.0194 15.8118 18.1538 15.5604 18.2082 15.2868L19.207 10.292C19.2526 10.0639 19.2412 9.82809 19.1738 9.60548C19.1064 9.38286 18.9851 9.18033 18.8206 9.01586L14.3853 4.58079C14.5323 4.5733 14.6774 4.54349 14.8246 4.54349C17.0014 4.54474 19.1703 5.37004 20.8187 7.01788C22.4666 8.66627 23.2919 10.8352 23.2931 13.0116C23.2931 13.9769 23.1299 14.9403 22.8041 15.8537C22.7145 16.1055 22.6981 16.3776 22.7569 16.6383C22.8156 16.899 22.947 17.1378 23.1359 17.3269L25.1357 19.3267L26.1346 20.3255C26.4001 20.5896 26.759 20.7383 27.1335 20.7393C27.508 20.7383 27.8669 20.5896 28.1324 20.3255L34.3944 14.0635C34.6585 13.798 34.8072 13.4391 34.8082 13.0646V9.87001L43.1093 4.90813L45.5477 7.34632L40.5854 15.6479H37.3915C37.017 15.6489 36.658 15.7976 36.3925 16.0617L30.1306 22.3237C29.5788 22.8754 29.5788 23.7698 30.1306 24.3216L32.9422 27.1331L38.2909 32.482C38.4449 32.6365 38.6327 32.7531 38.8395 32.8226C39.0463 32.8921 39.2664 32.9126 39.4825 32.8825C39.8326 32.8325 40.0826 32.796 40.2619 32.7977C43.3753 32.8035 45.9071 35.3353 45.9128 38.4486C45.9072 41.5621 43.3753 44.0938 40.2619 44.0995Z" fill="#FFCC29"/>
<path d="M40.2619 29.9723C40.0928 29.973 39.9514 29.9883 39.8062 30.0014L34.9402 25.1353L33.1274 23.3226L37.9767 18.4732L41.387 18.4734C41.8824 18.4734 42.3452 18.2107 42.5995 17.7855L48.538 7.85081C48.6997 7.5808 48.7665 7.26446 48.7278 6.95211C48.6891 6.63975 48.547 6.34931 48.3242 6.12698L44.3285 2.13171C44.1062 1.90896 43.8158 1.76694 43.5035 1.72824C43.1912 1.68953 42.8749 1.75635 42.605 1.91808L32.6707 7.85588C32.4612 7.98151 32.2877 8.1592 32.1672 8.3717C32.0466 8.58419 31.9831 8.82425 31.9827 9.06856V12.4793L27.1334 17.3286L25.7344 15.9297C25.9888 14.9778 26.1179 13.9968 26.1183 13.0116C26.1195 10.1227 25.0145 7.21798 22.8165 5.01997C20.6185 2.82181 17.7137 1.71687 14.8246 1.71819C13.5412 1.71819 12.2576 1.93493 11.0339 2.37112C10.8092 2.45078 10.6084 2.58619 10.4503 2.76467C10.2922 2.94315 10.1821 3.15885 10.1302 3.39154C10.0774 3.62405 10.0845 3.86616 10.1509 4.09517C10.2172 4.32418 10.3406 4.5326 10.5095 4.70088L16.2882 10.4793L15.6225 13.8093L12.2926 14.4752L6.51368 8.69595C6.3454 8.52705 6.13698 8.40365 5.90797 8.3373C5.67896 8.27095 5.43686 8.26383 5.20434 8.31661C4.97162 8.3686 4.75591 8.47883 4.57743 8.63697C4.39895 8.79511 4.26355 8.99598 4.18393 9.22075C3.74794 10.4443 3.53113 11.7277 3.53113 13.0111C3.53002 15.9002 4.63475 18.8052 6.83353 21.0036C9.03127 23.202 11.936 24.3066 14.8246 24.3054C15.3056 24.3054 15.7854 24.2647 16.2631 24.2037L4.76919 35.6976C3.94402 36.5222 3.52995 37.6159 3.53134 38.6945C3.52995 39.7729 3.94416 40.8667 4.76961 41.6911L8.76447 45.6867C9.58922 46.5119 10.6828 46.9261 11.7616 46.9247C12.8403 46.9261 13.9339 46.5119 14.7584 45.6869L27.1335 33.3117L28.7611 34.939L31.8145 37.9929C31.8015 38.1382 31.7861 38.2797 31.7855 38.4486C31.7878 43.1272 35.5832 46.9226 40.2618 46.9249C44.9404 46.9226 48.7357 43.1272 48.738 38.4486C48.7359 33.7701 44.9404 29.9747 40.2619 29.9723ZM40.2619 44.0995C37.1485 44.0939 34.6167 41.5622 34.6109 38.4486C34.6094 38.2689 34.6455 38.0187 34.6956 37.6708C34.7258 37.4545 34.7053 37.2342 34.6359 37.0272C34.5664 36.8202 34.4497 36.6321 34.2951 36.4779L30.7588 32.9411L28.1157 30.2985L28.0799 30.2626C27.9317 30.1145 27.7525 30.0012 27.5552 29.9309C27.3578 29.8606 27.1473 29.835 26.9389 29.856C26.7304 29.8771 26.5293 29.9443 26.35 30.0527C26.1708 30.1611 26.0179 30.308 25.9024 30.4828L25.7771 30.6723L12.7607 43.6891C12.4865 43.9628 12.1315 44.0979 11.7617 44.0994C11.3917 44.098 11.0368 43.9628 10.7626 43.6891L6.76724 39.6931C6.49351 39.4188 6.35823 39.0643 6.35671 38.6946C6.35823 38.3246 6.49351 37.9697 6.76711 37.6956L19.7838 24.679L19.9733 24.5538C20.1481 24.4383 20.295 24.2853 20.4034 24.1061C20.5118 23.9268 20.579 23.7256 20.6001 23.5172C20.6211 23.3088 20.5956 23.0983 20.5252 22.9009C20.4549 22.7036 20.3416 22.5243 20.1935 22.3761L20.1576 22.3402L19.1402 21.3228C18.9511 21.1339 18.7123 21.0025 18.4516 20.9437C18.1909 20.885 17.9188 20.9014 17.667 20.9909C16.7529 21.3167 15.7894 21.48 14.8244 21.48C12.648 21.4789 10.4795 20.6539 8.83144 19.0058C7.18277 17.3568 6.35761 15.1881 6.3565 13.0111C6.3565 12.864 6.38617 12.7188 6.3938 12.572L10.8292 17.0076C10.9937 17.172 11.1962 17.2933 11.4187 17.3607C11.6413 17.4281 11.8771 17.4395 12.1051 17.394L17.1 16.3951C17.3736 16.3406 17.6249 16.2063 17.8222 16.009C18.0194 15.8118 18.1538 15.5604 18.2082 15.2868L19.207 10.292C19.2526 10.0639 19.2412 9.82809 19.1738 9.60548C19.1064 9.38286 18.9851 9.18033 18.8206 9.01586L14.3853 4.58079C14.5323 4.5733 14.6774 4.54349 14.8246 4.54349C17.0014 4.54474 19.1703 5.37004 20.8187 7.01788C22.4666 8.66627 23.2919 10.8352 23.2931 13.0116C23.2931 13.9769 23.1299 14.9403 22.8041 15.8537C22.7145 16.1055 22.6981 16.3776 22.7569 16.6383C22.8156 16.899 22.947 17.1378 23.1359 17.3269L25.1357 19.3267L26.1346 20.3255C26.4001 20.5896 26.759 20.7383 27.1335 20.7393C27.508 20.7383 27.8669 20.5896 28.1324 20.3255L34.3944 14.0635C34.6585 13.798 34.8072 13.4391 34.8082 13.0646V9.87001L43.1093 4.90813L45.5477 7.34632L40.5854 15.6479H37.3915C37.017 15.6489 36.658 15.7976 36.3925 16.0617L30.1306 22.3237C29.5788 22.8754 29.5788 23.7698 30.1306 24.3216L32.9422 27.1331L38.2909 32.482C38.4449 32.6365 38.6327 32.7531 38.8395 32.8226C39.0463 32.8921 39.2664 32.9126 39.4825 32.8825C39.8326 32.8325 40.0826 32.796 40.2619 32.7977C43.3753 32.8035 45.9071 35.3353 45.9128 38.4486C45.9072 41.5621 43.3753 44.0938 40.2619 44.0995Z" stroke="#FFCC29" stroke-width="0.4" mask="url(#path-3-outside-1_1222_1530)"/>
</g>
<defs>
<clipPath id="clip0_1222_1530">
<rect width="50" height="50" fill="white"/>
</clipPath>
</defs>
</svg>
