<svg width="20" height="20" viewBox="0 0 20 20" fill="none" xmlns="http://www.w3.org/2000/svg">
<path d="M18.6791 5.6522C18.5812 5.26141 18.3821 4.90337 18.1016 4.61421C17.8211 4.32506 17.4693 4.11504 17.0817 4.00538C15.6654 3.65955 10.0004 3.65955 10.0004 3.65955C10.0004 3.65955 4.3353 3.65955 2.91903 4.03831C2.53141 4.14798 2.17959 4.358 1.89911 4.64715C1.61864 4.9363 1.41943 5.29435 1.32162 5.68513C1.06243 7.12244 0.935634 8.58047 0.942854 10.041C0.933614 11.5124 1.06041 12.9816 1.32162 14.4297C1.42946 14.8084 1.63313 15.1528 1.91294 15.4297C2.19277 15.7066 2.53929 15.9067 2.91903 16.0107C4.3353 16.3894 10.0004 16.3894 10.0004 16.3894C10.0004 16.3894 15.6654 16.3894 17.0817 16.0107C17.4693 15.901 17.8211 15.691 18.1016 15.4018C18.3821 15.1127 18.5812 14.7547 18.6791 14.3639C18.9363 12.9374 19.063 11.4904 19.0579 10.041C19.0671 8.56951 18.9403 7.10033 18.6791 5.6522Z" stroke="white" stroke-width="1.5" stroke-linecap="round" stroke-linejoin="round"/>
<path d="M7.96191 7.70413C7.96191 7.27181 7.96191 7.05565 8.05226 6.93497C8.13099 6.82981 8.2515 6.76401 8.38257 6.75465C8.53293 6.74391 8.71472 6.8608 9.0784 7.09458L12.6498 9.39051C12.9654 9.59332 13.1231 9.69477 13.1777 9.82376C13.2252 9.93644 13.2252 10.0636 13.1777 10.1763C13.1231 10.3053 12.9654 10.4067 12.6498 10.6095L9.0784 12.9055C8.71472 13.1392 8.53293 13.2562 8.38257 13.2454C8.2515 13.2361 8.13099 13.1702 8.05226 13.0651C7.96191 12.9444 7.96191 12.7283 7.96191 12.2959V7.70413Z" stroke="white" stroke-width="1.5" stroke-linecap="round" stroke-linejoin="round"/>
</svg>
