<?xml version="1.0" standalone="no"?>
<!DOCTYPE svg PUBLIC "-//W3C//DTD SVG 1.1//EN" "http://www.w3.org/Graphics/SVG/1.1/DTD/svg11.dtd" >
<svg xmlns="http://www.w3.org/2000/svg" xmlns:xlink="http://www.w3.org/1999/xlink" version="1.1">
<metadata>
Created by FontForge 20201107 at Thu Sep 15 17:18:28 2022
 By www-data
Copyright (c) 2022 by TypeType. All rights reserved.
</metadata>
<defs>
<font id="TTTANK-Md" horiz-adv-x="590" >
  <font-face 
    font-family="TT TANK Medium"
    font-weight="500"
    font-stretch="normal"
    units-per-em="1000"
    panose-1="2 11 0 3 3 0 0 2 0 4"
    ascent="800"
    descent="-200"
    x-height="522"
    cap-height="700"
    bbox="-444 -206 1378 942"
    underline-thickness="79"
    underline-position="-179"
    unicode-range="U+000D-FB02"
  />
<missing-glyph horiz-adv-x="900" 
d="M100 0v284h45v-139h33v139h50v31h-128v126l19 -61h23l34 106l33 -106h23l54 170h-32l-34 -110l-35 110h-19l-35 -110l-31 103v157h700v-150h-110v-170h110v-91q-6 13 -19.5 20t-30.5 7q-27 0 -43.5 -14.5t-16.5 -34.5q0 -22 14.5 -32.5t39.5 -17.5q17 -5 25.5 -9.5
t8.5 -13.5q0 -21 -28 -21q-14 0 -21 7t-7 18h-33q0 -24 17 -39.5t44 -15.5q17 0 30.5 6.5t19.5 13.5v-163h-700zM311 380h33v62h24l35 -62h37l-40 67q36 17 36 50q0 22 -16 37.5t-41 15.5h-68v-170zM469 550v-170h33v170h-33zM580 519v-139h32v139h50v31h-132v-31h50z
M344 473v46h35q10 0 17 -6.5t7 -16.5q0 -12 -7.5 -17.5t-16.5 -5.5h-35zM800 483h-78v36h78v-36zM800 411h-78v41h78v-41zM387.5 167.5q22.5 24.5 22.5 61.5t-23 62t-59 25t-59 -25t-23 -62t22.5 -61.5t59.5 -24.5t59.5 24.5zM633 162q19 19 19 47v106h-32v-106
q0 -15 -9.5 -25t-25.5 -10q-17 0 -26.5 10.5t-9.5 24.5v106h-32v-106q0 -28 19.5 -47t48.5 -19t48 19zM800 224q-15 14 -46 22q-16 5 -23 9t-7 12q0 9 7.5 14.5t18.5 5.5q10 0 18 -7t8 -18h24v-38zM291.5 190q-14.5 16 -14.5 39q0 25 14 40.5t37 15.5q24 0 37.5 -15.5
t13.5 -40.5q0 -23 -14.5 -39t-36.5 -16t-36.5 16z" />
    <glyph glyph-name="fl" unicode="fl" horiz-adv-x="705" 
d="M583 162q0 -41 18.5 -56.5t59.5 -15.5q19 0 29 1v-95q-36 -4 -58 -4q-82 0 -120.5 37.5t-38.5 122.5v459h-166q-45 0 -63.5 -17t-18.5 -60v-12h138v-92h-132v-430h-110v430h-96v92h96v20q0 82 42 120t126 38h294v-538z" />
    <glyph glyph-name=".notdef" horiz-adv-x="900" 
d="M100 0v284h45v-139h33v139h50v31h-128v126l19 -61h23l34 106l33 -106h23l54 170h-32l-34 -110l-35 110h-19l-35 -110l-31 103v157h700v-150h-110v-170h110v-91q-6 13 -19.5 20t-30.5 7q-27 0 -43.5 -14.5t-16.5 -34.5q0 -22 14.5 -32.5t39.5 -17.5q17 -5 25.5 -9.5
t8.5 -13.5q0 -21 -28 -21q-14 0 -21 7t-7 18h-33q0 -24 17 -39.5t44 -15.5q17 0 30.5 6.5t19.5 13.5v-163h-700zM311 380h33v62h24l35 -62h37l-40 67q36 17 36 50q0 22 -16 37.5t-41 15.5h-68v-170zM469 550v-170h33v170h-33zM580 519v-139h32v139h50v31h-132v-31h50z
M344 473v46h35q10 0 17 -6.5t7 -16.5q0 -12 -7.5 -17.5t-16.5 -5.5h-35zM800 483h-78v36h78v-36zM800 411h-78v41h78v-41zM387.5 167.5q22.5 24.5 22.5 61.5t-23 62t-59 25t-59 -25t-23 -62t22.5 -61.5t59.5 -24.5t59.5 24.5zM633 162q19 19 19 47v106h-32v-106
q0 -15 -9.5 -25t-25.5 -10q-17 0 -26.5 10.5t-9.5 24.5v106h-32v-106q0 -28 19.5 -47t48.5 -19t48 19zM800 224q-15 14 -46 22q-16 5 -23 9t-7 12q0 9 7.5 14.5t18.5 5.5q10 0 18 -7t8 -18h24v-38zM291.5 190q-14.5 16 -14.5 39q0 25 14 40.5t37 15.5q24 0 37.5 -15.5
t13.5 -40.5q0 -23 -14.5 -39t-36.5 -16t-36.5 16z" />
    <glyph glyph-name=".null" horiz-adv-x="600" 
 />
    <glyph glyph-name="nonmarkingreturn" unicode="&#xd;" horiz-adv-x="600" 
 />
    <glyph glyph-name="space" unicode=" " horiz-adv-x="260" 
 />
    <glyph glyph-name="exclam" unicode="!" horiz-adv-x="320" 
d="M197 227h-74l-22 418v55h118v-55zM106 14q-22 22 -22 54t22 54t54 22t54 -22t22 -54t-22 -54t-54 -22t-54 22z" />
    <glyph glyph-name="quotedbl" unicode="&#x22;" horiz-adv-x="385" 
d="M150 464h-69l-14 236h98zM304 464h-69l-15 236h98z" />
    <glyph glyph-name="numbersign" unicode="#" horiz-adv-x="745" 
d="M723 523l-21 -90h-134l-35 -166h140l-21 -90h-139l-38 -177h-98l38 177h-160l-38 -177h-98l38 177h-135l21 90h134l35 166h-140l21 90h139l38 177h98l-38 -177h160l38 177h98l-38 -177h135zM275 267h160l35 166h-160z" />
    <glyph glyph-name="dollar" unicode="$" horiz-adv-x="565" 
d="M468 62q-45 -51 -127 -68v-99h-97v92q-50 2 -101.5 12.5t-93.5 26.5v110q46 -18 100.5 -30t109.5 -12q64 0 98.5 25.5t34.5 72.5q0 35 -18.5 57.5t-46 36t-76.5 31.5q-61 22 -99.5 42t-65.5 59.5t-27 102.5q0 79 49.5 128.5t135.5 60.5v95h97v-94q76 -6 145 -29v-109
q-88 33 -190 33q-55 0 -86 -22t-31 -63q0 -31 17.5 -51t43.5 -32t72 -28q63 -20 103.5 -41t69 -63.5t28.5 -113.5q0 -79 -45 -130z" />
    <glyph glyph-name="percent" unicode="%" horiz-adv-x="740" 
d="M68.5 418.5q-43.5 45.5 -43.5 120.5t43.5 120.5t113.5 45.5t113.5 -45.5t43.5 -120.5t-43.5 -120.5t-113.5 -45.5t-113.5 45.5zM199 0h-101l443 700h101zM233.5 471q20.5 25 20.5 68t-20 68t-52 25q-31 0 -51.5 -25t-20.5 -68q0 -42 20.5 -67.5t51.5 -25.5t51.5 25z
M444.5 40.5q-43.5 45.5 -43.5 120.5t43.5 120.5t113.5 45.5t113.5 -45.5t43.5 -120.5t-43.5 -120.5t-113.5 -45.5t-113.5 45.5zM609.5 93q20.5 25 20.5 68q0 42 -20.5 67.5t-51.5 25.5t-51.5 -25t-20.5 -68t20 -68t52 -25q31 0 51.5 25z" />
    <glyph glyph-name="ampersand" unicode="&#x26;" horiz-adv-x="685" 
d="M656 0h-132l-56 64q-86 -77 -216 -77q-66 0 -115.5 25t-77 70t-27.5 104q0 74 42 131.5t109 85.5q-30 41 -45.5 76.5t-15.5 71.5q0 73 54.5 117.5t145.5 44.5q37 0 79 -7t75 -20v-101q-34 13 -73.5 20t-72.5 7q-93 0 -93 -75q0 -25 15 -52t53 -71l163 -192q54 94 76 250
h103q-35 -211 -112 -329zM176 116.5q32 -28.5 89 -28.5q76 0 136 50l-167 202q-90 -58 -90 -143q0 -52 32 -80.5z" />
    <glyph glyph-name="quotesingle" unicode="'" horiz-adv-x="230" 
d="M151 464h-72l-16 236h104z" />
    <glyph glyph-name="parenleft" unicode="(" horiz-adv-x="375" 
d="M221 -180q-64 88 -99.5 202t-35.5 238t35.5 238t99.5 202h120q-68 -85 -105 -200t-37 -240t37 -240t105 -200h-120z" />
    <glyph glyph-name="parenright" unicode=")" horiz-adv-x="375" 
d="M34 -180q68 85 105 200t37 240t-37 240t-105 200h120q64 -88 99.5 -202t35.5 -238t-35.5 -238t-99.5 -202h-120z" />
    <glyph glyph-name="asterisk" unicode="*" horiz-adv-x="450" 
d="M205 409l-68 -112l-70 56l80 93l33 30v7l-52 7l-101 21l29 84l90 -36l46 -23l5 6l-9 56l-8 102h90l-8 -102l-9 -56l5 -6l46 23l90 36l29 -84l-101 -21l-52 -7v-7l33 -30l80 -93l-70 -56l-68 112l-16 35h-8z" />
    <glyph glyph-name="plus" unicode="+" 
d="M344 113h-98v189h-183v96h183v189h98v-189h183v-96h-183v-189z" />
    <glyph glyph-name="comma" unicode="," horiz-adv-x="280" 
d="M131 -100h-75l37 236h118z" />
    <glyph glyph-name="hyphen" unicode="-" horiz-adv-x="400" 
d="M371 211h-342v98h342v-98z" />
    <glyph glyph-name="period" unicode="." horiz-adv-x="280" 
d="M86 14q-22 22 -22 54t22 54t54 22t54 -22t22 -54t-22 -54t-54 -22t-54 22z" />
    <glyph glyph-name="slash" unicode="/" horiz-adv-x="400" 
d="M107 -180h-112l298 910h112z" />
    <glyph glyph-name="zero" unicode="0" horiz-adv-x="650" 
d="M176 31q-63 44 -97 126t-34 193t34 193t97 126t149 44t149 -44t97 -126t34 -193t-34 -193t-97 -126t-149 -44t-149 44zM440.5 160q41.5 68 41.5 190t-41.5 190t-115.5 68t-115.5 -68t-41.5 -190t41.5 -190t115.5 -68t115.5 68z" />
    <glyph glyph-name="one" unicode="1" horiz-adv-x="530" 
d="M491 0h-446v105h165v492h-130v103h248v-595h163v-105z" />
    <glyph glyph-name="two" unicode="2" horiz-adv-x="550" 
d="M176 105h315v-105h-446v128l231 214q47 45 69 83.5t22 79.5q0 101 -115 101q-95 0 -192 -64v118q99 53 199 53q107 0 167.5 -53t60.5 -147q0 -65 -33 -122.5t-111 -129.5z" />
    <glyph glyph-name="three" unicode="3" horiz-adv-x="550" 
d="M469.5 302.5q30.5 -44.5 30.5 -106.5q0 -64 -33 -111t-93.5 -72.5t-141.5 -25.5q-48 0 -101 10t-98 29v109q46 -19 97.5 -30t95.5 -11q74 0 114.5 29t40.5 82q0 51 -34.5 79t-96.5 28h-86v102h82q56 0 86 25t30 71q0 45 -36 70.5t-102 25.5q-43 0 -86 -8.5t-78 -23.5v108
q34 14 79 22.5t90 8.5q76 0 133 -24t88 -68t31 -102q0 -52 -25.5 -90t-72.5 -59q56 -23 86.5 -67.5z" />
    <glyph glyph-name="four" unicode="4" horiz-adv-x="570" 
d="M454 271h82v-102h-82v-169h-114v169h-318v112l284 419h148v-429zM341 574h-6l-206 -303h212v303z" />
    <glyph glyph-name="five" unicode="5" horiz-adv-x="550" 
d="M381.5 409.5q58.5 -26.5 91 -76t32.5 -116.5q0 -108 -71.5 -169t-197.5 -61q-96 0 -195 35v108q101 -36 188 -36q73 0 114.5 32t41.5 89t-43 88t-123 31q-78 0 -149 -15l33 381h374v-102h-279l-14 -167q35 5 62 5q77 0 135.5 -26.5z" />
    <glyph glyph-name="six" unicode="6" horiz-adv-x="580" 
d="M422 444q57 -31 89.5 -86t32.5 -126t-32.5 -127t-90.5 -87t-131 -31t-131 31t-90.5 87t-32.5 127q0 60 20 111.5t66 124.5l146 232h132l-155 -231q21 6 49 6q71 0 128 -31zM389 129.5q38 38.5 38 102.5t-38 102.5t-99 38.5t-99 -38.5t-38 -102.5t38 -102.5t99 -38.5
t99 38.5z" />
    <glyph glyph-name="seven" unicode="7" horiz-adv-x="540" 
d="M30 597v103h471v-95l-260 -605h-124l261 597h-348z" />
    <glyph glyph-name="eight" unicode="8" horiz-adv-x="580" 
d="M506.5 304q33.5 -47 33.5 -110q0 -60 -30.5 -107t-87 -73.5t-132.5 -26.5t-132.5 26.5t-87 73.5t-30.5 107q0 63 33.5 110t92.5 70q-47 22 -72 60.5t-25 90.5q0 54 28 96.5t78 67t115 24.5t115 -24.5t78 -67t28 -96.5q0 -52 -25 -90.5t-72 -60.5q59 -23 92.5 -70z
M212.5 586.5q-29.5 -26.5 -29.5 -71.5t29.5 -72t77.5 -27t77.5 27t29.5 72t-29.5 71.5t-77.5 26.5t-77.5 -26.5zM387.5 119.5q35.5 32.5 35.5 84.5t-35.5 84.5t-97.5 32.5t-97.5 -32.5t-35.5 -84.5t35.5 -84.5t97.5 -32.5t97.5 32.5z" />
    <glyph glyph-name="nine" unicode="9" horiz-adv-x="580" 
d="M421 682q58 -31 90.5 -87t32.5 -127q0 -60 -20 -111.5t-66 -124.5l-146 -232h-132l155 231q-21 -6 -49 -6q-71 0 -128 31t-89.5 86t-32.5 126t32.5 127t90.5 87t131 31t131 -31zM389 365.5q38 38.5 38 102.5t-38 102.5t-99 38.5t-99 -38.5t-38 -102.5t38 -102.5t99 -38.5
t99 38.5z" />
    <glyph glyph-name="colon" unicode=":" horiz-adv-x="280" 
d="M86 392q-22 22 -22 54t22 54t54 22t54 -22t22 -54t-22 -54t-54 -22t-54 22zM86 14q-22 22 -22 54t22 54t54 22t54 -22t22 -54t-22 -54t-54 -22t-54 22z" />
    <glyph glyph-name="semicolon" unicode=";" horiz-adv-x="280" 
d="M127 -100h-75l37 236h118zM86 392q-22 22 -22 54t22 54t54 22t54 -22t22 -54t-22 -54t-54 -22t-54 22z" />
    <glyph glyph-name="less" unicode="&#x3c;" 
d="M83 393l424 197v-106l-299 -134l299 -134v-106l-424 197v86z" />
    <glyph glyph-name="equal" unicode="=" 
d="M517 408h-444v93h444v-93zM517 199h-444v93h444v-93z" />
    <glyph glyph-name="greater" unicode="&#x3e;" 
d="M83 484v106l424 -197v-86l-424 -197v106l299 134z" />
    <glyph glyph-name="question" unicode="?" horiz-adv-x="500" 
d="M187 242q0 50 22.5 85t66.5 79q36 37 54 64t18 60q0 40 -29 62t-80 22q-96 0 -212 -59v107q108 51 217 51q100 0 158.5 -47.5t58.5 -127.5q0 -39 -14 -70t-34 -54t-52 -53q-39 -36 -57.5 -61.5t-18.5 -57.5v-15h-98v15zM183 14q-22 22 -22 54t22 54t54 22t53.5 -22
t21.5 -54t-21.5 -54t-53.5 -22t-54 22z" />
    <glyph glyph-name="at" unicode="@" horiz-adv-x="855" 
d="M635.5 609q87.5 -46 136 -129t48.5 -190q0 -69 -23.5 -122.5t-63.5 -83.5t-89 -30q-40 0 -69.5 19.5t-44.5 55.5h-6q-28 -38 -62.5 -56.5t-82.5 -18.5q-70 0 -110.5 47t-40.5 129q0 70 24 126.5t67 88.5t98 32q80 0 117 -65l8 55h85l-35 -259q-1 -7 -1 -19
q0 -30 14 -45.5t40 -15.5q44 0 70.5 44t26.5 118q0 88 -37 154t-106.5 101.5t-163.5 35.5t-167 -42t-113 -118.5t-40 -175.5q0 -92 41 -160t116.5 -104.5t176.5 -36.5q41 0 88 7.5t83 18.5v-74q-47 -14 -86 -20t-87 -6q-122 0 -215.5 46t-145 131t-51.5 198
q0 117 51.5 210.5t142.5 146.5t206 53q113 0 200.5 -46zM516 275q2 10 2 29q0 45 -23 70t-64 25q-50 0 -81.5 -47t-31.5 -121q0 -47 23.5 -73t65.5 -26q39 0 67 28t35 75z" />
    <glyph glyph-name="A" unicode="A" horiz-adv-x="655" 
d="M635 0h-121l-53 175h-270l-53 -175h-118l223 700h169zM322 602l-100 -326h208l-100 326h-8z" />
    <glyph glyph-name="B" unicode="B" horiz-adv-x="620" 
d="M540.5 306.5q32.5 -45.5 32.5 -107.5q0 -60 -29 -105t-82 -69.5t-124 -24.5h-252v700h232q104 0 165 -48.5t61 -129.5q0 -51 -24.5 -88.5t-69.5 -58.5q58 -23 90.5 -68.5zM202 603v-191h108q56 0 87 25.5t31 71.5q0 45 -31 69.5t-87 24.5h-108zM325 97q62 0 95.5 29
t33.5 82q0 54 -33.5 83.5t-95.5 29.5h-123v-224h123z" />
    <glyph glyph-name="C" unicode="C" horiz-adv-x="610" 
d="M208 30.5q-79 43.5 -121 125.5t-42 194q0 109 43.5 191t123 127t185.5 45q42 0 85.5 -7t79.5 -21v-110q-36 14 -78.5 22.5t-81.5 8.5q-70 0 -122.5 -31t-81 -89t-28.5 -136q0 -121 61 -188.5t171 -67.5q40 0 85 9t80 23v-109q-74 -30 -170 -30q-110 0 -189 43.5z" />
    <glyph glyph-name="D" unicode="D" horiz-adv-x="680" 
d="M86 0v700h183q113 0 195.5 -42t126.5 -121t44 -187t-44 -187t-126.5 -121t-195.5 -42h-183zM270 105q116 0 178.5 63.5t62.5 181.5t-62.5 181.5t-178.5 63.5h-67v-490h67z" />
    <glyph glyph-name="E" unicode="E" horiz-adv-x="570" 
d="M203 309v-206h308v-103h-425v700h420v-103h-303v-188h283v-100h-283z" />
    <glyph glyph-name="F" unicode="F" horiz-adv-x="550" 
d="M496 700v-103h-293v-197h278v-103h-278v-297h-117v700h410z" />
    <glyph glyph-name="G" unicode="G" horiz-adv-x="680" 
d="M355 386h278v-323q-104 -76 -238 -76q-109 0 -188 44.5t-120.5 126t-41.5 192.5t45 193t128.5 126t195.5 44q49 0 97.5 -9t88.5 -25v-108q-40 16 -88 26t-95 10q-114 0 -181.5 -68t-67.5 -189q0 -120 58 -188.5t171 -68.5q77 0 131 30v166h-173v97z" />
    <glyph glyph-name="H" unicode="H" horiz-adv-x="710" 
d="M507 412v288h117v-700h-117v308h-304v-308h-117v700h117v-288h304z" />
    <glyph glyph-name="I" unicode="I" horiz-adv-x="475" 
d="M430 0h-385v97h136v506h-136v97h385v-97h-136v-506h136v-97z" />
    <glyph glyph-name="J" unicode="J" horiz-adv-x="505" 
d="M101 -1q-44 7 -77 17v110q29 -11 71.5 -19t77.5 -8q66 0 100 35.5t34 112.5v356h-234v97h351v-459q0 -123 -62.5 -186t-175.5 -63q-41 0 -85 7z" />
    <glyph glyph-name="K" unicode="K" horiz-adv-x="665" 
d="M632 700l-231 -328l261 -372h-136l-222 314h-101v-314h-117v700h117v-282h104l200 282h125z" />
    <glyph glyph-name="L" unicode="L" horiz-adv-x="510" 
d="M491 0h-405v700h117v-595h288v-105z" />
    <glyph glyph-name="M" unicode="M" horiz-adv-x="910" 
d="M196 0h-110v700h178l189 -563h7l190 563h174v-700h-110v567h-8l-192 -567h-118l-192 567h-8v-567z" />
    <glyph glyph-name="N" unicode="N" horiz-adv-x="740" 
d="M194 0h-108v700h167l285 -570h8v570h108v-700h-167l-285 570h-8v-570z" />
    <glyph glyph-name="O" unicode="O" horiz-adv-x="725" 
d="M193.5 31q-71.5 44 -110 126t-38.5 193t38.5 193t110 126t168.5 44t169 -44t110.5 -126t38.5 -193t-38.5 -193t-110.5 -126t-169 -44t-168.5 44zM504 161q50 67 50 189t-50 189t-142 67q-91 0 -141 -67t-50 -189t50 -189t141 -67q92 0 142 67z" />
    <glyph glyph-name="P" unicode="P" horiz-adv-x="595" 
d="M312 700q75 0 131 -27t86.5 -76.5t30.5 -114.5t-30.5 -114t-86.5 -76t-131 -27h-109v-265h-117v700h226zM310 367q63 0 97.5 30t34.5 85t-34.5 85.5t-97.5 30.5h-108v-231h108z" />
    <glyph glyph-name="Q" unicode="Q" horiz-adv-x="725" 
d="M610 104q-70 -95 -193 -113v-171h-111v171q-122 19 -191.5 113.5t-69.5 245.5q0 111 38.5 193t110 126t168.5 44t169 -44t110.5 -126t38.5 -193q0 -151 -70 -246zM504 161q50 67 50 189t-50 189t-142 67q-91 0 -141 -67t-50 -189t50 -189t141 -67q92 0 142 67z" />
    <glyph glyph-name="R" unicode="R" horiz-adv-x="630" 
d="M469 0l-170 276h-96v-276h-117v700h231q73 0 128 -26.5t85 -74.5t30 -111q0 -72 -39 -124t-107 -74l187 -290h-132zM202 600v-225h112q61 0 94.5 29.5t33.5 82.5t-33.5 83t-94.5 30h-112z" />
    <glyph glyph-name="S" unicode="S" horiz-adv-x="565" 
d="M152 -2.5q-57 10.5 -103 28.5v110q46 -18 100.5 -30t109.5 -12q64 0 98.5 25.5t34.5 72.5q0 35 -18.5 57.5t-46 36t-76.5 31.5q-61 22 -99.5 42t-65.5 59.5t-27 102.5q0 91 63 141.5t171 50.5q102 0 193 -31v-109q-88 33 -190 33q-55 0 -86 -22t-31 -63q0 -31 17.5 -51
t43.5 -32t72 -28q63 -20 103.5 -41t69 -63.5t28.5 -113.5q0 -96 -67 -150.5t-183 -54.5q-54 0 -111 10.5z" />
    <glyph glyph-name="T" unicode="T" horiz-adv-x="570" 
d="M344 0h-118v595h-212v105h542v-105h-212v-595z" />
    <glyph glyph-name="U" unicode="U" horiz-adv-x="695" 
d="M151.5 63q-70.5 76 -70.5 210v427h117v-426q0 -86 38.5 -133t110.5 -47q73 0 111.5 46.5t38.5 133.5v426h117v-427q0 -134 -70.5 -210t-196.5 -76q-125 0 -195.5 76z" />
    <glyph glyph-name="V" unicode="V" horiz-adv-x="655" 
d="M413 0h-171l-222 700h124l181 -595h8l181 595h121z" />
    <glyph glyph-name="W" unicode="W" horiz-adv-x="1015" 
d="M372 0h-155l-188 700h121l145 -582h8l147 582h119l146 -582h8l146 582h117l-188 -700h-154l-133 520h-7z" />
    <glyph glyph-name="X" unicode="X" horiz-adv-x="645" 
d="M157 0h-128l212 365l-194 335h129l143 -258h10l143 258h126l-194 -335l212 -365h-131l-160 285h-8z" />
    <glyph glyph-name="Y" unicode="Y" horiz-adv-x="620" 
d="M369 0h-118v249l-232 451h126l163 -327h8l163 327h122l-232 -451v-249z" />
    <glyph glyph-name="Z" unicode="Z" horiz-adv-x="600" 
d="M554 0h-503v117l360 471v7h-349v105h481v-117l-360 -471v-7h371v-105z" />
    <glyph glyph-name="bracketleft" unicode="[" horiz-adv-x="360" 
d="M337 -180h-248v880h248v-89h-145v-702h145v-89z" />
    <glyph glyph-name="backslash" unicode="\" horiz-adv-x="400" 
d="M405 -180h-112l-298 910h112z" />
    <glyph glyph-name="bracketright" unicode="]" horiz-adv-x="360" 
d="M271 -180h-248v89h145v702h-145v89h248v-880z" />
    <glyph glyph-name="asciicircum" unicode="^" horiz-adv-x="400" 
d="M238 700l127 -278h-87l-78 181l-79 -181h-86l127 278h76z" />
    <glyph glyph-name="underscore" unicode="_" horiz-adv-x="370" 
d="M392 -186h-414v95h414v-95z" />
    <glyph glyph-name="grave" unicode="`" horiz-adv-x="360" 
d="M274 584h-86l-101 148h122z" />
    <glyph glyph-name="a" unicode="a" horiz-adv-x="525" 
d="M463 331v-331h-100l1 73h-7q-56 -86 -157 -86q-73 0 -117 42.5t-44 113.5q0 76 56.5 122t171.5 58l86 9q-2 55 -28.5 81.5t-81.5 26.5q-39 0 -79.5 -9.5t-74.5 -27.5v99q30 13 74 22.5t91 9.5q209 0 209 -203zM317.5 116.5q35.5 37.5 35.5 110.5v26l-82 -8
q-119 -13 -119 -90q0 -35 21.5 -55.5t58.5 -20.5q50 0 85.5 37.5z" />
    <glyph glyph-name="b" unicode="b" horiz-adv-x="582" 
d="M448 500.5q48 -33.5 73.5 -95.5t25.5 -144t-27 -144t-77 -96t-116 -34q-101 0 -155 89l-2 -76h-101v700h110v-168l-3 -75h8q24 35 62.5 56t89.5 21q64 0 112 -33.5zM397.5 125.5q32.5 46.5 32.5 135.5t-32.5 135.5t-93.5 46.5q-58 0 -91.5 -41.5t-33.5 -116.5v-48
q0 -75 33.5 -116.5t91.5 -41.5q61 0 93.5 46.5z" />
    <glyph glyph-name="c" unicode="c" horiz-adv-x="475" 
d="M107.5 60q-72.5 73 -72.5 201q0 83 33 144.5t94.5 95t145.5 33.5q35 0 70 -6.5t60 -17.5v-97q-23 12 -57 20t-67 8q-76 0 -119 -46.5t-43 -133.5q0 -89 42 -135t120 -46q36 0 70.5 9t58.5 22v-98q-24 -12 -60.5 -19t-74.5 -7q-128 0 -200.5 73z" />
    <glyph glyph-name="d" unicode="d" horiz-adv-x="582" 
d="M403 700h110v-700h-102l2 73h-7q-25 -39 -66 -62.5t-94 -23.5q-64 0 -112 33.5t-73.5 95.5t-25.5 144t27 144t77 96t116 34q48 0 85.5 -20t62.5 -56v242zM403 285q0 75 -33.5 116.5t-91.5 41.5q-61 0 -93.5 -46.5t-32.5 -135.5t32.5 -135.5t93.5 -46.5q58 0 91.5 41.5
t33.5 116.5v48z" />
    <glyph glyph-name="e" unicode="e" horiz-adv-x="540" 
d="M504 234h-354q14 -152 166 -152q83 0 156 40v-101q-79 -34 -164 -34q-132 0 -202.5 72.5t-70.5 201.5q0 81 30 143t84.5 96t127.5 34q109 0 170 -69t61 -192q0 -17 -4 -39zM194 412q-32 -34 -42 -97h245q-8 63 -38 97t-82 34q-51 0 -83 -34z" />
    <glyph glyph-name="f" unicode="f" horiz-adv-x="390" 
d="M242.5 604q-17.5 -17 -17.5 -61v-21h138v-92h-132v-430h-110v430h-96v92h96v29q0 84 41.5 122t125.5 38q34 0 84 -8v-89q-44 7 -69 7q-43 0 -60.5 -17z" />
    <glyph glyph-name="g" unicode="g" horiz-adv-x="580" 
d="M410 522h103v-457q0 -131 -64.5 -194.5t-194.5 -63.5q-44 0 -89 6.5t-80 17.5v96q86 -27 164 -27q82 0 119.5 38t37.5 122v14h-9q-24 -35 -62 -56t-89 -21q-64 0 -112 33.5t-73.5 94.5t-25.5 140t27 140t77 95t116 34q51 0 90 -22.5t63 -63.5zM403 287q0 74 -33.5 115
t-91.5 41q-60 0 -93 -46t-33 -132t33 -132t93 -46q58 0 91.5 41t33.5 115v44z" />
    <glyph glyph-name="h" unicode="h" horiz-adv-x="572" 
d="M69 0v700h110v-168l-3 -75h8q22 35 64 56t94 21q80 0 124 -51t44 -145v-338h-110v326q0 117 -94 117q-56 0 -91.5 -39.5t-35.5 -103.5v-300h-110z" />
    <glyph glyph-name="i" unicode="i" horiz-adv-x="300" 
d="M222 0h-109v430h-100v92h209v-522zM111 604.5q-21 20.5 -21 51.5t21 51.5t51 20.5t51 -20.5t21 -51.5t-21 -51.5t-51 -20.5t-51 20.5z" />
    <glyph glyph-name="j" unicode="j" horiz-adv-x="330" 
d="M-5 -184v92q34 -8 63 -8q45 0 65 18t20 66v446h-110v92h219v-547q0 -89 -45 -128.5t-131 -39.5q-34 0 -81 9zM141 604.5q-21 20.5 -21 51.5t21 51.5t51 20.5t51 -20.5t21 -51.5t-21 -51.5t-51 -20.5t-51 20.5z" />
    <glyph glyph-name="k" unicode="k" horiz-adv-x="535" 
d="M500 522l-157 -237l182 -285h-125l-139 232h-87l5 -78v-154h-110v700h110v-306l-5 -71h85l124 199h117z" />
    <glyph glyph-name="l" unicode="l" horiz-adv-x="325" 
d="M131.5 29.5q-38.5 37.5 -38.5 122.5v456h-94v92h204v-538q0 -41 18.5 -56.5t59.5 -15.5q19 0 29 1v-95q-36 -4 -58 -4q-82 0 -120.5 37.5z" />
    <glyph glyph-name="m" unicode="m" horiz-adv-x="830" 
d="M67 0v522h104l-2 -67h8q46 79 140 79q47 0 80 -21.5t48 -59.5h6q21 38 60 59.5t91 21.5q80 0 123 -47t43 -132v-355h-110v338q0 53 -20.5 79t-62.5 26q-44 0 -73.5 -35.5t-29.5 -90.5v-317h-108v338q0 105 -82 105q-45 0 -75 -35.5t-30 -90.5v-317h-110z" />
    <glyph glyph-name="n" unicode="n" horiz-adv-x="570" 
d="M67 0v522h104l-2 -70h8q26 38 68 60t95 22q80 0 124 -51t44 -145v-338h-110v326q0 117 -94 117q-56 0 -91.5 -39.5t-35.5 -103.5v-300h-110z" />
    <glyph glyph-name="o" unicode="o" horiz-adv-x="560" 
d="M150 20.5q-55 33.5 -85 95.5t-30 145t30 144.5t85 95t130 33.5t130 -33.5t85 -95t30 -144.5t-30 -145t-85 -95.5t-130 -33.5t-130 33.5zM374.5 125.5q33.5 46.5 33.5 135.5q0 88 -33.5 135t-94.5 47t-94.5 -47t-33.5 -135q0 -89 33.5 -135.5t94.5 -46.5t94.5 46.5z" />
    <glyph glyph-name="p" unicode="p" horiz-adv-x="580" 
d="M446 500.5q48 -33.5 73.5 -95.5t25.5 -144t-27 -144t-77 -96t-116 -34q-48 0 -85.5 20t-62.5 56v-243h-110v702h104l-2 -70h8q26 37 66 59.5t91 22.5q64 0 112 -33.5zM395.5 125.5q32.5 46.5 32.5 135.5t-32.5 135.5t-93.5 46.5q-58 0 -91.5 -41.5t-33.5 -116.5v-48
q0 -75 33.5 -116.5t91.5 -41.5q61 0 93.5 46.5z" />
    <glyph glyph-name="q" unicode="q" horiz-adv-x="580" 
d="M410 522h103v-702h-110v170l3 75h-8q-24 -35 -62.5 -56.5t-89.5 -21.5q-64 0 -112 33.5t-73.5 95.5t-25.5 144t27 144t77 96t116 34q51 0 90 -22.5t63 -63.5zM403 285q0 75 -33.5 116.5t-91.5 41.5q-61 0 -93.5 -46.5t-32.5 -135.5t32.5 -135.5t93.5 -46.5
q58 0 91.5 41.5t33.5 116.5v48z" />
    <glyph glyph-name="r" unicode="r" horiz-adv-x="375" 
d="M67 0v522h99l-1 -79h7q22 39 60.5 61.5t88.5 22.5q24 0 41 -5v-101q-25 5 -42 5q-65 0 -104 -45.5t-39 -121.5v-259h-110z" />
    <glyph glyph-name="s" unicode="s" horiz-adv-x="475" 
d="M138 -4q-48 9 -88 22v96q105 -35 178 -35q46 0 70 16.5t24 46.5q0 33 -25.5 49.5t-79.5 33.5q-50 17 -82 32.5t-54.5 48t-22.5 84.5q0 67 51 105.5t139 38.5q73 0 163 -25v-96q-90 30 -160 30q-40 0 -62 -14t-22 -40q0 -32 25 -48t78 -33q50 -16 82.5 -32.5t55.5 -49.5
t23 -86q0 -71 -52.5 -112t-146.5 -41q-46 0 -94 9z" />
    <glyph glyph-name="t" unicode="t" horiz-adv-x="400" 
d="M369 94v-93q-56 -9 -86 -9q-84 0 -125 36.5t-41 124.5v277h-96v92h96v133h110v-133h133v-92h-133v-269q0 -41 17.5 -57.5t59.5 -16.5q23 0 65 7z" />
    <glyph glyph-name="u" unicode="u" horiz-adv-x="565" 
d="M105.5 38q-43.5 51 -43.5 145v339h110v-327q0 -116 91 -116q55 0 90 39t35 104v300h110v-522h-102l2 73h-7q-27 -39 -69 -62.5t-95 -23.5q-78 0 -121.5 51z" />
    <glyph glyph-name="v" unicode="v" horiz-adv-x="540" 
d="M346 0h-152l-174 522h116l104 -333l27 -91h9l27 91l104 333h113z" />
    <glyph glyph-name="w" unicode="w" horiz-adv-x="785" 
d="M302 0h-138l-139 522h110l84 -338l16 -76h8l18 76l81 338h105l82 -338l17 -76h8l17 76l83 338h106l-139 -522h-137l-87 360h-8z" />
    <glyph glyph-name="x" unicode="x" horiz-adv-x="525" 
d="M151 0h-119l151 272l-139 250h119l50 -100l47 -89h8l47 89l50 100h116l-139 -250l151 -272h-121l-71 137l-36 71h-8l-36 -71z" />
    <glyph glyph-name="y" unicode="y" horiz-adv-x="535" 
d="M405 522h110l-182 -564q-18 -56 -39.5 -88.5t-55 -47.5t-88.5 -15q-35 0 -61 7v91q25 -5 50 -5q43 0 65 15.5t36 58.5l11 34h-52l-179 514h117l86 -275l48 -145h8l46 145z" />
    <glyph glyph-name="z" unicode="z" horiz-adv-x="490" 
d="M449 0h-407v103l274 317v8h-264v94h387v-103l-275 -318v-8h285v-93z" />
    <glyph glyph-name="braceleft" unicode="{" horiz-adv-x="380" 
d="M314 -180q-93 0 -139 54t-46 156v117q0 37 -11.5 53.5t-40.5 16.5h-35v86h35q28 0 40 16.5t12 53.5v117q0 102 46 156t139 54h43v-89h-34q-47 0 -69.5 -29t-22.5 -92v-122q0 -89 -64 -104v-8q64 -16 64 -104v-122q0 -63 22.5 -92t69.5 -29h34v-89h-43z" />
    <glyph glyph-name="bar" unicode="|" horiz-adv-x="300" 
d="M201 -180h-102v880h102v-880z" />
    <glyph glyph-name="braceright" unicode="}" horiz-adv-x="380" 
d="M23 -180v89h34q47 0 69.5 29t22.5 92v122q0 88 64 104v8q-64 15 -64 104v122q0 63 -22.5 92t-69.5 29h-34v89h43q93 0 139 -54t46 -156v-117q0 -37 12 -53.5t40 -16.5h35v-86h-35q-29 0 -40.5 -16.5t-11.5 -53.5v-117q0 -102 -46 -156t-139 -54h-43z" />
    <glyph glyph-name="asciitilde" unicode="~" 
d="M58 274q0 73 35 120t100 47q38 0 65.5 -13.5t60.5 -37.5q23 -18 39.5 -26.5t34.5 -8.5q30 0 42.5 21t12.5 65h84v-15q0 -73 -35 -120t-100 -47q-38 0 -65.5 13.5t-60.5 37.5q-23 18 -39.5 26.5t-34.5 8.5q-30 0 -42.5 -21t-12.5 -65h-84v15z" />
    <glyph glyph-name="uni00A0" unicode="&#xa0;" horiz-adv-x="260" 
 />
    <glyph glyph-name="exclamdown" unicode="&#xa1;" horiz-adv-x="320" 
d="M106 392q-22 22 -22 54t22 54t54 22t54 -22t22 -54t-22 -54t-54 -22t-54 22zM219 -180h-118v53l22 414h74l22 -414v-53z" />
    <glyph glyph-name="cent" unicode="&#xa2;" horiz-adv-x="475" 
d="M443 13q-21 -10 -50 -17t-60 -8v-93h-87v97q-100 17 -155.5 87.5t-55.5 181.5q0 109 56 180t155 88v98h87v-94q60 -3 105 -23v-97q-23 12 -57 20t-67 8q-76 0 -119 -46.5t-43 -133.5q0 -89 42 -135t120 -46q36 0 70.5 9t58.5 22v-98z" />
    <glyph glyph-name="sterling" unicode="&#xa3;" horiz-adv-x="565" 
d="M530 102v-102h-490v106q54 1 87 37.5t33 87.5q0 17 -3 32h-117v94h79q-20 37 -31 68.5t-11 75.5q0 61 29 109t83.5 75.5t128.5 27.5q52 0 102.5 -9t84.5 -24v-109q-36 16 -86.5 25.5t-94.5 9.5q-63 0 -94.5 -30t-31.5 -81q0 -35 8.5 -61t19 -48t13.5 -29h189v-94h-159
q2 -20 2 -31q0 -40 -15 -74t-42 -56h316z" />
    <glyph glyph-name="currency" unicode="&#xa4;" horiz-adv-x="580" 
d="M451 240l75 -75l-61 -61l-77 77q-46 -24 -98 -24t-98 24l-77 -77l-61 61l75 75q-34 48 -34 110t34 110l-75 75l61 61l77 -77q46 24 98 24t98 -24l77 77l61 -61l-75 -75q34 -48 34 -110t-34 -110zM363.5 273q28.5 30 28.5 77t-28.5 77t-73.5 30t-73.5 -30t-28.5 -77
t28.5 -77t73.5 -30t73.5 30z" />
    <glyph glyph-name="yen" unicode="&#xa5;" horiz-adv-x="620" 
d="M471 700h120l-162 -330h106v-83h-147l-19 -38v-31h166v-83h-166v-135h-118v135h-166v83h166v31l-19 38h-147v83h106l-162 330h123l156 -334h8z" />
    <glyph glyph-name="brokenbar" unicode="&#xa6;" horiz-adv-x="300" 
d="M201 323h-102v377h102v-377zM201 -180h-102v377h102v-377z" />
    <glyph glyph-name="section" unicode="&#xa7;" horiz-adv-x="520" 
d="M393 128q41 -44 41 -103q0 -67 -50.5 -106t-132.5 -39q-52 0 -101 10.5t-79 25.5v97q40 -18 87.5 -29t91.5 -11q35 0 56.5 14.5t21.5 42.5q0 33 -27.5 54.5t-85.5 49.5q-55 28 -89 50t-58.5 58.5t-24.5 88.5q0 42 24 75.5t60 58.5q-41 44 -41 103q0 67 50.5 106t132.5 39
q52 0 101 -10.5t79 -25.5v-98q-40 19 -87.5 30t-91.5 11q-35 0 -56.5 -14.5t-21.5 -43.5q0 -33 27.5 -54.5t85.5 -49.5q55 -27 89 -49t58.5 -58.5t24.5 -88.5q0 -77 -84 -134zM163 283q17 -22 41.5 -38t68.5 -39l49 -26q26 19 39 37t13 42q0 29 -17 51t-41.5 38t-68.5 39
l-49 26q-26 -19 -39 -37.5t-13 -41.5q0 -29 17 -51z" />
    <glyph glyph-name="dieresis" unicode="&#xa8;" horiz-adv-x="490" 
d="M98 606.5q-19 19.5 -19 48.5t19 48t47 19t47 -19.5t19 -47.5q0 -29 -19 -48.5t-47 -19.5t-47 19.5zM298 606.5q-19 19.5 -19 48.5q0 28 19 47.5t47 19.5t47 -19.5t19 -47.5q0 -29 -19 -48.5t-47 -19.5t-47 19.5z" />
    <glyph glyph-name="copyright" unicode="&#xa9;" horiz-adv-x="780" 
d="M202 32.5q-81 45.5 -125 128t-44 189.5q0 108 44 190t125 127.5t188 45.5t187.5 -46t125 -128t44.5 -189t-44 -189.5t-125 -128t-188 -45.5t-188 45.5zM542 87.5q65 36.5 100.5 104.5t35.5 158t-35.5 157.5t-100.5 104.5t-152 37t-152 -36.5t-100.5 -104.5t-35.5 -158
t35.5 -158t100.5 -104.5t152 -36.5t152 36.5zM274.5 207q-51.5 52 -51.5 143q0 90 52 142.5t142 52.5q25 0 50.5 -4.5t40.5 -11.5v-79q-15 8 -39 13.5t-48 5.5q-52 0 -81 -31t-29 -88q0 -58 28.5 -88.5t82.5 -30.5q25 0 50 6.5t41 15.5v-79q-17 -8 -43 -13.5t-53 -5.5
q-91 0 -142.5 52z" />
    <glyph glyph-name="ordfeminine" unicode="&#xaa;" horiz-adv-x="325" 
d="M281 582v-201h-63l1 44h-6q-29 -53 -91 -53q-44 0 -70.5 26t-26.5 69q0 101 138 115l39 4q-3 23 -17 35.5t-38 12.5q-51 0 -92 -22v73q17 8 44 14t56 6q126 0 126 -123zM187 459q16 19 16 59v14l-36 -4q-64 -7 -64 -52q0 -16 11 -26t28 -10q29 0 45 19z" />
    <glyph glyph-name="guillemotleft" unicode="&#xab;" horiz-adv-x="545" 
d="M283 38h-113l-121 224l121 223h113l-126 -223zM501 38h-113l-121 224l121 223h113l-126 -223z" />
    <glyph glyph-name="logicalnot" unicode="&#xac;" 
d="M517 207h-94v130h-350v96h444v-226z" />
    <glyph glyph-name="uni00AD" unicode="&#xad;" horiz-adv-x="400" 
d="M371 211h-342v98h342v-98z" />
    <glyph glyph-name="registered" unicode="&#xae;" horiz-adv-x="430" 
d="M316.5 704.5q44.5 -25.5 69.5 -71.5t25 -103t-25 -103t-69.5 -71.5t-101.5 -25.5t-101.5 25.5t-69.5 71.5t-25 103t25 103t69.5 71.5t101.5 25.5t101.5 -25.5zM319.5 419.5q39.5 42.5 39.5 110.5t-39.5 110.5t-104.5 42.5t-104.5 -42.5t-39.5 -110.5t39.5 -110.5
t104.5 -42.5t104.5 42.5zM288 540q-9 -14 -24 -22l47 -81h-56l-38 72h-24v-72h-49v200h81q32 0 52 -18t20 -47q0 -18 -9 -32zM193 595v-46h27q13 0 20 6t7 17t-7 17t-20 6h-27z" />
    <glyph glyph-name="macron" unicode="&#xaf;" horiz-adv-x="430" 
d="M363 612h-296v82h296v-82z" />
    <glyph glyph-name="degree" unicode="&#xb0;" horiz-adv-x="390" 
d="M76.5 401.5q-44.5 49.5 -44.5 128.5t44.5 128.5t118.5 49.5t118.5 -49.5t44.5 -128.5t-44.5 -128.5t-118.5 -49.5t-118.5 49.5zM249.5 455.5q20.5 27.5 20.5 74.5t-20.5 74.5t-54.5 27.5t-54.5 -27.5t-20.5 -74.5t20.5 -74.5t54.5 -27.5t54.5 27.5z" />
    <glyph glyph-name="plusminus" unicode="&#xb1;" 
d="M344 170h-98v186h-183v95h183v186h98v-186h183v-95h-183v-186zM527 32h-464v90h464v-90z" />
    <glyph glyph-name="uni00B2" unicode="&#xb2;" horiz-adv-x="295" 
d="M116 533h152v-73h-245v86l114 92q21 18 32 34t11 33q0 18 -13.5 27.5t-39.5 9.5q-21 0 -47.5 -7.5t-51.5 -20.5v77q63 24 105 24q60 0 95 -28t35 -77q0 -32 -20.5 -62t-58.5 -60z" />
    <glyph glyph-name="uni00B3" unicode="&#xb3;" horiz-adv-x="305" 
d="M260 611.5q16 -22.5 16 -51.5q0 -48 -38 -76.5t-104 -28.5q-46 0 -108 18v72q55 -18 105 -18q62 0 62 42q0 18 -17 28.5t-49 10.5h-34v66h34q28 0 43.5 9t15.5 27q0 33 -58 33q-48 0 -89 -14v72q45 14 91 14q62 0 100.5 -26t38.5 -69q0 -25 -14 -44.5t-40 -30.5
q29 -11 45 -33.5z" />
    <glyph glyph-name="acute" unicode="&#xb4;" horiz-adv-x="360" 
d="M173 584h-86l65 148h122z" />
    <glyph glyph-name="uni00B5" unicode="&#xb5;" horiz-adv-x="570" 
d="M393 522h110v-522h-102l2 73h-7q-30 -41 -64 -63.5t-76 -22.5q-48 0 -87 27v-194h-102v702h110v-327q0 -116 91 -116q55 0 90 39t35 104v300z" />
    <glyph glyph-name="paragraph" unicode="&#xb6;" horiz-adv-x="620" 
d="M514 700v-800h-101v709h-112v-709h-101v425q-73 8 -119.5 59.5t-46.5 126.5q0 55 25 98t69 67t99 24h287z" />
    <glyph glyph-name="periodcentered" unicode="&#xb7;" horiz-adv-x="300" 
d="M96 206q-22 22 -22 54t22 54t54 22t54 -22t22 -54t-22 -54t-54 -22t-54 22z" />
    <glyph glyph-name="cedilla" unicode="&#xb8;" horiz-adv-x="295" 
d="M158 -42q34 -3 56 -23t22 -57q0 -39 -29 -61.5t-79 -22.5q-41 0 -69 8v67q28 -7 63 -7q18 0 28 6t10 17q0 23 -46 23h-27v6l27 95l57 -9z" />
    <glyph glyph-name="uni00B9" unicode="&#xb9;" horiz-adv-x="300" 
d="M272 460h-241v73h79v205h-61v72h146v-277h77v-73z" />
    <glyph glyph-name="ordmasculine" unicode="&#xba;" horiz-adv-x="350" 
d="M68 418q-41 46 -41 120q0 75 41 121t107 46t107 -46t41 -121q0 -74 -41 -120t-107 -46t-107 46zM225 467q19 25 19 71t-19 71.5t-50 25.5t-50 -25.5t-19 -71.5t19 -71t50 -25t50 25z" />
    <glyph glyph-name="guillemotright" unicode="&#xbb;" horiz-adv-x="545" 
d="M157 38h-113l126 224l-126 223h113l121 -223zM375 38h-113l126 224l-126 223h113l121 -223z" />
    <glyph glyph-name="onequarter" unicode="&#xbc;" horiz-adv-x="755" 
d="M272 350h-241v73h79v205h-61v72h146v-277h77v-73zM214 0h-101l443 700h101zM693 147h40v-69h-40v-78h-82v78h-154v73l137 199h99v-203zM616 261h-5l-78 -114h83v114z" />
    <glyph glyph-name="onehalf" unicode="&#xbd;" horiz-adv-x="765" 
d="M272 350h-241v73h79v205h-61v72h146v-277h77v-73zM214 0h-101l443 700h101zM586 73h152v-73h-245v86l114 92q21 18 32 34t11 33q0 18 -13.5 27.5t-39.5 9.5q-21 0 -47.5 -7.5t-51.5 -20.5v77q63 24 105 24q60 0 95 -28t35 -77q0 -32 -20.5 -62t-58.5 -60z" />
    <glyph glyph-name="threequarters" unicode="&#xbe;" horiz-adv-x="760" 
d="M260 501.5q16 -22.5 16 -51.5q0 -48 -38 -76.5t-104 -28.5q-46 0 -108 18v72q55 -18 105 -18q62 0 62 42q0 18 -17 28.5t-49 10.5h-34v66h34q28 0 43.5 9t15.5 27q0 33 -58 33q-48 0 -89 -14v72q45 14 91 14q62 0 100.5 -26t38.5 -69q0 -25 -14 -44.5t-40 -30.5
q29 -11 45 -33.5zM219 0h-101l443 700h101zM698 147h40v-69h-40v-78h-82v78h-154v73l137 199h99v-203zM621 261h-5l-78 -114h83v114z" />
    <glyph glyph-name="questiondown" unicode="&#xbf;" horiz-adv-x="500" 
d="M209 392q-22 22 -22 54t22 54t53 22q32 0 54 -22t22 -54t-22 -54t-54 -22q-31 0 -53 22zM96.5 -146q-58.5 47 -58.5 125q0 56 26 94.5t75 83.5q38 35 56.5 59.5t18.5 55.5v15h98v-15q0 -49 -22.5 -83.5t-65.5 -76.5q-37 -38 -55 -64.5t-18 -60.5q0 -38 29 -59.5t80 -21.5
q96 0 212 59v-107q-108 -51 -217 -51q-100 0 -158.5 47z" />
    <glyph glyph-name="Agrave" unicode="&#xc0;" horiz-adv-x="655" 
d="M635 0h-121l-53 175h-270l-53 -175h-118l223 700h169zM322 602l-100 -326h208l-100 326h-8zM389 762h-91l-109 128h134z" />
    <glyph glyph-name="Aacute" unicode="&#xc1;" horiz-adv-x="655" 
d="M635 0h-121l-53 175h-270l-53 -175h-118l223 700h169zM322 602l-100 -326h208l-100 326h-8zM358 762h-91l66 128h134z" />
    <glyph glyph-name="Acircumflex" unicode="&#xc2;" horiz-adv-x="655" 
d="M635 0h-121l-53 175h-270l-53 -175h-118l223 700h169zM322 602l-100 -326h208l-100 326h-8zM264 762h-105l115 128h107l115 -128h-105l-60 69h-7z" />
    <glyph glyph-name="Atilde" unicode="&#xc3;" horiz-adv-x="655" 
d="M635 0h-121l-53 175h-270l-53 -175h-118l223 700h169zM322 602l-100 -326h208l-100 326h-8zM172 773q0 50 23.5 81.5t65.5 31.5q26 0 42.5 -7t37.5 -20q13 -9 22.5 -13.5t21.5 -4.5q16 0 23.5 11t7.5 34h67v-7q0 -53 -23.5 -85t-65.5 -32q-25 0 -43.5 7t-36.5 20
q-14 9 -23.5 13.5t-21.5 4.5q-31 0 -31 -45h-66v11z" />
    <glyph glyph-name="Adieresis" unicode="&#xc4;" horiz-adv-x="655" 
d="M635 0h-121l-53 175h-270l-53 -175h-118l223 700h169zM322 602l-100 -326h208l-100 326h-8zM180 779.5q-19 19.5 -19 48.5t19 48.5t47 19.5t47 -19.5t19 -48.5t-19 -48.5t-47 -19.5t-47 19.5zM382 779.5q-19 19.5 -19 48.5t19 48.5t47 19.5t47 -19.5t19 -48.5t-19 -48.5
t-47 -19.5t-47 19.5z" />
    <glyph glyph-name="Aring" unicode="&#xc5;" horiz-adv-x="655" 
d="M635 0h-121l-53 175h-270l-53 -175h-118l223 700h169zM322 602l-100 -326h208l-100 326h-8zM254 774.5q-29 27.5 -29 70.5q0 42 29 69.5t74 27.5t74 -27.5t29 -69.5q0 -43 -29 -70.5t-74 -27.5t-74 27.5zM355.5 816.5q10.5 10.5 10.5 28.5q0 17 -10.5 27.5t-27.5 10.5
t-27.5 -10.5t-10.5 -27.5q0 -18 10.5 -28.5t27.5 -10.5t27.5 10.5z" />
    <glyph glyph-name="AE" unicode="&#xc6;" horiz-adv-x="830" 
d="M490 309v-206h281v-103h-395v175h-192l-61 -175h-118l249 700h512v-103h-276v-188h256v-100h-256zM331 597l-112 -321h157v321h-45z" />
    <glyph glyph-name="Ccedilla" unicode="&#xc7;" horiz-adv-x="610" 
d="M396 -13l-9 -29q34 -3 56 -23t22 -57q0 -39 -29 -61.5t-79 -22.5q-41 0 -69 8v67q28 -7 63 -7q18 0 28 6t10 17q0 23 -46 23h-27v6l22 77q-139 17 -216 111t-77 248q0 109 43.5 191t123 127t185.5 45q42 0 85.5 -7t79.5 -21v-110q-36 14 -78.5 22.5t-81.5 8.5
q-70 0 -122.5 -31t-81 -89t-28.5 -136q0 -121 61 -188.5t171 -67.5q40 0 85 9t80 23v-109q-74 -30 -170 -30h-1z" />
    <glyph glyph-name="Egrave" unicode="&#xc8;" horiz-adv-x="570" 
d="M203 309v-206h308v-103h-425v700h420v-103h-303v-188h283v-100h-283zM357 762h-91l-109 128h134z" />
    <glyph glyph-name="Eacute" unicode="&#xc9;" horiz-adv-x="570" 
d="M203 309v-206h308v-103h-425v700h420v-103h-303v-188h283v-100h-283zM327 762h-91l66 128h134z" />
    <glyph glyph-name="Ecircumflex" unicode="&#xca;" horiz-adv-x="570" 
d="M203 309v-206h308v-103h-425v700h420v-103h-303v-188h283v-100h-283zM233 762h-105l115 128h107l115 -128h-105l-60 69h-7z" />
    <glyph glyph-name="Edieresis" unicode="&#xcb;" horiz-adv-x="570" 
d="M203 309v-206h308v-103h-425v700h420v-103h-303v-188h283v-100h-283zM148 779.5q-19 19.5 -19 48.5t19 48.5t47 19.5t47 -19.5t19 -48.5t-19 -48.5t-47 -19.5t-47 19.5zM350 779.5q-19 19.5 -19 48.5t19 48.5t47 19.5t47 -19.5t19 -48.5t-19 -48.5t-47 -19.5t-47 19.5z
" />
    <glyph glyph-name="Igrave" unicode="&#xcc;" horiz-adv-x="475" 
d="M430 0h-385v97h136v506h-136v97h385v-97h-136v-506h136v-97zM299 762h-91l-109 128h134z" />
    <glyph glyph-name="Iacute" unicode="&#xcd;" horiz-adv-x="475" 
d="M430 0h-385v97h136v506h-136v97h385v-97h-136v-506h136v-97zM268 762h-91l66 128h134z" />
    <glyph glyph-name="Icircumflex" unicode="&#xce;" horiz-adv-x="475" 
d="M430 0h-385v97h136v506h-136v97h385v-97h-136v-506h136v-97zM174 762h-105l115 128h107l115 -128h-105l-60 69h-7z" />
    <glyph glyph-name="Idieresis" unicode="&#xcf;" horiz-adv-x="475" 
d="M430 0h-385v97h136v506h-136v97h385v-97h-136v-506h136v-97zM90 779.5q-19 19.5 -19 48.5t19 48.5t47 19.5t47 -19.5t19 -48.5t-19 -48.5t-47 -19.5t-47 19.5zM292 779.5q-19 19.5 -19 48.5t19 48.5t47 19.5t47 -19.5t19 -48.5t-19 -48.5t-47 -19.5t-47 19.5z" />
    <glyph glyph-name="Eth" unicode="&#xd0;" horiz-adv-x="700" 
d="M289 700q113 0 195.5 -42t126.5 -121t44 -187t-44 -187t-126.5 -121t-195.5 -42h-183v304h-91v92h91v304h183zM290 105q116 0 178.5 63.5t62.5 181.5t-62.5 181.5t-178.5 63.5h-67v-199h152v-92h-152v-199h67z" />
    <glyph glyph-name="Ntilde" unicode="&#xd1;" horiz-adv-x="740" 
d="M194 0h-108v700h167l285 -570h8v570h108v-700h-167l-285 570h-8v-570zM214 773q0 50 23.5 81.5t65.5 31.5q26 0 42.5 -7t37.5 -20q13 -9 22.5 -13.5t21.5 -4.5q16 0 23.5 11t7.5 34h67v-7q0 -53 -23.5 -85t-65.5 -32q-25 0 -43.5 7t-36.5 20q-14 9 -23.5 13.5t-21.5 4.5
q-31 0 -31 -45h-66v11z" />
    <glyph glyph-name="Ograve" unicode="&#xd2;" horiz-adv-x="725" 
d="M193.5 31q-71.5 44 -110 126t-38.5 193t38.5 193t110 126t168.5 44t169 -44t110.5 -126t38.5 -193t-38.5 -193t-110.5 -126t-169 -44t-168.5 44zM504 161q50 67 50 189t-50 189t-142 67q-91 0 -141 -67t-50 -189t50 -189t141 -67q92 0 142 67zM423 762h-91l-109 128h134z
" />
    <glyph glyph-name="Oacute" unicode="&#xd3;" horiz-adv-x="725" 
d="M193.5 31q-71.5 44 -110 126t-38.5 193t38.5 193t110 126t168.5 44t169 -44t110.5 -126t38.5 -193t-38.5 -193t-110.5 -126t-169 -44t-168.5 44zM504 161q50 67 50 189t-50 189t-142 67q-91 0 -141 -67t-50 -189t50 -189t141 -67q92 0 142 67zM392 762h-91l66 128h134z
" />
    <glyph glyph-name="Ocircumflex" unicode="&#xd4;" horiz-adv-x="725" 
d="M193.5 31q-71.5 44 -110 126t-38.5 193t38.5 193t110 126t168.5 44t169 -44t110.5 -126t38.5 -193t-38.5 -193t-110.5 -126t-169 -44t-168.5 44zM504 161q50 67 50 189t-50 189t-142 67q-91 0 -141 -67t-50 -189t50 -189t141 -67q92 0 142 67zM298 762h-105l115 128h107
l115 -128h-105l-60 69h-7z" />
    <glyph glyph-name="Otilde" unicode="&#xd5;" horiz-adv-x="725" 
d="M193.5 31q-71.5 44 -110 126t-38.5 193t38.5 193t110 126t168.5 44t169 -44t110.5 -126t38.5 -193t-38.5 -193t-110.5 -126t-169 -44t-168.5 44zM504 161q50 67 50 189t-50 189t-142 67q-91 0 -141 -67t-50 -189t50 -189t141 -67q92 0 142 67zM206 773q0 50 23.5 81.5
t65.5 31.5q26 0 42.5 -7t37.5 -20q13 -9 22.5 -13.5t21.5 -4.5q16 0 23.5 11t7.5 34h67v-7q0 -53 -23.5 -85t-65.5 -32q-25 0 -43.5 7t-36.5 20q-14 9 -23.5 13.5t-21.5 4.5q-31 0 -31 -45h-66v11z" />
    <glyph glyph-name="Odieresis" unicode="&#xd6;" horiz-adv-x="725" 
d="M193.5 31q-71.5 44 -110 126t-38.5 193t38.5 193t110 126t168.5 44t169 -44t110.5 -126t38.5 -193t-38.5 -193t-110.5 -126t-169 -44t-168.5 44zM504 161q50 67 50 189t-50 189t-142 67q-91 0 -141 -67t-50 -189t50 -189t141 -67q92 0 142 67zM214 779.5
q-19 19.5 -19 48.5t19 48.5t47 19.5t47 -19.5t19 -48.5t-19 -48.5t-47 -19.5t-47 19.5zM416 779.5q-19 19.5 -19 48.5t19 48.5t47 19.5t47 -19.5t19 -48.5t-19 -48.5t-47 -19.5t-47 19.5z" />
    <glyph glyph-name="multiply" unicode="&#xd7;" 
d="M295 285l-140 -140l-65 65l140 140l-140 140l65 65l140 -140l140 140l65 -65l-140 -140l140 -140l-65 -65z" />
    <glyph glyph-name="Oslash" unicode="&#xd8;" horiz-adv-x="725" 
d="M585 626q46 -48 70.5 -118t24.5 -158q0 -111 -38.5 -193t-110.5 -126t-169 -44q-91 0 -162 40l-32 -50h-92l63 98q-46 48 -70 118t-24 157q0 111 38.5 193t110 126t168.5 44q92 0 161 -40l32 50h92zM221 539q-50 -67 -50 -189q0 -102 36 -168l255 396q-40 28 -100 28
q-91 0 -141 -67zM504 161q50 67 50 189q0 104 -37 170l-256 -398q44 -28 101 -28q92 0 142 67z" />
    <glyph glyph-name="Ugrave" unicode="&#xd9;" horiz-adv-x="695" 
d="M151.5 63q-70.5 76 -70.5 210v427h117v-426q0 -86 38.5 -133t110.5 -47q73 0 111.5 46.5t38.5 133.5v426h117v-427q0 -134 -70.5 -210t-196.5 -76q-125 0 -195.5 76zM409 762h-91l-109 128h134z" />
    <glyph glyph-name="Uacute" unicode="&#xda;" horiz-adv-x="695" 
d="M151.5 63q-70.5 76 -70.5 210v427h117v-426q0 -86 38.5 -133t110.5 -47q73 0 111.5 46.5t38.5 133.5v426h117v-427q0 -134 -70.5 -210t-196.5 -76q-125 0 -195.5 76zM378 762h-91l66 128h134z" />
    <glyph glyph-name="Ucircumflex" unicode="&#xdb;" horiz-adv-x="695" 
d="M151.5 63q-70.5 76 -70.5 210v427h117v-426q0 -86 38.5 -133t110.5 -47q73 0 111.5 46.5t38.5 133.5v426h117v-427q0 -134 -70.5 -210t-196.5 -76q-125 0 -195.5 76zM284 762h-105l115 128h107l115 -128h-105l-60 69h-7z" />
    <glyph glyph-name="Udieresis" unicode="&#xdc;" horiz-adv-x="695" 
d="M151.5 63q-70.5 76 -70.5 210v427h117v-426q0 -86 38.5 -133t110.5 -47q73 0 111.5 46.5t38.5 133.5v426h117v-427q0 -134 -70.5 -210t-196.5 -76q-125 0 -195.5 76zM200 779.5q-19 19.5 -19 48.5t19 48.5t47 19.5t47 -19.5t19 -48.5t-19 -48.5t-47 -19.5t-47 19.5z
M402 779.5q-19 19.5 -19 48.5t19 48.5t47 19.5t47 -19.5t19 -48.5t-19 -48.5t-47 -19.5t-47 19.5z" />
    <glyph glyph-name="Yacute" unicode="&#xdd;" horiz-adv-x="620" 
d="M369 0h-118v249l-232 451h126l163 -327h8l163 327h122l-232 -451v-249zM343 762h-91l66 128h134z" />
    <glyph glyph-name="Thorn" unicode="&#xde;" horiz-adv-x="660" 
d="M397 568q66 0 119 -25.5t83.5 -72t30.5 -107.5t-30.5 -107t-84 -71.5t-120.5 -25.5h-193v-159h-116v700h116v-132h195zM391 261q55 0 88 26t33 76t-33 76.5t-88 26.5h-189v-205h189z" />
    <glyph glyph-name="germandbls" unicode="&#xdf;" horiz-adv-x="577" 
d="M505 307.5q32 -45.5 32 -111.5q0 -95 -60.5 -151t-159.5 -56q-36 0 -94 10v92q39 -11 82 -11q57 0 87.5 30.5t30.5 89.5q0 58 -31.5 88.5t-87.5 30.5h-40v90h29q47 0 73.5 27.5t26.5 77.5t-27 78t-75 28q-51 0 -81.5 -35.5t-30.5 -96.5v-488h-110v485q0 103 59 164.5
t164 61.5q63 0 111 -23.5t74 -65t26 -95.5q0 -53 -23 -91.5t-65 -60.5q58 -22 90 -67.5z" />
    <glyph glyph-name="agrave" unicode="&#xe0;" horiz-adv-x="525" 
d="M463 331v-331h-100l1 73h-7q-56 -86 -157 -86q-73 0 -117 42.5t-44 113.5q0 76 56.5 122t171.5 58l86 9q-2 55 -28.5 81.5t-81.5 26.5q-39 0 -79.5 -9.5t-74.5 -27.5v99q30 13 74 22.5t91 9.5q209 0 209 -203zM317.5 116.5q35.5 37.5 35.5 110.5v26l-82 -8
q-119 -13 -119 -90q0 -35 21.5 -55.5t58.5 -20.5q50 0 85.5 37.5zM319 584h-86l-101 148h122z" />
    <glyph glyph-name="aacute" unicode="&#xe1;" horiz-adv-x="525" 
d="M463 331v-331h-100l1 73h-7q-56 -86 -157 -86q-73 0 -117 42.5t-44 113.5q0 76 56.5 122t171.5 58l86 9q-2 55 -28.5 81.5t-81.5 26.5q-39 0 -79.5 -9.5t-74.5 -27.5v99q30 13 74 22.5t91 9.5q209 0 209 -203zM317.5 116.5q35.5 37.5 35.5 110.5v26l-82 -8
q-119 -13 -119 -90q0 -35 21.5 -55.5t58.5 -20.5q50 0 85.5 37.5zM297 584h-86l65 148h122z" />
    <glyph glyph-name="acircumflex" unicode="&#xe2;" horiz-adv-x="525" 
d="M463 331v-331h-100l1 73h-7q-56 -86 -157 -86q-73 0 -117 42.5t-44 113.5q0 76 56.5 122t171.5 58l86 9q-2 55 -28.5 81.5t-81.5 26.5q-39 0 -79.5 -9.5t-74.5 -27.5v99q30 13 74 22.5t91 9.5q209 0 209 -203zM317.5 116.5q35.5 37.5 35.5 110.5v26l-82 -8
q-119 -13 -119 -90q0 -35 21.5 -55.5t58.5 -20.5q50 0 85.5 37.5zM199 584h-98l110 148h107l110 -148h-98l-62 87h-7z" />
    <glyph glyph-name="atilde" unicode="&#xe3;" horiz-adv-x="525" 
d="M463 331v-331h-100l1 73h-7q-56 -86 -157 -86q-73 0 -117 42.5t-44 113.5q0 76 56.5 122t171.5 58l86 9q-2 55 -28.5 81.5t-81.5 26.5q-39 0 -79.5 -9.5t-74.5 -27.5v99q30 13 74 22.5t91 9.5q209 0 209 -203zM317.5 116.5q35.5 37.5 35.5 110.5v26l-82 -8
q-119 -13 -119 -90q0 -35 21.5 -55.5t58.5 -20.5q50 0 85.5 37.5zM114 601q0 54 22.5 85t63.5 31q24 0 41.5 -8t38.5 -22q14 -10 22.5 -14.5t17.5 -4.5q14 0 20.5 11.5t6.5 37.5h67v-12q0 -54 -22.5 -85t-63.5 -31q-25 0 -42.5 8t-36.5 22q-13 10 -22.5 14.5t-18.5 4.5
q-14 0 -20.5 -12t-6.5 -37h-67v12z" />
    <glyph glyph-name="adieresis" unicode="&#xe4;" horiz-adv-x="525" 
d="M463 331v-331h-100l1 73h-7q-56 -86 -157 -86q-73 0 -117 42.5t-44 113.5q0 76 56.5 122t171.5 58l86 9q-2 55 -28.5 81.5t-81.5 26.5q-39 0 -79.5 -9.5t-74.5 -27.5v99q30 13 74 22.5t91 9.5q209 0 209 -203zM317.5 116.5q35.5 37.5 35.5 110.5v26l-82 -8
q-119 -13 -119 -90q0 -35 21.5 -55.5t58.5 -20.5q50 0 85.5 37.5zM118 606.5q-19 19.5 -19 48.5t19 48t47 19t47 -19.5t19 -47.5q0 -29 -19 -48.5t-47 -19.5t-47 19.5zM318 606.5q-19 19.5 -19 48.5q0 28 19 47.5t47 19.5t47 -19.5t19 -47.5q0 -29 -19 -48.5t-47 -19.5
t-47 19.5z" />
    <glyph glyph-name="aring" unicode="&#xe5;" horiz-adv-x="525" 
d="M463 331v-331h-100l1 73h-7q-56 -86 -157 -86q-73 0 -117 42.5t-44 113.5q0 76 56.5 122t171.5 58l86 9q-2 55 -28.5 81.5t-81.5 26.5q-39 0 -79.5 -9.5t-74.5 -27.5v99q30 13 74 22.5t91 9.5q209 0 209 -203zM317.5 116.5q35.5 37.5 35.5 110.5v26l-82 -8
q-119 -13 -119 -90q0 -35 21.5 -55.5t58.5 -20.5q50 0 85.5 37.5zM191.5 600.5q-29.5 27.5 -29.5 70.5t29 70.5t74 27.5t74 -27.5t29 -70.5t-29.5 -70.5t-73.5 -27.5t-73.5 27.5zM292.5 643q10.5 10 10.5 28t-10.5 28.5t-27.5 10.5t-27.5 -10.5t-10.5 -28.5t10.5 -28
t27.5 -10t27.5 10z" />
    <glyph glyph-name="ae" unicode="&#xe6;" horiz-adv-x="790" 
d="M754 234h-322q5 -74 41 -113t110 -39q32 0 68.5 10.5t70.5 29.5v-101q-79 -34 -147 -34q-140 0 -200 102q-61 -102 -174 -102q-73 0 -117.5 43t-44.5 113q0 77 56.5 124.5t156.5 47.5h75v10q0 55 -27 85t-79 30q-64 0 -132 -33v99q28 11 69.5 19.5t75.5 8.5
q55 0 94.5 -18.5t60.5 -53.5q54 72 154 72q106 0 160.5 -69t54.5 -192q0 -17 -4 -39zM434 315h213q-5 65 -29 98t-75 33q-95 0 -109 -131zM297.5 116q29.5 37 29.5 110v8h-74q-48 0 -75.5 -22t-27.5 -61q0 -33 20.5 -52.5t54.5 -19.5q43 0 72.5 37z" />
    <glyph glyph-name="ccedilla" unicode="&#xe7;" horiz-adv-x="475" 
d="M443 13q-23 -12 -58.5 -19t-73.5 -7l-9 -29q34 -3 56 -23t22 -57q0 -39 -29 -61.5t-79 -22.5q-41 0 -69 8v67q28 -7 63 -7q18 0 28 6t10 17q0 23 -46 23h-27v6l22 77q-104 15 -161 86t-57 184q0 83 33 144.5t94.5 95t145.5 33.5q35 0 70 -6.5t60 -17.5v-97q-23 12 -57 20
t-67 8q-76 0 -119 -46.5t-43 -133.5q0 -89 42 -135t120 -46q36 0 70.5 9t58.5 22v-98z" />
    <glyph glyph-name="egrave" unicode="&#xe8;" horiz-adv-x="540" 
d="M504 234h-354q14 -152 166 -152q83 0 156 40v-101q-79 -34 -164 -34q-132 0 -202.5 72.5t-70.5 201.5q0 81 30 143t84.5 96t127.5 34q109 0 170 -69t61 -192q0 -17 -4 -39zM194 412q-32 -34 -42 -97h245q-8 63 -38 97t-82 34q-51 0 -83 -34zM331 584h-86l-101 148h122z
" />
    <glyph glyph-name="eacute" unicode="&#xe9;" horiz-adv-x="540" 
d="M504 234h-354q14 -152 166 -152q83 0 156 40v-101q-79 -34 -164 -34q-132 0 -202.5 72.5t-70.5 201.5q0 81 30 143t84.5 96t127.5 34q109 0 170 -69t61 -192q0 -17 -4 -39zM194 412q-32 -34 -42 -97h245q-8 63 -38 97t-82 34q-51 0 -83 -34zM310 584h-86l65 148h122z" />
    <glyph glyph-name="ecircumflex" unicode="&#xea;" horiz-adv-x="540" 
d="M504 234h-354q14 -152 166 -152q83 0 156 40v-101q-79 -34 -164 -34q-132 0 -202.5 72.5t-70.5 201.5q0 81 30 143t84.5 96t127.5 34q109 0 170 -69t61 -192q0 -17 -4 -39zM194 412q-32 -34 -42 -97h245q-8 63 -38 97t-82 34q-51 0 -83 -34zM211 584h-98l110 148h107
l110 -148h-98l-62 87h-7z" />
    <glyph glyph-name="edieresis" unicode="&#xeb;" horiz-adv-x="540" 
d="M504 234h-354q14 -152 166 -152q83 0 156 40v-101q-79 -34 -164 -34q-132 0 -202.5 72.5t-70.5 201.5q0 81 30 143t84.5 96t127.5 34q109 0 170 -69t61 -192q0 -17 -4 -39zM194 412q-32 -34 -42 -97h245q-8 63 -38 97t-82 34q-51 0 -83 -34zM130 606.5q-19 19.5 -19 48.5
t19 48t47 19t47 -19.5t19 -47.5q0 -29 -19 -48.5t-47 -19.5t-47 19.5zM330 606.5q-19 19.5 -19 48.5q0 28 19 47.5t47 19.5t47 -19.5t19 -47.5q0 -29 -19 -48.5t-47 -19.5t-47 19.5z" />
    <glyph glyph-name="igrave" unicode="&#xec;" horiz-adv-x="300" 
d="M222 0h-109v430h-100v92h209v-522zM216 584h-86l-99 148h122z" />
    <glyph glyph-name="iacute" unicode="&#xed;" horiz-adv-x="300" 
d="M222 0h-109v430h-100v92h209v-522zM194 584h-86l64 148h121z" />
    <glyph glyph-name="icircumflex" unicode="&#xee;" horiz-adv-x="300" 
d="M222 0h-109v430h-100v92h209v-522zM103 584h-94l99 148h107l99 -148h-95l-54 85h-7z" />
    <glyph glyph-name="idieresis" unicode="&#xef;" horiz-adv-x="300" 
d="M222 0h-109v430h-100v92h209v-522zM21 606.5q-19 19.5 -19 48.5t19 48t47 19t47 -19.5t19 -47.5q0 -29 -19 -48.5t-47 -19.5t-47 19.5zM208 606.5q-19 19.5 -19 48.5q0 28 19 47.5t47 19.5t47 -19.5t19 -47.5q0 -29 -19 -48.5t-47 -19.5t-47 19.5z" />
    <glyph glyph-name="eth" unicode="&#xf0;" horiz-adv-x="560" 
d="M414 613q52 -61 79 -139.5t27 -182.5q0 -146 -64 -225t-177 -79q-73 0 -130 32.5t-88 90.5t-31 131q0 75 30 132.5t81 89t111 31.5q49 0 88 -16.5t63 -45.5q-18 79 -77 143l-104 -44l-26 61l77 33q-32 28 -74 56l89 42q40 -27 77 -59l93 40l26 -61zM403 253
q0 70 -34 110.5t-94 40.5t-94 -44.5t-34 -118.5q0 -73 34.5 -117.5t93.5 -44.5t93.5 40.5t34.5 110.5v23z" />
    <glyph glyph-name="ntilde" unicode="&#xf1;" horiz-adv-x="570" 
d="M67 0v522h104l-2 -70h8q26 38 68 60t95 22q80 0 124 -51t44 -145v-338h-110v326q0 117 -94 117q-56 0 -91.5 -39.5t-35.5 -103.5v-300h-110zM137 601q0 54 22.5 85t63.5 31q24 0 41.5 -8t38.5 -22q14 -10 22.5 -14.5t17.5 -4.5q14 0 20.5 11.5t6.5 37.5h67v-12
q0 -54 -22.5 -85t-63.5 -31q-25 0 -42.5 8t-36.5 22q-13 10 -22.5 14.5t-18.5 4.5q-14 0 -20.5 -12t-6.5 -37h-67v12z" />
    <glyph glyph-name="ograve" unicode="&#xf2;" horiz-adv-x="560" 
d="M150 20.5q-55 33.5 -85 95.5t-30 145t30 144.5t85 95t130 33.5t130 -33.5t85 -95t30 -144.5t-30 -145t-85 -95.5t-130 -33.5t-130 33.5zM374.5 125.5q33.5 46.5 33.5 135.5q0 88 -33.5 135t-94.5 47t-94.5 -47t-33.5 -135q0 -89 33.5 -135.5t94.5 -46.5t94.5 46.5z
M334 584h-86l-101 148h122z" />
    <glyph glyph-name="oacute" unicode="&#xf3;" horiz-adv-x="560" 
d="M150 20.5q-55 33.5 -85 95.5t-30 145t30 144.5t85 95t130 33.5t130 -33.5t85 -95t30 -144.5t-30 -145t-85 -95.5t-130 -33.5t-130 33.5zM374.5 125.5q33.5 46.5 33.5 135.5q0 88 -33.5 135t-94.5 47t-94.5 -47t-33.5 -135q0 -89 33.5 -135.5t94.5 -46.5t94.5 46.5z
M312 584h-86l65 148h122z" />
    <glyph glyph-name="ocircumflex" unicode="&#xf4;" horiz-adv-x="560" 
d="M150 20.5q-55 33.5 -85 95.5t-30 145t30 144.5t85 95t130 33.5t130 -33.5t85 -95t30 -144.5t-30 -145t-85 -95.5t-130 -33.5t-130 33.5zM374.5 125.5q33.5 46.5 33.5 135.5q0 88 -33.5 135t-94.5 47t-94.5 -47t-33.5 -135q0 -89 33.5 -135.5t94.5 -46.5t94.5 46.5z
M214 584h-98l110 148h107l110 -148h-98l-62 87h-7z" />
    <glyph glyph-name="otilde" unicode="&#xf5;" horiz-adv-x="560" 
d="M150 20.5q-55 33.5 -85 95.5t-30 145t30 144.5t85 95t130 33.5t130 -33.5t85 -95t30 -144.5t-30 -145t-85 -95.5t-130 -33.5t-130 33.5zM374.5 125.5q33.5 46.5 33.5 135.5q0 88 -33.5 135t-94.5 47t-94.5 -47t-33.5 -135q0 -89 33.5 -135.5t94.5 -46.5t94.5 46.5z
M129 601q0 54 22.5 85t63.5 31q24 0 41.5 -8t38.5 -22q14 -10 22.5 -14.5t17.5 -4.5q14 0 20.5 11.5t6.5 37.5h67v-12q0 -54 -22.5 -85t-63.5 -31q-25 0 -42.5 8t-36.5 22q-13 10 -22.5 14.5t-18.5 4.5q-14 0 -20.5 -12t-6.5 -37h-67v12z" />
    <glyph glyph-name="odieresis" unicode="&#xf6;" horiz-adv-x="560" 
d="M150 20.5q-55 33.5 -85 95.5t-30 145t30 144.5t85 95t130 33.5t130 -33.5t85 -95t30 -144.5t-30 -145t-85 -95.5t-130 -33.5t-130 33.5zM374.5 125.5q33.5 46.5 33.5 135.5q0 88 -33.5 135t-94.5 47t-94.5 -47t-33.5 -135q0 -89 33.5 -135.5t94.5 -46.5t94.5 46.5z
M133 606.5q-19 19.5 -19 48.5t19 48t47 19t47 -19.5t19 -47.5q0 -29 -19 -48.5t-47 -19.5t-47 19.5zM333 606.5q-19 19.5 -19 48.5q0 28 19 47.5t47 19.5t47 -19.5t19 -47.5q0 -29 -19 -48.5t-47 -19.5t-47 19.5z" />
    <glyph glyph-name="divide" unicode="&#xf7;" 
d="M247 492q-20 20 -20 48q0 29 19.5 49t48.5 20t48.5 -20t19.5 -49q0 -28 -19.5 -48t-48.5 -20q-28 0 -48 20zM517 304h-444v92h444v-92zM246.5 111q-19.5 20 -19.5 49t20 48.5t48 19.5q29 0 48.5 -19.5t19.5 -48.5t-19.5 -49t-48.5 -20t-48.5 20z" />
    <glyph glyph-name="oslash" unicode="&#xf8;" horiz-adv-x="560" 
d="M447 472q38 -36 58 -89.5t20 -121.5q0 -83 -30 -145t-85 -95.5t-130 -33.5q-68 0 -119 27l-23 -37h-71l45 73q-37 36 -57 89.5t-20 121.5q0 83 30 144.5t85 95t130 33.5q67 0 117 -26l23 36h72zM185.5 396q-33.5 -47 -33.5 -135q0 -70 21 -114l173 277q-26 19 -66 19
q-61 0 -94.5 -47zM374.5 125.5q33.5 46.5 33.5 135.5q0 69 -22 116l-172 -279q26 -19 66 -19q61 0 94.5 46.5z" />
    <glyph glyph-name="ugrave" unicode="&#xf9;" horiz-adv-x="565" 
d="M105.5 38q-43.5 51 -43.5 145v339h110v-327q0 -116 91 -116q55 0 90 39t35 104v300h110v-522h-102l2 73h-7q-27 -39 -69 -62.5t-95 -23.5q-78 0 -121.5 51zM334 584h-86l-101 148h122z" />
    <glyph glyph-name="uacute" unicode="&#xfa;" horiz-adv-x="565" 
d="M105.5 38q-43.5 51 -43.5 145v339h110v-327q0 -116 91 -116q55 0 90 39t35 104v300h110v-522h-102l2 73h-7q-27 -39 -69 -62.5t-95 -23.5q-78 0 -121.5 51zM312 584h-86l65 148h122z" />
    <glyph glyph-name="ucircumflex" unicode="&#xfb;" horiz-adv-x="565" 
d="M105.5 38q-43.5 51 -43.5 145v339h110v-327q0 -116 91 -116q55 0 90 39t35 104v300h110v-522h-102l2 73h-7q-27 -39 -69 -62.5t-95 -23.5q-78 0 -121.5 51zM214 584h-98l110 148h107l110 -148h-98l-62 87h-7z" />
    <glyph glyph-name="udieresis" unicode="&#xfc;" horiz-adv-x="565" 
d="M105.5 38q-43.5 51 -43.5 145v339h110v-327q0 -116 91 -116q55 0 90 39t35 104v300h110v-522h-102l2 73h-7q-27 -39 -69 -62.5t-95 -23.5q-78 0 -121.5 51zM133 606.5q-19 19.5 -19 48.5t19 48t47 19t47 -19.5t19 -47.5q0 -29 -19 -48.5t-47 -19.5t-47 19.5zM333 606.5
q-19 19.5 -19 48.5q0 28 19 47.5t47 19.5t47 -19.5t19 -47.5q0 -29 -19 -48.5t-47 -19.5t-47 19.5z" />
    <glyph glyph-name="yacute" unicode="&#xfd;" horiz-adv-x="535" 
d="M405 522h110l-182 -564q-18 -56 -39.5 -88.5t-55 -47.5t-88.5 -15q-35 0 -61 7v91q25 -5 50 -5q43 0 65 15.5t36 58.5l11 34h-52l-179 514h117l86 -275l48 -145h8l46 145zM304 584h-86l65 148h122z" />
    <glyph glyph-name="thorn" unicode="&#xfe;" horiz-adv-x="582" 
d="M448 500.5q48 -33.5 73.5 -95.5t25.5 -144t-27 -144t-77 -96t-116 -34q-48 0 -85.5 20t-62.5 56v-243h-110v880h110v-168l-3 -75h8q24 35 62.5 56t89.5 21q64 0 112 -33.5zM397.5 125.5q32.5 46.5 32.5 135.5t-32.5 135.5t-93.5 46.5q-58 0 -91.5 -41.5t-33.5 -116.5v-48
q0 -75 33.5 -116.5t91.5 -41.5q61 0 93.5 46.5z" />
    <glyph glyph-name="ydieresis" unicode="&#xff;" horiz-adv-x="535" 
d="M405 522h110l-182 -564q-18 -56 -39.5 -88.5t-55 -47.5t-88.5 -15q-35 0 -61 7v91q25 -5 50 -5q43 0 65 15.5t36 58.5l11 34h-52l-179 514h117l86 -275l48 -145h8l46 145zM125 606.5q-19 19.5 -19 48.5t19 48t47 19t47 -19.5t19 -47.5q0 -29 -19 -48.5t-47 -19.5
t-47 19.5zM325 606.5q-19 19.5 -19 48.5q0 28 19 47.5t47 19.5t47 -19.5t19 -47.5q0 -29 -19 -48.5t-47 -19.5t-47 19.5z" />
    <glyph glyph-name="Amacron" unicode="&#x100;" horiz-adv-x="655" 
d="M635 0h-121l-53 175h-270l-53 -175h-118l223 700h169zM322 602l-100 -326h208l-100 326h-8zM483 782h-310v82h310v-82z" />
    <glyph glyph-name="amacron" unicode="&#x101;" horiz-adv-x="525" 
d="M463 331v-331h-100l1 73h-7q-56 -86 -157 -86q-73 0 -117 42.5t-44 113.5q0 76 56.5 122t171.5 58l86 9q-2 55 -28.5 81.5t-81.5 26.5q-39 0 -79.5 -9.5t-74.5 -27.5v99q30 13 74 22.5t91 9.5q209 0 209 -203zM317.5 116.5q35.5 37.5 35.5 110.5v26l-82 -8
q-119 -13 -119 -90q0 -35 21.5 -55.5t58.5 -20.5q50 0 85.5 37.5zM413 612h-296v82h296v-82z" />
    <glyph glyph-name="Abreve" unicode="&#x102;" horiz-adv-x="655" 
d="M635 0h-121l-53 175h-270l-53 -175h-118l223 700h169zM322 602l-100 -326h208l-100 326h-8zM218 797q-42 35 -45 89h82q2 -22 21.5 -35.5t51.5 -13.5t51.5 13.5t21.5 35.5h82q-3 -54 -44.5 -89t-110.5 -35q-68 0 -110 35z" />
    <glyph glyph-name="abreve" unicode="&#x103;" horiz-adv-x="525" 
d="M463 331v-331h-100l1 73h-7q-56 -86 -157 -86q-73 0 -117 42.5t-44 113.5q0 76 56.5 122t171.5 58l86 9q-2 55 -28.5 81.5t-81.5 26.5q-39 0 -79.5 -9.5t-74.5 -27.5v99q30 13 74 22.5t91 9.5q209 0 209 -203zM317.5 116.5q35.5 37.5 35.5 110.5v26l-82 -8
q-119 -13 -119 -90q0 -35 21.5 -55.5t58.5 -20.5q50 0 85.5 37.5zM156.5 622q-40.5 38 -40.5 100h82q0 -30 17 -46.5t50 -16.5t50 16.5t17 46.5h82q0 -62 -40.5 -100t-108.5 -38t-108.5 38z" />
    <glyph glyph-name="Aogonek" unicode="&#x104;" horiz-adv-x="655" 
d="M634 0q-27 -15 -47.5 -40.5t-20.5 -49.5q0 -39 57 -39h11v-77h-36q-54 0 -84 24.5t-30 68.5q0 37 23.5 66t63.5 47h-57l-53 175h-270l-53 -175h-118l223 700h169l223 -700h-1zM322 602l-100 -326h208l-100 326h-8z" />
    <glyph glyph-name="aogonek" unicode="&#x105;" horiz-adv-x="525" 
d="M463 331v-331h-1q-27 -15 -47.5 -40.5t-20.5 -49.5q0 -39 57 -39h11v-77h-36q-54 0 -84 24.5t-30 68.5q0 37 23.5 66t63.5 47h-36l1 73h-7q-56 -86 -157 -86q-73 0 -117 42.5t-44 113.5q0 76 56.5 122t171.5 58l86 9q-2 55 -28.5 81.5t-81.5 26.5q-39 0 -79.5 -9.5
t-74.5 -27.5v99q30 13 74 22.5t91 9.5q209 0 209 -203zM317.5 116.5q35.5 37.5 35.5 110.5v26l-82 -8q-119 -13 -119 -90q0 -35 21.5 -55.5t58.5 -20.5q50 0 85.5 37.5z" />
    <glyph glyph-name="Cacute" unicode="&#x106;" horiz-adv-x="610" 
d="M208 30.5q-79 43.5 -121 125.5t-42 194q0 109 43.5 191t123 127t185.5 45q42 0 85.5 -7t79.5 -21v-110q-36 14 -78.5 22.5t-81.5 8.5q-70 0 -122.5 -31t-81 -89t-28.5 -136q0 -121 61 -188.5t171 -67.5q40 0 85 9t80 23v-109q-74 -30 -170 -30q-110 0 -189 43.5zM399 762
h-91l66 128h134z" />
    <glyph glyph-name="cacute" unicode="&#x107;" horiz-adv-x="475" 
d="M107.5 60q-72.5 73 -72.5 201q0 83 33 144.5t94.5 95t145.5 33.5q35 0 70 -6.5t60 -17.5v-97q-23 12 -57 20t-67 8q-76 0 -119 -46.5t-43 -133.5q0 -89 42 -135t120 -46q36 0 70.5 9t58.5 22v-98q-24 -12 -60.5 -19t-74.5 -7q-128 0 -200.5 73zM304 584h-86l65 148h122z
" />
    <glyph glyph-name="Ccircumflex" unicode="&#x108;" horiz-adv-x="610" 
d="M208 30.5q-79 43.5 -121 125.5t-42 194q0 109 43.5 191t123 127t185.5 45q42 0 85.5 -7t79.5 -21v-110q-36 14 -78.5 22.5t-81.5 8.5q-70 0 -122.5 -31t-81 -89t-28.5 -136q0 -121 61 -188.5t171 -67.5q40 0 85 9t80 23v-109q-74 -30 -170 -30q-110 0 -189 43.5zM305 762
h-105l115 128h107l115 -128h-105l-60 69h-7z" />
    <glyph glyph-name="ccircumflex" unicode="&#x109;" horiz-adv-x="475" 
d="M107.5 60q-72.5 73 -72.5 201q0 83 33 144.5t94.5 95t145.5 33.5q35 0 70 -6.5t60 -17.5v-97q-23 12 -57 20t-67 8q-76 0 -119 -46.5t-43 -133.5q0 -89 42 -135t120 -46q36 0 70.5 9t58.5 22v-98q-24 -12 -60.5 -19t-74.5 -7q-128 0 -200.5 73zM206 584h-98l110 148h107
l110 -148h-98l-62 87h-7z" />
    <glyph glyph-name="Cdotaccent" unicode="&#x10a;" horiz-adv-x="610" 
d="M208 30.5q-79 43.5 -121 125.5t-42 194q0 109 43.5 191t123 127t185.5 45q42 0 85.5 -7t79.5 -21v-110q-36 14 -78.5 22.5t-81.5 8.5q-70 0 -122.5 -31t-81 -89t-28.5 -136q0 -121 61 -188.5t171 -67.5q40 0 85 9t80 23v-109q-74 -30 -170 -30q-110 0 -189 43.5z
M319 779.5q-20 20.5 -20 48.5q0 29 20 49t49 20q28 0 48.5 -20t20.5 -49q0 -28 -20.5 -48.5t-48.5 -20.5q-29 0 -49 20.5z" />
    <glyph glyph-name="cdotaccent" unicode="&#x10b;" horiz-adv-x="475" 
d="M107.5 60q-72.5 73 -72.5 201q0 83 33 144.5t94.5 95t145.5 33.5q35 0 70 -6.5t60 -17.5v-97q-23 12 -57 20t-67 8q-76 0 -119 -46.5t-43 -133.5q0 -89 42 -135t120 -46q36 0 70.5 9t58.5 22v-98q-24 -12 -60.5 -19t-74.5 -7q-128 0 -200.5 73zM223 605.5
q-20 20.5 -20 49.5t20 49t49 20q28 0 48.5 -20t20.5 -49t-20 -49.5t-49 -20.5t-49 20.5z" />
    <glyph glyph-name="Ccaron" unicode="&#x10c;" horiz-adv-x="610" 
d="M208 30.5q-79 43.5 -121 125.5t-42 194q0 109 43.5 191t123 127t185.5 45q42 0 85.5 -7t79.5 -21v-110q-36 14 -78.5 22.5t-81.5 8.5q-70 0 -122.5 -31t-81 -89t-28.5 -136q0 -121 61 -188.5t171 -67.5q40 0 85 9t80 23v-109q-74 -30 -170 -30q-110 0 -189 43.5zM421 762
h-107l-115 128h105l60 -69h7l60 69h105z" />
    <glyph glyph-name="ccaron" unicode="&#x10d;" horiz-adv-x="475" 
d="M107.5 60q-72.5 73 -72.5 201q0 83 33 144.5t94.5 95t145.5 33.5q35 0 70 -6.5t60 -17.5v-97q-23 12 -57 20t-67 8q-76 0 -119 -46.5t-43 -133.5q0 -89 42 -135t120 -46q36 0 70.5 9t58.5 22v-98q-24 -12 -60.5 -19t-74.5 -7q-128 0 -200.5 73zM325 584h-107l-110 148h98
l62 -87h7l62 87h98z" />
    <glyph glyph-name="Dcaron" unicode="&#x10e;" horiz-adv-x="680" 
d="M86 0v700h183q113 0 195.5 -42t126.5 -121t44 -187t-44 -187t-126.5 -121t-195.5 -42h-183zM270 105q116 0 178.5 63.5t62.5 181.5t-62.5 181.5t-178.5 63.5h-67v-490h67zM396 762h-107l-115 128h105l60 -69h7l60 69h105z" />
    <glyph glyph-name="dcaron" unicode="&#x10f;" horiz-adv-x="582" 
d="M403 700h110v-700h-102l2 73h-7q-25 -39 -66 -62.5t-94 -23.5q-64 0 -112 33.5t-73.5 95.5t-25.5 144t27 144t77 96t116 34q48 0 85.5 -20t62.5 -56v242zM403 285q0 75 -33.5 116.5t-91.5 41.5q-61 0 -93.5 -46.5t-32.5 -135.5t32.5 -135.5t93.5 -46.5q58 0 91.5 41.5
t33.5 116.5v48zM615 545h-69l8 161h95z" />
    <glyph glyph-name="Dcroat" unicode="&#x110;" horiz-adv-x="700" 
d="M289 700q113 0 195.5 -42t126.5 -121t44 -187t-44 -187t-126.5 -121t-195.5 -42h-183v304h-91v92h91v304h183zM290 105q116 0 178.5 63.5t62.5 181.5t-62.5 181.5t-178.5 63.5h-67v-199h152v-92h-152v-199h67z" />
    <glyph glyph-name="dcroat" unicode="&#x111;" horiz-adv-x="592" 
d="M593 628v-77h-80v-551h-102l2 73h-7q-25 -38 -66 -62t-94 -24q-62 0 -110 32t-74.5 88.5t-26.5 128.5q0 71 28 127.5t78 88.5t115 32q47 0 85 -20t62 -55v142h-137v77h137v72h110v-72h80zM403 250q0 65 -34.5 104t-90.5 39q-58 0 -92 -42.5t-34 -114.5t34 -114.5
t92 -42.5q56 0 90.5 39t34.5 104v28z" />
    <glyph glyph-name="Emacron" unicode="&#x112;" horiz-adv-x="570" 
d="M203 309v-206h308v-103h-425v700h420v-103h-303v-188h283v-100h-283zM451 782h-310v82h310v-82z" />
    <glyph glyph-name="emacron" unicode="&#x113;" horiz-adv-x="540" 
d="M504 234h-354q14 -152 166 -152q83 0 156 40v-101q-79 -34 -164 -34q-132 0 -202.5 72.5t-70.5 201.5q0 81 30 143t84.5 96t127.5 34q109 0 170 -69t61 -192q0 -17 -4 -39zM194 412q-32 -34 -42 -97h245q-8 63 -38 97t-82 34q-51 0 -83 -34zM425 612h-296v82h296v-82z
" />
    <glyph glyph-name="Ebreve" unicode="&#x114;" horiz-adv-x="570" 
d="M203 309v-206h308v-103h-425v700h420v-103h-303v-188h283v-100h-283zM186 797q-42 35 -45 89h82q2 -22 21.5 -35.5t51.5 -13.5t51.5 13.5t21.5 35.5h82q-3 -54 -44.5 -89t-110.5 -35q-68 0 -110 35z" />
    <glyph glyph-name="ebreve" unicode="&#x115;" horiz-adv-x="540" 
d="M504 234h-354q14 -152 166 -152q83 0 156 40v-101q-79 -34 -164 -34q-132 0 -202.5 72.5t-70.5 201.5q0 81 30 143t84.5 96t127.5 34q109 0 170 -69t61 -192q0 -17 -4 -39zM194 412q-32 -34 -42 -97h245q-8 63 -38 97t-82 34q-51 0 -83 -34zM168.5 622
q-40.5 38 -40.5 100h82q0 -30 17 -46.5t50 -16.5t50 16.5t17 46.5h82q0 -62 -40.5 -100t-108.5 -38t-108.5 38z" />
    <glyph glyph-name="Edotaccent" unicode="&#x116;" horiz-adv-x="570" 
d="M203 309v-206h308v-103h-425v700h420v-103h-303v-188h283v-100h-283zM247 779.5q-20 20.5 -20 48.5q0 29 20 49t49 20q28 0 48.5 -20t20.5 -49q0 -28 -20.5 -48.5t-48.5 -20.5q-29 0 -49 20.5z" />
    <glyph glyph-name="edotaccent" unicode="&#x117;" horiz-adv-x="540" 
d="M504 234h-354q14 -152 166 -152q83 0 156 40v-101q-79 -34 -164 -34q-132 0 -202.5 72.5t-70.5 201.5q0 81 30 143t84.5 96t127.5 34q109 0 170 -69t61 -192q0 -17 -4 -39zM194 412q-32 -34 -42 -97h245q-8 63 -38 97t-82 34q-51 0 -83 -34zM228 605.5q-20 20.5 -20 49.5
t20 49t49 20q28 0 48.5 -20t20.5 -49t-20 -49.5t-49 -20.5t-49 20.5z" />
    <glyph glyph-name="Eogonek" unicode="&#x118;" horiz-adv-x="570" 
d="M511 0q-27 -15 -47.5 -40.5t-20.5 -49.5q0 -39 57 -39h11v-77h-36q-54 0 -84 24.5t-30 68.5q0 37 23.5 66t63.5 47h-362v700h420v-103h-303v-188h283v-100h-283v-206h308v-103z" />
    <glyph glyph-name="eogonek" unicode="&#x119;" horiz-adv-x="540" 
d="M504 234h-354q14 -152 166 -152q83 0 156 40v-101q-83 -61 -83 -109q0 -41 57 -41h11v-77h-36q-54 0 -84 24.5t-30 68.5q0 61 67 105q-33 -5 -66 -5q-132 0 -202.5 72.5t-70.5 201.5q0 81 30 143t84.5 96t127.5 34q109 0 170 -69t61 -192q0 -17 -4 -39zM194 412
q-32 -34 -42 -97h245q-8 63 -38 97t-82 34q-51 0 -83 -34z" />
    <glyph glyph-name="Ecaron" unicode="&#x11a;" horiz-adv-x="570" 
d="M203 309v-206h308v-103h-425v700h420v-103h-303v-188h283v-100h-283zM349 762h-107l-115 128h105l60 -69h7l60 69h105z" />
    <glyph glyph-name="ecaron" unicode="&#x11b;" horiz-adv-x="540" 
d="M504 234h-354q14 -152 166 -152q83 0 156 40v-101q-79 -34 -164 -34q-132 0 -202.5 72.5t-70.5 201.5q0 81 30 143t84.5 96t127.5 34q109 0 170 -69t61 -192q0 -17 -4 -39zM194 412q-32 -34 -42 -97h245q-8 63 -38 97t-82 34q-51 0 -83 -34zM330 584h-107l-110 148h98
l62 -87h7l62 87h98z" />
    <glyph glyph-name="Gcircumflex" unicode="&#x11c;" horiz-adv-x="680" 
d="M355 386h278v-323q-104 -76 -238 -76q-109 0 -188 44.5t-120.5 126t-41.5 192.5t45 193t128.5 126t195.5 44q49 0 97.5 -9t88.5 -25v-108q-40 16 -88 26t-95 10q-114 0 -181.5 -68t-67.5 -189q0 -120 58 -188.5t171 -68.5q77 0 131 30v166h-173v97zM310 762h-105l115 128
h107l115 -128h-105l-60 69h-7z" />
    <glyph glyph-name="gcircumflex" unicode="&#x11d;" horiz-adv-x="580" 
d="M410 522h103v-457q0 -131 -64.5 -194.5t-194.5 -63.5q-44 0 -89 6.5t-80 17.5v96q86 -27 164 -27q82 0 119.5 38t37.5 122v14h-9q-24 -35 -62 -56t-89 -21q-64 0 -112 33.5t-73.5 94.5t-25.5 140t27 140t77 95t116 34q51 0 90 -22.5t63 -63.5zM403 287q0 74 -33.5 115
t-91.5 41q-60 0 -93 -46t-33 -132t33 -132t93 -46q58 0 91.5 41t33.5 115v44zM215 584h-98l110 148h107l110 -148h-98l-62 87h-7z" />
    <glyph glyph-name="Gbreve" unicode="&#x11e;" horiz-adv-x="680" 
d="M355 386h278v-323q-104 -76 -238 -76q-109 0 -188 44.5t-120.5 126t-41.5 192.5t45 193t128.5 126t195.5 44q49 0 97.5 -9t88.5 -25v-108q-40 16 -88 26t-95 10q-114 0 -181.5 -68t-67.5 -189q0 -120 58 -188.5t171 -68.5q77 0 131 30v166h-173v97zM264 797
q-42 35 -45 89h82q2 -22 21.5 -35.5t51.5 -13.5t51.5 13.5t21.5 35.5h82q-3 -54 -44.5 -89t-110.5 -35q-68 0 -110 35z" />
    <glyph glyph-name="gbreve" unicode="&#x11f;" horiz-adv-x="580" 
d="M410 522h103v-457q0 -131 -64.5 -194.5t-194.5 -63.5q-44 0 -89 6.5t-80 17.5v96q86 -27 164 -27q82 0 119.5 38t37.5 122v14h-9q-24 -35 -62 -56t-89 -21q-64 0 -112 33.5t-73.5 94.5t-25.5 140t27 140t77 95t116 34q51 0 90 -22.5t63 -63.5zM403 287q0 74 -33.5 115
t-91.5 41q-60 0 -93 -46t-33 -132t33 -132t93 -46q58 0 91.5 41t33.5 115v44zM172.5 622q-40.5 38 -40.5 100h82q0 -30 17 -46.5t50 -16.5t50 16.5t17 46.5h82q0 -62 -40.5 -100t-108.5 -38t-108.5 38z" />
    <glyph glyph-name="Gdotaccent" unicode="&#x120;" horiz-adv-x="680" 
d="M355 386h278v-323q-104 -76 -238 -76q-109 0 -188 44.5t-120.5 126t-41.5 192.5t45 193t128.5 126t195.5 44q49 0 97.5 -9t88.5 -25v-108q-40 16 -88 26t-95 10q-114 0 -181.5 -68t-67.5 -189q0 -120 58 -188.5t171 -68.5q77 0 131 30v166h-173v97zM325 779.5
q-20 20.5 -20 48.5q0 29 20 49t49 20q28 0 48.5 -20t20.5 -49q0 -28 -20.5 -48.5t-48.5 -20.5q-29 0 -49 20.5z" />
    <glyph glyph-name="gdotaccent" unicode="&#x121;" horiz-adv-x="580" 
d="M410 522h103v-457q0 -131 -64.5 -194.5t-194.5 -63.5q-44 0 -89 6.5t-80 17.5v96q86 -27 164 -27q82 0 119.5 38t37.5 122v14h-9q-24 -35 -62 -56t-89 -21q-64 0 -112 33.5t-73.5 94.5t-25.5 140t27 140t77 95t116 34q51 0 90 -22.5t63 -63.5zM403 287q0 74 -33.5 115
t-91.5 41q-60 0 -93 -46t-33 -132t33 -132t93 -46q58 0 91.5 41t33.5 115v44zM232 605.5q-20 20.5 -20 49.5t20 49t49 20q28 0 48.5 -20t20.5 -49t-20 -49.5t-49 -20.5t-49 20.5z" />
    <glyph glyph-name="uni0122" unicode="&#x122;" horiz-adv-x="680" 
d="M355 386h278v-323q-104 -76 -238 -76q-109 0 -188 44.5t-120.5 126t-41.5 192.5t45 193t128.5 126t195.5 44q49 0 97.5 -9t88.5 -25v-108q-40 16 -88 26t-95 10q-114 0 -181.5 -68t-67.5 -189q0 -120 58 -188.5t171 -68.5q77 0 131 30v166h-173v97zM367 -206h-83l45 138
h113z" />
    <glyph glyph-name="uni0123" unicode="&#x123;" horiz-adv-x="580" 
d="M410 522h103v-457q0 -131 -64.5 -194.5t-194.5 -63.5q-44 0 -89 6.5t-80 17.5v96q86 -27 164 -27q82 0 119.5 38t37.5 122v14h-9q-24 -35 -62 -56t-89 -21q-64 0 -112 33.5t-73.5 94.5t-25.5 140t27 140t77 95t116 34q51 0 90 -22.5t63 -63.5zM403 287q0 74 -33.5 115
t-91.5 41q-60 0 -93 -46t-33 -132t33 -132t93 -46q58 0 91.5 41t33.5 115v44zM340 584h-118l87 148h80z" />
    <glyph glyph-name="Hcircumflex" unicode="&#x124;" horiz-adv-x="710" 
d="M507 412v288h117v-700h-117v308h-304v-308h-117v700h117v-288h304zM291 762h-105l115 128h107l115 -128h-105l-60 69h-7z" />
    <glyph glyph-name="hcircumflex" unicode="&#x125;" horiz-adv-x="572" 
d="M69 0v700h110v-168l-3 -75h8q22 35 64 56t94 21q80 0 124 -51t44 -145v-338h-110v326q0 117 -94 117q-56 0 -91.5 -39.5t-35.5 -103.5v-300h-110zM226 762h-105l115 128h107l115 -128h-105l-60 69h-7z" />
    <glyph glyph-name="Hbar" unicode="&#x126;" horiz-adv-x="750" 
d="M644 599h91v-89h-91v-510h-117v308h-304v-308h-117v510h-91v89h91v101h117v-102h304v102h117v-101zM223 511v-99h304v99h-304z" />
    <glyph glyph-name="hbar" unicode="&#x127;" horiz-adv-x="582" 
d="M476 433q44 -51 44 -145v-288h-110v276q0 117 -94 117q-56 0 -91.5 -39.5t-35.5 -103.5v-250h-110v551h-80v77h80v72h110v-72h137v-77h-137v-69l-3 -75h8q22 35 64 56t94 21q80 0 124 -51z" />
    <glyph glyph-name="Itilde" unicode="&#x128;" horiz-adv-x="475" 
d="M430 0h-385v97h136v506h-136v97h385v-97h-136v-506h136v-97zM82 773q0 50 23.5 81.5t65.5 31.5q26 0 42.5 -7t37.5 -20q13 -9 22.5 -13.5t21.5 -4.5q16 0 23.5 11t7.5 34h67v-7q0 -53 -23.5 -85t-65.5 -32q-25 0 -43.5 7t-36.5 20q-14 9 -23.5 13.5t-21.5 4.5
q-31 0 -31 -45h-66v11z" />
    <glyph glyph-name="itilde" unicode="&#x129;" horiz-adv-x="300" 
d="M222 0h-109v430h-100v92h209v-522zM19 602q0 53 22 84t62 31q22 0 38.5 -8t35.5 -23q12 -9 20 -13.5t15 -4.5q14 0 20 12t6 37h67v-13q0 -53 -22 -84t-62 -31q-23 0 -39 8t-35 23q-12 9 -20 13.5t-15 4.5q-14 0 -20 -12t-6 -37h-67v13z" />
    <glyph glyph-name="Imacron" unicode="&#x12a;" horiz-adv-x="475" 
d="M430 0h-385v97h136v506h-136v97h385v-97h-136v-506h136v-97zM393 782h-310v82h310v-82z" />
    <glyph glyph-name="imacron" unicode="&#x12b;" horiz-adv-x="300" 
d="M222 0h-109v430h-100v92h209v-522zM298 612h-272v82h272v-82z" />
    <glyph glyph-name="Ibreve" unicode="&#x12c;" horiz-adv-x="475" 
d="M430 0h-385v97h136v506h-136v97h385v-97h-136v-506h136v-97zM128 797q-42 35 -45 89h82q2 -22 21.5 -35.5t51.5 -13.5t51.5 13.5t21.5 35.5h82q-3 -54 -44.5 -89t-110.5 -35q-68 0 -110 35z" />
    <glyph glyph-name="ibreve" unicode="&#x12d;" horiz-adv-x="300" 
d="M222 0h-109v430h-100v92h209v-522zM58 622q-39 38 -39 100h82q0 -30 15.5 -46.5t45.5 -16.5q29 0 44.5 16.5t15.5 46.5h82q0 -62 -39 -100t-103 -38q-65 0 -104 38z" />
    <glyph glyph-name="Iogonek" unicode="&#x12e;" horiz-adv-x="475" 
d="M430 603h-136v-506h136v-97h-133q-27 -15 -47.5 -40.5t-20.5 -49.5q0 -39 57 -39h11v-77h-36q-54 0 -84 24.5t-30 68.5q0 37 23.5 66t63.5 47h-189v97h136v506h-136v97h385v-97z" />
    <glyph glyph-name="iogonek" unicode="&#x12f;" horiz-adv-x="300" 
d="M111 604.5q-21 20.5 -21 51.5t21 51.5t51 20.5t51 -20.5t21 -51.5t-21 -51.5t-51 -20.5t-51 20.5zM13 430v92h209v-522q-27 -15 -47.5 -40.5t-20.5 -49.5q0 -39 57 -39h11v-77h-36q-54 0 -84 24.5t-30 68.5q0 37 23.5 66t63.5 47h-46v430h-100z" />
    <glyph glyph-name="Idotaccent" unicode="&#x130;" horiz-adv-x="475" 
d="M430 0h-385v97h136v506h-136v97h385v-97h-136v-506h136v-97zM189 779.5q-20 20.5 -20 48.5q0 29 20 49t49 20q28 0 48.5 -20t20.5 -49q0 -28 -20.5 -48.5t-48.5 -20.5q-29 0 -49 20.5z" />
    <glyph glyph-name="dotlessi" unicode="&#x131;" horiz-adv-x="300" 
d="M222 0h-109v430h-100v92h209v-522z" />
    <glyph glyph-name="IJ" unicode="&#x132;" horiz-adv-x="980" 
d="M430 0h-385v97h136v506h-136v97h385v-97h-136v-506h136v-97zM576 -1q-44 7 -77 17v110q29 -11 71.5 -19t77.5 -8q66 0 100 35.5t34 112.5v356h-234v97h351v-459q0 -123 -62.5 -186t-175.5 -63q-41 0 -85 7z" />
    <glyph glyph-name="ij" unicode="&#x133;" horiz-adv-x="620" 
d="M222 0h-109v430h-100v92h209v-522zM111 604.5q-21 20.5 -21 51.5t21 51.5t51 20.5t51 -20.5t21 -51.5t-21 -51.5t-51 -20.5t-51 20.5zM285 -184v92q34 -8 63 -8q45 0 65 18t20 66v446h-110v92h219v-547q0 -89 -45 -128.5t-131 -39.5q-34 0 -81 9zM431 604.5
q-21 20.5 -21 51.5t21 51.5t51 20.5t51 -20.5t21 -51.5t-21 -51.5t-51 -20.5t-51 20.5z" />
    <glyph glyph-name="Jcircumflex" unicode="&#x134;" horiz-adv-x="505" 
d="M101 -1q-44 7 -77 17v110q29 -11 71.5 -19t77.5 -8q66 0 100 35.5t34 112.5v356h-234v97h351v-459q0 -123 -62.5 -186t-175.5 -63q-41 0 -85 7zM188 762h-105l115 128h107l115 -128h-105l-60 69h-7z" />
    <glyph glyph-name="jcircumflex" unicode="&#x135;" horiz-adv-x="330" 
d="M-5 -184v92q34 -8 63 -8q45 0 65 18t20 66v446h-110v92h219v-547q0 -89 -45 -128.5t-131 -39.5q-34 0 -81 9zM133 584h-94l99 148h107l99 -148h-95l-54 85h-7z" />
    <glyph glyph-name="uni0136" unicode="&#x136;" horiz-adv-x="665" 
d="M632 700l-231 -328l261 -372h-136l-222 314h-101v-314h-117v700h117v-282h104l200 282h125zM347 -206h-83l45 138h113z" />
    <glyph glyph-name="uni0137" unicode="&#x137;" horiz-adv-x="535" 
d="M500 522l-157 -237l182 -285h-125l-139 232h-87l5 -78v-154h-110v700h110v-306l-5 -71h85l124 199h117zM275 -206h-83l45 138h113z" />
    <glyph glyph-name="Lacute" unicode="&#x139;" horiz-adv-x="510" 
d="M491 0h-405v700h117v-595h288v-105zM175 762h-91l66 128h134z" />
    <glyph glyph-name="lacute" unicode="&#x13a;" horiz-adv-x="325" 
d="M131.5 29.5q-38.5 37.5 -38.5 122.5v456h-94v92h204v-538q0 -41 18.5 -56.5t59.5 -15.5q19 0 29 1v-95q-36 -4 -58 -4q-82 0 -120.5 37.5zM178 762h-91l66 128h134z" />
    <glyph glyph-name="uni013B" unicode="&#x13b;" horiz-adv-x="510" 
d="M491 0h-405v700h117v-595h288v-105zM274 -206h-83l45 138h113z" />
    <glyph glyph-name="uni013C" unicode="&#x13c;" horiz-adv-x="325" 
d="M131.5 29.5q-38.5 37.5 -38.5 122.5v456h-94v92h204v-538q0 -41 18.5 -56.5t59.5 -15.5q19 0 29 1v-95q-36 -4 -58 -4q-82 0 -120.5 37.5zM187 -206h-83l45 138h113z" />
    <glyph glyph-name="Lcaron" unicode="&#x13d;" horiz-adv-x="510" 
d="M491 0h-405v700h117v-595h288v-105zM306 539h-69l8 161h95z" />
    <glyph glyph-name="lcaron" unicode="&#x13e;" horiz-adv-x="325" 
d="M131.5 29.5q-38.5 37.5 -38.5 122.5v456h-94v92h204v-538q0 -41 18.5 -56.5t59.5 -15.5q19 0 29 1v-95q-36 -4 -58 -4q-82 0 -120.5 37.5zM305 545h-69l8 161h95z" />
    <glyph glyph-name="Ldot" unicode="&#x13f;" horiz-adv-x="510" 
d="M491 0h-405v700h117v-595h288v-105zM346 329q-22 22 -22 54t22 54t54 22t54 -22t22 -54t-22 -54t-54 -22t-54 22z" />
    <glyph glyph-name="ldot" unicode="&#x140;" horiz-adv-x="415" 
d="M131.5 29.5q-38.5 37.5 -38.5 122.5v456h-94v92h204v-538q0 -41 18.5 -56.5t59.5 -15.5q19 0 29 1v-95q-36 -4 -58 -4q-82 0 -120.5 37.5zM304 300q-21 21 -21 52q0 30 21 51t52 21t51.5 -21t20.5 -51q0 -31 -20.5 -52t-51.5 -21t-52 21z" />
    <glyph glyph-name="Lslash" unicode="&#x141;" horiz-adv-x="530" 
d="M223 331v-226h288v-105h-405v291l-91 -31v96l91 31v313h117v-273l159 54v-95z" />
    <glyph glyph-name="lslash" unicode="&#x142;" horiz-adv-x="335" 
d="M208 162q0 -41 18.5 -56.5t59.5 -15.5q19 0 29 1v-95q-36 -4 -58 -4q-82 0 -120.5 37.5t-38.5 122.5v118l-79 -51v92l79 51v246h-94v92h204v-266l84 54v-92l-84 -54v-180z" />
    <glyph glyph-name="Nacute" unicode="&#x143;" horiz-adv-x="740" 
d="M194 0h-108v700h167l285 -570h8v570h108v-700h-167l-285 570h-8v-570zM400 762h-91l66 128h134z" />
    <glyph glyph-name="nacute" unicode="&#x144;" horiz-adv-x="570" 
d="M67 0v522h104l-2 -70h8q26 38 68 60t95 22q80 0 124 -51t44 -145v-338h-110v326q0 117 -94 117q-56 0 -91.5 -39.5t-35.5 -103.5v-300h-110zM320 584h-86l65 148h122z" />
    <glyph glyph-name="uni0145" unicode="&#x145;" horiz-adv-x="740" 
d="M194 0h-108v700h167l285 -570h8v570h108v-700h-167l-285 570h-8v-570zM351 -206h-83l45 138h113z" />
    <glyph glyph-name="uni0146" unicode="&#x146;" horiz-adv-x="570" 
d="M67 0v522h104l-2 -70h8q26 38 68 60t95 22q80 0 124 -51t44 -145v-338h-110v326q0 117 -94 117q-56 0 -91.5 -39.5t-35.5 -103.5v-300h-110zM269 -206h-83l45 138h113z" />
    <glyph glyph-name="Ncaron" unicode="&#x147;" horiz-adv-x="740" 
d="M194 0h-108v700h167l285 -570h8v570h108v-700h-167l-285 570h-8v-570zM423 762h-107l-115 128h105l60 -69h7l60 69h105z" />
    <glyph glyph-name="ncaron" unicode="&#x148;" horiz-adv-x="570" 
d="M67 0v522h104l-2 -70h8q26 38 68 60t95 22q80 0 124 -51t44 -145v-338h-110v326q0 117 -94 117q-56 0 -91.5 -39.5t-35.5 -103.5v-300h-110zM341 584h-107l-110 148h98l62 -87h7l62 87h98z" />
    <glyph glyph-name="Eng" unicode="&#x14a;" horiz-adv-x="740" 
d="M406.5 -192q-30.5 4 -51.5 9v98q44 -13 97 -13q46 0 70 22.5t24 63.5v12h-59l-285 570h-8v-570h-108v700h167l285 -570h8v570h108v-708q0 -89 -51 -138.5t-140 -49.5q-26 0 -56.5 4z" />
    <glyph glyph-name="eng" unicode="&#x14b;" horiz-adv-x="570" 
d="M290 -186v92q23 -6 50 -6q58 0 58 74v352q0 117 -94 117q-56 0 -91.5 -39.5t-35.5 -103.5v-300h-110v522h104l-2 -70h8q26 38 68 60t95 22q80 0 124 -51t44 -145v-369q0 -83 -40.5 -122.5t-107.5 -39.5q-41 0 -70 7z" />
    <glyph glyph-name="Omacron" unicode="&#x14c;" horiz-adv-x="725" 
d="M193.5 31q-71.5 44 -110 126t-38.5 193t38.5 193t110 126t168.5 44t169 -44t110.5 -126t38.5 -193t-38.5 -193t-110.5 -126t-169 -44t-168.5 44zM504 161q50 67 50 189t-50 189t-142 67q-91 0 -141 -67t-50 -189t50 -189t141 -67q92 0 142 67zM517 782h-310v82h310v-82z
" />
    <glyph glyph-name="omacron" unicode="&#x14d;" horiz-adv-x="560" 
d="M150 20.5q-55 33.5 -85 95.5t-30 145t30 144.5t85 95t130 33.5t130 -33.5t85 -95t30 -144.5t-30 -145t-85 -95.5t-130 -33.5t-130 33.5zM374.5 125.5q33.5 46.5 33.5 135.5q0 88 -33.5 135t-94.5 47t-94.5 -47t-33.5 -135q0 -89 33.5 -135.5t94.5 -46.5t94.5 46.5z
M428 612h-296v82h296v-82z" />
    <glyph glyph-name="Obreve" unicode="&#x14e;" horiz-adv-x="725" 
d="M193.5 31q-71.5 44 -110 126t-38.5 193t38.5 193t110 126t168.5 44t169 -44t110.5 -126t38.5 -193t-38.5 -193t-110.5 -126t-169 -44t-168.5 44zM504 161q50 67 50 189t-50 189t-142 67q-91 0 -141 -67t-50 -189t50 -189t141 -67q92 0 142 67zM252 797q-42 35 -45 89h82
q2 -22 21.5 -35.5t51.5 -13.5t51.5 13.5t21.5 35.5h82q-3 -54 -44.5 -89t-110.5 -35q-68 0 -110 35z" />
    <glyph glyph-name="obreve" unicode="&#x14f;" horiz-adv-x="560" 
d="M150 20.5q-55 33.5 -85 95.5t-30 145t30 144.5t85 95t130 33.5t130 -33.5t85 -95t30 -144.5t-30 -145t-85 -95.5t-130 -33.5t-130 33.5zM374.5 125.5q33.5 46.5 33.5 135.5q0 88 -33.5 135t-94.5 47t-94.5 -47t-33.5 -135q0 -89 33.5 -135.5t94.5 -46.5t94.5 46.5z
M171.5 622q-40.5 38 -40.5 100h82q0 -30 17 -46.5t50 -16.5t50 16.5t17 46.5h82q0 -62 -40.5 -100t-108.5 -38t-108.5 38z" />
    <glyph glyph-name="Ohungarumlaut" unicode="&#x150;" horiz-adv-x="725" 
d="M193.5 31q-71.5 44 -110 126t-38.5 193t38.5 193t110 126t168.5 44t169 -44t110.5 -126t38.5 -193t-38.5 -193t-110.5 -126t-169 -44t-168.5 44zM504 161q50 67 50 189t-50 189t-142 67q-91 0 -141 -67t-50 -189t50 -189t141 -67q92 0 142 67zM316 762h-78l62 128h107z
M463 762h-79l61 128h111z" />
    <glyph glyph-name="ohungarumlaut" unicode="&#x151;" horiz-adv-x="560" 
d="M150 20.5q-55 33.5 -85 95.5t-30 145t30 144.5t85 95t130 33.5t130 -33.5t85 -95t30 -144.5t-30 -145t-85 -95.5t-130 -33.5t-130 33.5zM374.5 125.5q33.5 46.5 33.5 135.5q0 88 -33.5 135t-94.5 47t-94.5 -47t-33.5 -135q0 -89 33.5 -135.5t94.5 -46.5t94.5 46.5z
M232 584h-75l64 148h99zM375 584h-77l65 148h102z" />
    <glyph glyph-name="OE" unicode="&#x152;" horiz-adv-x="980" 
d="M637 103h284v-103h-384v74q-32 -41 -81.5 -64t-113.5 -23q-92 0 -159 46t-102.5 128.5t-35.5 188.5t35.5 188.5t102.5 128.5t159 46q64 0 113.5 -23t81.5 -64v74h379v-103h-279v-188h259v-100h-259v-206zM476 163q45 69 45 187t-45 187t-130 69t-130 -69t-45 -187
t45 -187t130 -69t130 69z" />
    <glyph glyph-name="oe" unicode="&#x153;" horiz-adv-x="840" 
d="M804 234h-322q5 -74 41 -113t110 -39q32 0 68.5 10.5t70.5 29.5v-101q-79 -34 -146 -34q-136 0 -196 88q-27 -43 -68.5 -65.5t-96.5 -22.5q-70 0 -122 34.5t-80 96.5t-28 143t28 143t80 96t122 34q54 0 95.5 -22.5t68.5 -64.5q54 87 164 87q106 0 160.5 -69t54.5 -192
q0 -17 -4 -39zM484 315h213q-5 65 -29 98t-75 33q-95 0 -109 -131zM347 126.5q29 47.5 29 134.5q0 86 -29 134t-83 48t-83 -48t-29 -134q0 -87 29 -134.5t83 -47.5t83 47.5z" />
    <glyph glyph-name="Racute" unicode="&#x154;" horiz-adv-x="630" 
d="M469 0l-170 276h-96v-276h-117v700h231q73 0 128 -26.5t85 -74.5t30 -111q0 -72 -39 -124t-107 -74l187 -290h-132zM202 600v-225h112q61 0 94.5 29.5t33.5 82.5t-33.5 83t-94.5 30h-112zM345 762h-91l66 128h134z" />
    <glyph glyph-name="racute" unicode="&#x155;" horiz-adv-x="375" 
d="M67 0v522h99l-1 -79h7q22 39 60.5 61.5t88.5 22.5q24 0 41 -5v-101q-25 5 -42 5q-65 0 -104 -45.5t-39 -121.5v-259h-110zM245 584h-86l65 148h122z" />
    <glyph glyph-name="uni0156" unicode="&#x156;" horiz-adv-x="630" 
d="M469 0l-170 276h-96v-276h-117v700h231q73 0 128 -26.5t85 -74.5t30 -111q0 -72 -39 -124t-107 -74l187 -290h-132zM202 600v-225h112q61 0 94.5 29.5t33.5 82.5t-33.5 83t-94.5 30h-112zM320 -206h-83l45 138h113z" />
    <glyph glyph-name="uni0157" unicode="&#x157;" horiz-adv-x="375" 
d="M67 0v522h99l-1 -79h7q22 39 60.5 61.5t88.5 22.5q24 0 41 -5v-101q-25 5 -42 5q-65 0 -104 -45.5t-39 -121.5v-259h-110zM104 -206h-83l45 138h113z" />
    <glyph glyph-name="Rcaron" unicode="&#x158;" horiz-adv-x="630" 
d="M469 0l-170 276h-96v-276h-117v700h231q73 0 128 -26.5t85 -74.5t30 -111q0 -72 -39 -124t-107 -74l187 -290h-132zM202 600v-225h112q61 0 94.5 29.5t33.5 82.5t-33.5 83t-94.5 30h-112zM367 762h-107l-115 128h105l60 -69h7l60 69h105z" />
    <glyph glyph-name="rcaron" unicode="&#x159;" horiz-adv-x="375" 
d="M67 0v522h99l-1 -79h7q22 39 60.5 61.5t88.5 22.5q24 0 41 -5v-101q-25 5 -42 5q-65 0 -104 -45.5t-39 -121.5v-259h-110zM266 584h-107l-110 148h98l62 -87h7l62 87h98z" />
    <glyph glyph-name="Sacute" unicode="&#x15a;" horiz-adv-x="565" 
d="M152 -2.5q-57 10.5 -103 28.5v110q46 -18 100.5 -30t109.5 -12q64 0 98.5 25.5t34.5 72.5q0 35 -18.5 57.5t-46 36t-76.5 31.5q-61 22 -99.5 42t-65.5 59.5t-27 102.5q0 91 63 141.5t171 50.5q102 0 193 -31v-109q-88 33 -190 33q-55 0 -86 -22t-31 -63q0 -31 17.5 -51
t43.5 -32t72 -28q63 -20 103.5 -41t69 -63.5t28.5 -113.5q0 -96 -67 -150.5t-183 -54.5q-54 0 -111 10.5zM319 762h-91l66 128h134z" />
    <glyph glyph-name="sacute" unicode="&#x15b;" horiz-adv-x="475" 
d="M138 -4q-48 9 -88 22v96q105 -35 178 -35q46 0 70 16.5t24 46.5q0 33 -25.5 49.5t-79.5 33.5q-50 17 -82 32.5t-54.5 48t-22.5 84.5q0 67 51 105.5t139 38.5q73 0 163 -25v-96q-90 30 -160 30q-40 0 -62 -14t-22 -40q0 -32 25 -48t78 -33q50 -16 82.5 -32.5t55.5 -49.5
t23 -86q0 -71 -52.5 -112t-146.5 -41q-46 0 -94 9zM276 584h-86l65 148h122z" />
    <glyph glyph-name="Scircumflex" unicode="&#x15c;" horiz-adv-x="565" 
d="M152 -2.5q-57 10.5 -103 28.5v110q46 -18 100.5 -30t109.5 -12q64 0 98.5 25.5t34.5 72.5q0 35 -18.5 57.5t-46 36t-76.5 31.5q-61 22 -99.5 42t-65.5 59.5t-27 102.5q0 91 63 141.5t171 50.5q102 0 193 -31v-109q-88 33 -190 33q-55 0 -86 -22t-31 -63q0 -31 17.5 -51
t43.5 -32t72 -28q63 -20 103.5 -41t69 -63.5t28.5 -113.5q0 -96 -67 -150.5t-183 -54.5q-54 0 -111 10.5zM225 762h-105l115 128h107l115 -128h-105l-60 69h-7z" />
    <glyph glyph-name="scircumflex" unicode="&#x15d;" horiz-adv-x="475" 
d="M138 -4q-48 9 -88 22v96q105 -35 178 -35q46 0 70 16.5t24 46.5q0 33 -25.5 49.5t-79.5 33.5q-50 17 -82 32.5t-54.5 48t-22.5 84.5q0 67 51 105.5t139 38.5q73 0 163 -25v-96q-90 30 -160 30q-40 0 -62 -14t-22 -40q0 -32 25 -48t78 -33q50 -16 82.5 -32.5t55.5 -49.5
t23 -86q0 -71 -52.5 -112t-146.5 -41q-46 0 -94 9zM178 584h-98l110 148h107l110 -148h-98l-62 87h-7z" />
    <glyph glyph-name="Scedilla" unicode="&#x15e;" horiz-adv-x="565" 
d="M458.5 53q-54.5 -53 -150.5 -64l-10 -31q34 -3 56 -23t22 -57q0 -39 -29 -61.5t-79 -22.5q-41 0 -69 8v67q28 -7 63 -7q18 0 28 6t10 17q0 23 -46 23h-27v6l21 73q-50 1 -102.5 12t-96.5 27v110q46 -18 100.5 -30t109.5 -12q64 0 98.5 25.5t34.5 72.5q0 35 -18.5 57.5
t-46 36t-76.5 31.5q-61 22 -99.5 42t-65.5 59.5t-27 102.5q0 91 63 141.5t171 50.5q102 0 193 -31v-109q-88 33 -190 33q-55 0 -86 -22t-31 -63q0 -31 17.5 -51t43.5 -32t72 -28q63 -20 103.5 -41t69 -63.5t28.5 -113.5q0 -86 -54.5 -139z" />
    <glyph glyph-name="scedilla" unicode="&#x15f;" horiz-adv-x="475" 
d="M388 36q-43 -40 -122 -47l-9 -31q34 -3 56 -23t22 -57q0 -39 -29 -61.5t-79 -22.5q-41 0 -69 8v67q28 -7 63 -7q18 0 28 6t10 17q0 23 -46 23h-27v6l21 74q-79 4 -157 30v96q105 -35 178 -35q46 0 70 16.5t24 46.5q0 33 -25.5 49.5t-79.5 33.5q-50 17 -82 32.5t-54.5 48
t-22.5 84.5q0 67 51 105.5t139 38.5q73 0 163 -25v-96q-90 30 -160 30q-40 0 -62 -14t-22 -40q0 -32 25 -48t78 -33q50 -16 82.5 -32.5t55.5 -49.5t23 -86q0 -64 -43 -104z" />
    <glyph glyph-name="Scaron" unicode="&#x160;" horiz-adv-x="565" 
d="M152 -2.5q-57 10.5 -103 28.5v110q46 -18 100.5 -30t109.5 -12q64 0 98.5 25.5t34.5 72.5q0 35 -18.5 57.5t-46 36t-76.5 31.5q-61 22 -99.5 42t-65.5 59.5t-27 102.5q0 91 63 141.5t171 50.5q102 0 193 -31v-109q-88 33 -190 33q-55 0 -86 -22t-31 -63q0 -31 17.5 -51
t43.5 -32t72 -28q63 -20 103.5 -41t69 -63.5t28.5 -113.5q0 -96 -67 -150.5t-183 -54.5q-54 0 -111 10.5zM341 762h-107l-115 128h105l60 -69h7l60 69h105z" />
    <glyph glyph-name="scaron" unicode="&#x161;" horiz-adv-x="475" 
d="M138 -4q-48 9 -88 22v96q105 -35 178 -35q46 0 70 16.5t24 46.5q0 33 -25.5 49.5t-79.5 33.5q-50 17 -82 32.5t-54.5 48t-22.5 84.5q0 67 51 105.5t139 38.5q73 0 163 -25v-96q-90 30 -160 30q-40 0 -62 -14t-22 -40q0 -32 25 -48t78 -33q50 -16 82.5 -32.5t55.5 -49.5
t23 -86q0 -71 -52.5 -112t-146.5 -41q-46 0 -94 9zM296 584h-107l-110 148h98l62 -87h7l62 87h98z" />
    <glyph glyph-name="uni0162" unicode="&#x162;" horiz-adv-x="570" 
d="M344 0h-28l-13 -42q34 -3 56 -23t22 -57q0 -39 -29 -61.5t-79 -22.5q-41 0 -69 8v67q28 -7 63 -7q18 0 28 6t10 17q0 23 -46 23h-27v6l24 86h-30v595h-212v105h542v-105h-212v-595z" />
    <glyph glyph-name="uni0163" unicode="&#x163;" horiz-adv-x="400" 
d="M276 -8l-11 -34q34 -3 56 -23t22 -57q0 -39 -29 -61.5t-79 -22.5q-41 0 -69 8v67q28 -7 63 -7q18 0 28 6t10 17q0 23 -46 23h-27v6l24 84q-51 12 -76 49t-25 106v277h-96v92h96v133h110v-133h133v-92h-133v-269q0 -41 17.5 -57.5t59.5 -16.5q23 0 65 7v-93q-56 -9 -86 -9
h-7z" />
    <glyph glyph-name="Tcaron" unicode="&#x164;" horiz-adv-x="570" 
d="M344 0h-118v595h-212v105h542v-105h-212v-595zM338 762h-107l-115 128h105l60 -69h7l60 69h105z" />
    <glyph glyph-name="tcaron" unicode="&#x165;" horiz-adv-x="400" 
d="M369 94v-93q-56 -9 -86 -9q-84 0 -125 36.5t-41 124.5v277h-96v92h96v133h110v-133h133v-92h-133v-269q0 -41 17.5 -57.5t59.5 -16.5q23 0 65 7zM330 545h-69l8 161h95z" />
    <glyph glyph-name="Tbar" unicode="&#x166;" horiz-adv-x="570" 
d="M556 700v-105h-212v-193h128v-94h-128v-308h-118v308h-129v94h129v193h-212v105h542z" />
    <glyph glyph-name="tbar" unicode="&#x167;" horiz-adv-x="400" 
d="M369 94v-93q-56 -9 -86 -9q-84 0 -125 36.5t-41 124.5v101h-96v77h96v99h-96v92h96v133h110v-133h133v-92h-133v-99h132v-77h-132v-93q0 -41 17.5 -57.5t59.5 -16.5q23 0 65 7z" />
    <glyph glyph-name="Utilde" unicode="&#x168;" horiz-adv-x="695" 
d="M151.5 63q-70.5 76 -70.5 210v427h117v-426q0 -86 38.5 -133t110.5 -47q73 0 111.5 46.5t38.5 133.5v426h117v-427q0 -134 -70.5 -210t-196.5 -76q-125 0 -195.5 76zM192 773q0 50 23.5 81.5t65.5 31.5q26 0 42.5 -7t37.5 -20q13 -9 22.5 -13.5t21.5 -4.5q16 0 23.5 11
t7.5 34h67v-7q0 -53 -23.5 -85t-65.5 -32q-25 0 -43.5 7t-36.5 20q-14 9 -23.5 13.5t-21.5 4.5q-31 0 -31 -45h-66v11z" />
    <glyph glyph-name="utilde" unicode="&#x169;" horiz-adv-x="565" 
d="M105.5 38q-43.5 51 -43.5 145v339h110v-327q0 -116 91 -116q55 0 90 39t35 104v300h110v-522h-102l2 73h-7q-27 -39 -69 -62.5t-95 -23.5q-78 0 -121.5 51zM129 601q0 54 22.5 85t63.5 31q24 0 41.5 -8t38.5 -22q14 -10 22.5 -14.5t17.5 -4.5q14 0 20.5 11.5t6.5 37.5h67
v-12q0 -54 -22.5 -85t-63.5 -31q-25 0 -42.5 8t-36.5 22q-13 10 -22.5 14.5t-18.5 4.5q-14 0 -20.5 -12t-6.5 -37h-67v12z" />
    <glyph glyph-name="Umacron" unicode="&#x16a;" horiz-adv-x="695" 
d="M151.5 63q-70.5 76 -70.5 210v427h117v-426q0 -86 38.5 -133t110.5 -47q73 0 111.5 46.5t38.5 133.5v426h117v-427q0 -134 -70.5 -210t-196.5 -76q-125 0 -195.5 76zM503 782h-310v82h310v-82z" />
    <glyph glyph-name="umacron" unicode="&#x16b;" horiz-adv-x="565" 
d="M105.5 38q-43.5 51 -43.5 145v339h110v-327q0 -116 91 -116q55 0 90 39t35 104v300h110v-522h-102l2 73h-7q-27 -39 -69 -62.5t-95 -23.5q-78 0 -121.5 51zM428 612h-296v82h296v-82z" />
    <glyph glyph-name="Ubreve" unicode="&#x16c;" horiz-adv-x="695" 
d="M151.5 63q-70.5 76 -70.5 210v427h117v-426q0 -86 38.5 -133t110.5 -47q73 0 111.5 46.5t38.5 133.5v426h117v-427q0 -134 -70.5 -210t-196.5 -76q-125 0 -195.5 76zM238 797q-42 35 -45 89h82q2 -22 21.5 -35.5t51.5 -13.5t51.5 13.5t21.5 35.5h82q-3 -54 -44.5 -89
t-110.5 -35q-68 0 -110 35z" />
    <glyph glyph-name="ubreve" unicode="&#x16d;" horiz-adv-x="565" 
d="M105.5 38q-43.5 51 -43.5 145v339h110v-327q0 -116 91 -116q55 0 90 39t35 104v300h110v-522h-102l2 73h-7q-27 -39 -69 -62.5t-95 -23.5q-78 0 -121.5 51zM171.5 622q-40.5 38 -40.5 100h82q0 -30 17 -46.5t50 -16.5t50 16.5t17 46.5h82q0 -62 -40.5 -100t-108.5 -38
t-108.5 38z" />
    <glyph glyph-name="Uring" unicode="&#x16e;" horiz-adv-x="695" 
d="M151.5 63q-70.5 76 -70.5 210v427h117v-426q0 -86 38.5 -133t110.5 -47q73 0 111.5 46.5t38.5 133.5v426h117v-427q0 -134 -70.5 -210t-196.5 -76q-125 0 -195.5 76zM274 774.5q-29 27.5 -29 70.5q0 42 29 69.5t74 27.5t74 -27.5t29 -69.5q0 -43 -29 -70.5t-74 -27.5
t-74 27.5zM375.5 816.5q10.5 10.5 10.5 28.5q0 17 -10.5 27.5t-27.5 10.5t-27.5 -10.5t-10.5 -27.5q0 -18 10.5 -28.5t27.5 -10.5t27.5 10.5z" />
    <glyph glyph-name="uring" unicode="&#x16f;" horiz-adv-x="565" 
d="M105.5 38q-43.5 51 -43.5 145v339h110v-327q0 -116 91 -116q55 0 90 39t35 104v300h110v-522h-102l2 73h-7q-27 -39 -69 -62.5t-95 -23.5q-78 0 -121.5 51zM206.5 600.5q-29.5 27.5 -29.5 70.5t29 70.5t74 27.5t74 -27.5t29 -70.5t-29.5 -70.5t-73.5 -27.5t-73.5 27.5z
M307.5 643q10.5 10 10.5 28t-10.5 28.5t-27.5 10.5t-27.5 -10.5t-10.5 -28.5t10.5 -28t27.5 -10t27.5 10z" />
    <glyph glyph-name="Uhungarumlaut" unicode="&#x170;" horiz-adv-x="695" 
d="M151.5 63q-70.5 76 -70.5 210v427h117v-426q0 -86 38.5 -133t110.5 -47q73 0 111.5 46.5t38.5 133.5v426h117v-427q0 -134 -70.5 -210t-196.5 -76q-125 0 -195.5 76zM302 762h-78l62 128h107zM449 762h-79l61 128h111z" />
    <glyph glyph-name="uhungarumlaut" unicode="&#x171;" horiz-adv-x="565" 
d="M105.5 38q-43.5 51 -43.5 145v339h110v-327q0 -116 91 -116q55 0 90 39t35 104v300h110v-522h-102l2 73h-7q-27 -39 -69 -62.5t-95 -23.5q-78 0 -121.5 51zM232 584h-75l64 148h99zM375 584h-77l65 148h102z" />
    <glyph glyph-name="Uogonek" unicode="&#x172;" horiz-adv-x="695" 
d="M497 700h117v-427q0 -74 -21 -128.5t-70 -102.5q-43 -42 -61.5 -72.5t-18.5 -55.5q0 -24 15 -33.5t42 -9.5h11v-77h-36q-55 0 -85 24.5t-30 70.5q0 31 16.5 58t46.5 48q-38 -8 -76 -8q-125 0 -195.5 76t-70.5 210v427h117v-426q0 -86 38.5 -133t110.5 -47
q73 0 111.5 46.5t38.5 133.5v426z" />
    <glyph glyph-name="uogonek" unicode="&#x173;" horiz-adv-x="565" 
d="M388 522h110v-522h-1q-27 -15 -47.5 -40.5t-20.5 -49.5q0 -39 57 -39h11v-77h-36q-54 0 -84 24.5t-30 68.5q0 37 23.5 66t63.5 47h-38l2 73h-7q-27 -39 -69 -62.5t-95 -23.5q-78 0 -121.5 51t-43.5 145v339h110v-327q0 -116 91 -116q55 0 90 39t35 104v300z" />
    <glyph glyph-name="Wcircumflex" unicode="&#x174;" horiz-adv-x="1015" 
d="M372 0h-155l-188 700h121l145 -582h8l147 582h119l146 -582h8l146 582h117l-188 -700h-154l-133 520h-7zM446 762h-105l115 128h107l115 -128h-105l-60 69h-7z" />
    <glyph glyph-name="wcircumflex" unicode="&#x175;" horiz-adv-x="785" 
d="M302 0h-138l-139 522h110l84 -338l16 -76h8l18 76l81 338h105l82 -338l17 -76h8l17 76l83 338h106l-139 -522h-137l-87 360h-8zM329 584h-98l110 148h107l110 -148h-98l-62 87h-7z" />
    <glyph glyph-name="Ycircumflex" unicode="&#x176;" horiz-adv-x="620" 
d="M369 0h-118v249l-232 451h126l163 -327h8l163 327h122l-232 -451v-249zM249 762h-105l115 128h107l115 -128h-105l-60 69h-7z" />
    <glyph glyph-name="ycircumflex" unicode="&#x177;" horiz-adv-x="535" 
d="M405 522h110l-182 -564q-18 -56 -39.5 -88.5t-55 -47.5t-88.5 -15q-35 0 -61 7v91q25 -5 50 -5q43 0 65 15.5t36 58.5l11 34h-52l-179 514h117l86 -275l48 -145h8l46 145zM206 584h-98l110 148h107l110 -148h-98l-62 87h-7z" />
    <glyph glyph-name="Ydieresis" unicode="&#x178;" horiz-adv-x="620" 
d="M369 0h-118v249l-232 451h126l163 -327h8l163 327h122l-232 -451v-249zM164 779.5q-19 19.5 -19 48.5t19 48.5t47 19.5t47 -19.5t19 -48.5t-19 -48.5t-47 -19.5t-47 19.5zM366 779.5q-19 19.5 -19 48.5t19 48.5t47 19.5t47 -19.5t19 -48.5t-19 -48.5t-47 -19.5t-47 19.5z
" />
    <glyph glyph-name="Zacute" unicode="&#x179;" horiz-adv-x="600" 
d="M554 0h-503v117l360 471v7h-349v105h481v-117l-360 -471v-7h371v-105zM333 762h-91l66 128h134z" />
    <glyph glyph-name="zacute" unicode="&#x17a;" horiz-adv-x="490" 
d="M449 0h-407v103l274 317v8h-264v94h387v-103l-275 -318v-8h285v-93zM278 584h-86l65 148h122z" />
    <glyph glyph-name="Zdotaccent" unicode="&#x17b;" horiz-adv-x="600" 
d="M554 0h-503v117l360 471v7h-349v105h481v-117l-360 -471v-7h371v-105zM254 779.5q-20 20.5 -20 48.5q0 29 20 49t49 20q28 0 48.5 -20t20.5 -49q0 -28 -20.5 -48.5t-48.5 -20.5q-29 0 -49 20.5z" />
    <glyph glyph-name="zdotaccent" unicode="&#x17c;" horiz-adv-x="490" 
d="M449 0h-407v103l274 317v8h-264v94h387v-103l-275 -318v-8h285v-93zM197 605.5q-20 20.5 -20 49.5t20 49t49 20q28 0 48.5 -20t20.5 -49t-20 -49.5t-49 -20.5t-49 20.5z" />
    <glyph glyph-name="Zcaron" unicode="&#x17d;" horiz-adv-x="600" 
d="M554 0h-503v117l360 471v7h-349v105h481v-117l-360 -471v-7h371v-105zM356 762h-107l-115 128h105l60 -69h7l60 69h105z" />
    <glyph glyph-name="zcaron" unicode="&#x17e;" horiz-adv-x="490" 
d="M449 0h-407v103l274 317v8h-264v94h387v-103l-275 -318v-8h285v-93zM299 584h-107l-110 148h98l62 -87h7l62 87h98z" />
    <glyph glyph-name="uni018F" unicode="&#x18f;" horiz-adv-x="710" 
d="M506 668.5q77 -44.5 118 -126.5t41 -192q0 -111 -38.5 -193t-109 -126t-165.5 -44t-165.5 43.5t-108.5 124t-38 187.5q0 26 9 55h491q-11 100 -67 154.5t-154 54.5q-58 0 -115 -17.5t-96 -42.5v113q99 54 215 54q106 0 183 -44.5zM482 146q49 55 58 156h-381
q8 -103 57 -157t136 -54q81 0 130 55z" />
    <glyph glyph-name="florin" unicode="&#x192;" horiz-adv-x="465" 
d="M460 704l-17 -90q-11 4 -30 4q-41 0 -65 -24t-38 -93l-19 -92h109l-16 -92h-112l-67 -320q-22 -101 -71 -145.5t-124 -44.5q-35 0 -63 8l16 89q11 -4 31 -4q40 0 64 24t39 93l63 300h-98l16 92h101l23 112q21 101 70 145.5t125 44.5q39 0 63 -7z" />
    <glyph glyph-name="uni01F4" unicode="&#x1f4;" horiz-adv-x="680" 
d="M355 386h278v-323q-104 -76 -238 -76q-109 0 -188 44.5t-120.5 126t-41.5 192.5t45 193t128.5 126t195.5 44q49 0 97.5 -9t88.5 -25v-108q-40 16 -88 26t-95 10q-114 0 -181.5 -68t-67.5 -189q0 -120 58 -188.5t171 -68.5q77 0 131 30v166h-173v97zM405 762h-91l66 128
h134z" />
    <glyph glyph-name="uni01F5" unicode="&#x1f5;" horiz-adv-x="580" 
d="M410 522h103v-457q0 -131 -64.5 -194.5t-194.5 -63.5q-44 0 -89 6.5t-80 17.5v96q86 -27 164 -27q82 0 119.5 38t37.5 122v14h-9q-24 -35 -62 -56t-89 -21q-64 0 -112 33.5t-73.5 94.5t-25.5 140t27 140t77 95t116 34q51 0 90 -22.5t63 -63.5zM403 287q0 74 -33.5 115
t-91.5 41q-60 0 -93 -46t-33 -132t33 -132t93 -46q58 0 91.5 41t33.5 115v44zM313 584h-86l65 148h122z" />
    <glyph glyph-name="uni0218" unicode="&#x218;" horiz-adv-x="565" 
d="M152 -2.5q-57 10.5 -103 28.5v110q46 -18 100.5 -30t109.5 -12q64 0 98.5 25.5t34.5 72.5q0 35 -18.5 57.5t-46 36t-76.5 31.5q-61 22 -99.5 42t-65.5 59.5t-27 102.5q0 91 63 141.5t171 50.5q102 0 193 -31v-109q-88 33 -190 33q-55 0 -86 -22t-31 -63q0 -31 17.5 -51
t43.5 -32t72 -28q63 -20 103.5 -41t69 -63.5t28.5 -113.5q0 -96 -67 -150.5t-183 -54.5q-54 0 -111 10.5zM261 -206h-83l45 138h113z" />
    <glyph glyph-name="uni0219" unicode="&#x219;" horiz-adv-x="475" 
d="M138 -4q-48 9 -88 22v96q105 -35 178 -35q46 0 70 16.5t24 46.5q0 33 -25.5 49.5t-79.5 33.5q-50 17 -82 32.5t-54.5 48t-22.5 84.5q0 67 51 105.5t139 38.5q73 0 163 -25v-96q-90 30 -160 30q-40 0 -62 -14t-22 -40q0 -32 25 -48t78 -33q50 -16 82.5 -32.5t55.5 -49.5
t23 -86q0 -71 -52.5 -112t-146.5 -41q-46 0 -94 9zM220 -206h-83l45 138h113z" />
    <glyph glyph-name="uni021A" unicode="&#x21a;" horiz-adv-x="570" 
d="M344 0h-118v595h-212v105h542v-105h-212v-595zM266 -206h-83l45 138h113z" />
    <glyph glyph-name="uni021B" unicode="&#x21b;" horiz-adv-x="400" 
d="M369 94v-93q-56 -9 -86 -9q-84 0 -125 36.5t-41 124.5v277h-96v92h96v133h110v-133h133v-92h-133v-269q0 -41 17.5 -57.5t59.5 -16.5q23 0 65 7zM228 -206h-83l45 138h113z" />
    <glyph glyph-name="uni0232" unicode="&#x232;" horiz-adv-x="620" 
d="M369 0h-118v249l-232 451h126l163 -327h8l163 327h122l-232 -451v-249zM467 782h-310v82h310v-82z" />
    <glyph glyph-name="uni0233" unicode="&#x233;" horiz-adv-x="535" 
d="M405 522h110l-182 -564q-18 -56 -39.5 -88.5t-55 -47.5t-88.5 -15q-35 0 -61 7v91q25 -5 50 -5q43 0 65 15.5t36 58.5l11 34h-52l-179 514h117l86 -275l48 -145h8l46 145zM420 612h-296v82h296v-82z" />
    <glyph glyph-name="uni0237" unicode="&#x237;" horiz-adv-x="330" 
d="M-5 -184v92q34 -8 63 -8q45 0 65 18t20 66v446h-110v92h219v-547q0 -89 -45 -128.5t-131 -39.5q-34 0 -81 9z" />
    <glyph glyph-name="uni0244" unicode="&#x244;" horiz-adv-x="735" 
d="M725 477v-94h-91v-110q0 -134 -70.5 -210t-196.5 -76q-125 0 -195.5 76t-70.5 210v110h-91v94h91v223h117v-223h299v223h117v-223h91zM517 383h-299v-109q0 -86 38.5 -133t110.5 -47q73 0 111.5 46.5t38.5 133.5v109z" />
    <glyph glyph-name="uni0259" unicode="&#x259;" horiz-adv-x="540" 
d="M436 461.5q69 -72.5 69 -200.5q0 -82 -29.5 -144t-84 -96t-127.5 -34q-109 0 -170.5 71t-61.5 197q0 17 5 47h351q-10 67 -49 102.5t-107 35.5q-41 0 -80 -10.5t-71 -29.5v99q70 35 162 35q124 0 193 -72.5zM349.5 113.5q32.5 37.5 39.5 106.5h-249q13 -144 123 -144
q54 0 86.5 37.5z" />
    <glyph glyph-name="uni0289" unicode="&#x289;" horiz-adv-x="585" 
d="M587 358v-77h-79v-281h-102l2 73h-7q-27 -39 -69 -62.5t-95 -23.5q-78 0 -121.5 51t-43.5 145v98h-79v77h79v164h110v-164h216v164h110v-164h79zM398 281h-216v-86q0 -116 91 -116q55 0 90 39t35 104v59z" />
    <glyph glyph-name="uni02BC" unicode="&#x2bc;" horiz-adv-x="280" 
d="M148 464h-75l37 236h118z" />
    <glyph glyph-name="circumflex" unicode="&#x2c6;" horiz-adv-x="485" 
d="M177 584h-98l110 148h107l110 -148h-98l-62 87h-7z" />
    <glyph glyph-name="caron" unicode="&#x2c7;" horiz-adv-x="485" 
d="M296 584h-107l-110 148h98l62 -87h7l62 87h98z" />
    <glyph glyph-name="breve" unicode="&#x2d8;" horiz-adv-x="430" 
d="M106.5 622q-40.5 38 -40.5 100h82q0 -30 17 -46.5t50 -16.5t50 16.5t17 46.5h82q0 -62 -40.5 -100t-108.5 -38t-108.5 38z" />
    <glyph glyph-name="dotaccent" unicode="&#x2d9;" horiz-adv-x="280" 
d="M91 605.5q-20 20.5 -20 49.5t20 49t49 20q28 0 48.5 -20t20.5 -49t-20 -49.5t-49 -20.5t-49 20.5z" />
    <glyph glyph-name="ring" unicode="&#x2da;" horiz-adv-x="330" 
d="M91.5 600.5q-29.5 27.5 -29.5 70.5t29 70.5t74 27.5t74 -27.5t29 -70.5t-29.5 -70.5t-73.5 -27.5t-73.5 27.5zM192.5 643q10.5 10 10.5 28t-10.5 28.5t-27.5 10.5t-27.5 -10.5t-10.5 -28.5t10.5 -28t27.5 -10t27.5 10z" />
    <glyph glyph-name="ogonek" unicode="&#x2db;" horiz-adv-x="265" 
d="M171 -206q-54 0 -84 24.5t-30 68.5q0 45 34.5 78t88.5 48l27 -13q-27 -15 -47.5 -40.5t-20.5 -49.5q0 -39 57 -39h11v-77h-36z" />
    <glyph glyph-name="tilde" unicode="&#x2dc;" horiz-adv-x="430" 
d="M65 601q0 54 22.5 85t63.5 31q24 0 41.5 -8t38.5 -22q14 -10 22.5 -14.5t17.5 -4.5q14 0 20.5 11.5t6.5 37.5h67v-12q0 -54 -22.5 -85t-63.5 -31q-25 0 -42.5 8t-36.5 22q-13 10 -22.5 14.5t-18.5 4.5q-14 0 -20.5 -12t-6.5 -37h-67v12z" />
    <glyph glyph-name="hungarumlaut" unicode="&#x2dd;" horiz-adv-x="490" 
d="M166 584h-75l64 148h99zM309 584h-77l65 148h102z" />
    <glyph glyph-name="gravecomb" unicode="&#x300;" horiz-adv-x="0" 
d="M-86 584h-86l-101 148h122z" />
    <glyph glyph-name="acutecomb" unicode="&#x301;" horiz-adv-x="0" 
d="M-187 584h-86l65 148h122z" />
    <glyph glyph-name="uni0302" unicode="&#x302;" horiz-adv-x="0" 
d="M-308 584h-98l110 148h107l110 -148h-98l-62 87h-7z" />
    <glyph glyph-name="tildecomb" unicode="&#x303;" horiz-adv-x="0" 
d="M-365 601q0 54 22.5 85t63.5 31q24 0 41.5 -8t38.5 -22q14 -10 22.5 -14.5t17.5 -4.5q14 0 20.5 11.5t6.5 37.5h67v-12q0 -54 -22.5 -85t-63.5 -31q-25 0 -42.5 8t-36.5 22q-13 10 -22.5 14.5t-18.5 4.5q-14 0 -20.5 -12t-6.5 -37h-67v12z" />
    <glyph glyph-name="uni0304" unicode="&#x304;" horiz-adv-x="0" 
d="M-67 612h-296v82h296v-82z" />
    <glyph glyph-name="uni0306" unicode="&#x306;" horiz-adv-x="0" 
d="M-323.5 622q-40.5 38 -40.5 100h82q0 -30 17 -46.5t50 -16.5t50 16.5t17 46.5h82q0 -62 -40.5 -100t-108.5 -38t-108.5 38z" />
    <glyph glyph-name="uni0307" unicode="&#x307;" horiz-adv-x="0" 
d="M-189 605.5q-20 20.5 -20 49.5t20 49t49 20q28 0 48.5 -20t20.5 -49t-20 -49.5t-49 -20.5t-49 20.5z" />
    <glyph glyph-name="uni0308" unicode="&#x308;" horiz-adv-x="0" 
d="M-392 606.5q-19 19.5 -19 48.5t19 48t47 19t47 -19.5t19 -47.5q0 -29 -19 -48.5t-47 -19.5t-47 19.5zM-192 606.5q-19 19.5 -19 48.5q0 28 19 47.5t47 19.5t47 -19.5t19 -47.5q0 -29 -19 -48.5t-47 -19.5t-47 19.5z" />
    <glyph glyph-name="uni030A" unicode="&#x30a;" horiz-adv-x="0" 
d="M-238.5 600.5q-29.5 27.5 -29.5 70.5t29 70.5t74 27.5t74 -27.5t29 -70.5t-29.5 -70.5t-73.5 -27.5t-73.5 27.5zM-137.5 643q10.5 10 10.5 28t-10.5 28.5t-27.5 10.5t-27.5 -10.5t-10.5 -28.5t10.5 -28t27.5 -10t27.5 10z" />
    <glyph glyph-name="uni030B" unicode="&#x30b;" horiz-adv-x="0" 
d="M-324 584h-75l64 148h99zM-181 584h-77l65 148h102z" />
    <glyph glyph-name="uni030C" unicode="&#x30c;" horiz-adv-x="0" 
d="M-189 584h-107l-110 148h98l62 -87h7l62 87h98z" />
    <glyph glyph-name="uni0312" unicode="&#x312;" horiz-adv-x="0" 
d="M-128 584h-118l87 148h80z" />
    <glyph glyph-name="uni0326" unicode="&#x326;" horiz-adv-x="0" 
d="M-161 -206h-83l45 138h113z" />
    <glyph glyph-name="uni0327" unicode="&#x327;" horiz-adv-x="0" 
d="M-137 -42q34 -3 56 -23t22 -57q0 -39 -29 -61.5t-79 -22.5q-41 0 -69 8v67q28 -7 63 -7q18 0 28 6t10 17q0 23 -46 23h-27v6l27 95l57 -9z" />
    <glyph glyph-name="uni0328" unicode="&#x328;" horiz-adv-x="0" 
d="M-94 -206q-54 0 -84 24.5t-30 68.5q0 45 34.5 78t88.5 48l27 -13q-27 -15 -47.5 -40.5t-20.5 -49.5q0 -39 57 -39h11v-77h-36z" />
    <glyph glyph-name="uni0401" unicode="&#x401;" horiz-adv-x="570" 
d="M203 309v-206h308v-103h-425v700h420v-103h-303v-188h283v-100h-283zM148 779.5q-19 19.5 -19 48.5t19 48.5t47 19.5t47 -19.5t19 -48.5t-19 -48.5t-47 -19.5t-47 19.5zM350 779.5q-19 19.5 -19 48.5t19 48.5t47 19.5t47 -19.5t19 -48.5t-19 -48.5t-47 -19.5t-47 19.5z
" />
    <glyph glyph-name="uni0402" unicode="&#x402;" horiz-adv-x="745" 
d="M612.5 391.5q51.5 -56.5 51.5 -172.5v-153q0 -106 -47 -151.5t-136 -45.5q-40 0 -74 7v97q22 -7 52 -7q47 0 67.5 22t20.5 80v139q0 75 -27.5 107.5t-90.5 32.5q-72 0 -146 -38v-309h-117v597h-154v103h511v-103h-240v-190q87 41 174 41q104 0 155.5 -56.5z" />
    <glyph glyph-name="uni0403" unicode="&#x403;" horiz-adv-x="520" 
d="M203 0h-117v700h415v-105h-298v-595zM334 762h-91l66 128h134z" />
    <glyph glyph-name="uni0404" unicode="&#x404;" horiz-adv-x="615" 
d="M490.5 103q45.5 9 81.5 24v-110q-38 -15 -83 -22.5t-89 -7.5q-111 0 -190.5 43.5t-122 125.5t-42.5 194q0 109 43.5 191t124 127t187.5 45q43 0 87 -7.5t80 -21.5v-109q-37 14 -80.5 22.5t-82.5 8.5q-94 0 -156 -53.5t-76 -147.5h317v-98h-319q11 -102 72 -157.5
t162 -55.5q41 0 86.5 9z" />
    <glyph glyph-name="uni0405" unicode="&#x405;" horiz-adv-x="565" 
d="M152 -2.5q-57 10.5 -103 28.5v110q46 -18 100.5 -30t109.5 -12q64 0 98.5 25.5t34.5 72.5q0 35 -18.5 57.5t-46 36t-76.5 31.5q-61 22 -99.5 42t-65.5 59.5t-27 102.5q0 91 63 141.5t171 50.5q102 0 193 -31v-109q-88 33 -190 33q-55 0 -86 -22t-31 -63q0 -31 17.5 -51
t43.5 -32t72 -28q63 -20 103.5 -41t69 -63.5t28.5 -113.5q0 -96 -67 -150.5t-183 -54.5q-54 0 -111 10.5z" />
    <glyph glyph-name="uni0406" unicode="&#x406;" horiz-adv-x="475" 
d="M430 0h-385v97h136v506h-136v97h385v-97h-136v-506h136v-97z" />
    <glyph glyph-name="uni0407" unicode="&#x407;" horiz-adv-x="475" 
d="M430 0h-385v97h136v506h-136v97h385v-97h-136v-506h136v-97zM90 779.5q-19 19.5 -19 48.5t19 48.5t47 19.5t47 -19.5t19 -48.5t-19 -48.5t-47 -19.5t-47 19.5zM292 779.5q-19 19.5 -19 48.5t19 48.5t47 19.5t47 -19.5t19 -48.5t-19 -48.5t-47 -19.5t-47 19.5z" />
    <glyph glyph-name="uni0408" unicode="&#x408;" horiz-adv-x="505" 
d="M101 -1q-44 7 -77 17v110q29 -11 71.5 -19t77.5 -8q66 0 100 35.5t34 112.5v356h-234v97h351v-459q0 -123 -62.5 -186t-175.5 -63q-41 0 -85 7z" />
    <glyph glyph-name="uni0409" unicode="&#x409;" horiz-adv-x="990" 
d="M712 429q75 0 131 -26t86.5 -73.5t30.5 -111.5q0 -65 -30.5 -114t-86.5 -76.5t-131 -27.5h-219v595h-204l-8 -168q-9 -173 -30.5 -265.5t-60.5 -130t-106 -37.5q-25 0 -55 7v112q20 -3 33 -3q42 0 62.5 30t30.5 106.5t18 240.5l10 213h427v-271h102zM711 102
q63 0 97 29.5t34 83.5t-34.5 83t-96.5 29h-103v-225h103z" />
    <glyph glyph-name="uni040A" unicode="&#x40a;" horiz-adv-x="965" 
d="M687 429q75 0 131 -26t86.5 -73.5t30.5 -111.5q0 -65 -30.5 -114t-86.5 -76.5t-131 -27.5h-219v324h-265v-324h-117v700h117v-271h265v271h118v-271h101zM686 102q63 0 97 29.5t34 83.5t-34.5 83t-96.5 29h-102v-225h102z" />
    <glyph glyph-name="uni040B" unicode="&#x40b;" horiz-adv-x="745" 
d="M612.5 391.5q51.5 -56.5 51.5 -172.5v-219h-117v207q0 75 -27.5 107.5t-90.5 32.5q-74 0 -146 -39v-308h-117v597h-154v103h511v-103h-240v-190q87 41 174 41q104 0 155.5 -56.5z" />
    <glyph glyph-name="uni040C" unicode="&#x40c;" horiz-adv-x="665" 
d="M632 700l-231 -328l261 -372h-136l-222 314h-101v-314h-117v700h117v-282h104l200 282h125zM381 762h-91l66 128h134z" />
    <glyph glyph-name="uni040E" unicode="&#x40e;" horiz-adv-x="656" 
d="M512 700h124l-188 -460q-39 -97 -72 -150t-77 -78t-110 -25q-40 0 -85 12v103q47 -11 80 -11q49 0 77 20.5t54 73.5h-48l-247 515h130l192 -421h10zM204 795.5q-49 38.5 -51 100.5h97q2 -30 24.5 -47t62.5 -17t62.5 17t24.5 47h97q-2 -62 -51 -100.5t-133 -38.5
t-133 38.5z" />
    <glyph glyph-name="uni040F" unicode="&#x40f;" horiz-adv-x="701" 
d="M406 -158h-112v158h-208v700h117v-595h295v595h117v-700h-209v-158z" />
    <glyph glyph-name="uni0410" unicode="&#x410;" horiz-adv-x="655" 
d="M635 0h-121l-53 175h-270l-53 -175h-118l223 700h169zM322 602l-100 -326h208l-100 326h-8z" />
    <glyph glyph-name="uni0411" unicode="&#x411;" horiz-adv-x="605" 
d="M314 426q75 0 130.5 -26.5t85.5 -74.5t30 -112t-30 -112t-85.5 -74.5t-130.5 -26.5h-228v700h424v-103h-308v-171h112zM311 99q63 0 97.5 30t34.5 85t-34.5 85t-97.5 30h-109v-230h109z" />
    <glyph glyph-name="uni0412" unicode="&#x412;" horiz-adv-x="620" 
d="M540.5 306.5q32.5 -45.5 32.5 -107.5q0 -60 -29 -105t-82 -69.5t-124 -24.5h-252v700h232q104 0 165 -48.5t61 -129.5q0 -51 -24.5 -88.5t-69.5 -58.5q58 -23 90.5 -68.5zM202 603v-191h108q56 0 87 25.5t31 71.5q0 45 -31 69.5t-87 24.5h-108zM325 97q62 0 95.5 29
t33.5 82q0 54 -33.5 83.5t-95.5 29.5h-123v-224h123z" />
    <glyph glyph-name="uni0413" unicode="&#x413;" horiz-adv-x="520" 
d="M203 0h-117v700h415v-105h-298v-595z" />
    <glyph glyph-name="uni0414" unicode="&#x414;" horiz-adv-x="753" 
d="M628 105h95v-263h-112v158h-469v-158h-112v263h21q42 0 62.5 30.5t31 108t17.5 243.5l9 213h457v-595zM510 105v490h-231l-8 -168q-6 -122 -18.5 -199.5t-34.5 -122.5h292z" />
    <glyph glyph-name="uni0415" unicode="&#x415;" horiz-adv-x="570" 
d="M203 309v-206h308v-103h-425v700h420v-103h-303v-188h283v-100h-283z" />
    <glyph glyph-name="uni0416" unicode="&#x416;" horiz-adv-x="990" 
d="M958 700l-223 -329l252 -371h-136l-211 314h-88v-314h-114v314h-88l-211 -314h-136l252 371l-223 329h125l190 -282h91v282h114v-282h91l190 282h125z" />
    <glyph glyph-name="uni0417" unicode="&#x417;" horiz-adv-x="580" 
d="M486.5 300q31.5 -44 31.5 -107q0 -97 -69 -151.5t-194 -54.5q-55 0 -109.5 10.5t-98.5 28.5v110q109 -42 202 -42q148 0 148 109q0 107 -154 107h-100v100h101q142 0 142 99q0 97 -133 97q-89 0 -180 -35v109q45 16 97 24.5t98 8.5q112 0 173.5 -49.5t61.5 -137.5
q0 -57 -27.5 -97t-79.5 -62q59 -23 90.5 -67z" />
    <glyph glyph-name="uni0418" unicode="&#x418;" horiz-adv-x="740" 
d="M243 0h-157v700h114v-566h8l289 566h157v-700h-114v566h-8z" />
    <glyph glyph-name="uni0419" unicode="&#x419;" horiz-adv-x="740" 
d="M243 0h-157v700h114v-566h8l289 566h157v-700h-114v566h-8zM237 795.5q-49 38.5 -51 100.5h97q2 -30 24.5 -47t62.5 -17t62.5 17t24.5 47h97q-2 -62 -51 -100.5t-133 -38.5t-133 38.5z" />
    <glyph glyph-name="uni041A" unicode="&#x41a;" horiz-adv-x="665" 
d="M632 700l-231 -328l261 -372h-136l-222 314h-101v-314h-117v700h117v-282h104l200 282h125z" />
    <glyph glyph-name="uni041B" unicode="&#x41b;" horiz-adv-x="720" 
d="M183 700h451v-700h-117v595h-228l-8 -168q-9 -173 -30.5 -265.5t-60.5 -130t-106 -37.5q-25 0 -55 7v112q20 -3 33 -3q42 0 62.5 30t30.5 106.5t18 240.5z" />
    <glyph glyph-name="uni041C" unicode="&#x41c;" horiz-adv-x="910" 
d="M196 0h-110v700h178l189 -563h7l190 563h174v-700h-110v567h-8l-192 -567h-118l-192 567h-8v-567z" />
    <glyph glyph-name="uni041D" unicode="&#x41d;" horiz-adv-x="710" 
d="M507 412v288h117v-700h-117v308h-304v-308h-117v700h117v-288h304z" />
    <glyph glyph-name="uni041E" unicode="&#x41e;" horiz-adv-x="725" 
d="M193.5 31q-71.5 44 -110 126t-38.5 193t38.5 193t110 126t168.5 44t169 -44t110.5 -126t38.5 -193t-38.5 -193t-110.5 -126t-169 -44t-168.5 44zM504 161q50 67 50 189t-50 189t-142 67q-91 0 -141 -67t-50 -189t50 -189t141 -67q92 0 142 67z" />
    <glyph glyph-name="uni041F" unicode="&#x41f;" horiz-adv-x="705" 
d="M203 0h-117v700h533v-700h-117v595h-299v-595z" />
    <glyph glyph-name="uni0420" unicode="&#x420;" horiz-adv-x="595" 
d="M312 700q75 0 131 -27t86.5 -76.5t30.5 -114.5t-30.5 -114t-86.5 -76t-131 -27h-109v-265h-117v700h226zM310 367q63 0 97.5 30t34.5 85t-34.5 85.5t-97.5 30.5h-108v-231h108z" />
    <glyph glyph-name="uni0421" unicode="&#x421;" horiz-adv-x="610" 
d="M208 30.5q-79 43.5 -121 125.5t-42 194q0 109 43.5 191t123 127t185.5 45q42 0 85.5 -7t79.5 -21v-110q-36 14 -78.5 22.5t-81.5 8.5q-70 0 -122.5 -31t-81 -89t-28.5 -136q0 -121 61 -188.5t171 -67.5q40 0 85 9t80 23v-109q-74 -30 -170 -30q-110 0 -189 43.5z" />
    <glyph glyph-name="uni0422" unicode="&#x422;" horiz-adv-x="570" 
d="M344 0h-118v595h-212v105h542v-105h-212v-595z" />
    <glyph glyph-name="uni0423" unicode="&#x423;" horiz-adv-x="656" 
d="M512 700h124l-188 -460q-39 -97 -72 -150t-77 -78t-110 -25q-40 0 -85 12v103q47 -11 80 -11q49 0 77 20.5t54 73.5h-48l-247 515h130l192 -421h10z" />
    <glyph glyph-name="uni0424" unicode="&#x424;" horiz-adv-x="850" 
d="M766.5 177.5q-38.5 -73.5 -111 -115t-172.5 -45.5v-77h-116v77q-100 4 -172.5 45.5t-111 115t-38.5 172.5t38.5 172.5t111 115t172.5 45.5v77h116v-77q100 -4 172.5 -45.5t111 -115t38.5 -172.5t-38.5 -172.5zM218.5 184.5q52.5 -59.5 151.5 -64.5v460
q-99 -5 -151.5 -64.5t-52.5 -165.5t52.5 -165.5zM480 120q99 5 151.5 64.5t52.5 165.5t-52.5 165.5t-151.5 64.5v-460z" />
    <glyph glyph-name="uni0425" unicode="&#x425;" horiz-adv-x="645" 
d="M157 0h-128l212 365l-194 335h129l143 -258h10l143 258h126l-194 -335l212 -365h-131l-160 285h-8z" />
    <glyph glyph-name="uni0426" unicode="&#x426;" horiz-adv-x="738" 
d="M708 -158h-112v158h-510v700h117v-595h292v595h118v-595h95v-263z" />
    <glyph glyph-name="uni0427" unicode="&#x427;" horiz-adv-x="650" 
d="M447 700h117v-700h-117v274q-88 -42 -177 -42q-211 0 -211 231v237h117v-223q0 -76 28.5 -109t92.5 -33q76 0 150 40v325z" />
    <glyph glyph-name="uni0428" unicode="&#x428;" horiz-adv-x="1010" 
d="M924 0h-838v700h117v-595h243v595h118v-595h243v595h117v-700z" />
    <glyph glyph-name="uni0429" unicode="&#x429;" horiz-adv-x="1048" 
d="M1018 -158h-112v158h-820v700h117v-595h243v595h117v-595h242v595h118v-595h95v-263z" />
    <glyph glyph-name="uni042A" unicode="&#x42a;" horiz-adv-x="670" 
d="M380 451q77 0 134.5 -28t89 -79t31.5 -119q0 -67 -31.5 -118t-89 -79t-134.5 -28h-216v595h-152v105h270v-249h98zM378 102q66 0 102.5 32.5t36.5 90.5q0 59 -36.5 91.5t-102.5 32.5h-98v-247h98z" />
    <glyph glyph-name="uni042B" unicode="&#x42b;" horiz-adv-x="865" 
d="M295 451q77 0 134.5 -28t88.5 -79t31 -119q0 -67 -31 -118t-88.5 -79t-134.5 -28h-209v700h117v-249h92zM662 0v700h117v-700h-117zM293 102q66 0 102.5 32.5t36.5 90.5q0 59 -36.5 91.5t-102.5 32.5h-91v-247h91z" />
    <glyph glyph-name="uni042C" unicode="&#x42c;" horiz-adv-x="595" 
d="M305 451q77 0 134.5 -28t89 -79t31.5 -119q0 -67 -31.5 -118t-89 -79t-134.5 -28h-219v700h117v-249h102zM303 102q66 0 102.5 32.5t36.5 90.5q0 59 -36.5 91.5t-102.5 32.5h-101v-247h101z" />
    <glyph glyph-name="uni042D" unicode="&#x42d;" horiz-adv-x="620" 
d="M415 668q78 -45 119 -126.5t41 -191.5q0 -113 -41.5 -194.5t-120 -125t-188.5 -43.5q-99 0 -177 31v109q36 -15 81.5 -24t87.5 -9q101 0 161.5 55.5t71.5 157.5h-317v99h315q-13 94 -71.5 147t-154.5 53q-38 0 -81 -8.5t-78 -23.5v110q35 14 78.5 21.5t86.5 7.5
q109 0 187 -45z" />
    <glyph glyph-name="uni042E" unicode="&#x42e;" horiz-adv-x="985" 
d="M794.5 669q70.5 -44 108 -126t37.5 -193t-37.5 -193t-108 -126t-166.5 -44q-89 0 -156 38.5t-106 111t-46 171.5h-117v-308h-117v700h117v-288h119q15 141 96 221t210 80q96 0 166.5 -44zM765.5 161q48.5 67 48.5 189t-48.5 189t-137.5 67q-88 0 -136.5 -67t-48.5 -189
t48.5 -189t136.5 -67q89 0 137.5 67z" />
    <glyph glyph-name="uni042F" unicode="&#x42f;" horiz-adv-x="630" 
d="M544 700v-700h-117v276h-99l-175 -276h-129l193 290q-69 21 -108.5 73t-39.5 125q0 63 30 111t85 74.5t127 26.5h233zM219.5 404.5q33.5 -29.5 94.5 -29.5h114v225h-114q-61 0 -94.5 -30t-33.5 -83t33.5 -82.5z" />
    <glyph glyph-name="uni0430" unicode="&#x430;" horiz-adv-x="525" 
d="M463 331v-331h-100l1 73h-7q-56 -86 -157 -86q-73 0 -117 42.5t-44 113.5q0 76 56.5 122t171.5 58l86 9q-2 55 -28.5 81.5t-81.5 26.5q-39 0 -79.5 -9.5t-74.5 -27.5v99q30 13 74 22.5t91 9.5q209 0 209 -203zM317.5 116.5q35.5 37.5 35.5 110.5v26l-82 -8
q-119 -13 -119 -90q0 -35 21.5 -55.5t58.5 -20.5q50 0 85.5 37.5z" />
    <glyph glyph-name="uni0431" unicode="&#x431;" horiz-adv-x="560" 
d="M104.5 58q-64.5 71 -64.5 211v45q0 119 21.5 193.5t64.5 117.5q29 29 69.5 44t83.5 21t120 12q68 4 100 8v-100q-38 -5 -118 -9q-76 -3 -117.5 -11t-68.5 -35q-23 -22 -34.5 -56t-16.5 -85h8q20 41 63.5 66t102.5 25q65 0 113 -32t73.5 -90t25.5 -134q0 -121 -66 -191.5
t-179 -70.5q-116 0 -180.5 71zM380 122q33 43 33 124t-33 124.5t-95 43.5t-95 -43.5t-33 -124.5t33 -124t95 -43t95 43z" />
    <glyph glyph-name="uni0432" unicode="&#x432;" horiz-adv-x="535" 
d="M495 144q0 -70 -47.5 -107t-139.5 -37h-241v522h219q90 0 137.5 -35t47.5 -102q0 -79 -70 -111q94 -32 94 -130zM176 434v-128h101q87 0 87 64t-87 64h-101zM298 88q89 0 89 69t-89 69h-122v-138h122z" />
    <glyph glyph-name="uni0433" unicode="&#x433;" horiz-adv-x="415" 
d="M177 0h-110v522h338v-99h-228v-423z" />
    <glyph glyph-name="uni0434" unicode="&#x434;" horiz-adv-x="605" 
d="M507 93h77v-237h-105v144h-353v-144h-105v237h19q29 0 46 21t26 74t14 153l8 181h373v-429zM400 93v337h-167l-7 -138q-6 -133 -39 -199h213z" />
    <glyph glyph-name="uni0435" unicode="&#x435;" horiz-adv-x="540" 
d="M504 234h-354q14 -152 166 -152q83 0 156 40v-101q-79 -34 -164 -34q-132 0 -202.5 72.5t-70.5 201.5q0 81 30 143t84.5 96t127.5 34q109 0 170 -69t61 -192q0 -17 -4 -39zM194 412q-32 -34 -42 -97h245q-8 63 -38 97t-82 34q-51 0 -83 -34z" />
    <glyph glyph-name="uni0436" unicode="&#x436;" horiz-adv-x="780" 
d="M745 522l-160 -247l185 -275h-123l-143 222h-65l5 -73v-149h-108v149l5 73h-65l-143 -222h-123l185 275l-160 247h115l127 -208h64l-5 65v143h108v-143l-5 -65h64l127 208h115z" />
    <glyph glyph-name="uni0437" unicode="&#x437;" horiz-adv-x="470" 
d="M425 144q0 -77 -56 -117t-161 -40q-84 0 -171 31v96q97 -35 166 -35q56 0 84 18.5t28 56.5q0 36 -26 53.5t-81 17.5h-91v86h93q49 0 73 16t24 49q0 34 -24 50t-73 16q-64 0 -151 -30v96q88 26 157 26q96 0 148 -37.5t52 -107.5q0 -88 -86 -118q95 -31 95 -127z" />
    <glyph glyph-name="uni0438" unicode="&#x438;" horiz-adv-x="585" 
d="M199 0h-132v522h106v-390h7l206 390h132v-522h-106v389h-7z" />
    <glyph glyph-name="uni0439" unicode="&#x439;" horiz-adv-x="585" 
d="M199 0h-132v522h106v-390h7l206 390h132v-522h-106v389h-7zM178.5 622q-42.5 38 -42.5 100h88q0 -31 17.5 -48t51.5 -17t51.5 17t17.5 48h88q0 -62 -42.5 -100t-114.5 -38t-114.5 38z" />
    <glyph glyph-name="uni043A" unicode="&#x43a;" horiz-adv-x="545" 
d="M510 522l-169 -247l194 -275h-126l-152 222h-84l4 -73v-149h-110v522h110v-143l-4 -65h83l136 208h118z" />
    <glyph glyph-name="uni043B" unicode="&#x43b;" horiz-adv-x="575" 
d="M139 522h369v-522h-110v430h-160l-4 -95q-5 -139 -26 -214t-56 -102.5t-89 -27.5q-16 0 -40 6v103q20 -2 25 -2q29 0 45 19.5t25 74.5t14 165z" />
    <glyph glyph-name="uni043C" unicode="&#x43c;" horiz-adv-x="725" 
d="M170 0h-103v522h151l143 -405h6l144 405h147v-522h-103v391h-7l-141 -391h-90l-140 391h-7v-391z" />
    <glyph glyph-name="uni043D" unicode="&#x43d;" horiz-adv-x="570" 
d="M393 315v207h110v-522h-110v223h-216v-223h-110v522h110v-207h216z" />
    <glyph glyph-name="uni043E" unicode="&#x43e;" horiz-adv-x="560" 
d="M150 20.5q-55 33.5 -85 95.5t-30 145t30 144.5t85 95t130 33.5t130 -33.5t85 -95t30 -144.5t-30 -145t-85 -95.5t-130 -33.5t-130 33.5zM374.5 125.5q33.5 46.5 33.5 135.5q0 88 -33.5 135t-94.5 47t-94.5 -47t-33.5 -135q0 -89 33.5 -135.5t94.5 -46.5t94.5 46.5z" />
    <glyph glyph-name="uni043F" unicode="&#x43f;" horiz-adv-x="570" 
d="M177 0h-110v522h436v-522h-110v430h-216v-430z" />
    <glyph glyph-name="uni0440" unicode="&#x440;" horiz-adv-x="580" 
d="M446 500.5q48 -33.5 73.5 -95.5t25.5 -144t-27 -144t-77 -96t-116 -34q-48 0 -85.5 20t-62.5 56v-243h-110v702h104l-2 -70h8q26 37 66 59.5t91 22.5q64 0 112 -33.5zM395.5 125.5q32.5 46.5 32.5 135.5t-32.5 135.5t-93.5 46.5q-58 0 -91.5 -41.5t-33.5 -116.5v-48
q0 -75 33.5 -116.5t91.5 -41.5q61 0 93.5 46.5z" />
    <glyph glyph-name="uni0441" unicode="&#x441;" horiz-adv-x="475" 
d="M107.5 60q-72.5 73 -72.5 201q0 83 33 144.5t94.5 95t145.5 33.5q35 0 70 -6.5t60 -17.5v-97q-23 12 -57 20t-67 8q-76 0 -119 -46.5t-43 -133.5q0 -89 42 -135t120 -46q36 0 70.5 9t58.5 22v-98q-24 -12 -60.5 -19t-74.5 -7q-128 0 -200.5 73z" />
    <glyph glyph-name="uni0442" unicode="&#x442;" horiz-adv-x="464" 
d="M287 0h-110v423h-159v99h428v-99h-159v-423z" />
    <glyph glyph-name="uni0443" unicode="&#x443;" horiz-adv-x="535" 
d="M405 522h110l-182 -564q-18 -56 -39.5 -88.5t-55 -47.5t-88.5 -15q-35 0 -61 7v91q25 -5 50 -5q43 0 65 15.5t36 58.5l11 34h-52l-179 514h117l86 -275l48 -145h8l46 145z" />
    <glyph glyph-name="uni0444" unicode="&#x444;" horiz-adv-x="690" 
d="M587.5 61.5q-67.5 -73.5 -188.5 -74.5v-167h-108v167q-121 1 -188.5 74.5t-67.5 199.5t67.5 199t188.5 74v166h108v-166q121 -1 188.5 -74t67.5 -199t-67.5 -199.5zM183.5 125q35.5 -46 105.5 -46h5v364h-5q-70 0 -105.5 -46t-35.5 -136t35.5 -136zM401 79q70 0 105.5 46
t35.5 136t-35.5 136t-105.5 46h-5v-364h5z" />
    <glyph glyph-name="uni0445" unicode="&#x445;" horiz-adv-x="525" 
d="M151 0h-119l151 272l-139 250h119l50 -100l47 -89h8l47 89l50 100h116l-139 -250l151 -272h-121l-71 137l-36 71h-8l-36 -71z" />
    <glyph glyph-name="uni0446" unicode="&#x446;" 
d="M569 -144h-105v144h-397v522h110v-429h205v429h110v-429h77v-237z" />
    <glyph glyph-name="uni0447" unicode="&#x447;" horiz-adv-x="540" 
d="M363 522h110v-522h-110v190q-67 -35 -141 -35q-88 0 -132.5 47.5t-44.5 141.5v178h110v-171q0 -54 24 -78.5t77 -24.5q56 0 107 31v243z" />
    <glyph glyph-name="uni0448" unicode="&#x448;" horiz-adv-x="821" 
d="M754 0h-687v522h110v-429h179v429h108v-429h180v429h110v-522z" />
    <glyph glyph-name="uni0449" unicode="&#x449;" horiz-adv-x="844" 
d="M823 -144h-105v144h-651v522h110v-429h176v429h108v-429h175v429h110v-429h77v-237z" />
    <glyph glyph-name="uni044A" unicode="&#x44a;" horiz-adv-x="585" 
d="M333 356q222 0 222 -178t-222 -178h-197v427h-136v95h246v-166h87zM331 89q58 0 86 22t28 67t-28 67t-86 22h-85v-178h85z" />
    <glyph glyph-name="uni044B" unicode="&#x44b;" horiz-adv-x="740" 
d="M257 356q221 0 221 -178t-221 -178h-190v522h110v-166h80zM563 0v522h110v-522h-110zM255 89q114 0 114 89t-114 89h-78v-178h78z" />
    <glyph glyph-name="uni044C" unicode="&#x44c;" horiz-adv-x="525" 
d="M273 356q222 0 222 -178t-222 -178h-206v522h110v-166h96zM271 89q58 0 86 22t28 67t-28 67t-86 22h-94v-178h94z" />
    <glyph glyph-name="uni044D" unicode="&#x44d;" horiz-adv-x="480" 
d="M320.5 500.5q60.5 -33.5 92.5 -95t32 -144.5q0 -128 -70.5 -201t-198.5 -73q-41 0 -79.5 7t-64.5 19v98q25 -13 62 -22t74 -9q73 0 114 37t49 108h-231v85h229q-11 64 -52 97.5t-108 33.5q-34 0 -68.5 -8t-58.5 -20v97q25 11 61.5 17.5t73.5 6.5q83 0 143.5 -33.5z" />
    <glyph glyph-name="uni044E" unicode="&#x44e;" horiz-adv-x="765" 
d="M618 500.5q54 -33.5 83 -95t29 -144.5t-29 -145t-83 -95.5t-126 -33.5q-101 0 -163.5 63t-71.5 173h-83v-223h-107v522h107v-208h84q14 103 75.5 161.5t158.5 58.5q72 0 126 -33.5zM582 125.5q31 46.5 31 135.5t-31 135.5t-90 46.5t-90 -46.5t-31 -135.5t31 -135.5
t90 -46.5t90 46.5z" />
    <glyph glyph-name="uni044F" unicode="&#x44f;" horiz-adv-x="555" 
d="M488 522v-522h-110v180h-104h-9l-106 -180h-117l122 195q-105 36 -105 156q0 171 215 171h214zM378 268v166h-101q-55 0 -81.5 -20.5t-26.5 -62.5t26.5 -62.5t81.5 -20.5h101z" />
    <glyph glyph-name="uni0451" unicode="&#x451;" horiz-adv-x="540" 
d="M504 234h-354q14 -152 166 -152q83 0 156 40v-101q-79 -34 -164 -34q-132 0 -202.5 72.5t-70.5 201.5q0 81 30 143t84.5 96t127.5 34q109 0 170 -69t61 -192q0 -17 -4 -39zM194 412q-32 -34 -42 -97h245q-8 63 -38 97t-82 34q-51 0 -83 -34zM130 606.5q-19 19.5 -19 48.5
t19 48t47 19t47 -19.5t19 -47.5q0 -29 -19 -48.5t-47 -19.5t-47 19.5zM330 606.5q-19 19.5 -19 48.5q0 28 19 47.5t47 19.5t47 -19.5t19 -47.5q0 -29 -19 -48.5t-47 -19.5t-47 19.5z" />
    <glyph glyph-name="uni0452" unicode="&#x452;" horiz-adv-x="582" 
d="M476 433q44 -51 44 -145v-313q0 -89 -45.5 -128.5t-132.5 -39.5q-32 0 -81 9v92q34 -8 63 -8q45 0 65.5 18t20.5 66v292q0 117 -94 117q-56 0 -91.5 -39.5t-35.5 -103.5v-250h-110v551h-80v77h80v72h110v-72h137v-77h-137v-69l-3 -75h8q22 35 64 56t94 21q80 0 124 -51z
" />
    <glyph glyph-name="uni0453" unicode="&#x453;" horiz-adv-x="415" 
d="M177 0h-110v522h338v-99h-228v-423zM269 584h-86l65 148h122z" />
    <glyph glyph-name="uni0454" unicode="&#x454;" horiz-adv-x="475" 
d="M384.5 89q34.5 9 58.5 22v-98q-24 -12 -60.5 -19t-74.5 -7q-128 0 -200.5 73t-72.5 201q0 83 33 144.5t94.5 95t145.5 33.5q35 0 70 -6.5t60 -17.5v-97q-23 12 -57 20t-67 8q-65 0 -106.5 -34t-52.5 -97h228v-85h-230q8 -71 49.5 -108t111.5 -37q36 0 70.5 9z" />
    <glyph glyph-name="uni0455" unicode="&#x455;" horiz-adv-x="475" 
d="M138 -4q-48 9 -88 22v96q105 -35 178 -35q46 0 70 16.5t24 46.5q0 33 -25.5 49.5t-79.5 33.5q-50 17 -82 32.5t-54.5 48t-22.5 84.5q0 67 51 105.5t139 38.5q73 0 163 -25v-96q-90 30 -160 30q-40 0 -62 -14t-22 -40q0 -32 25 -48t78 -33q50 -16 82.5 -32.5t55.5 -49.5
t23 -86q0 -71 -52.5 -112t-146.5 -41q-46 0 -94 9z" />
    <glyph glyph-name="uni0456" unicode="&#x456;" horiz-adv-x="300" 
d="M222 0h-109v430h-100v92h209v-522zM111 604.5q-21 20.5 -21 51.5t21 51.5t51 20.5t51 -20.5t21 -51.5t-21 -51.5t-51 -20.5t-51 20.5z" />
    <glyph glyph-name="uni0457" unicode="&#x457;" horiz-adv-x="300" 
d="M222 0h-109v430h-100v92h209v-522zM21 606.5q-19 19.5 -19 48.5t19 48t47 19t47 -19.5t19 -47.5q0 -29 -19 -48.5t-47 -19.5t-47 19.5zM208 606.5q-19 19.5 -19 48.5q0 28 19 47.5t47 19.5t47 -19.5t19 -47.5q0 -29 -19 -48.5t-47 -19.5t-47 19.5z" />
    <glyph glyph-name="uni0458" unicode="&#x458;" horiz-adv-x="330" 
d="M-5 -184v92q34 -8 63 -8q45 0 65 18t20 66v446h-110v92h219v-547q0 -89 -45 -128.5t-131 -39.5q-34 0 -81 9zM141 604.5q-21 20.5 -21 51.5t21 51.5t51 20.5t51 -20.5t21 -51.5t-21 -51.5t-51 -20.5t-51 20.5z" />
    <glyph glyph-name="uni0459" unicode="&#x459;" horiz-adv-x="815" 
d="M576 336q214 0 214 -168t-214 -168h-194v430h-144l-4 -95q-5 -139 -26 -214t-56 -102.5t-89 -27.5q-17 0 -40 6v103q20 -2 25 -2q29 0 45 19.5t25 74.5t14 165l7 165h353v-186h84zM574 89q54 0 80 19.5t26 59.5t-26 59.5t-80 19.5h-82v-158h82z" />
    <glyph glyph-name="uni045A" unicode="&#x45a;" horiz-adv-x="810" 
d="M571 336q214 0 214 -168t-214 -168h-194v246h-200v-246h-110v522h110v-185h200v185h110v-186h84zM569 89q54 0 80 19.5t26 59.5t-26 59.5t-80 19.5h-82v-158h82z" />
    <glyph glyph-name="uni045B" unicode="&#x45b;" horiz-adv-x="582" 
d="M476 433q44 -51 44 -145v-288h-110v276q0 117 -94 117q-56 0 -91.5 -39.5t-35.5 -103.5v-250h-110v551h-80v77h80v72h110v-72h137v-77h-137v-69l-3 -75h8q22 35 64 56t94 21q80 0 124 -51z" />
    <glyph glyph-name="uni045C" unicode="&#x45c;" horiz-adv-x="545" 
d="M510 522l-169 -247l194 -275h-126l-152 222h-84l4 -73v-149h-110v522h110v-143l-4 -65h83l136 208h118zM302 584h-86l65 148h122z" />
    <glyph glyph-name="uni045E" unicode="&#x45e;" horiz-adv-x="535" 
d="M405 522h110l-182 -564q-18 -56 -39.5 -88.5t-55 -47.5t-88.5 -15q-35 0 -61 7v91q25 -5 50 -5q43 0 65 15.5t36 58.5l11 34h-52l-179 514h117l86 -275l48 -145h8l46 145zM157.5 622q-42.5 38 -42.5 100h88q0 -31 17.5 -48t51.5 -17t51.5 17t17.5 48h88q0 -62 -42.5 -100
t-114.5 -38t-114.5 38z" />
    <glyph glyph-name="uni045F" unicode="&#x45f;" horiz-adv-x="567" 
d="M335 -144h-104v144h-164v522h110v-429h213v429h110v-522h-165v-144z" />
    <glyph glyph-name="uni0490" unicode="&#x490;" horiz-adv-x="520" 
d="M203 0h-117v700h303v158h112v-263h-298v-595z" />
    <glyph glyph-name="uni0491" unicode="&#x491;" horiz-adv-x="415" 
d="M177 0h-110v522h234v139h104v-238h-228v-423z" />
    <glyph glyph-name="Wgrave" unicode="&#x1e80;" horiz-adv-x="1015" 
d="M372 0h-155l-188 700h121l145 -582h8l147 582h119l146 -582h8l146 582h117l-188 -700h-154l-133 520h-7zM570 762h-91l-109 128h134z" />
    <glyph glyph-name="wgrave" unicode="&#x1e81;" horiz-adv-x="785" 
d="M302 0h-138l-139 522h110l84 -338l16 -76h8l18 76l81 338h105l82 -338l17 -76h8l17 76l83 338h106l-139 -522h-137l-87 360h-8zM449 584h-86l-101 148h122z" />
    <glyph glyph-name="Wacute" unicode="&#x1e82;" horiz-adv-x="1015" 
d="M372 0h-155l-188 700h121l145 -582h8l147 582h119l146 -582h8l146 582h117l-188 -700h-154l-133 520h-7zM540 762h-91l66 128h134z" />
    <glyph glyph-name="wacute" unicode="&#x1e83;" horiz-adv-x="785" 
d="M302 0h-138l-139 522h110l84 -338l16 -76h8l18 76l81 338h105l82 -338l17 -76h8l17 76l83 338h106l-139 -522h-137l-87 360h-8zM427 584h-86l65 148h122z" />
    <glyph glyph-name="Wdieresis" unicode="&#x1e84;" horiz-adv-x="1015" 
d="M372 0h-155l-188 700h121l145 -582h8l147 582h119l146 -582h8l146 582h117l-188 -700h-154l-133 520h-7zM361 779.5q-19 19.5 -19 48.5t19 48.5t47 19.5t47 -19.5t19 -48.5t-19 -48.5t-47 -19.5t-47 19.5zM563 779.5q-19 19.5 -19 48.5t19 48.5t47 19.5t47 -19.5
t19 -48.5t-19 -48.5t-47 -19.5t-47 19.5z" />
    <glyph glyph-name="wdieresis" unicode="&#x1e85;" horiz-adv-x="785" 
d="M302 0h-138l-139 522h110l84 -338l16 -76h8l18 76l81 338h105l82 -338l17 -76h8l17 76l83 338h106l-139 -522h-137l-87 360h-8zM248 606.5q-19 19.5 -19 48.5t19 48t47 19t47 -19.5t19 -47.5q0 -29 -19 -48.5t-47 -19.5t-47 19.5zM448 606.5q-19 19.5 -19 48.5
q0 28 19 47.5t47 19.5t47 -19.5t19 -47.5q0 -29 -19 -48.5t-47 -19.5t-47 19.5z" />
    <glyph glyph-name="uni1E9E" unicode="&#x1e9e;" horiz-adv-x="740" 
d="M442 413q120 0 189.5 -57t69.5 -159q0 -99 -66 -154.5t-189 -55.5q-99 0 -190 28v105q46 -14 89 -21.5t94 -7.5q72 0 107.5 28.5t35.5 80.5q0 57 -40.5 87t-119.5 30h-105v101l208 185h-178q-71 0 -110 -40.5t-39 -120.5v-442h-117v446q0 120 67.5 187t181.5 67h315v-103
l-207 -184h4z" />
    <glyph glyph-name="uni1EBC" unicode="&#x1ebc;" horiz-adv-x="570" 
d="M203 309v-206h308v-103h-425v700h420v-103h-303v-188h283v-100h-283zM141 773q0 50 23.5 81.5t65.5 31.5q26 0 42.5 -7t37.5 -20q13 -9 22.5 -13.5t21.5 -4.5q16 0 23.5 11t7.5 34h67v-7q0 -53 -23.5 -85t-65.5 -32q-25 0 -43.5 7t-36.5 20q-14 9 -23.5 13.5t-21.5 4.5
q-31 0 -31 -45h-66v11z" />
    <glyph glyph-name="uni1EBD" unicode="&#x1ebd;" horiz-adv-x="540" 
d="M504 234h-354q14 -152 166 -152q83 0 156 40v-101q-79 -34 -164 -34q-132 0 -202.5 72.5t-70.5 201.5q0 81 30 143t84.5 96t127.5 34q109 0 170 -69t61 -192q0 -17 -4 -39zM194 412q-32 -34 -42 -97h245q-8 63 -38 97t-82 34q-51 0 -83 -34zM126 601q0 54 22.5 85
t63.5 31q24 0 41.5 -8t38.5 -22q14 -10 22.5 -14.5t17.5 -4.5q14 0 20.5 11.5t6.5 37.5h67v-12q0 -54 -22.5 -85t-63.5 -31q-25 0 -42.5 8t-36.5 22q-13 10 -22.5 14.5t-18.5 4.5q-14 0 -20.5 -12t-6.5 -37h-67v12z" />
    <glyph glyph-name="Ygrave" unicode="&#x1ef2;" horiz-adv-x="620" 
d="M369 0h-118v249l-232 451h126l163 -327h8l163 327h122l-232 -451v-249zM373 762h-91l-109 128h134z" />
    <glyph glyph-name="ygrave" unicode="&#x1ef3;" horiz-adv-x="535" 
d="M405 522h110l-182 -564q-18 -56 -39.5 -88.5t-55 -47.5t-88.5 -15q-35 0 -61 7v91q25 -5 50 -5q43 0 65 15.5t36 58.5l11 34h-52l-179 514h117l86 -275l48 -145h8l46 145zM326 584h-86l-101 148h122z" />
    <glyph glyph-name="uni1EF8" unicode="&#x1ef8;" horiz-adv-x="620" 
d="M369 0h-118v249l-232 451h126l163 -327h8l163 327h122l-232 -451v-249zM157 773q0 50 23.5 81.5t65.5 31.5q26 0 42.5 -7t37.5 -20q13 -9 22.5 -13.5t21.5 -4.5q16 0 23.5 11t7.5 34h67v-7q0 -53 -23.5 -85t-65.5 -32q-25 0 -43.5 7t-36.5 20q-14 9 -23.5 13.5t-21.5 4.5
q-31 0 -31 -45h-66v11z" />
    <glyph glyph-name="uni1EF9" unicode="&#x1ef9;" horiz-adv-x="535" 
d="M405 522h110l-182 -564q-18 -56 -39.5 -88.5t-55 -47.5t-88.5 -15q-35 0 -61 7v91q25 -5 50 -5q43 0 65 15.5t36 58.5l11 34h-52l-179 514h117l86 -275l48 -145h8l46 145zM121 601q0 54 22.5 85t63.5 31q24 0 41.5 -8t38.5 -22q14 -10 22.5 -14.5t17.5 -4.5
q14 0 20.5 11.5t6.5 37.5h67v-12q0 -54 -22.5 -85t-63.5 -31q-25 0 -42.5 8t-36.5 22q-13 10 -22.5 14.5t-18.5 4.5q-14 0 -20.5 -12t-6.5 -37h-67v12z" />
    <glyph glyph-name="endash" unicode="&#x2013;" horiz-adv-x="530" 
d="M501 213h-472v94h472v-94z" />
    <glyph glyph-name="emdash" unicode="&#x2014;" horiz-adv-x="690" 
d="M661 213h-632v94h632v-94z" />
    <glyph glyph-name="quoteleft" unicode="&#x2018;" horiz-adv-x="280" 
d="M183 464h-119l80 236h76z" />
    <glyph glyph-name="quoteright" unicode="&#x2019;" horiz-adv-x="280" 
d="M148 464h-75l37 236h118z" />
    <glyph glyph-name="quotesinglbase" unicode="&#x201a;" horiz-adv-x="280" 
d="M131 -100h-75l37 236h118z" />
    <glyph glyph-name="quotedblleft" unicode="&#x201c;" horiz-adv-x="445" 
d="M178 464h-114l83 236h74zM341 464h-113l83 236h74z" />
    <glyph glyph-name="quotedblright" unicode="&#x201d;" horiz-adv-x="445" 
d="M147 464h-74l43 236h114zM311 464h-74l43 236h113z" />
    <glyph glyph-name="quotedblbase" unicode="&#x201e;" horiz-adv-x="445" 
d="M130 -100h-74l43 236h114zM294 -100h-74l43 236h113z" />
    <glyph glyph-name="dagger" unicode="&#x2020;" horiz-adv-x="490" 
d="M299 513h151v-96h-151v-417h-108v417h-151v96h151v187h108v-187z" />
    <glyph glyph-name="daggerdbl" unicode="&#x2021;" horiz-adv-x="490" 
d="M450 528v-93h-151v-170h151v-93h-151v-172h-108v172h-151v93h151v170h-151v93h151v172h108v-172h151z" />
    <glyph glyph-name="bullet" unicode="&#x2022;" horiz-adv-x="330" 
d="M98 193q-27 27 -27 67q0 41 27 67.5t67 26.5q41 0 67.5 -26.5t26.5 -67.5q0 -40 -26.5 -67t-67.5 -27q-40 0 -67 27z" />
    <glyph glyph-name="ellipsis" unicode="&#x2026;" horiz-adv-x="860" 
d="M86 14q-22 22 -22 54t22 54t54 22t54 -22t22 -54t-22 -54t-54 -22t-54 22zM376 14q-22 22 -22 54t22 54t54 22t54 -22t22 -54t-22 -54t-54 -22t-54 22zM666 14q-22 22 -22 54t22 54t54 22t54 -22t22 -54t-22 -54t-54 -22t-54 22z" />
    <glyph glyph-name="perthousand" unicode="&#x2030;" horiz-adv-x="1090" 
d="M68.5 418.5q-43.5 45.5 -43.5 120.5t43.5 120.5t113.5 45.5t113.5 -45.5t43.5 -120.5t-43.5 -120.5t-113.5 -45.5t-113.5 45.5zM199 0h-101l443 700h101zM233.5 471q20.5 25 20.5 68t-20 68t-52 25q-31 0 -51.5 -25t-20.5 -68q0 -42 20.5 -67.5t51.5 -25.5t51.5 25z
M444.5 40.5q-43.5 45.5 -43.5 120.5t43.5 120.5t113.5 45.5t113.5 -45.5t43.5 -120.5t-43.5 -120.5t-113.5 -45.5t-113.5 45.5zM794.5 40.5q-43.5 45.5 -43.5 120.5t43.5 120.5t113.5 45.5t113.5 -45.5t43.5 -120.5t-43.5 -120.5t-113.5 -45.5t-113.5 45.5zM609.5 93
q20.5 25 20.5 68q0 42 -20.5 67.5t-51.5 25.5t-51.5 -25t-20.5 -68t20 -68t52 -25q31 0 51.5 25zM959.5 93q20.5 25 20.5 68q0 42 -20.5 67.5t-51.5 25.5t-51.5 -25t-20.5 -68t20 -68t52 -25q31 0 51.5 25z" />
    <glyph glyph-name="guilsinglleft" unicode="&#x2039;" horiz-adv-x="355" 
d="M311 38h-122l-140 224l140 223h122l-145 -223z" />
    <glyph glyph-name="guilsinglright" unicode="&#x203a;" horiz-adv-x="355" 
d="M166 38h-122l145 224l-145 223h122l140 -223z" />
    <glyph glyph-name="fraction" unicode="&#x2044;" horiz-adv-x="170" 
d="M-86 0h-101l443 700h101z" />
    <glyph glyph-name="uni2070" unicode="&#x2070;" horiz-adv-x="335" 
d="M58 503.5q-40 48.5 -40 131.5t40 131.5t109 48.5q70 0 110 -48.5t40 -131.5t-40 -131.5t-110 -48.5q-69 0 -109 48.5zM215 556q17 28 17 79t-17 79t-48 28q-30 0 -47 -28t-17 -79t17 -79t47 -28q31 0 48 28z" />
    <glyph glyph-name="uni2074" unicode="&#x2074;" horiz-adv-x="315" 
d="M253 607h40v-69h-40v-78h-82v78h-154v73l137 199h99v-203zM176 721h-5l-78 -114h83v114z" />
    <glyph glyph-name="uni2075" unicode="&#x2075;" horiz-adv-x="300" 
d="M238 654q36 -30 36 -83q0 -55 -37.5 -85.5t-104.5 -30.5q-52 0 -108 16v73q54 -17 96 -17q33 0 51 12.5t18 33.5q0 22 -19 33.5t-56 11.5q-36 0 -75 -7l18 199h201v-72h-135l-6 -55q8 1 23 1q62 0 98 -30z" />
    <glyph glyph-name="uni2076" unicode="&#x2076;" horiz-adv-x="310" 
d="M253.5 666.5q36.5 -33.5 36.5 -86.5q0 -55 -38 -90t-97 -35t-97 35t-38 90q0 26 9.5 51.5t32.5 62.5l75 116h91l-75 -110h7q57 0 93.5 -33.5zM192.5 541.5q14.5 14.5 14.5 39.5t-14.5 39.5t-37.5 14.5t-37.5 -14.5t-14.5 -39.5t14.5 -39.5t37.5 -14.5t37.5 14.5z" />
    <glyph glyph-name="uni2077" unicode="&#x2077;" horiz-adv-x="285" 
d="M18 737v73h245v-70l-117 -280h-88l118 277h-158z" />
    <glyph glyph-name="uni2078" unicode="&#x2078;" horiz-adv-x="304" 
d="M266.5 611q15.5 -23 15.5 -52q0 -47 -35.5 -75.5t-94.5 -28.5t-94.5 28.5t-35.5 75.5q0 29 15.5 52t40.5 35q-45 22 -45 74q0 41 33.5 68t85.5 27t85.5 -27t33.5 -68q0 -52 -45 -74q25 -12 40.5 -35zM122 740q-11 -11 -11 -29t11 -29t30 -11t30 11t11 29t-11 29t-30 11
t-30 -11zM188.5 531.5q13.5 12.5 13.5 33.5t-14 34t-36 13t-36 -13t-14 -34t13.5 -33.5t36.5 -12.5t36.5 12.5z" />
    <glyph glyph-name="uni2079" unicode="&#x2079;" horiz-adv-x="310" 
d="M252 780q38 -35 38 -90q0 -26 -9.5 -51.5t-32.5 -62.5l-75 -116h-91l75 110h-7q-57 0 -93.5 33.5t-36.5 86.5q0 55 38 90t97 35t97 -35zM192.5 649.5q14.5 14.5 14.5 39.5t-14.5 39.5t-37.5 14.5t-37.5 -14.5t-14.5 -39.5t14.5 -39.5t37.5 -14.5t37.5 14.5z" />
    <glyph glyph-name="uni2080" unicode="&#x2080;" horiz-adv-x="335" 
d="M58 -66.5q-40 48.5 -40 131.5t40 131.5t109 48.5q70 0 110 -48.5t40 -131.5t-40 -131.5t-110 -48.5q-69 0 -109 48.5zM215 -14q17 28 17 79t-17 79t-48 28q-30 0 -47 -28t-17 -79t17 -79t47 -28q31 0 48 28z" />
    <glyph glyph-name="uni2081" unicode="&#x2081;" horiz-adv-x="300" 
d="M272 -110h-241v73h79v205h-61v72h146v-277h77v-73z" />
    <glyph glyph-name="uni2082" unicode="&#x2082;" horiz-adv-x="295" 
d="M116 -37h152v-73h-245v86l114 92q21 18 32 34t11 33q0 18 -13.5 27.5t-39.5 9.5q-21 0 -47.5 -7.5t-51.5 -20.5v77q63 24 105 24q60 0 95 -28t35 -77q0 -32 -20.5 -62t-58.5 -60z" />
    <glyph glyph-name="uni2083" unicode="&#x2083;" horiz-adv-x="305" 
d="M260 41.5q16 -22.5 16 -51.5q0 -48 -38 -76.5t-104 -28.5q-46 0 -108 18v72q55 -18 105 -18q62 0 62 42q0 18 -17 28.5t-49 10.5h-34v66h34q28 0 43.5 9t15.5 27q0 33 -58 33q-48 0 -89 -14v72q45 14 91 14q62 0 100.5 -26t38.5 -69q0 -25 -14 -44.5t-40 -30.5
q29 -11 45 -33.5z" />
    <glyph glyph-name="uni2084" unicode="&#x2084;" horiz-adv-x="315" 
d="M253 37h40v-69h-40v-78h-82v78h-154v73l137 199h99v-203zM176 151h-5l-78 -114h83v114z" />
    <glyph glyph-name="uni2085" unicode="&#x2085;" horiz-adv-x="300" 
d="M238 84q36 -30 36 -83q0 -55 -37.5 -85.5t-104.5 -30.5q-52 0 -108 16v73q54 -17 96 -17q33 0 51 12.5t18 33.5q0 22 -19 33.5t-56 11.5q-36 0 -75 -7l18 199h201v-72h-135l-6 -55q8 1 23 1q62 0 98 -30z" />
    <glyph glyph-name="uni2086" unicode="&#x2086;" horiz-adv-x="310" 
d="M253.5 96.5q36.5 -33.5 36.5 -86.5q0 -55 -38 -90t-97 -35t-97 35t-38 90q0 26 9.5 51.5t32.5 62.5l75 116h91l-75 -110h7q57 0 93.5 -33.5zM192.5 -28.5q14.5 14.5 14.5 39.5t-14.5 39.5t-37.5 14.5t-37.5 -14.5t-14.5 -39.5t14.5 -39.5t37.5 -14.5t37.5 14.5z" />
    <glyph glyph-name="uni2087" unicode="&#x2087;" horiz-adv-x="285" 
d="M18 167v73h245v-70l-117 -280h-88l118 277h-158z" />
    <glyph glyph-name="uni2088" unicode="&#x2088;" horiz-adv-x="304" 
d="M266.5 41q15.5 -23 15.5 -52q0 -47 -35.5 -75.5t-94.5 -28.5t-94.5 28.5t-35.5 75.5q0 29 15.5 52t40.5 35q-45 22 -45 74q0 41 33.5 68t85.5 27t85.5 -27t33.5 -68q0 -52 -45 -74q25 -12 40.5 -35zM122 170q-11 -11 -11 -29t11 -29t30 -11t30 11t11 29t-11 29t-30 11
t-30 -11zM188.5 -38.5q13.5 12.5 13.5 33.5t-14 34t-36 13t-36 -13t-14 -34t13.5 -33.5t36.5 -12.5t36.5 12.5z" />
    <glyph glyph-name="uni2089" unicode="&#x2089;" horiz-adv-x="310" 
d="M252 210q38 -35 38 -90q0 -26 -9.5 -51.5t-32.5 -62.5l-75 -116h-91l75 110h-7q-57 0 -93.5 33.5t-36.5 86.5q0 55 38 90t97 35t97 -35zM192.5 79.5q14.5 14.5 14.5 39.5t-14.5 39.5t-37.5 14.5t-37.5 -14.5t-14.5 -39.5t14.5 -39.5t37.5 -14.5t37.5 14.5z" />
    <glyph glyph-name="uni20A9" unicode="&#x20a9;" horiz-adv-x="975" 
d="M936 463v-85h-101l-19 -85h120v-84h-139l-46 -209h-150l-110 524h-7l-110 -524h-150l-46 209h-139v84h120l-19 85h-101v85h82l-52 237h113l119 -586h8l121 586h119l121 -586h7l120 586h109l-52 -237h82z" />
    <glyph glyph-name="Euro" unicode="&#x20ac;" horiz-adv-x="640" 
d="M527 101.5q41 7.5 70 19.5v-109q-61 -25 -153 -25q-136 0 -224 65.5t-117 184.5h-94l21 77h62q-1 12 -1 36t1 36h-83l20 77h76q30 117 119 183.5t221 66.5q89 0 147 -25v-108q-29 12 -68 19t-76 7q-79 0 -135 -37.5t-81 -105.5h282l-20 -77h-279q-2 -24 -2 -36t2 -36h259
l-20 -77h-224q25 -69 81 -106t137 -37q38 0 79 7.5z" />
    <glyph glyph-name="uni20B4" unicode="&#x20b4;" 
d="M550 460v-77h-510v77h340q18 23 18 56q0 92 -128 92q-49 0 -101.5 -13t-93.5 -36v110q42 19 96.5 31.5t105.5 12.5q113 0 175.5 -48.5t62.5 -130.5q0 -47 -24 -74h59zM40 240v77h510v-77h-340q-18 -22 -18 -56q0 -92 128 -92q49 0 101.5 13t93.5 36v-110
q-42 -19 -96.5 -31.5t-105.5 -12.5q-113 0 -175.5 48.5t-62.5 130.5q0 47 24 74h-59z" />
    <glyph glyph-name="uni20B8" unicode="&#x20b8;" horiz-adv-x="570" 
d="M537 615h-504v85h504v-85zM344 0h-118v445h-193v103h504v-103h-193v-445z" />
    <glyph glyph-name="uni20B9" unicode="&#x20b9;" horiz-adv-x="560" 
d="M523 700v-87h-125q43 -34 54 -92h71v-80h-70q-14 -82 -78 -130t-162 -48h-14l277 -263h-149l-272 263v94h149q52 0 86 22t45 62h-279v80h279q-11 40 -45 62.5t-86 22.5h-149v94h468z" />
    <glyph glyph-name="uni20BA" unicode="&#x20ba;" horiz-adv-x="605" 
d="M571 297q0 -138 -83.5 -217.5t-239.5 -79.5h-137v235l-86 -36v82l86 36v86l-86 -36v81l86 36v216h116v-168l127 52v-81l-127 -52v-86l127 52v-81l-127 -53v-178q119 0 173.5 46.5t54.5 145.5h116z" />
    <glyph glyph-name="uni20BD" unicode="&#x20bd;" horiz-adv-x="605" 
d="M228 274v-63h158v-83h-158v-128h-117v128h-86v83h86v63h-86v94h86v332h214q74 0 129.5 -26.5t86 -75t30.5 -112.5t-30.5 -112t-86 -74t-129.5 -26h-97zM227 603v-235h95q63 0 97.5 30.5t34.5 86.5q0 57 -34.5 87.5t-97.5 30.5h-95z" />
    <glyph glyph-name="uni20BF" unicode="&#x20bf;" horiz-adv-x="620" 
d="M536.5 82.5q-36.5 -48.5 -102.5 -68.5v-119h-83v105h-13h-80v-105h-82v105h-90v700h90v105h82v-105h60q22 0 33 -1v106h82v-125q53 -21 82 -62t29 -96q0 -51 -24.5 -88.5t-69.5 -58.5q58 -23 90.5 -68.5t32.5 -107.5q0 -68 -36.5 -116.5zM397 578.5q-31 24.5 -87 24.5
h-108v-191h108q56 0 87 25.5t31 71.5q0 45 -31 69.5zM325 97q62 0 95.5 29t33.5 82q0 54 -33.5 83.5t-95.5 29.5h-123v-224h123z" />
    <glyph glyph-name="uni2116" unicode="&#x2116;" horiz-adv-x="1125" 
d="M194 0h-108v700h167l282 -570h8v570h108v-700h-167l-282 570h-8v-570zM779.5 195q-49.5 54 -49.5 144t49.5 144t130.5 54t130.5 -54t49.5 -144t-49.5 -144t-130.5 -54t-130.5 54zM973 251.5q23 31.5 23 87.5t-22.5 87.5t-63.5 31.5t-63.5 -31.5t-22.5 -87.5t23 -87.5
t63 -31.5t63 31.5zM1070 0h-320v79h320v-79z" />
    <glyph glyph-name="trademark" unicode="&#x2122;" horiz-adv-x="770" 
d="M199 360h-84v266h-98v74h280v-74h-98v-266zM417 360h-78v340h114l74 -265h6l74 265h116v-340h-78v216h-6l-62 -216h-92l-62 216h-6v-216z" />
    <glyph glyph-name="uni2150" unicode="&#x2150;" horiz-adv-x="775" 
d="M272 350h-241v73h79v205h-61v72h146v-277h77v-73zM214 0h-101l443 700h101zM508 277v73h245v-70l-117 -280h-88l118 277h-158z" />
    <glyph glyph-name="uni2151" unicode="&#x2151;" horiz-adv-x="780" 
d="M272 350h-241v73h79v205h-61v72h146v-277h77v-73zM214 0h-101l443 700h101zM722 320q38 -35 38 -90q0 -26 -9.5 -51.5t-32.5 -62.5l-75 -116h-91l75 110h-7q-57 0 -93.5 33.5t-36.5 86.5q0 55 38 90t97 35t97 -35zM662.5 189.5q14.5 14.5 14.5 39.5t-14.5 39.5
t-37.5 14.5t-37.5 -14.5t-14.5 -39.5t14.5 -39.5t37.5 -14.5t37.5 14.5z" />
    <glyph glyph-name="uni2153" unicode="&#x2153;" horiz-adv-x="775" 
d="M272 350h-241v73h79v205h-61v72h146v-277h77v-73zM214 0h-101l443 700h101zM730 151.5q16 -22.5 16 -51.5q0 -48 -38 -76.5t-104 -28.5q-46 0 -108 18v72q55 -18 105 -18q62 0 62 42q0 18 -17 28.5t-49 10.5h-34v66h34q28 0 43.5 9t15.5 27q0 33 -58 33q-48 0 -89 -14v72
q45 14 91 14q62 0 100.5 -26t38.5 -69q0 -25 -14 -44.5t-40 -30.5q29 -11 45 -33.5z" />
    <glyph glyph-name="uni2154" unicode="&#x2154;" horiz-adv-x="770" 
d="M116 423h152v-73h-245v86l114 92q21 18 32 34t11 33q0 18 -13.5 27.5t-39.5 9.5q-21 0 -47.5 -7.5t-51.5 -20.5v77q63 24 105 24q60 0 95 -28t35 -77q0 -32 -20.5 -62t-58.5 -60zM209 0h-101l443 700h101zM725 151.5q16 -22.5 16 -51.5q0 -48 -38 -76.5t-104 -28.5
q-46 0 -108 18v72q55 -18 105 -18q62 0 62 42q0 18 -17 28.5t-49 10.5h-34v66h34q28 0 43.5 9t15.5 27q0 33 -58 33q-48 0 -89 -14v72q45 14 91 14q62 0 100.5 -26t38.5 -69q0 -25 -14 -44.5t-40 -30.5q29 -11 45 -33.5z" />
    <glyph glyph-name="uni2155" unicode="&#x2155;" horiz-adv-x="770" 
d="M272 350h-241v73h79v205h-61v72h146v-277h77v-73zM214 0h-101l443 700h101zM708 194q36 -30 36 -83q0 -55 -37.5 -85.5t-104.5 -30.5q-52 0 -108 16v73q54 -17 96 -17q33 0 51 12.5t18 33.5q0 22 -19 33.5t-56 11.5q-36 0 -75 -7l18 199h201v-72h-135l-6 -55q8 1 23 1
q62 0 98 -30z" />
    <glyph glyph-name="uni2156" unicode="&#x2156;" horiz-adv-x="765" 
d="M116 423h152v-73h-245v86l114 92q21 18 32 34t11 33q0 18 -13.5 27.5t-39.5 9.5q-21 0 -47.5 -7.5t-51.5 -20.5v77q63 24 105 24q60 0 95 -28t35 -77q0 -32 -20.5 -62t-58.5 -60zM209 0h-101l443 700h101zM703 194q36 -30 36 -83q0 -55 -37.5 -85.5t-104.5 -30.5
q-52 0 -108 16v73q54 -17 96 -17q33 0 51 12.5t18 33.5q0 22 -19 33.5t-56 11.5q-36 0 -75 -7l18 199h201v-72h-135l-6 -55q8 1 23 1q62 0 98 -30z" />
    <glyph glyph-name="uni2157" unicode="&#x2157;" horiz-adv-x="775" 
d="M260 501.5q16 -22.5 16 -51.5q0 -48 -38 -76.5t-104 -28.5q-46 0 -108 18v72q55 -18 105 -18q62 0 62 42q0 18 -17 28.5t-49 10.5h-34v66h34q28 0 43.5 9t15.5 27q0 33 -58 33q-48 0 -89 -14v72q45 14 91 14q62 0 100.5 -26t38.5 -69q0 -25 -14 -44.5t-40 -30.5
q29 -11 45 -33.5zM219 0h-101l443 700h101zM713 194q36 -30 36 -83q0 -55 -37.5 -85.5t-104.5 -30.5q-52 0 -108 16v73q54 -17 96 -17q33 0 51 12.5t18 33.5q0 22 -19 33.5t-56 11.5q-36 0 -75 -7l18 199h201v-72h-135l-6 -55q8 1 23 1q62 0 98 -30z" />
    <glyph glyph-name="uni2158" unicode="&#x2158;" horiz-adv-x="795" 
d="M253 497h40v-69h-40v-78h-82v78h-154v73l137 199h99v-203zM176 611h-5l-78 -114h83v114zM239 0h-101l443 700h101zM733 194q36 -30 36 -83q0 -55 -37.5 -85.5t-104.5 -30.5q-52 0 -108 16v73q54 -17 96 -17q33 0 51 12.5t18 33.5q0 22 -19 33.5t-56 11.5q-36 0 -75 -7
l18 199h201v-72h-135l-6 -55q8 1 23 1q62 0 98 -30z" />
    <glyph glyph-name="uni2159" unicode="&#x2159;" horiz-adv-x="760" 
d="M272 350h-241v73h79v205h-61v72h146v-277h77v-73zM214 0h-101l443 700h101zM703.5 206.5q36.5 -33.5 36.5 -86.5q0 -55 -38 -90t-97 -35t-97 35t-38 90q0 26 9.5 51.5t32.5 62.5l75 116h91l-75 -110h7q57 0 93.5 -33.5zM642.5 81.5q14.5 14.5 14.5 39.5t-14.5 39.5
t-37.5 14.5t-37.5 -14.5t-14.5 -39.5t14.5 -39.5t37.5 -14.5t37.5 14.5z" />
    <glyph glyph-name="uni215A" unicode="&#x215a;" horiz-adv-x="760" 
d="M238 544q36 -30 36 -83q0 -55 -37.5 -85.5t-104.5 -30.5q-52 0 -108 16v73q54 -17 96 -17q33 0 51 12.5t18 33.5q0 22 -19 33.5t-56 11.5q-36 0 -75 -7l18 199h201v-72h-135l-6 -55q8 1 23 1q62 0 98 -30zM214 0h-101l443 700h101zM703.5 206.5q36.5 -33.5 36.5 -86.5
q0 -55 -38 -90t-97 -35t-97 35t-38 90q0 26 9.5 51.5t32.5 62.5l75 116h91l-75 -110h7q57 0 93.5 -33.5zM642.5 81.5q14.5 14.5 14.5 39.5t-14.5 39.5t-37.5 14.5t-37.5 -14.5t-14.5 -39.5t14.5 -39.5t37.5 -14.5t37.5 14.5z" />
    <glyph glyph-name="oneeighth" unicode="&#x215b;" horiz-adv-x="774" 
d="M272 350h-241v73h79v205h-61v72h146v-277h77v-73zM214 0h-101l443 700h101zM736.5 151q15.5 -23 15.5 -52q0 -47 -35.5 -75.5t-94.5 -28.5t-94.5 28.5t-35.5 75.5q0 29 15.5 52t40.5 35q-45 22 -45 74q0 41 33.5 68t85.5 27t85.5 -27t33.5 -68q0 -52 -45 -74
q25 -12 40.5 -35zM592 280q-11 -11 -11 -29t11 -29t30 -11t30 11t11 29t-11 29t-30 11t-30 -11zM658.5 71.5q13.5 12.5 13.5 33.5t-14 34t-36 13t-36 -13t-14 -34t13.5 -33.5t36.5 -12.5t36.5 12.5z" />
    <glyph glyph-name="threeeighths" unicode="&#x215c;" horiz-adv-x="779" 
d="M260 501.5q16 -22.5 16 -51.5q0 -48 -38 -76.5t-104 -28.5q-46 0 -108 18v72q55 -18 105 -18q62 0 62 42q0 18 -17 28.5t-49 10.5h-34v66h34q28 0 43.5 9t15.5 27q0 33 -58 33q-48 0 -89 -14v72q45 14 91 14q62 0 100.5 -26t38.5 -69q0 -25 -14 -44.5t-40 -30.5
q29 -11 45 -33.5zM219 0h-101l443 700h101zM741.5 151q15.5 -23 15.5 -52q0 -47 -35.5 -75.5t-94.5 -28.5t-94.5 28.5t-35.5 75.5q0 29 15.5 52t40.5 35q-45 22 -45 74q0 41 33.5 68t85.5 27t85.5 -27t33.5 -68q0 -52 -45 -74q25 -12 40.5 -35zM597 280q-11 -11 -11 -29
t11 -29t30 -11t30 11t11 29t-11 29t-30 11t-30 -11zM663.5 71.5q13.5 12.5 13.5 33.5t-14 34t-36 13t-36 -13t-14 -34t13.5 -33.5t36.5 -12.5t36.5 12.5z" />
    <glyph glyph-name="fiveeighths" unicode="&#x215d;" horiz-adv-x="774" 
d="M238 544q36 -30 36 -83q0 -55 -37.5 -85.5t-104.5 -30.5q-52 0 -108 16v73q54 -17 96 -17q33 0 51 12.5t18 33.5q0 22 -19 33.5t-56 11.5q-36 0 -75 -7l18 199h201v-72h-135l-6 -55q8 1 23 1q62 0 98 -30zM214 0h-101l443 700h101zM736.5 151q15.5 -23 15.5 -52
q0 -47 -35.5 -75.5t-94.5 -28.5t-94.5 28.5t-35.5 75.5q0 29 15.5 52t40.5 35q-45 22 -45 74q0 41 33.5 68t85.5 27t85.5 -27t33.5 -68q0 -52 -45 -74q25 -12 40.5 -35zM592 280q-11 -11 -11 -29t11 -29t30 -11t30 11t11 29t-11 29t-30 11t-30 -11zM658.5 71.5
q13.5 12.5 13.5 33.5t-14 34t-36 13t-36 -13t-14 -34t13.5 -33.5t36.5 -12.5t36.5 12.5z" />
    <glyph glyph-name="seveneighths" unicode="&#x215e;" horiz-adv-x="729" 
d="M18 627v73h245v-70l-117 -280h-88l118 277h-158zM169 0h-101l443 700h101zM691.5 151q15.5 -23 15.5 -52q0 -47 -35.5 -75.5t-94.5 -28.5t-94.5 28.5t-35.5 75.5q0 29 15.5 52t40.5 35q-45 22 -45 74q0 41 33.5 68t85.5 27t85.5 -27t33.5 -68q0 -52 -45 -74
q25 -12 40.5 -35zM547 280q-11 -11 -11 -29t11 -29t30 -11t30 11t11 29t-11 29t-30 11t-30 -11zM613.5 71.5q13.5 12.5 13.5 33.5t-14 34t-36 13t-36 -13t-14 -34t13.5 -33.5t36.5 -12.5t36.5 12.5z" />
    <glyph glyph-name="uni215F" unicode="&#x215f;" horiz-adv-x="470" 
d="M272 350h-241v73h79v205h-61v72h146v-277h77v-73zM214 0h-101l443 700h101z" />
    <glyph glyph-name="arrowleft" unicode="&#x2190;" horiz-adv-x="750" 
d="M212 395h463v-90h-463l142 -142l-56 -56l-243 243l243 243l56 -56z" />
    <glyph glyph-name="arrowup" unicode="&#x2191;" horiz-adv-x="750" 
d="M375 700l259 -259l-56 -56l-158 159v-544h-90v544l-158 -159l-56 56z" />
    <glyph glyph-name="arrowright" unicode="&#x2192;" horiz-adv-x="750" 
d="M396 537l56 56l243 -243l-243 -243l-56 56l142 142h-463v90h463z" />
    <glyph glyph-name="arrowdown" unicode="&#x2193;" horiz-adv-x="750" 
d="M420 156l158 159l56 -56l-259 -259l-259 259l56 56l158 -159v544h90v-544z" />
    <glyph glyph-name="arrowboth" unicode="&#x2194;" horiz-adv-x="750" 
d="M471 547l62 46l177 -243l-177 -243l-62 46l110 152h-412l110 -152l-62 -46l-177 243l177 243l62 -46l-110 -152h412z" />
    <glyph glyph-name="arrowupdn" unicode="&#x2195;" horiz-adv-x="750" 
d="M420 571v-442l157 114l46 -62l-248 -181l-248 181l46 62l157 -114v442l-157 -114l-46 62l248 181l248 -181l-46 -62z" />
    <glyph glyph-name="uni2196" unicode="&#x2196;" horiz-adv-x="750" 
d="M283 526l367 -366l-65 -65l-366 367v-215h-79v358h358v-79h-215z" />
    <glyph glyph-name="uni2197" unicode="&#x2197;" horiz-adv-x="750" 
d="M252 526v79h358v-358h-79v215l-366 -367l-65 65l367 366h-215z" />
    <glyph glyph-name="uni2198" unicode="&#x2198;" horiz-adv-x="750" 
d="M531 238v215h79v-358h-358v79h215l-367 366l65 65z" />
    <glyph glyph-name="uni2199" unicode="&#x2199;" horiz-adv-x="750" 
d="M585 605l65 -65l-367 -366h215v-79h-358v358h79v-215z" />
    <glyph glyph-name="minus" unicode="&#x2212;" 
d="M527 302h-464v96h464v-96z" />
    <glyph glyph-name="approxequal" unicode="&#x2248;" 
d="M63 391q0 62 34.5 104.5t97.5 42.5q34 0 59.5 -10t58.5 -29q25 -15 41 -22t35 -7q27 0 41 17.5t14 50.5h83v-13q0 -62 -34.5 -104.5t-97.5 -42.5q-34 0 -59.5 10t-58.5 29q-25 15 -41 22t-35 7q-27 0 -41 -17.5t-14 -50.5h-83v13zM63 175q0 62 34.5 104.5t97.5 42.5
q34 0 59.5 -10t58.5 -29q25 -15 41 -22t35 -7q27 0 41 17.5t14 50.5h83v-13q0 -62 -34.5 -104.5t-97.5 -42.5q-34 0 -59.5 10t-58.5 29q-25 15 -41 22t-35 7q-27 0 -41 -17.5t-14 -50.5h-83v13z" />
    <glyph glyph-name="notequal" unicode="&#x2260;" 
d="M517 501v-93h-160l-43 -116h203v-93h-238l-40 -109h-81l40 109h-125v93h160l43 116h-203v93h238l40 109h81l-40 -109h125z" />
    <glyph glyph-name="lessequal" unicode="&#x2264;" 
d="M83 425l424 175v-101l-287 -114l287 -114v-100l-424 174v80zM507 32h-424v90h424v-90z" />
    <glyph glyph-name="greaterequal" unicode="&#x2265;" 
d="M83 499v101l424 -175v-80l-424 -174v100l287 114zM507 32h-424v90h424v-90z" />
    <glyph glyph-name="uni2460" unicode="&#x2460;" horiz-adv-x="780" 
d="M202 32.5q-81 45.5 -125 128t-44 189.5t44 189.5t125 128t188 45.5t187.5 -46t125 -128t44.5 -189t-44 -189.5t-125 -128t-188 -45.5t-188 45.5zM542 87.5q65 36.5 100.5 104.5t35.5 158t-35.5 157.5t-100.5 104.5t-152 37t-152 -36.5t-100.5 -104.5t-35.5 -158
t35.5 -158t100.5 -104.5t152 -36.5t152 36.5zM520 175h-241v73h79v205h-62v72h147v-277h77v-73z" />
    <glyph glyph-name="uni2461" unicode="&#x2461;" horiz-adv-x="780" 
d="M577.5 667q80.5 -46 125 -128t44.5 -189t-44 -189.5t-125 -128t-188 -45.5t-188 45.5t-125 128t-44 189.5t44 189.5t125 128t188 45.5t187.5 -46zM542 87.5q65 36.5 100.5 104.5t35.5 158t-35.5 157.5t-100.5 104.5t-152 37t-152 -36.5t-100.5 -104.5t-35.5 -158
t35.5 -158t100.5 -104.5t152 -36.5t152 36.5zM368 248h152v-73h-244v86l113 92q21 18 32 34t11 33q0 18 -13.5 27.5t-39.5 9.5q-21 0 -47.5 -8t-50.5 -20v77q61 24 104 24q60 0 95 -28t35 -77q0 -32 -20.5 -62t-58.5 -60z" />
    <glyph glyph-name="uni2462" unicode="&#x2462;" horiz-adv-x="780" 
d="M577.5 667q80.5 -46 125 -128t44.5 -189t-44 -189.5t-125 -128t-188 -45.5t-188 45.5t-125 128t-44 189.5t44 189.5t125 128t188 45.5t187.5 -46zM542 87.5q65 36.5 100.5 104.5t35.5 158t-35.5 157.5t-100.5 104.5t-152 37t-152 -36.5t-100.5 -104.5t-35.5 -158
t35.5 -158t100.5 -104.5t152 -36.5t152 36.5zM510 326.5q16 -22.5 16 -51.5q0 -48 -38 -76.5t-104 -28.5q-46 0 -108 18v72q55 -18 105 -18q62 0 62 42q0 18 -17 28.5t-49 10.5h-34v66h34q28 0 43.5 9t15.5 27q0 33 -58 33q-48 0 -89 -14v72q45 14 91 14q62 0 100.5 -26
t38.5 -69q0 -25 -14 -44.5t-40 -30.5q29 -11 45 -33.5z" />
    <glyph glyph-name="uni2463" unicode="&#x2463;" horiz-adv-x="780" 
d="M577.5 667q80.5 -46 125 -128t44.5 -189t-44 -189.5t-125 -128t-188 -45.5t-188 45.5t-125 128t-44 189.5t44 189.5t125 128t188 45.5t187.5 -46zM542 87.5q65 36.5 100.5 104.5t35.5 158t-35.5 157.5t-100.5 104.5t-152 37t-152 -36.5t-100.5 -104.5t-35.5 -158
t35.5 -158t100.5 -104.5t152 -36.5t152 36.5zM372 525h99v-203h40v-69h-40v-78h-82v78h-154v73zM394 436h-5l-78 -114h83v114z" />
    <glyph glyph-name="uni2464" unicode="&#x2464;" horiz-adv-x="780" 
d="M577.5 667q80.5 -46 125 -128t44.5 -189t-44 -189.5t-125 -128t-188 -45.5t-188 45.5t-125 128t-44 189.5t44 189.5t125 128t188 45.5t187.5 -46zM542 87.5q65 36.5 100.5 104.5t35.5 158t-35.5 157.5t-100.5 104.5t-152 37t-152 -36.5t-100.5 -104.5t-35.5 -158
t35.5 -158t100.5 -104.5t152 -36.5t152 36.5zM482 369q36 -30 36 -83q0 -55 -37.5 -85.5t-104.5 -30.5q-52 0 -108 16v73q53 -17 95 -17q33 0 51.5 12.5t18.5 33.5q0 22 -19 33.5t-56 11.5q-36 0 -76 -7l18 199h201v-72h-135l-6 -55q8 1 23 1q63 0 99 -30z" />
    <glyph glyph-name="uni2465" unicode="&#x2465;" horiz-adv-x="780" 
d="M577.5 667q80.5 -46 125 -128t44.5 -189t-44 -189.5t-125 -128t-188 -45.5t-188 45.5t-125 128t-44 189.5t44 189.5t125 128t188 45.5t187.5 -46zM542 87.5q65 36.5 100.5 104.5t35.5 158t-35.5 157.5t-100.5 104.5t-152 37t-152 -36.5t-100.5 -104.5t-35.5 -158
t35.5 -158t100.5 -104.5t152 -36.5t152 36.5zM488.5 381.5q36.5 -33.5 36.5 -86.5q0 -55 -38 -90t-97 -35t-97 35t-38 90q0 26 9.5 51.5t32.5 62.5l75 116h91l-75 -110h7q57 0 93.5 -33.5zM427.5 256.5q14.5 14.5 14.5 39.5t-14.5 39.5t-37.5 14.5t-37.5 -14.5t-14.5 -39.5
t14.5 -39.5t37.5 -14.5t37.5 14.5z" />
    <glyph glyph-name="uni2466" unicode="&#x2466;" horiz-adv-x="780" 
d="M577.5 667q80.5 -46 125 -128t44.5 -189t-44 -189.5t-125 -128t-188 -45.5t-188 45.5t-125 128t-44 189.5t44 189.5t125 128t188 45.5t187.5 -46zM542 87.5q65 36.5 100.5 104.5t35.5 158t-35.5 157.5t-100.5 104.5t-152 37t-152 -36.5t-100.5 -104.5t-35.5 -158
t35.5 -158t100.5 -104.5t152 -36.5t152 36.5zM427 452h-157v73h244v-70l-116 -280h-89z" />
    <glyph glyph-name="uni2467" unicode="&#x2467;" horiz-adv-x="780" 
d="M577.5 667q80.5 -46 125 -128t44.5 -189t-44 -189.5t-125 -128t-188 -45.5t-188 45.5t-125 128t-44 189.5t44 189.5t125 128t188 45.5t187.5 -46zM542 87.5q65 36.5 100.5 104.5t35.5 158t-35.5 157.5t-100.5 104.5t-152 37t-152 -36.5t-100.5 -104.5t-35.5 -158
t35.5 -158t100.5 -104.5t152 -36.5t152 36.5zM504.5 326q15.5 -23 15.5 -52q0 -47 -35.5 -75.5t-94.5 -28.5t-94.5 28.5t-35.5 75.5q0 29 15.5 52t40.5 35q-45 22 -45 74q0 41 33.5 68t85.5 27t85.5 -27t33.5 -68q0 -52 -45 -74q25 -12 40.5 -35zM360 455q-11 -11 -11 -29
t11 -29t30 -11t30 11t11 29t-11 29t-30 11t-30 -11zM426.5 246.5q13.5 12.5 13.5 33.5t-14 34t-36 13t-36 -13t-14 -34t13.5 -33.5t36.5 -12.5t36.5 12.5z" />
    <glyph glyph-name="uni2468" unicode="&#x2468;" horiz-adv-x="780" 
d="M577.5 667q80.5 -46 125 -128t44.5 -189t-44 -189.5t-125 -128t-188 -45.5t-188 45.5t-125 128t-44 189.5t44 189.5t125 128t188 45.5t187.5 -46zM542 87.5q65 36.5 100.5 104.5t35.5 158t-35.5 157.5t-100.5 104.5t-152 37t-152 -36.5t-100.5 -104.5t-35.5 -158
t35.5 -158t100.5 -104.5t152 -36.5t152 36.5zM487 495q38 -35 38 -90q0 -26 -9.5 -51.5t-32.5 -62.5l-75 -116h-91l75 110h-7q-57 0 -93.5 33.5t-36.5 86.5q0 55 38 90t97 35t97 -35zM427.5 364.5q14.5 14.5 14.5 39.5t-14.5 39.5t-37.5 14.5t-37.5 -14.5t-14.5 -39.5
t14.5 -39.5t37.5 -14.5t37.5 14.5z" />
    <glyph glyph-name="uni24EA" unicode="&#x24ea;" horiz-adv-x="780" 
d="M202 32.5q-81 45.5 -125 128t-44 189.5q0 108 44 190t125 127.5t188 45.5t187.5 -46t125 -128t44.5 -189t-44 -189.5t-125 -128t-188 -45.5t-188 45.5zM542 87.5q65 36.5 100.5 104.5t35.5 158t-35.5 157.5t-100.5 104.5t-152 37t-152 -36.5t-100.5 -104.5t-35.5 -158
t35.5 -158t100.5 -104.5t152 -36.5t152 36.5zM281 218.5q-40 48.5 -40 131.5t40 131.5t108 48.5q70 0 110 -48.5t40 -131.5t-40 -131.5t-110 -48.5q-68 0 -108 48.5zM437 271q17 28 17 79t-17 79t-48 28q-30 0 -46.5 -28t-16.5 -79t16.5 -79t46.5 -28q31 0 48 28z" />
    <glyph glyph-name="uni24FF" unicode="&#x24ff;" horiz-adv-x="780" 
d="M202 32.5q-81 45.5 -125 128t-44 189.5t44 189.5t125 128t188 45.5t187.5 -46t125 -128t44.5 -189t-44 -189.5t-125 -128t-188 -45.5t-188 45.5zM499 218.5q40 48.5 40 131.5t-40 131.5t-110 48.5q-68 0 -108 -48.5t-40 -131.5t40 -131.5t108 -48.5q70 0 110 48.5z
M342.5 271q-16.5 28 -16.5 79t16.5 79t46.5 28q31 0 48 -28t17 -79t-17 -79t-48 -28q-30 0 -46.5 28z" />
    <glyph glyph-name="uni2776" unicode="&#x2776;" horiz-adv-x="780" 
d="M202 32.5q-81 45.5 -125 128t-44 189.5t44 189.5t125 128t188 45.5t187.5 -46t125 -128t44.5 -189t-44 -189.5t-125 -128t-188 -45.5t-188 45.5zM279 248v-73h241v73h-77v277h-147v-72h62v-205h-79z" />
    <glyph glyph-name="uni2777" unicode="&#x2777;" horiz-adv-x="780" 
d="M202 32.5q-81 45.5 -125 128t-44 189.5t44 189.5t125 128t188 45.5t187.5 -46t125 -128t44.5 -189t-44 -189.5t-125 -128t-188 -45.5t-188 45.5zM276 175h244v73h-152l68 55q38 30 58.5 60t20.5 62q0 49 -35 77t-95 28q-43 0 -104 -24v-77q24 12 50.5 20t47.5 8
q26 0 39.5 -9.5t13.5 -27.5q0 -17 -11 -33t-32 -34l-113 -92v-86z" />
    <glyph glyph-name="uni2778" unicode="&#x2778;" horiz-adv-x="780" 
d="M202 32.5q-81 45.5 -125 128t-44 189.5t44 189.5t125 128t188 45.5t187.5 -46t125 -128t44.5 -189t-44 -189.5t-125 -128t-188 -45.5t-188 45.5zM488 198.5q38 28.5 38 76.5q0 29 -16 51.5t-45 33.5q26 11 40 30.5t14 44.5q0 43 -38.5 69t-100.5 26q-46 0 -91 -14v-72
q41 14 89 14q58 0 58 -33q0 -18 -15.5 -27t-43.5 -9h-34v-66h34q32 0 49 -10.5t17 -28.5q0 -42 -62 -42q-50 0 -105 18v-72q62 -18 108 -18q66 0 104 28.5z" />
    <glyph glyph-name="uni2779" unicode="&#x2779;" horiz-adv-x="780" 
d="M202 32.5q-81 45.5 -125 128t-44 189.5t44 189.5t125 128t188 45.5t187.5 -46t125 -128t44.5 -189t-44 -189.5t-125 -128t-188 -45.5t-188 45.5zM389 253v-78h82v78h40v69h-40v203h-99l-137 -199v-73h154zM394 322h-83l78 114h5v-114z" />
    <glyph glyph-name="uni277A" unicode="&#x277a;" horiz-adv-x="780" 
d="M202 32.5q-81 45.5 -125 128t-44 189.5t44 189.5t125 128t188 45.5t187.5 -46t125 -128t44.5 -189t-44 -189.5t-125 -128t-188 -45.5t-188 45.5zM480.5 200.5q37.5 30.5 37.5 85.5q0 53 -36 83t-99 30q-15 0 -22 -1l5 55h135v72h-201l-18 -199q40 7 76 7q37 0 56 -11.5
t19 -33.5q0 -21 -18.5 -33.5t-51.5 -12.5q-42 0 -95 17v-73q56 -16 108 -16q67 0 104.5 30.5z" />
    <glyph glyph-name="uni277B" unicode="&#x277b;" horiz-adv-x="780" 
d="M202 32.5q-81 45.5 -125 128t-44 189.5t44 189.5t125 128t188 45.5t187.5 -46t125 -128t44.5 -189t-44 -189.5t-125 -128t-188 -45.5t-188 45.5zM487 205q38 35 38 90q0 52 -36.5 86t-92.5 34h-9l76 110h-91l-75 -116q-23 -37 -32.5 -62.5t-9.5 -51.5q0 -55 38 -90
t97 -35t97 35zM352.5 256.5q-14.5 14.5 -14.5 39.5t14.5 39.5t37.5 14.5t37.5 -14.5t14.5 -39.5t-14.5 -39.5t-37.5 -14.5t-37.5 14.5z" />
    <glyph glyph-name="uni277C" unicode="&#x277c;" horiz-adv-x="780" 
d="M202 32.5q-81 45.5 -125 128t-44 189.5t44 189.5t125 128t188 45.5t187.5 -46t125 -128t44.5 -189t-44 -189.5t-125 -128t-188 -45.5t-188 45.5zM428 452l-119 -277h89l116 280v70h-244v-73h158z" />
    <glyph glyph-name="uni277D" unicode="&#x277d;" horiz-adv-x="780" 
d="M202 32.5q-81 45.5 -125 128t-44 189.5t44 189.5t125 128t188 45.5t187.5 -46t125 -128t44.5 -189t-44 -189.5t-125 -128t-188 -45.5t-188 45.5zM484.5 198.5q35.5 28.5 35.5 75.5q0 30 -15 53t-41 34q45 23 45 74q0 41 -33.5 68t-85.5 27t-85.5 -27t-33.5 -68
q0 -51 45 -74q-26 -11 -41 -34t-15 -53q0 -47 35.5 -75.5t94.5 -28.5t94.5 28.5zM360 397q-11 11 -11 29t11 29t30 11t30 -11t11 -29t-11 -29t-30 -11t-30 11zM353.5 246.5q-13.5 12.5 -13.5 33.5t14 34t36 13t36 -13t14 -34t-13.5 -33.5t-36.5 -12.5t-36.5 12.5z" />
    <glyph glyph-name="uni277E" unicode="&#x277e;" horiz-adv-x="780" 
d="M202 32.5q-81 45.5 -125 128t-44 189.5t44 189.5t125 128t188 45.5t187.5 -46t125 -128t44.5 -189t-44 -189.5t-125 -128t-188 -45.5t-188 45.5zM317 175h91l75 116q23 37 32.5 62.5t9.5 51.5q0 55 -38 90t-97 35t-97 -35t-38 -90q0 -52 36.5 -86t92.5 -34h9z
M352.5 364.5q-14.5 14.5 -14.5 39.5t14.5 39.5t37.5 14.5t37.5 -14.5t14.5 -39.5t-14.5 -39.5t-37.5 -14.5t-37.5 14.5z" />
    <glyph glyph-name="Iacute_J.loclNLD" horiz-adv-x="980" 
d="M430 0h-385v97h136v506h-136v97h385v-97h-136v-506h136v-97zM268 762h-91l66 128h134zM576 -1q-44 7 -77 17v110q29 -11 71.5 -19t77.5 -8q66 0 100 35.5t34 112.5v356h-234v97h351v-459q0 -123 -62.5 -186t-175.5 -63q-41 0 -85 7zM758 762h-91l66 128h134z" />
    <glyph glyph-name="i.loclTRK" horiz-adv-x="300" 
d="M222 0h-109v430h-100v92h209v-522zM111 604.5q-21 20.5 -21 51.5t21 51.5t51 20.5t51 -20.5t21 -51.5t-21 -51.5t-51 -20.5t-51 20.5z" />
    <glyph glyph-name="iacute_j.loclNLD" horiz-adv-x="630" 
d="M222 0h-109v430h-100v92h209v-522zM194 584h-86l64 148h121zM295 -184v92q34 -8 63 -8q45 0 65 18t20 66v446h-110v92h219v-547q0 -89 -45 -128.5t-131 -39.5q-34 0 -81 9zM524 584h-86l64 148h121z" />
    <glyph glyph-name="a.ss01" horiz-adv-x="580" 
d="M410 522h103v-522h-102l2 73h-7q-25 -39 -66 -62.5t-94 -23.5q-64 0 -112 34t-73.5 96t-25.5 144t27 143.5t77 95.5t116 34q51 0 90 -22.5t63 -63.5zM403 285q0 75 -33.5 116.5t-91.5 41.5q-61 0 -93.5 -46.5t-32.5 -135.5t32.5 -135.5t93.5 -46.5q58 0 91.5 41.5
t33.5 116.5v48z" />
    <glyph glyph-name="aacute.ss01" horiz-adv-x="580" 
d="M410 522h103v-522h-102l2 73h-7q-25 -39 -66 -62.5t-94 -23.5q-64 0 -112 34t-73.5 96t-25.5 144t27 143.5t77 95.5t116 34q51 0 90 -22.5t63 -63.5zM403 285q0 75 -33.5 116.5t-91.5 41.5q-61 0 -93.5 -46.5t-32.5 -135.5t32.5 -135.5t93.5 -46.5q58 0 91.5 41.5
t33.5 116.5v48zM313 584h-86l65 148h122z" />
    <glyph glyph-name="abreve.ss01" horiz-adv-x="580" 
d="M410 522h103v-522h-102l2 73h-7q-25 -39 -66 -62.5t-94 -23.5q-64 0 -112 34t-73.5 96t-25.5 144t27 143.5t77 95.5t116 34q51 0 90 -22.5t63 -63.5zM403 285q0 75 -33.5 116.5t-91.5 41.5q-61 0 -93.5 -46.5t-32.5 -135.5t32.5 -135.5t93.5 -46.5q58 0 91.5 41.5
t33.5 116.5v48zM172.5 622q-40.5 38 -40.5 100h82q0 -30 17 -46.5t50 -16.5t50 16.5t17 46.5h82q0 -62 -40.5 -100t-108.5 -38t-108.5 38z" />
    <glyph glyph-name="acircumflex.ss01" horiz-adv-x="580" 
d="M410 522h103v-522h-102l2 73h-7q-25 -39 -66 -62.5t-94 -23.5q-64 0 -112 34t-73.5 96t-25.5 144t27 143.5t77 95.5t116 34q51 0 90 -22.5t63 -63.5zM403 285q0 75 -33.5 116.5t-91.5 41.5q-61 0 -93.5 -46.5t-32.5 -135.5t32.5 -135.5t93.5 -46.5q58 0 91.5 41.5
t33.5 116.5v48zM215 584h-98l110 148h107l110 -148h-98l-62 87h-7z" />
    <glyph glyph-name="adieresis.ss01" horiz-adv-x="580" 
d="M410 522h103v-522h-102l2 73h-7q-25 -39 -66 -62.5t-94 -23.5q-64 0 -112 34t-73.5 96t-25.5 144t27 143.5t77 95.5t116 34q51 0 90 -22.5t63 -63.5zM403 285q0 75 -33.5 116.5t-91.5 41.5q-61 0 -93.5 -46.5t-32.5 -135.5t32.5 -135.5t93.5 -46.5q58 0 91.5 41.5
t33.5 116.5v48zM134 606.5q-19 19.5 -19 48.5t19 48t47 19t47 -19.5t19 -47.5q0 -29 -19 -48.5t-47 -19.5t-47 19.5zM334 606.5q-19 19.5 -19 48.5q0 28 19 47.5t47 19.5t47 -19.5t19 -47.5q0 -29 -19 -48.5t-47 -19.5t-47 19.5z" />
    <glyph glyph-name="agrave.ss01" horiz-adv-x="580" 
d="M410 522h103v-522h-102l2 73h-7q-25 -39 -66 -62.5t-94 -23.5q-64 0 -112 34t-73.5 96t-25.5 144t27 143.5t77 95.5t116 34q51 0 90 -22.5t63 -63.5zM403 285q0 75 -33.5 116.5t-91.5 41.5q-61 0 -93.5 -46.5t-32.5 -135.5t32.5 -135.5t93.5 -46.5q58 0 91.5 41.5
t33.5 116.5v48zM335 584h-86l-101 148h122z" />
    <glyph glyph-name="amacron.ss01" horiz-adv-x="580" 
d="M410 522h103v-522h-102l2 73h-7q-25 -39 -66 -62.5t-94 -23.5q-64 0 -112 34t-73.5 96t-25.5 144t27 143.5t77 95.5t116 34q51 0 90 -22.5t63 -63.5zM403 285q0 75 -33.5 116.5t-91.5 41.5q-61 0 -93.5 -46.5t-32.5 -135.5t32.5 -135.5t93.5 -46.5q58 0 91.5 41.5
t33.5 116.5v48zM429 612h-296v82h296v-82z" />
    <glyph glyph-name="aogonek.ss01" horiz-adv-x="580" 
d="M410 522h103v-522h-1q-27 -15 -47.5 -40.5t-20.5 -49.5q0 -39 57 -39h11v-77h-36q-54 0 -84 24.5t-30 68.5q0 37 23.5 66t63.5 47h-38l2 73h-7q-25 -39 -66 -62.5t-94 -23.5q-64 0 -112 34t-73.5 96t-25.5 144t27 143.5t77 95.5t116 34q51 0 90 -22.5t63 -63.5zM403 285
q0 75 -33.5 116.5t-91.5 41.5q-61 0 -93.5 -46.5t-32.5 -135.5t32.5 -135.5t93.5 -46.5q58 0 91.5 41.5t33.5 116.5v48z" />
    <glyph glyph-name="aring.ss01" horiz-adv-x="580" 
d="M410 522h103v-522h-102l2 73h-7q-25 -39 -66 -62.5t-94 -23.5q-64 0 -112 34t-73.5 96t-25.5 144t27 143.5t77 95.5t116 34q51 0 90 -22.5t63 -63.5zM403 285q0 75 -33.5 116.5t-91.5 41.5q-61 0 -93.5 -46.5t-32.5 -135.5t32.5 -135.5t93.5 -46.5q58 0 91.5 41.5
t33.5 116.5v48zM207.5 600.5q-29.5 27.5 -29.5 70.5t29 70.5t74 27.5t74 -27.5t29 -70.5t-29.5 -70.5t-73.5 -27.5t-73.5 27.5zM308.5 643q10.5 10 10.5 28t-10.5 28.5t-27.5 10.5t-27.5 -10.5t-10.5 -28.5t10.5 -28t27.5 -10t27.5 10z" />
    <glyph glyph-name="atilde.ss01" horiz-adv-x="580" 
d="M410 522h103v-522h-102l2 73h-7q-25 -39 -66 -62.5t-94 -23.5q-64 0 -112 34t-73.5 96t-25.5 144t27 143.5t77 95.5t116 34q51 0 90 -22.5t63 -63.5zM403 285q0 75 -33.5 116.5t-91.5 41.5q-61 0 -93.5 -46.5t-32.5 -135.5t32.5 -135.5t93.5 -46.5q58 0 91.5 41.5
t33.5 116.5v48zM130 601q0 54 22.5 85t63.5 31q24 0 41.5 -8t38.5 -22q14 -10 22.5 -14.5t17.5 -4.5q14 0 20.5 11.5t6.5 37.5h67v-12q0 -54 -22.5 -85t-63.5 -31q-25 0 -42.5 8t-36.5 22q-13 10 -22.5 14.5t-18.5 4.5q-14 0 -20.5 -12t-6.5 -37h-67v12z" />
    <glyph glyph-name="y.ss02" horiz-adv-x="565" 
d="M87 -169v96q77 -27 157 -27q75 0 111 37.5t36 121.5v21h-6q-26 -36 -66.5 -57t-91.5 -21q-78 0 -121.5 51t-43.5 144v325h110v-313q0 -116 91 -116q55 0 90 39t35 104v286h110v-458q0 -131 -62.5 -194t-188.5 -63q-81 0 -160 24z" />
    <glyph glyph-name="yacute.ss02" horiz-adv-x="565" 
d="M87 -169v96q77 -27 157 -27q75 0 111 37.5t36 121.5v21h-6q-26 -36 -66.5 -57t-91.5 -21q-78 0 -121.5 51t-43.5 144v325h110v-313q0 -116 91 -116q55 0 90 39t35 104v286h110v-458q0 -131 -62.5 -194t-188.5 -63q-81 0 -160 24zM312 584h-86l65 148h122z" />
    <glyph glyph-name="ycircumflex.ss02" horiz-adv-x="565" 
d="M87 -169v96q77 -27 157 -27q75 0 111 37.5t36 121.5v21h-6q-26 -36 -66.5 -57t-91.5 -21q-78 0 -121.5 51t-43.5 144v325h110v-313q0 -116 91 -116q55 0 90 39t35 104v286h110v-458q0 -131 -62.5 -194t-188.5 -63q-81 0 -160 24zM214 584h-98l110 148h107l110 -148h-98
l-62 87h-7z" />
    <glyph glyph-name="ydieresis.ss02" horiz-adv-x="565" 
d="M87 -169v96q77 -27 157 -27q75 0 111 37.5t36 121.5v21h-6q-26 -36 -66.5 -57t-91.5 -21q-78 0 -121.5 51t-43.5 144v325h110v-313q0 -116 91 -116q55 0 90 39t35 104v286h110v-458q0 -131 -62.5 -194t-188.5 -63q-81 0 -160 24zM133 606.5q-19 19.5 -19 48.5t19 48
t47 19t47 -19.5t19 -47.5q0 -29 -19 -48.5t-47 -19.5t-47 19.5zM333 606.5q-19 19.5 -19 48.5q0 28 19 47.5t47 19.5t47 -19.5t19 -47.5q0 -29 -19 -48.5t-47 -19.5t-47 19.5z" />
    <glyph glyph-name="ygrave.ss02" horiz-adv-x="565" 
d="M87 -169v96q77 -27 157 -27q75 0 111 37.5t36 121.5v21h-6q-26 -36 -66.5 -57t-91.5 -21q-78 0 -121.5 51t-43.5 144v325h110v-313q0 -116 91 -116q55 0 90 39t35 104v286h110v-458q0 -131 -62.5 -194t-188.5 -63q-81 0 -160 24zM334 584h-86l-101 148h122z" />
    <glyph glyph-name="uni0233.ss02" horiz-adv-x="565" 
d="M87 -169v96q77 -27 157 -27q75 0 111 37.5t36 121.5v21h-6q-26 -36 -66.5 -57t-91.5 -21q-78 0 -121.5 51t-43.5 144v325h110v-313q0 -116 91 -116q55 0 90 39t35 104v286h110v-458q0 -131 -62.5 -194t-188.5 -63q-81 0 -160 24zM428 612h-296v82h296v-82z" />
    <glyph glyph-name="uni1EF9.ss02" horiz-adv-x="565" 
d="M87 -169v96q77 -27 157 -27q75 0 111 37.5t36 121.5v21h-6q-26 -36 -66.5 -57t-91.5 -21q-78 0 -121.5 51t-43.5 144v325h110v-313q0 -116 91 -116q55 0 90 39t35 104v286h110v-458q0 -131 -62.5 -194t-188.5 -63q-81 0 -160 24zM129 601q0 54 22.5 85t63.5 31
q24 0 41.5 -8t38.5 -22q14 -10 22.5 -14.5t17.5 -4.5q14 0 20.5 11.5t6.5 37.5h67v-12q0 -54 -22.5 -85t-63.5 -31q-25 0 -42.5 8t-36.5 22q-13 10 -22.5 14.5t-18.5 4.5q-14 0 -20.5 -12t-6.5 -37h-67v12z" />
    <glyph glyph-name="uni04570457" horiz-adv-x="600" 
d="M21.5 606.5q-19.5 19.5 -19.5 48.5t19.5 48t48.5 19q28 0 47.5 -19.5t19.5 -47.5q0 -29 -19.5 -48.5t-47.5 -19.5q-29 0 -48.5 19.5zM263.5 606.5q-19.5 19.5 -19.5 48.5t19.5 48t47.5 19q29 0 48.5 -19.5t19.5 -47.5q0 -29 -19.5 -48.5t-48.5 -19.5q-28 0 -47.5 19.5z
M505.5 606.5q-19.5 19.5 -19.5 48.5q0 28 19.5 47.5t47.5 19.5q29 0 48.5 -19.5t19.5 -47.5q0 -29 -19.5 -48.5t-48.5 -19.5q-28 0 -47.5 19.5zM222 0h-109v430h-100v92h209v-522zM522 0h-109v430h-100v92h209v-522z" />
    <glyph glyph-name="uni0457.calt" horiz-adv-x="300" 
d="M222 0h-109v430h-100v92h209v-522zM22.5 606.5q-19.5 19.5 -19.5 48.5t19 48t48 19q28 0 47 -19.5t19 -47.5q0 -29 -19 -48.5t-47 -19.5t-47.5 19.5zM206 606.5q-19 19.5 -19 48.5q0 28 19 47.5t47 19.5t47.5 -19.5t19.5 -47.5q0 -29 -19.5 -48.5t-47.5 -19.5t-47 19.5z
" />
    <glyph glyph-name="uni0430.ss01" horiz-adv-x="580" 
d="M410 522h103v-522h-102l2 73h-7q-25 -39 -66 -62.5t-94 -23.5q-64 0 -112 34t-73.5 96t-25.5 144t27 143.5t77 95.5t116 34q51 0 90 -22.5t63 -63.5zM403 285q0 75 -33.5 116.5t-91.5 41.5q-61 0 -93.5 -46.5t-32.5 -135.5t32.5 -135.5t93.5 -46.5q58 0 91.5 41.5
t33.5 116.5v48z" />
    <glyph glyph-name="uni0443.ss02" horiz-adv-x="565" 
d="M87 -169v96q77 -27 157 -27q75 0 111 37.5t36 121.5v21h-6q-26 -36 -66.5 -57t-91.5 -21q-78 0 -121.5 51t-43.5 144v325h110v-313q0 -116 91 -116q55 0 90 39t35 104v286h110v-458q0 -131 -62.5 -194t-188.5 -63q-81 0 -160 24z" />
    <glyph glyph-name="uni045E.ss02" horiz-adv-x="565" 
d="M87 -169v96q77 -27 157 -27q75 0 111 37.5t36 121.5v21h-6q-26 -36 -66.5 -57t-91.5 -21q-78 0 -121.5 51t-43.5 144v325h110v-313q0 -116 91 -116q55 0 90 39t35 104v286h110v-458q0 -131 -62.5 -194t-188.5 -63q-81 0 -160 24zM165.5 622q-42.5 38 -42.5 100h88
q0 -31 17.5 -48t51.5 -17t51.5 17t17.5 48h88q0 -62 -42.5 -100t-114.5 -38t-114.5 38z" />
    <glyph glyph-name="zero.osf" horiz-adv-x="580" 
d="M155 23q-58 36 -89 101.5t-31 151.5t31 151.5t89 101t135 35.5t135 -35.5t89 -101t31 -151.5t-31 -151.5t-89 -101.5t-135 -36t-135 36zM392 131.5q36 52.5 36 144.5t-36 144.5t-102 52.5t-102 -52.5t-36 -144.5t36 -144.5t102 -52.5t102 52.5z" />
    <glyph glyph-name="one.osf" horiz-adv-x="480" 
d="M457 0h-425v93h157v368h-127v91h237v-459h158v-93z" />
    <glyph glyph-name="two.osf" horiz-adv-x="480" 
d="M153 92h286v-92h-406v114l199 150q45 33 65.5 61.5t20.5 66.5q0 39 -25.5 60t-74.5 21q-41 0 -85.5 -15t-84.5 -39v100q90 45 178 45q95 0 148.5 -44.5t53.5 -123.5q0 -53 -33.5 -100.5t-97.5 -95.5z" />
    <glyph glyph-name="three.osf" horiz-adv-x="495" 
d="M425 149q30 -46 30 -109q0 -62 -31.5 -109t-89 -73t-133.5 -26q-101 0 -188 39v96q93 -42 181 -42q72 0 111 32.5t39 91.5q0 58 -37 88t-107 30h-67v91h65q61 0 95.5 28t34.5 79q0 49 -35 77.5t-98 28.5q-38 0 -79 -9.5t-72 -24.5v95q31 14 73.5 23t85.5 9
q70 0 123 -23.5t82.5 -66.5t29.5 -99q0 -53 -26 -94t-73 -63q56 -23 86 -69z" />
    <glyph glyph-name="four.osf" horiz-adv-x="550" 
d="M439 129h76v-93h-76v-191h-108v191h-305v101l272 415h141v-423zM332 433h-6l-198 -304h204v304z" />
    <glyph glyph-name="five.osf" horiz-adv-x="510" 
d="M348 258.5q55 -28.5 86 -80t31 -118.5q0 -68 -31 -120t-88 -80t-133 -28q-88 0 -182 30v98q84 -32 172 -32q73 0 112.5 35t39.5 99t-43.5 98.5t-121.5 34.5q-33 0 -70 -4.5t-62 -10.5l24 372h358v-94h-266l-11 -176q30 5 59 5q71 0 126 -28.5z" />
    <glyph glyph-name="six.osf" horiz-adv-x="560" 
d="M407.5 432q55.5 -31 86.5 -85t31 -122t-31 -122t-86.5 -85t-126.5 -31t-127 31t-87.5 85t-31.5 122q0 56 21 108.5t67 126.5l152 240h122l-162 -243q23 6 47 6q70 0 125.5 -31zM376 120.5q36 40.5 36 104.5t-36 104.5t-96 40.5t-96 -40.5t-36 -104.5t36 -104.5t96 -40.5
t96 40.5z" />
    <glyph glyph-name="seven.osf" horiz-adv-x="505" 
d="M27 457v95h443v-95l-250 -612h-115l255 612h-333z" />
    <glyph glyph-name="eight.osf" horiz-adv-x="560" 
d="M490 303.5q30 -46.5 30 -109.5q0 -60 -29.5 -107t-83.5 -73.5t-127 -26.5t-127 26.5t-83.5 73.5t-29.5 107q0 63 30 109.5t84 70.5q-42 23 -64.5 61t-22.5 90q0 53 26.5 96t75 67.5t111.5 24.5t111.5 -24.5t75 -67.5t26.5 -96q0 -52 -22.5 -90t-64.5 -61q54 -24 84 -70.5
zM202 592q-29 -29 -29 -76t29 -76t78 -29t78 29t29 76t-29 76t-78 29t-78 -29zM377.5 114q35.5 35 35.5 89q0 53 -35.5 88t-97.5 35t-97.5 -35t-35.5 -88q0 -54 35.5 -89t97.5 -35t97.5 35z" />
    <glyph glyph-name="nine.osf" horiz-adv-x="560" 
d="M406 533.5q56 -30.5 87.5 -85t31.5 -122.5q0 -55 -21 -107.5t-67 -126.5l-156 -247h-122l166 249q-30 -6 -47 -6q-70 0 -125.5 31t-86.5 85.5t-31 121.5q0 68 31 122.5t86.5 85t126.5 30.5t127 -30.5zM376 221.5q36 40.5 36 104.5t-36 104.5t-96 40.5t-96 -40.5
t-36 -104.5t36 -104.5t96 -40.5t96 40.5z" />
    <glyph glyph-name="zero.tf" 
d="M160 31q-58 44 -89 126t-31 193t31 193t89 126t135 44t135 -44t89 -126t31 -193t-31 -193t-89 -126t-135 -44t-135 44zM394 159.5q35 67.5 35 190.5t-35 190.5t-99 67.5t-99 -67.5t-35 -190.5t35 -190.5t99 -67.5t99 67.5z" />
    <glyph glyph-name="one.tf" 
d="M543 0h-485v105h185v492h-150v103h267v-595h183v-105z" />
    <glyph glyph-name="two.tf" 
d="M196 105h315v-105h-446v128l231 214q47 45 69 83.5t22 79.5q0 101 -115 101q-95 0 -192 -64v118q99 53 199 53q107 0 167.5 -53t60.5 -147q0 -65 -33 -122.5t-111 -129.5z" />
    <glyph glyph-name="three.tf" 
d="M489.5 302.5q30.5 -44.5 30.5 -106.5q0 -64 -33 -111t-93.5 -72.5t-141.5 -25.5q-48 0 -101 10t-98 29v109q46 -19 97.5 -30t95.5 -11q74 0 114.5 29t40.5 82q0 51 -34.5 79t-96.5 28h-86v102h82q56 0 86 25t30 71q0 45 -36 70.5t-102 25.5q-43 0 -86 -8.5t-78 -23.5v108
q34 14 79 22.5t90 8.5q76 0 133 -24t88 -68t31 -102q0 -52 -25.5 -90t-72.5 -59q56 -23 86.5 -67.5z" />
    <glyph glyph-name="four.tf" 
d="M464 271h82v-102h-82v-169h-114v169h-318v112l284 419h148v-429zM351 574h-6l-206 -303h212v303z" />
    <glyph glyph-name="five.tf" 
d="M401.5 409.5q58.5 -26.5 91 -76t32.5 -116.5q0 -108 -71.5 -169t-197.5 -61q-96 0 -195 35v108q101 -36 188 -36q73 0 114.5 32t41.5 89t-43 88t-123 31q-78 0 -149 -15l33 381h374v-102h-279l-14 -167q35 5 62 5q77 0 135.5 -26.5z" />
    <glyph glyph-name="six.tf" 
d="M427 444q57 -31 89.5 -86t32.5 -126t-32.5 -127t-90.5 -87t-131 -31t-131 31t-90.5 87t-32.5 127q0 60 20 111.5t66 124.5l146 232h132l-155 -231q21 6 49 6q71 0 128 -31zM394 129.5q38 38.5 38 102.5t-38 102.5t-99 38.5t-99 -38.5t-38 -102.5t38 -102.5t99 -38.5
t99 38.5z" />
    <glyph glyph-name="seven.tf" 
d="M55 597v103h471v-95l-260 -605h-124l261 597h-348z" />
    <glyph glyph-name="eight.tf" 
d="M511.5 304q33.5 -47 33.5 -110q0 -60 -30.5 -107t-87 -73.5t-132.5 -26.5t-132.5 26.5t-87 73.5t-30.5 107q0 63 33.5 110t92.5 70q-47 22 -72 60.5t-25 90.5q0 54 28 96.5t78 67t115 24.5t115 -24.5t78 -67t28 -96.5q0 -52 -25 -90.5t-72 -60.5q59 -23 92.5 -70z
M217.5 586.5q-29.5 -26.5 -29.5 -71.5t29.5 -72t77.5 -27t77.5 27t29.5 72t-29.5 71.5t-77.5 26.5t-77.5 -26.5zM392.5 119.5q35.5 32.5 35.5 84.5t-35.5 84.5t-97.5 32.5t-97.5 -32.5t-35.5 -84.5t35.5 -84.5t97.5 -32.5t97.5 32.5z" />
    <glyph glyph-name="nine.tf" 
d="M426 682q58 -31 90.5 -87t32.5 -127q0 -60 -20 -111.5t-66 -124.5l-146 -232h-132l155 231q-21 -6 -49 -6q-71 0 -128 31t-89.5 86t-32.5 126t32.5 127t90.5 87t131 31t131 -31zM394 365.5q38 38.5 38 102.5t-38 102.5t-99 38.5t-99 -38.5t-38 -102.5t38 -102.5t99 -38.5
t99 38.5z" />
    <glyph glyph-name="zero.tosf" horiz-adv-x="530" 
d="M142 23q-53 36 -82 101.5t-29 151.5t29 151.5t82 101t123 35.5t123 -35.5t82 -101t29 -151.5t-29 -151.5t-82 -101.5t-123 -36t-123 36zM352.5 129.5q31.5 50.5 31.5 146.5t-31.5 146.5t-87.5 50.5t-87.5 -50.5t-31.5 -146.5t31.5 -146.5t87.5 -50.5t87.5 50.5z" />
    <glyph glyph-name="one.tosf" horiz-adv-x="530" 
d="M497 0h-455v93h172v368h-142v91h252v-459h173v-93z" />
    <glyph glyph-name="two.tosf" horiz-adv-x="530" 
d="M178 92h286v-92h-406v114l199 150q45 33 65.5 61.5t20.5 66.5q0 39 -25.5 60t-74.5 21q-41 0 -85.5 -15t-84.5 -39v100q90 45 178 45q95 0 148.5 -44.5t53.5 -123.5q0 -53 -33.5 -100.5t-97.5 -95.5z" />
    <glyph glyph-name="three.tosf" horiz-adv-x="530" 
d="M439 149q30 -46 30 -109q0 -62 -31.5 -109t-89 -73t-133.5 -26q-101 0 -188 39v96q93 -42 181 -42q72 0 111 32.5t39 91.5q0 58 -37 88t-107 30h-67v91h65q61 0 95.5 28t34.5 79q0 49 -35 77.5t-98 28.5q-38 0 -79 -9.5t-72 -24.5v95q31 14 73.5 23t85.5 9
q70 0 123 -23.5t82.5 -66.5t29.5 -99q0 -53 -26 -94t-73 -63q56 -23 86 -69z" />
    <glyph glyph-name="four.tosf" horiz-adv-x="530" 
d="M431 129h71v-93h-71v-191h-108v191h-300v101l267 415h141v-423zM324 433h-7l-193 -304h200v304z" />
    <glyph glyph-name="five.tosf" horiz-adv-x="530" 
d="M358 258.5q55 -28.5 86 -80t31 -118.5q0 -68 -31 -120t-88 -80t-133 -28q-88 0 -182 30v98q84 -32 172 -32q73 0 112.5 35t39.5 99t-43.5 98.5t-121.5 34.5q-33 0 -70 -4.5t-62 -10.5l24 372h358v-94h-266l-11 -176q30 5 59 5q71 0 126 -28.5z" />
    <glyph glyph-name="six.tosf" horiz-adv-x="530" 
d="M390 432q54 -31 84 -85t30 -122t-30 -122t-84 -85t-124 -31t-124.5 31t-85 85t-30.5 122q0 57 20 112t62 123l152 240h122l-162 -243q23 6 47 6q69 0 123 -31zM356 120q34 40 34 105t-34 105t-91 40t-91 -40t-34 -105t34 -105t91 -40t91 40z" />
    <glyph glyph-name="seven.tosf" horiz-adv-x="530" 
d="M39 457v95h443v-95l-250 -612h-115l255 612h-333z" />
    <glyph glyph-name="eight.tosf" horiz-adv-x="530" 
d="M470.5 303q29.5 -47 29.5 -109q0 -60 -28.5 -107t-82 -73.5t-124.5 -26.5t-124.5 26.5t-82 73.5t-28.5 107q0 62 29.5 109t83.5 71q-85 45 -85 151q0 53 26 96t73 67.5t108 24.5t108 -24.5t73 -67.5t26 -96q0 -106 -85 -151q54 -24 83.5 -71zM190.5 592.5
q-27.5 -28.5 -27.5 -76.5t27.5 -76.5t74.5 -28.5t74.5 28.5t27.5 76.5t-27.5 76.5t-74.5 28.5t-74.5 -28.5zM358.5 114q33.5 35 33.5 89q0 53 -33.5 88t-93.5 35t-93.5 -35t-33.5 -88q0 -54 33.5 -89t93.5 -35t93.5 35z" />
    <glyph glyph-name="nine.tosf" horiz-adv-x="530" 
d="M388.5 533.5q54.5 -30.5 85 -85t30.5 -122.5q0 -56 -20 -111t-62 -123l-155 -247h-123l166 249q-30 -6 -47 -6q-69 0 -123 31t-84 85t-30 122t30 122.5t84 85t124 30.5t124.5 -30.5zM356 221q34 40 34 105t-34 105t-91 40t-91 -40t-34 -105t34 -105t91 -40t91 40z" />
    <glyph glyph-name="zero.numr" horiz-adv-x="335" 
d="M58 393.5q-40 48.5 -40 131.5t40 131.5t109 48.5q70 0 110 -48.5t40 -131.5t-40 -131.5t-110 -48.5q-69 0 -109 48.5zM215 446q17 28 17 79t-17 79t-48 28q-30 0 -47 -28t-17 -79t17 -79t47 -28q31 0 48 28z" />
    <glyph glyph-name="one.numr" horiz-adv-x="300" 
d="M272 350h-241v73h79v205h-61v72h146v-277h77v-73z" />
    <glyph glyph-name="two.numr" horiz-adv-x="295" 
d="M116 423h152v-73h-245v86l114 92q21 18 32 34t11 33q0 18 -13.5 27.5t-39.5 9.5q-21 0 -47.5 -7.5t-51.5 -20.5v77q63 24 105 24q60 0 95 -28t35 -77q0 -32 -20.5 -62t-58.5 -60z" />
    <glyph glyph-name="three.numr" horiz-adv-x="305" 
d="M260 501.5q16 -22.5 16 -51.5q0 -48 -38 -76.5t-104 -28.5q-46 0 -108 18v72q55 -18 105 -18q62 0 62 42q0 18 -17 28.5t-49 10.5h-34v66h34q28 0 43.5 9t15.5 27q0 33 -58 33q-48 0 -89 -14v72q45 14 91 14q62 0 100.5 -26t38.5 -69q0 -25 -14 -44.5t-40 -30.5
q29 -11 45 -33.5z" />
    <glyph glyph-name="four.numr" horiz-adv-x="315" 
d="M253 497h40v-69h-40v-78h-82v78h-154v73l137 199h99v-203zM176 611h-5l-78 -114h83v114z" />
    <glyph glyph-name="five.numr" horiz-adv-x="300" 
d="M238 544q36 -30 36 -83q0 -55 -37.5 -85.5t-104.5 -30.5q-52 0 -108 16v73q54 -17 96 -17q33 0 51 12.5t18 33.5q0 22 -19 33.5t-56 11.5q-36 0 -75 -7l18 199h201v-72h-135l-6 -55q8 1 23 1q62 0 98 -30z" />
    <glyph glyph-name="six.numr" horiz-adv-x="310" 
d="M253.5 556.5q36.5 -33.5 36.5 -86.5q0 -55 -38 -90t-97 -35t-97 35t-38 90q0 26 9.5 51.5t32.5 62.5l75 116h91l-75 -110h7q57 0 93.5 -33.5zM192.5 431.5q14.5 14.5 14.5 39.5t-14.5 39.5t-37.5 14.5t-37.5 -14.5t-14.5 -39.5t14.5 -39.5t37.5 -14.5t37.5 14.5z" />
    <glyph glyph-name="seven.numr" horiz-adv-x="285" 
d="M18 627v73h245v-70l-117 -280h-88l118 277h-158z" />
    <glyph glyph-name="eight.numr" horiz-adv-x="304" 
d="M266.5 501q15.5 -23 15.5 -52q0 -47 -35.5 -75.5t-94.5 -28.5t-94.5 28.5t-35.5 75.5q0 29 15.5 52t40.5 35q-45 22 -45 74q0 41 33.5 68t85.5 27t85.5 -27t33.5 -68q0 -52 -45 -74q25 -12 40.5 -35zM122 630q-11 -11 -11 -29t11 -29t30 -11t30 11t11 29t-11 29t-30 11
t-30 -11zM188.5 421.5q13.5 12.5 13.5 33.5t-14 34t-36 13t-36 -13t-14 -34t13.5 -33.5t36.5 -12.5t36.5 12.5z" />
    <glyph glyph-name="nine.numr" horiz-adv-x="310" 
d="M252 670q38 -35 38 -90q0 -26 -9.5 -51.5t-32.5 -62.5l-75 -116h-91l75 110h-7q-57 0 -93.5 33.5t-36.5 86.5q0 55 38 90t97 35t97 -35zM192.5 539.5q14.5 14.5 14.5 39.5t-14.5 39.5t-37.5 14.5t-37.5 -14.5t-14.5 -39.5t14.5 -39.5t37.5 -14.5t37.5 14.5z" />
    <glyph glyph-name="zero.dnom" horiz-adv-x="335" 
d="M58 43.5q-40 48.5 -40 131.5t40 131.5t109 48.5q70 0 110 -48.5t40 -131.5t-40 -131.5t-110 -48.5q-69 0 -109 48.5zM215 96q17 28 17 79t-17 79t-48 28q-30 0 -47 -28t-17 -79t17 -79t47 -28q31 0 48 28z" />
    <glyph glyph-name="one.dnom" horiz-adv-x="300" 
d="M272 0h-241v73h79v205h-61v72h146v-277h77v-73z" />
    <glyph glyph-name="two.dnom" horiz-adv-x="295" 
d="M116 73h152v-73h-245v86l114 92q21 18 32 34t11 33q0 18 -13.5 27.5t-39.5 9.5q-21 0 -47.5 -7.5t-51.5 -20.5v77q63 24 105 24q60 0 95 -28t35 -77q0 -32 -20.5 -62t-58.5 -60z" />
    <glyph glyph-name="three.dnom" horiz-adv-x="305" 
d="M260 151.5q16 -22.5 16 -51.5q0 -48 -38 -76.5t-104 -28.5q-46 0 -108 18v72q55 -18 105 -18q62 0 62 42q0 18 -17 28.5t-49 10.5h-34v66h34q28 0 43.5 9t15.5 27q0 33 -58 33q-48 0 -89 -14v72q45 14 91 14q62 0 100.5 -26t38.5 -69q0 -25 -14 -44.5t-40 -30.5
q29 -11 45 -33.5z" />
    <glyph glyph-name="four.dnom" horiz-adv-x="315" 
d="M253 147h40v-69h-40v-78h-82v78h-154v73l137 199h99v-203zM176 261h-5l-78 -114h83v114z" />
    <glyph glyph-name="five.dnom" horiz-adv-x="300" 
d="M238 194q36 -30 36 -83q0 -55 -37.5 -85.5t-104.5 -30.5q-52 0 -108 16v73q54 -17 96 -17q33 0 51 12.5t18 33.5q0 22 -19 33.5t-56 11.5q-36 0 -75 -7l18 199h201v-72h-135l-6 -55q8 1 23 1q62 0 98 -30z" />
    <glyph glyph-name="six.dnom" horiz-adv-x="310" 
d="M253.5 206.5q36.5 -33.5 36.5 -86.5q0 -55 -38 -90t-97 -35t-97 35t-38 90q0 26 9.5 51.5t32.5 62.5l75 116h91l-75 -110h7q57 0 93.5 -33.5zM192.5 81.5q14.5 14.5 14.5 39.5t-14.5 39.5t-37.5 14.5t-37.5 -14.5t-14.5 -39.5t14.5 -39.5t37.5 -14.5t37.5 14.5z" />
    <glyph glyph-name="seven.dnom" horiz-adv-x="285" 
d="M18 277v73h245v-70l-117 -280h-88l118 277h-158z" />
    <glyph glyph-name="eight.dnom" horiz-adv-x="304" 
d="M266.5 151q15.5 -23 15.5 -52q0 -47 -35.5 -75.5t-94.5 -28.5t-94.5 28.5t-35.5 75.5q0 29 15.5 52t40.5 35q-45 22 -45 74q0 41 33.5 68t85.5 27t85.5 -27t33.5 -68q0 -52 -45 -74q25 -12 40.5 -35zM122 280q-11 -11 -11 -29t11 -29t30 -11t30 11t11 29t-11 29t-30 11
t-30 -11zM188.5 71.5q13.5 12.5 13.5 33.5t-14 34t-36 13t-36 -13t-14 -34t13.5 -33.5t36.5 -12.5t36.5 12.5z" />
    <glyph glyph-name="nine.dnom" horiz-adv-x="310" 
d="M252 320q38 -35 38 -90q0 -26 -9.5 -51.5t-32.5 -62.5l-75 -116h-91l75 110h-7q-57 0 -93.5 33.5t-36.5 86.5q0 55 38 90t97 35t97 -35zM192.5 189.5q14.5 14.5 14.5 39.5t-14.5 39.5t-37.5 14.5t-37.5 -14.5t-14.5 -39.5t14.5 -39.5t37.5 -14.5t37.5 14.5z" />
    <glyph glyph-name="colon.calt" horiz-adv-x="280" 
d="M86 476.5q-22 21.5 -22 53.5t22 54t54 22t54 -22t22 -54t-22 -53.5t-54 -21.5t-54 21.5zM86 98.5q-22 21.5 -22 53.5t22 54t54 22t54 -22t22 -54t-22 -53.5t-54 -21.5t-54 21.5z" />
    <glyph glyph-name="periodcentered.case" horiz-adv-x="300" 
d="M96 290.5q-22 21.5 -22 53.5t22 54t54 22t54 -22t22 -54t-22 -53.5t-54 -21.5t-54 21.5z" />
    <glyph glyph-name="exclamdown.case" horiz-adv-x="320" 
d="M106 578q-22 22 -22 54t22 54t54 22t54 -22t22 -54t-22 -54t-54 -22t-54 22zM219 0h-118v55l22 418h74l22 -418v-55z" />
    <glyph glyph-name="questiondown.case" horiz-adv-x="500" 
d="M209 578q-22 22 -22 54t22 54t53 22q32 0 54 -22t22 -54t-22 -54t-54 -22q-31 0 -53 22zM96.5 34.5q-58.5 47.5 -58.5 127.5q0 39 14 70t34 54t52 53q39 36 57.5 61.5t18.5 57.5v15h98v-15q0 -50 -22.5 -85t-66.5 -79q-36 -37 -54 -64t-18 -60q0 -40 29 -62t80 -22
q96 0 212 59v-107q-108 -51 -217 -51q-100 0 -158.5 47.5z" />
    <glyph glyph-name="guilsinglleft.case" horiz-adv-x="355" 
d="M311 123h-122l-140 223l140 223h122l-145 -223z" />
    <glyph glyph-name="guilsinglright.case" horiz-adv-x="355" 
d="M166 123h-122l145 223l-145 223h122l140 -223z" />
    <glyph glyph-name="guillemotleft.case" horiz-adv-x="545" 
d="M283 123h-113l-121 223l121 223h113l-126 -223zM501 123h-113l-121 223l121 223h113l-126 -223z" />
    <glyph glyph-name="guillemotright.case" horiz-adv-x="545" 
d="M157 123h-113l126 223l-126 223h113l121 -223zM375 123h-113l126 223l-126 223h113l121 -223z" />
    <glyph glyph-name="bullet.case" horiz-adv-x="330" 
d="M98 277q-27 27 -27 67q0 41 27 67.5t67 26.5q41 0 67.5 -26.5t26.5 -67.5q0 -40 -27 -67t-67 -27t-67 27z" />
    <glyph glyph-name="hyphen.case" horiz-adv-x="400" 
d="M371 300h-342v98h342v-98z" />
    <glyph glyph-name="endash.case" horiz-adv-x="530" 
d="M501 302h-472v94h472v-94z" />
    <glyph glyph-name="emdash.case" horiz-adv-x="690" 
d="M661 302h-632v94h632v-94z" />
    <glyph glyph-name="parenleft.case" horiz-adv-x="375" 
d="M221 -120q-64 88 -99.5 202t-35.5 238t35.5 238t99.5 202h120q-68 -85 -105 -200t-37 -240t37 -240t105 -200h-120z" />
    <glyph glyph-name="parenright.case" horiz-adv-x="375" 
d="M34 -120q68 85 105 200t37 240t-37 240t-105 200h120q64 -88 99.5 -202t35.5 -238t-35.5 -238t-99.5 -202h-120z" />
    <glyph glyph-name="bracketleft.case" horiz-adv-x="360" 
d="M337 -120h-248v880h248v-89h-145v-702h145v-89z" />
    <glyph glyph-name="bracketright.case" horiz-adv-x="360" 
d="M271 -120h-248v89h145v702h-145v89h248v-880z" />
    <glyph glyph-name="braceleft.case" horiz-adv-x="380" 
d="M314 -120q-93 0 -139 54t-46 156v117q0 37 -11.5 53.5t-40.5 16.5h-35v86h35q28 0 40 16.5t12 53.5v117q0 102 46 156t139 54h43v-89h-34q-47 0 -69.5 -29t-22.5 -92v-122q0 -89 -64 -104v-8q64 -16 64 -104v-122q0 -63 22.5 -92t69.5 -29h34v-89h-43z" />
    <glyph glyph-name="braceright.case" horiz-adv-x="380" 
d="M23 -120v89h34q47 0 69.5 29t22.5 92v122q0 88 64 104v8q-64 15 -64 104v122q0 63 -22.5 92t-69.5 29h-34v89h43q93 0 139 -54t46 -156v-117q0 -37 12 -53.5t40 -16.5h35v-86h-35q-29 0 -40.5 -16.5t-11.5 -53.5v-117q0 -102 -46 -156t-139 -54h-43z" />
    <glyph glyph-name="at.case" horiz-adv-x="855" 
d="M635.5 673q87.5 -46 136 -129t48.5 -190q0 -69 -23.5 -122.5t-63.5 -83.5t-89 -30q-40 0 -69.5 19.5t-44.5 55.5h-6q-28 -38 -62.5 -56.5t-82.5 -18.5q-70 0 -110.5 47t-40.5 129q0 70 24 126.5t67 88.5t98 32q80 0 117 -65l8 55h85l-35 -259q-1 -7 -1 -19q0 -29 14 -45
t40 -16q44 0 70.5 44t26.5 118q0 88 -37 154t-106.5 101.5t-163.5 35.5t-167 -42t-113 -118.5t-40 -175.5q0 -92 41 -160t116.5 -104.5t176.5 -36.5q41 0 88 7.5t83 18.5v-74q-46 -14 -85.5 -19.5t-87.5 -5.5q-122 0 -215.5 46t-145 130.5t-51.5 197.5q0 117 51.5 210.5
t142.5 146.5t206 53q113 0 200.5 -46zM516 339q2 10 2 29q0 45 -23 70t-64 25q-50 0 -81.5 -47t-31.5 -121q0 -47 23.5 -73t65.5 -26q39 0 67 28t35 76z" />
    <glyph glyph-name="uni20BF.tf" 
d="M514.5 82.5q-36.5 -48.5 -102.5 -68.5v-119h-82v105h-13h-69v-105h-82v105h-90v700h90v105h82v-105h49q22 0 33 -1v106h82v-125q53 -21 82 -62t29 -96q0 -51 -24.5 -88.5t-70.5 -58.5q58 -23 90.5 -68.5t32.5 -107.5q0 -68 -36.5 -116.5zM375.5 578.5
q-31.5 24.5 -87.5 24.5h-96v-191h96q56 0 87.5 25.5t31.5 71.5q0 45 -31.5 69.5zM304 97q61 0 94.5 29t33.5 82q0 54 -33.5 83.5t-94.5 29.5h-112v-224h112z" />
    <glyph glyph-name="cent.tf" 
d="M495 13q-21 -10 -50 -17t-60 -8v-93h-87v97q-100 17 -155.5 87.5t-55.5 181.5q0 109 56 180t155 88v98h87v-94q60 -3 105 -23v-97q-23 12 -57 20t-67 8q-76 0 -119 -46.5t-43 -133.5q0 -89 42 -135t120 -46q36 0 70.5 9t58.5 22v-98z" />
    <glyph glyph-name="dollar.tf" 
d="M481 62q-45 -51 -127 -68v-99h-97v92q-50 2 -101.5 12.5t-93.5 26.5v110q46 -18 100.5 -30t109.5 -12q64 0 98.5 25.5t34.5 72.5q0 35 -18.5 57.5t-46 36t-76.5 31.5q-61 22 -99.5 42t-65.5 59.5t-27 102.5q0 79 49.5 128.5t135.5 60.5v95h97v-94q76 -6 145 -29v-109
q-88 33 -190 33q-55 0 -86 -22t-31 -63q0 -31 17.5 -51t43.5 -32t72 -28q63 -20 103.5 -41t69 -63.5t28.5 -113.5q0 -79 -45 -130z" />
    <glyph glyph-name="Euro.tf" 
d="M552 113v-109q-51 -17 -120 -17q-131 0 -220 66t-118 184h-85l21 77h52q-1 12 -1 36t1 36h-73l20 77h66q31 116 121 183t217 67q64 0 114 -15v-109q-56 17 -109 17q-76 0 -132.5 -37.5t-82.5 -105.5h247l-20 -77h-245q-2 -24 -2 -36t2 -36h226l-21 -77h-189
q26 -69 82 -106t135 -37q55 0 114 19z" />
    <glyph glyph-name="uni20B4.tf" 
d="M550 460v-77h-510v77h340q18 23 18 56q0 92 -128 92q-49 0 -101.5 -13t-93.5 -36v110q42 19 96.5 31.5t105.5 12.5q113 0 175.5 -48.5t62.5 -130.5q0 -47 -24 -74h59zM40 240v77h510v-77h-340q-18 -22 -18 -56q0 -92 128 -92q49 0 101.5 13t93.5 36v-110
q-42 -19 -96.5 -31.5t-105.5 -12.5q-113 0 -175.5 48.5t-62.5 130.5q0 47 24 74h-59z" />
    <glyph glyph-name="uni20BA.tf" 
d="M556 297q0 -138 -83 -217.5t-235 -79.5h-137v235l-76 -32v82l76 31v86l-76 -31v81l76 31v217h116v-168l117 48v-81l-117 -48v-86l117 48v-81l-117 -49v-178q116 0 169.5 46.5t53.5 145.5h116z" />
    <glyph glyph-name="uni20BD.tf" 
d="M218 274v-63h156v-83h-156v-128h-116v128h-77v83h77v63h-77v94h77v332h208q74 0 129.5 -26.5t86 -75t30.5 -112.5t-30.5 -112t-86 -74t-129.5 -26h-92zM217 603v-235h91q63 0 97.5 30.5t34.5 86.5q0 57 -34.5 87.5t-97.5 30.5h-91z" />
    <glyph glyph-name="uni20B9.tf" 
d="M538 700v-87h-125q43 -34 54 -92h71v-80h-70q-14 -82 -78 -130t-162 -48h-14l277 -263h-149l-272 263v94h149q52 0 86 22t45 62h-279v80h279q-11 40 -45 62.5t-86 22.5h-149v94h468z" />
    <glyph glyph-name="sterling.tf" 
d="M542 102v-102h-490v106q54 1 87 37.5t33 87.5q0 17 -3 32h-117v94h79q-20 37 -31 68.5t-11 75.5q0 61 29 109t83.5 75.5t128.5 27.5q52 0 102.5 -9t84.5 -24v-109q-36 16 -86.5 25.5t-94.5 9.5q-63 0 -94.5 -30t-31.5 -81q0 -35 8.5 -61t19 -48t13.5 -29h189v-94h-159
q2 -20 2 -31q0 -40 -15 -74t-42 -56h316z" />
    <glyph glyph-name="uni20B8.tf" 
d="M547 615h-504v85h504v-85zM354 0h-118v445h-193v103h504v-103h-193v-445z" />
    <glyph glyph-name="uni20A9.tf" 
d="M577 463v-85h-62l-11 -85h73v-84h-83l-26 -209h-124l-45 533h-7l-45 -533h-124l-26 209h-84v84h73l-11 85h-62v85h52l-30 237h88l62 -588h8l50 588h107l50 -588h8l63 588h84l-29 -237h51z" />
    <glyph glyph-name="yen.tf" 
d="M447 700h118l-154 -330h109v-83h-148l-18 -38v-31h166v-83h-166v-135h-118v135h-166v83h166v31l-18 38h-148v83h109l-154 330h121l147 -333h8z" />
    <glyph glyph-name="florin.tf" 
d="M530 704l-17 -90q-11 4 -30 4q-41 0 -65 -24t-38 -93l-19 -92h109l-16 -92h-112l-67 -320q-22 -101 -71 -145.5t-124 -44.5q-35 0 -63 8l16 89q11 -4 31 -4q40 0 64 24t39 93l63 300h-98l16 92h101l23 112q21 101 70 145.5t125 44.5q39 0 63 -7z" />
    <glyph glyph-name="currency.tf" 
d="M456 240l75 -75l-61 -61l-77 77q-46 -24 -98 -24t-98 24l-77 -77l-61 61l75 75q-34 48 -34 110t34 110l-75 75l61 61l77 -77q46 24 98 24t98 -24l77 77l61 -61l-75 -75q34 -48 34 -110t-34 -110zM368.5 273q28.5 30 28.5 77t-28.5 77t-73.5 30t-73.5 -30t-28.5 -77
t28.5 -77t73.5 -30t73.5 30z" />
    <glyph glyph-name="minus.osf" horiz-adv-x="530" 
d="M477 230h-424v92h424v-92z" />
    <glyph glyph-name="plus.osf" horiz-adv-x="530" 
d="M311 59h-92v171h-166v92h166v170h92v-170h166v-92h-166v-171z" />
    <glyph glyph-name="less.osf" horiz-adv-x="530" 
d="M73 317l384 184v-100l-272 -125l272 -126v-100l-384 184v83z" />
    <glyph glyph-name="greater.osf" horiz-adv-x="530" 
d="M73 401v100l384 -184v-83l-384 -184v100l272 126z" />
    <glyph glyph-name="lessequal.osf" horiz-adv-x="530" 
d="M73 376l384 164v-96l-261 -107l261 -107v-95l-384 163v78zM457 0h-384v87h384v-87z" />
    <glyph glyph-name="greaterequal.osf" horiz-adv-x="530" 
d="M73 444v96l384 -164v-78l-384 -163v95l261 107zM457 0h-384v87h384v-87z" />
    <glyph glyph-name="equal.osf" horiz-adv-x="530" 
d="M467 326h-404v90h404v-90zM467 136h-404v89h404v-89z" />
    <glyph glyph-name="notequal.osf" horiz-adv-x="530" 
d="M467 416v-90h-149l-34 -101h183v-89h-212l-34 -101h-72l34 101h-120v89h149l34 101h-183v90h213l33 100h72l-33 -100h119z" />
    <glyph glyph-name="asciitilde.osf" horiz-adv-x="530" 
d="M48 208q0 67 31.5 108.5t91.5 41.5q34 0 58 -11t56 -32q23 -16 38.5 -23t32.5 -7q26 0 36.5 17.5t10.5 55.5h79v-15q0 -67 -31.5 -108t-91.5 -41q-34 0 -58 11t-56 32q-23 15 -38.5 22.5t-32.5 7.5q-26 0 -36.5 -17.5t-10.5 -55.5h-79v14z" />
    <glyph glyph-name="approxequal.osf" horiz-adv-x="530" 
d="M53 307q0 56 31.5 93.5t89.5 37.5q31 0 54 -8.5t52 -25.5q24 -13 39 -19t33 -6q49 0 49 59h76v-11q0 -57 -31.5 -94.5t-89.5 -37.5q-31 0 -54 8.5t-52 25.5q-23 13 -38.5 19.5t-33.5 6.5q-49 0 -49 -60h-76v12zM53 125q0 57 31.5 94.5t89.5 37.5q31 0 54 -8.5t52 -25.5
q23 -13 38.5 -19.5t33.5 -6.5q49 0 49 60h76v-12q0 -57 -31.5 -94.5t-89.5 -37.5q-31 0 -54 8.5t-52 25.5q-23 13 -38.5 19.5t-33.5 6.5q-49 0 -49 -60h-76v12z" />
    <glyph glyph-name="logicalnot.osf" horiz-adv-x="530" 
d="M467 143h-88v113h-316v92h404v-205z" />
    <glyph glyph-name="plusminus.osf" horiz-adv-x="530" 
d="M311 128h-92v162h-161v90h161v162h92v-162h161v-90h-161v-162zM472 0h-414v89h414v-89z" />
    <glyph glyph-name="multiply.osf" horiz-adv-x="530" 
d="M265 214l-132 -133l-63 63l133 132l-133 132l63 62l132 -132l132 132l63 -62l-133 -132l133 -132l-63 -63z" />
    <glyph glyph-name="divide.osf" horiz-adv-x="530" 
d="M217.5 412.5q-19.5 19.5 -19.5 47.5t19.5 48t47.5 20t47.5 -20t19.5 -48t-19.5 -47.5t-47.5 -19.5t-47.5 19.5zM472 231h-414v89h414v-89zM217.5 43.5q-19.5 19.5 -19.5 47.5t19.5 47.5t47.5 19.5t47.5 -19.5t19.5 -47.5t-19.5 -47.5t-47.5 -19.5t-47.5 19.5z" />
    <glyph glyph-name="uni0308.alt" horiz-adv-x="0" 
d="M-378 606.5q-19 19.5 -19 48.5t19 48t47 19t47 -19.5t19 -47.5q0 -29 -19 -48.5t-47 -19.5t-47 19.5zM-191 606.5q-19 19.5 -19 48.5q0 28 19 47.5t47 19.5t47 -19.5t19 -47.5q0 -29 -19 -48.5t-47 -19.5t-47 19.5z" />
    <glyph glyph-name="uni0308.alt_uni0069.alt" horiz-adv-x="0" 
d="M-346.5 606.5q-19.5 19.5 -19.5 48.5t19 48t48 19q28 0 47 -19.5t19 -47.5q0 -29 -19 -48.5t-47 -19.5t-47.5 19.5zM-163 606.5q-19 19.5 -19 48.5q0 28 19 47.5t47 19.5t47.5 -19.5t19.5 -47.5q0 -29 -19.5 -48.5t-47.5 -19.5t-47 19.5z" />
    <glyph glyph-name="uni0308.case" horiz-adv-x="0" 
d="M-398 779.5q-19 19.5 -19 48.5t19 48.5t47 19.5t47 -19.5t19 -48.5t-19 -48.5t-47 -19.5t-47 19.5zM-196 779.5q-19 19.5 -19 48.5t19 48.5t47 19.5t47 -19.5t19 -48.5t-19 -48.5t-47 -19.5t-47 19.5z" />
    <glyph glyph-name="uni0307.alt" horiz-adv-x="0" 
d="M-206 604.5q-21 20.5 -21 51.5t21 51.5t51 20.5t51 -20.5t21 -51.5t-21 -51.5t-51 -20.5t-51 20.5z" />
    <glyph glyph-name="uni0307.case" horiz-adv-x="0" 
d="M-189 779.5q-20 20.5 -20 48.5q0 29 20 49t49 20q28 0 48.5 -20t20.5 -49q0 -28 -20.5 -48.5t-48.5 -20.5q-29 0 -49 20.5z" />
    <glyph glyph-name="gravecomb.alt" horiz-adv-x="0" 
d="M-70 584h-86l-99 148h122z" />
    <glyph glyph-name="gravecomb.case" horiz-adv-x="0" 
d="M-85 762h-91l-109 128h134z" />
    <glyph glyph-name="acutecomb.alt" horiz-adv-x="0" 
d="M-169 584h-86l64 148h121z" />
    <glyph glyph-name="acutecomb.case" horiz-adv-x="0" 
d="M-194 762h-91l66 128h134z" />
    <glyph glyph-name="uni030B.case" horiz-adv-x="0" 
d="M-331 762h-78l62 128h107zM-184 762h-79l61 128h111z" />
    <glyph glyph-name="uni0302.alt" horiz-adv-x="0" 
d="M-286 584h-94l99 148h107l99 -148h-95l-54 85h-7z" />
    <glyph glyph-name="uni0302.case" horiz-adv-x="0" 
d="M-311 762h-105l115 128h107l115 -128h-105l-60 69h-7z" />
    <glyph glyph-name="uni030C.alt" horiz-adv-x="0" 
d="M-102 539h-69l8 161h95z" />
    <glyph glyph-name="uni030C.case" horiz-adv-x="0" 
d="M-194 762h-107l-115 128h105l60 -69h7l60 69h105z" />
    <glyph glyph-name="uni0306.alt" horiz-adv-x="0" 
d="M-313 622q-39 38 -39 100h82q0 -30 15.5 -46.5t45.5 -16.5q29 0 44.5 16.5t15.5 46.5h82q0 -62 -39 -100t-103 -38q-65 0 -104 38z" />
    <glyph glyph-name="uni0306.case" horiz-adv-x="0" 
d="M-335 797q-42 35 -45 89h82q2 -22 21.5 -35.5t51.5 -13.5t51.5 13.5t21.5 35.5h82q-3 -54 -44.5 -89t-110.5 -35q-68 0 -110 35z" />
    <glyph glyph-name="brevecombcy" horiz-adv-x="0" 
d="M-338.5 622q-42.5 38 -42.5 100h88q0 -31 17.5 -48t51.5 -17t51.5 17t17.5 48h88q0 -62 -42.5 -100t-114.5 -38t-114.5 38z" />
    <glyph glyph-name="brevecombcy.case" horiz-adv-x="0" 
d="M-393 795.5q-49 38.5 -51 100.5h97q2 -30 24.5 -47t62.5 -17t62.5 17t24.5 47h97q-2 -62 -51 -100.5t-133 -38.5t-133 38.5z" />
    <glyph glyph-name="uni030A.case" horiz-adv-x="0" 
d="M-239 774.5q-29 27.5 -29 70.5q0 42 29 69.5t74 27.5t74 -27.5t29 -69.5q0 -43 -29 -70.5t-74 -27.5t-74 27.5zM-137.5 816.5q10.5 10.5 10.5 28.5q0 17 -10.5 27.5t-27.5 10.5t-27.5 -10.5t-10.5 -27.5q0 -18 10.5 -28.5t27.5 -10.5t27.5 10.5z" />
    <glyph glyph-name="tildecomb.alt" horiz-adv-x="0" 
d="M-348 602q0 53 22 84t62 31q22 0 38.5 -8t35.5 -23q12 -9 20 -13.5t15 -4.5q14 0 20 12t6 37h67v-13q0 -53 -22 -84t-62 -31q-23 0 -39 8t-35 23q-12 9 -20 13.5t-15 4.5q-14 0 -20 -12t-6 -37h-67v13z" />
    <glyph glyph-name="tildecomb.case" horiz-adv-x="0" 
d="M-380 773q0 50 23.5 81.5t65.5 31.5q26 0 42.5 -7t37.5 -20q13 -9 22.5 -13.5t21.5 -4.5q16 0 23.5 11t7.5 34h67v-7q0 -53 -23.5 -85t-65.5 -32q-25 0 -43.5 7t-36.5 20q-14 9 -23.5 13.5t-21.5 4.5q-31 0 -31 -45h-66v11z" />
    <glyph glyph-name="uni0304.alt" horiz-adv-x="0" 
d="M-59 612h-272v82h272v-82z" />
    <glyph glyph-name="uni0304.case" horiz-adv-x="0" 
d="M-65 782h-310v82h310v-82z" />
    <glyph glyph-name="foundryicon" horiz-adv-x="1418" 
d="M146 230h-35v199h-71v31h178v-31h-72v-199zM807 230h-35v199h-71v31h178v-31h-72v-199zM378 169v224h24l9 -19q19 22 48 22q32 0 54.5 -25t22.5 -59q0 -36 -22.5 -60.5t-54.5 -24.5q-29 0 -47 21v-79h-34zM586 251.5q-23 24.5 -23 60.5q0 35 23 59.5t55 24.5t54 -24.5
t22 -58.5q0 -8 -1 -15h-119q2 -17 14.5 -29t29.5 -12q27 0 37 17h35q-9 -22 -28.5 -34.5t-43.5 -12.5q-32 0 -55 24.5zM1039 169v224h24l9 -19q19 22 48 22q32 0 54.5 -25t22.5 -59q0 -36 -22.5 -60.5t-54.5 -24.5q-29 0 -47 21v-79h-34zM1247 251.5q-23 24.5 -23 60.5
q0 35 23 59.5t55 24.5t54 -24.5t22 -58.5q0 -8 -1 -15h-119q2 -17 14.5 -29t29.5 -12q27 0 37 17h35q-9 -22 -28.5 -34.5t-43.5 -12.5q-32 0 -55 24.5zM218 170v28q23 0 31 20l6 16l-63 159h37l44 -116l44 116h37l-75 -185q-16 -39 -51 -39q-7 0 -10 1zM879 170v28
q23 0 31 20l6 16l-63 159h37l44 -116l44 116h37l-75 -185q-16 -39 -51 -39q-7 0 -10 1zM685 325q-1 17 -14.5 28.5t-29.5 11.5t-29 -11t-15 -29h88zM1346 325q-1 17 -14.5 28.5t-29.5 11.5t-29 -11t-15 -29h88zM489 274q14 16 14 38q0 21 -14 36.5t-33 15.5t-33 -15.5
t-14 -36.5q0 -22 13.5 -38t33.5 -16q19 0 33 16zM1150 274q14 16 14 38q0 21 -14 36.5t-33 15.5t-33 -15.5t-14 -36.5q0 -22 13.5 -38t33.5 -16q19 0 33 16z" />
    <glyph glyph-name="logo" horiz-adv-x="736" 
d="M160 11q-23 4 -31.5 14t-10.5 34q-18 223 -18 409q0 141 2 182q0 18 7.5 27t28.5 12q70 7 114.5 9t115.5 2t115.5 -2t114.5 -9q21 -3 28.5 -12t7.5 -27q2 -41 2 -182q0 -186 -18 -409q-2 -24 -10.5 -34t-31.5 -14q-86 -11 -208 -11t-208 11zM368 197h62q21 0 22 21
q2 28 2 40q2 28 4 79q1 35 1 121q0 16 5 22t20 7l129 10q0 100 -3 146q-1 14 -3 18.5t-7 5.5l-149 -28q-6 4 -83 4t-83 -4l-149 28q-5 -1 -7 -5.5t-3 -18.5q-3 -46 -3 -146l129 -10q15 -1 20 -7t5 -22q0 -86 1 -121q2 -51 4 -79q0 -12 2 -40q2 -21 22 -21h62zM580 38
q8 1 11.5 7t4.5 20q13 178 17 414q0 4 -5 4l-99 -13q-4 -1 -5.5 -3t-3.5 -9q-8 -63 -21 -211l-4 -44q-2 -16 -9.5 -21.5t-27.5 -5.5l-70 -1l-70 1q-20 0 -27.5 5.5t-9.5 21.5l-4 44q-13 148 -21 211q-2 7 -3.5 9t-5.5 3l-99 13q-5 0 -5 -4q4 -236 17 -414q1 -14 4.5 -20
t11.5 -7q67 -12 212 -12t212 12zM222 81l-0.5 0.5l-0.5 0.5v42l-0.5 0.5l-0.5 0.5h-25q-2 0 -4 3l-2 3q-3 4 1 4h79q4 0 1 -4l-2 -3q-2 -3 -4 -3h-26l-0.5 -0.5l-0.5 -0.5v-42l-0.5 -0.5l-0.5 -0.5h-14zM273 81q-4 0 -1 4l31 47q2 3 4 3h13q2 0 4 -3l31 -47q3 -4 -1 -4h-12
q-2 0 -5 4l-6 10q-1 2 -5 2h-25q-4 0 -5 -2l-6 -10q-3 -4 -5 -4h-12zM374 81l-0.5 0.5l-0.5 0.5v52l0.5 0.5l0.5 0.5h13q2 0 7 -4l41 -34q2 -2 2 1v36l0.5 0.5l0.5 0.5h14l0.5 -0.5l0.5 -0.5v-52l-0.5 -0.5l-0.5 -0.5h-13q-2 0 -7 4l-41 34q-2 2 -2 -1v-36l-0.5 -0.5
l-0.5 -0.5h-14zM478 81l-0.5 0.5l-0.5 0.5v52l0.5 0.5l0.5 0.5h14l0.5 -0.5l0.5 -0.5v-22q0 -3 3 -1l28 19q8 5 9 5h15q1 0 1.5 -0.5t-0.5 -1.5l-30 -19q-2 -1 -2 -2t1 -2l32 -27q2 -2 -1 -2h-12q-2 0 -8 5l-20 17q-2 2 -4 1l-9 -5q-3 -2 -3 -4v-13l-0.5 -0.5l-0.5 -0.5h-14
zM321 105q3 0 1 3l-6 9q-2 4 -5 0l-6 -9q-2 -3 1 -3h15z" />
    <glyph glyph-name="logo_2" horiz-adv-x="856" 
d="M756 -50h-656v800h656v-800zM636 11q23 4 31.5 14t10.5 34q18 223 18 409q0 141 -2 182q0 18 -7.5 27t-28.5 12q-70 7 -114.5 9t-115.5 2t-115.5 -2t-114.5 -9q-21 -3 -28.5 -12t-7.5 -27q-2 -41 -2 -182q0 -186 18 -409q2 -24 10.5 -34t31.5 -14q86 -11 208 -11t208 11z
M344 218q-2 28 -2 40q-2 28 -4 79q-1 35 -1 121q0 16 -5 22t-20 7l-129 10q0 100 3 146q1 14 3 18.5t7 5.5l149 -28q6 4 83 4t83 -4l149 28q5 -1 7 -5.5t3 -18.5q3 -46 3 -146l-129 -10q-15 -1 -20 -7t-5 -22q0 -86 -1 -121q-2 -51 -4 -79q0 -12 -2 -40q-1 -21 -22 -21h-62
h-62q-20 0 -22 21zM216 38q-8 1 -11.5 7t-4.5 20q-13 178 -17 414q0 4 5 4l99 -13q4 -1 5.5 -3t3.5 -9q8 -63 21 -211l4 -44q2 -16 9.5 -21.5t27.5 -5.5l70 -1l70 1q20 0 27.5 5.5t9.5 21.5l4 44q13 148 21 211q2 7 3.5 9t5.5 3l99 13q5 0 5 -4q-4 -236 -17 -414
q-1 -14 -4.5 -20t-11.5 -7q-67 -12 -212 -12t-212 12zM296 81l0.5 0.5l0.5 0.5v42l0.5 0.5l0.5 0.5h26q2 0 4 3l2 3q3 4 -1 4h-79q-4 0 -1 -4l2 -3q2 -3 4 -3h25l0.5 -0.5l0.5 -0.5v-42l0.5 -0.5l0.5 -0.5h14zM345 81q2 0 5 4l6 10q1 2 5 2h25q4 0 5 -2l6 -10q3 -4 5 -4h12
q4 0 1 4l-31 47q-2 3 -4 3h-13q-2 0 -4 -3l-31 -47q-3 -4 1 -4h12zM448 81l0.5 0.5l0.5 0.5v36q0 3 2 1l41 -34q5 -4 7 -4h13l0.5 0.5l0.5 0.5v52l-0.5 0.5l-0.5 0.5h-14l-0.5 -0.5l-0.5 -0.5v-36q0 -3 -2 -1l-41 34q-5 4 -7 4h-13l-0.5 -0.5l-0.5 -0.5v-52l0.5 -0.5
l0.5 -0.5h14zM552 81l0.5 0.5l0.5 0.5v13q0 2 3 4l9 5q2 1 4 -1l20 -17q6 -5 8 -5h12q3 0 1 2l-32 27q-1 1 -1 2t2 2l30 19q1 1 0.5 1.5t-1.5 0.5h-15q-1 0 -9 -5l-28 -19q-3 -2 -3 1v22l-0.5 0.5l-0.5 0.5h-14l-0.5 -0.5l-0.5 -0.5v-52l0.5 -0.5l0.5 -0.5h14zM366 105
q-3 0 -1 3l6 9q3 4 5 0l6 -9q2 -3 -1 -3h-15z" />
    </font>
</defs>
</svg>
